<svg xmlns="http://www.w3.org/2000/svg" width="64" height="65" viewBox="0 0 64 65" fill="none">
  <path d="M47.7865 18.1533C47.5159 17.5017 46.9981 16.9839 46.3465 16.7133C46.0259 16.5767 45.6816 16.5042 45.3332 16.5H18.6665C17.9593 16.5 17.281 16.781 16.7809 17.281C16.2808 17.7811 15.9998 18.4594 15.9998 19.1667C15.9998 19.8739 16.2808 20.5522 16.7809 21.0523C17.281 21.5524 17.9593 21.8333 18.6665 21.8333H38.9065L16.7732 43.94C16.5232 44.1879 16.3248 44.4828 16.1895 44.8078C16.0541 45.1328 15.9844 45.4813 15.9844 45.8333C15.9844 46.1854 16.0541 46.5339 16.1895 46.8589C16.3248 47.1838 16.5232 47.4788 16.7732 47.7267C17.0211 47.9766 17.316 48.175 17.641 48.3104C17.9659 48.4458 18.3145 48.5155 18.6665 48.5155C19.0185 48.5155 19.3671 48.4458 19.692 48.3104C20.017 48.175 20.3119 47.9766 20.5598 47.7267L42.6665 25.5933V45.8333C42.6665 46.5406 42.9475 47.2189 43.4475 47.719C43.9476 48.219 44.6259 48.5 45.3332 48.5C46.0404 48.5 46.7187 48.219 47.2188 47.719C47.7189 47.2189 47.9998 46.5406 47.9998 45.8333V19.1667C47.9956 18.8182 47.9231 18.4739 47.7865 18.1533Z" fill="#6c9549"/>
</svg>