<svg xmlns="http://www.w3.org/2000/svg" version="1.1" xmlns:xlink="http://www.w3.org/1999/xlink" width="512" height="512" x="0" y="0" viewBox="0 0 24 24" style="enable-background:new 0 0 512 512" xml:space="preserve" class=""><g><path fill="#ac8856" fill-rule="evenodd" d="M12 2a5 5 0 0 0-5 5H5a3 3 0 0 0-3 3v9a3 3 0 0 0 3 3h14a3 3 0 0 0 3-3v-9a3 3 0 0 0-3-3h-1v2h1a1 1 0 0 1 1 1v9a1 1 0 0 1-1 1H5a1 1 0 0 1-1-1v-9a1 1 0 0 1 1-1h2v2a1 1 0 1 0 2 0V9h6v2a1 1 0 1 0 2 0V7a5 5 0 0 0-5-5zm0 2a3 3 0 0 0-3 3h6a3 3 0 0 0-3-3z" clip-rule="evenodd" opacity="1" data-original="#000000" class=""></path></g></svg>