<svg width="246" height="194" viewBox="0 0 246 194" fill="none" xmlns="http://www.w3.org/2000/svg">
<path d="M120.855 1.02345L121 5.90318C121.041 7.31573 118.187 7.38912 118.145 5.97656L118 1.09681C117.959 -0.315741 120.813 -0.389108 120.855 1.02345Z" fill="#DED1BD"/>
<path d="M118.331 12.7906C118.607 11.4521 121.257 11.9453 120.98 13.2838C120.743 14.499 120.663 15.7142 120.762 16.947C120.861 18.3031 118.113 18.3736 118.034 17.0175C117.935 15.6085 118.054 14.1996 118.35 12.7906H118.331Z" fill="#DED1BD"/>
<path d="M121.895 24.0281L122 27.8982C122.041 29.3172 119.147 29.3909 119.105 27.9719L119 24.1018C118.959 22.6828 121.853 22.6091 121.895 24.0281Z" fill="#DED1BD"/>
<path d="M118.081 34.089C117.859 32.6775 120.67 32.6225 120.872 34.0157C121.095 35.4089 121.014 36.7838 120.731 38.177C120.447 39.5703 117.738 39.057 118.021 37.6637C118.263 36.4722 118.243 35.2806 118.061 34.089H118.081Z" fill="#DED1BD"/>
<path d="M117.203 44.1916C117.244 42.657 120.04 42.5773 120 44.1119L119.797 50.8084C119.756 52.343 116.96 52.4227 117 50.8881L117.203 44.1916Z" fill="#DED1BD"/>
<path d="M117.169 57.1312C117.069 55.6744 119.834 55.5987 119.934 57.0555C120.055 59.0043 120.015 60.9342 119.774 62.883C119.594 64.3209 116.828 64.3966 117.008 62.9586C117.249 61.0099 117.309 59.08 117.169 57.1312Z" fill="#DED1BD"/>
<path d="M116.048 75.5848C116.431 73.7914 116.558 71.998 116.449 70.1655C116.358 68.6645 118.869 68.5865 118.96 70.0875C119.088 72.1149 118.906 74.1423 118.469 76.1307C118.141 77.6122 115.703 77.0469 116.03 75.5848H116.048Z" fill="#DED1BD"/>
<path d="M118.835 82.0537L119 87.8708C119.041 89.3251 116.206 89.4006 116.165 87.9463L116 82.1292C115.959 80.6749 118.794 80.5994 118.835 82.0537Z" fill="#DED1BD"/>
<path d="M116.204 95.0931C116.244 93.6853 119.06 93.6122 118.999 95.02C118.938 96.9762 118.857 98.9507 118.796 100.907C118.756 102.315 115.94 102.388 116.001 100.98C116.062 99.0238 116.143 97.0493 116.204 95.0931Z" fill="#DED1BD"/>
<path d="M118.875 107.986L119 111.944C119.041 113.304 116.167 113.375 116.125 112.014L116 108.056C115.959 106.696 118.833 106.625 118.875 107.986Z" fill="#DED1BD"/>
<path d="M117.089 121.15C116.948 119.659 119.724 119.601 119.865 121.073C120.066 123.338 120.046 125.584 119.784 127.849C119.623 129.321 116.827 129.418 117.008 127.927C117.27 125.662 117.29 123.416 117.089 121.15Z" fill="#DED1BD"/>
<path d="M118.915 135.091L119 137.83C119.042 139.337 116.127 139.415 116.085 137.909L116 135.17C115.958 133.663 118.873 133.585 118.915 135.091Z" fill="#DED1BD"/>
<path d="M118.835 144.02L119 149.907C119.041 151.315 116.206 151.388 116.165 149.98L116 144.093C115.959 142.685 118.794 142.612 118.835 144.02Z" fill="#DED1BD"/>
<path d="M118.835 158.054L119 163.871C119.041 165.325 116.206 165.401 116.165 163.946L116 158.129C115.959 156.675 118.794 156.599 118.835 158.054Z" fill="#DED1BD"/>
<path d="M117.106 170.178C117.064 168.661 119.951 168.582 119.971 170.099C120.034 172.68 119.992 175.241 119.868 177.822C119.805 179.339 116.919 179.418 117.002 177.901C117.126 175.32 117.147 172.759 117.106 170.178Z" fill="#DED1BD"/>
<path d="M119.835 185.054L120 190.871C120.041 192.325 117.206 192.401 117.165 190.946L117 185.129C116.959 183.675 119.794 183.599 119.835 185.054Z" fill="#DED1BD"/>
<path d="M110.197 188.18C110.078 186.66 112.83 186.581 112.95 188.101C113.07 189.779 112.97 191.436 112.691 193.114C112.432 194.614 109.758 194.061 110.018 192.561C110.257 191.101 110.297 189.64 110.197 188.18Z" fill="#DED1BD"/>
<path d="M110.51 176.092C110.654 174.695 113.138 174.603 112.994 176.019C112.832 177.655 112.67 179.29 112.49 180.908C112.346 182.305 109.862 182.397 110.006 180.981C110.168 179.345 110.33 177.71 110.51 176.092Z" fill="#DED1BD"/>
<path d="M111.835 163.09L112 168.832C112.041 170.336 109.206 170.414 109.165 168.91L109 163.168C108.959 161.664 111.794 161.586 111.835 163.09Z" fill="#DED1BD"/>
<path d="M109.895 149.074L110 152.849C110.041 154.331 107.147 154.408 107.105 152.926L107 149.151C106.959 147.669 109.853 147.592 109.895 149.074Z" fill="#DED1BD"/>
<path d="M106.223 134.056C106.303 132.696 109.079 132.625 108.998 133.986C108.918 135.311 108.837 136.618 108.777 137.944C108.697 139.304 105.921 139.375 106.002 138.014C106.082 136.689 106.163 135.382 106.223 134.056Z" fill="#DED1BD"/>
<path d="M113.835 3.05367L114 8.87078C114.041 10.3251 111.206 10.4006 111.165 8.94633L111 3.12922C110.959 1.67494 113.794 1.59939 113.835 3.05367Z" fill="#DED1BD"/>
<path d="M113.835 16.0897L114 21.8322C114.041 23.3362 111.206 23.4143 111.165 21.9103L111 16.1678C110.959 14.6638 113.794 14.5857 113.835 16.0897Z" fill="#DED1BD"/>
<path d="M112.835 29.0897L113 34.8322C113.041 36.3362 110.206 36.4143 110.165 34.9103L110 29.1678C109.959 27.6638 112.794 27.5857 112.835 29.0897Z" fill="#DED1BD"/>
<path d="M109.126 43.1788C109.007 41.6607 111.756 41.5818 111.875 43.0999C112.075 45.6826 112.035 48.2457 111.756 50.8284C111.597 52.3268 108.847 52.4254 109.007 50.9073C109.286 48.3245 109.306 45.7615 109.126 43.1788Z" fill="#DED1BD"/>
<path d="M109.778 56.0436L110 63.8816C110.04 65.322 107.262 65.3968 107.222 63.9564L107 56.1184C106.96 54.678 109.738 54.6032 109.778 56.0436Z" fill="#DED1BD"/>
<path d="M110.875 73.1045L111 77.8163C111.041 79.3407 108.167 79.4199 108.125 77.8955L108 73.1837C107.959 71.6593 110.833 71.5801 110.875 73.1045Z" fill="#DED1BD"/>
<path d="M108.797 87.1013L109 94.8198C109.04 96.3398 106.244 96.4187 106.203 94.8987L106 87.1803C105.96 85.6602 108.756 85.5813 108.797 87.1013Z" fill="#DED1BD"/>
<path d="M109.835 103.09L110 108.832C110.041 110.336 107.206 110.414 107.165 108.91L107 103.168C106.959 101.664 109.794 101.586 109.835 103.09Z" fill="#DED1BD"/>
<path d="M106.106 117.117C106.005 115.678 108.781 115.604 108.881 117.042C109.062 119.658 109.042 122.274 108.781 124.89C108.64 126.31 105.864 126.403 106.005 124.964C106.267 122.349 106.307 119.733 106.106 117.117Z" fill="#DED1BD"/>
<path d="M103.295 4.18897C103.374 2.65774 106.077 2.57819 105.998 4.10942C105.9 6.33667 105.802 8.5639 105.705 10.811C105.626 12.3423 102.923 12.4218 103.002 10.8906C103.1 8.66333 103.198 6.4361 103.295 4.18897Z" fill="#DED1BD"/>
<path d="M101.132 18.1647C101.011 16.6647 103.801 16.5868 103.922 18.0868C104.084 20.1127 103.983 22.1191 103.72 24.1255C103.518 25.606 100.809 25.0605 101.011 23.5801C101.253 21.7879 101.274 19.9763 101.132 18.1647Z" fill="#DED1BD"/>
<path d="M103.797 32.0193L104 38.9076C104.04 40.3145 101.244 40.3876 101.203 38.9807L101 32.0924C100.96 30.6855 103.756 30.6124 103.797 32.0193Z" fill="#DED1BD"/>
<path d="M99.2402 48.1441C99.4395 46.6713 102.189 46.5938 101.99 48.0666C101.691 50.3338 101.651 52.5816 101.89 54.8488C102.03 56.341 99.2801 56.3991 99.1406 54.9264C98.9215 52.6591 98.9613 50.4113 99.2402 48.1441Z" fill="#DED1BD"/>
<path d="M99.1251 62.1117C99.1251 60.68 102.021 60.6056 102 62.0374C101.958 64.9939 101.917 67.9318 101.875 70.8883C101.875 72.32 98.9793 72.3944 99.0001 70.9626C99.0418 68.0061 99.0834 65.0682 99.1251 62.1117Z" fill="#DED1BD"/>
<path d="M97.2432 80.141C97.4025 78.6818 100.171 78.5857 99.9917 80.0642C99.6929 82.6562 99.673 85.2482 99.912 87.8594C100.051 89.3378 97.303 89.3954 97.1636 87.9362C96.9246 85.3442 96.9445 82.7522 97.2432 80.141Z" fill="#DED1BD"/>
<path d="M98.0638 97.158C97.9823 95.6667 100.795 95.5892 100.876 97.0805C101.06 100.334 101.039 103.588 100.815 106.842C100.713 108.333 97.9008 108.411 98.0027 106.919C98.2269 103.666 98.2473 100.412 98.0638 97.158Z" fill="#DED1BD"/>
<path d="M96.0243 120.627C96.3911 118.8 96.5194 116.972 96.4461 115.126C96.3911 113.676 98.9218 113.6 98.9768 115.051C99.0685 117.104 98.8851 119.139 98.4817 121.154C98.1882 122.586 95.7309 122.059 96.0243 120.627Z" fill="#DED1BD"/>
<path d="M99.8352 130.054L99.9996 135.871C100.041 137.325 97.2059 137.401 97.1648 135.946L97.0004 130.129C96.9594 128.675 99.7941 128.599 99.8352 130.054Z" fill="#DED1BD"/>
<path d="M97.0124 144.138C96.7941 142.673 99.5328 142.596 99.7511 144.061C100.108 146.432 100.069 148.764 99.7114 151.135C99.4931 152.6 96.8338 152.06 97.0521 150.595C97.3696 148.436 97.3299 146.297 97.0124 144.138Z" fill="#DED1BD"/>
<path d="M98.1841 159.192C98.2249 157.657 101.04 157.577 101 159.112C100.938 161.344 100.877 163.576 100.816 165.808C100.775 167.343 97.9596 167.423 98.0004 165.888C98.0616 163.656 98.1229 161.424 98.1841 159.192Z" fill="#DED1BD"/>
<path d="M99.2725 174.556C99.2725 174.556 99.1361 174.382 99.0972 174.246C98.8829 173.491 98.9998 172.891 99.6815 172.329C100.48 171.671 102.038 172.039 101.999 173.084C101.941 175.331 101.863 177.596 101.805 179.842C101.766 181.333 99.0777 181.411 99.1167 179.92C99.1751 178.138 99.2335 176.338 99.2725 174.556Z" fill="#DED1BD"/>
<path d="M99.1998 187.092C99.0802 185.676 101.831 185.621 101.95 187.019C102.07 188.416 101.97 189.795 101.691 191.175C101.412 192.572 98.7414 192.057 99.0204 190.66C99.2596 189.464 99.2994 188.288 99.1998 187.092Z" fill="#DED1BD"/>
<path d="M90.0438 185.544C90.4939 183.769 90.6199 182.014 90.4219 180.198C90.2598 178.645 92.7445 178.585 92.9065 180.118C93.1226 182.135 92.9606 184.132 92.4564 186.109C92.0603 187.622 89.6477 187.057 90.0438 185.544Z" fill="#DED1BD"/>
<path d="M91.0241 173.551C91.4253 171.443 91.553 169.336 91.4436 167.189C91.3706 165.658 93.8871 165.578 93.9601 167.109C94.0877 169.455 93.9054 171.801 93.4677 174.107C93.176 175.618 90.7324 175.062 91.0241 173.551Z" fill="#DED1BD"/>
<path d="M90.0266 151.491C89.7095 150.041 92.3255 149.346 92.6426 150.814C93.0984 152.92 93.1182 155.007 92.7021 157.133C92.4048 158.601 89.7491 158.06 90.0464 156.592C90.3833 154.911 90.4031 153.191 90.0464 151.51L90.0266 151.491Z" fill="#DED1BD"/>
<path d="M89.0336 141.677C89.4901 139.818 89.5814 137.978 89.344 136.083C89.1614 134.679 91.6814 134.625 91.8641 136.01C92.138 138.087 91.9919 140.146 91.4806 142.187C91.1336 143.572 88.6866 143.044 89.0336 141.677Z" fill="#DED1BD"/>
<path d="M90.7969 119.019L90.9996 125.908C91.0401 127.314 88.2436 127.388 88.2031 125.981L88.0004 119.092C87.9599 117.686 90.7564 117.612 90.7969 119.019Z" fill="#DED1BD"/>
<path d="M90.8352 104.02L90.9996 109.907C91.0406 111.315 88.2059 111.388 88.1648 109.98L88.0004 104.093C87.9594 102.685 90.7941 102.612 90.8352 104.02Z" fill="#DED1BD"/>
<path d="M90.087 86.0848C89.9465 84.6787 92.7363 84.6239 92.8567 86.0118C93.0775 88.3128 93.0373 90.6138 92.7764 92.9148C92.6159 94.3027 89.8462 94.394 90.0067 92.9878C90.2877 90.6868 90.3078 88.3858 90.087 86.0848Z" fill="#DED1BD"/>
<path d="M89.0304 77.5957C89.5257 75.4485 89.5807 73.3012 89.2689 71.1347C89.0488 69.6645 91.5802 69.6064 91.8003 71.0573C92.1489 73.4366 92.0388 75.7967 91.4885 78.1373C91.1583 79.6075 88.7003 79.0465 89.0304 77.5957Z" fill="#DED1BD"/>
<path d="M89.0102 56.0522C88.8139 54.6883 91.522 54.6352 91.7183 55.9814C91.9538 57.6287 92.0519 59.276 91.9734 60.941C91.9145 62.3049 89.2064 62.3757 89.2653 61.0118C89.3438 59.3468 89.2653 57.6995 89.0102 56.0522Z" fill="#DED1BD"/>
<path d="M90.3326 38.112C90.2383 36.6799 92.8591 36.6055 92.9345 38.0376C93.1042 40.7529 92.9345 43.4497 92.5385 46.1651C92.3311 47.5785 89.8047 47.0578 90.0121 45.6443C90.3892 43.1335 90.4834 40.6414 90.3326 38.112Z" fill="#DED1BD"/>
<path d="M93.8352 23.0897L93.9996 28.8322C94.0406 30.3362 91.2059 30.4143 91.1648 28.9103L91.0004 23.1678C90.9594 21.6638 93.7941 21.5857 93.8352 23.0897Z" fill="#DED1BD"/>
<path d="M95.8947 6.02812L95.9995 9.89816C96.0415 11.3172 93.1473 11.3909 93.1053 9.97188L93.0005 6.10184C92.9585 4.68282 95.8527 4.60911 95.8947 6.02812Z" fill="#DED1BD"/>
<path d="M83.3413 12.0101C82.9509 11.6366 82.9137 11.1511 83.1368 10.703C83.3041 10.3669 83.6387 10.1428 84.0477 10.0495C84.4567 9.93742 85.0144 10.0121 85.3118 10.3109C86.0554 11.0764 85.8695 12.0474 85.9067 12.9997C85.9438 14.2881 85.9624 15.5765 85.9996 16.8836C86.0368 18.3214 83.4714 18.3961 83.4343 16.9583C83.3971 15.3524 83.5086 13.6532 83.3599 12.0474L83.3413 12.0101Z" fill="#DED1BD"/>
<path d="M83.066 26.1171C82.9444 24.6784 85.7403 24.6037 85.8619 26.0424C86.0645 28.6581 86.0442 31.2739 85.8011 33.8897C85.6593 35.3097 82.8634 35.4031 83.0052 33.9644C83.2483 31.3487 83.2686 28.7329 83.066 26.1171Z" fill="#DED1BD"/>
<path d="M82.2035 40.1837C82.2643 38.6593 85.0598 38.5801 84.999 40.1045C84.9383 41.6685 84.8572 43.2523 84.7965 44.8163C84.7357 46.3407 81.9402 46.4199 82.001 44.8955C82.0617 43.3315 82.1428 41.7477 82.2035 40.1837Z" fill="#DED1BD"/>
<path d="M81.4143 50.1558C81.5079 48.6673 84.0911 48.59 83.9975 50.0784C83.8665 52.3402 83.7167 54.6019 83.5857 56.8442C83.4921 58.3327 80.9089 58.41 81.0025 56.9216C81.1335 54.6598 81.2833 52.3981 81.4143 50.1558Z" fill="#DED1BD"/>
<path d="M81.1648 65.1678C81.2059 63.6638 84.0406 63.5857 83.9996 65.0897C83.9379 67.0039 83.8763 68.918 83.8352 70.8322C83.7941 72.3362 80.9594 72.4143 81.0004 70.9103C81.0621 68.9961 81.1237 67.082 81.1648 65.1678Z" fill="#DED1BD"/>
<path d="M80.0122 81.1205C79.7967 79.6687 82.5007 79.6114 82.7162 81.0441C82.9709 82.6487 83.0493 84.2533 82.9709 85.8579C82.8925 87.3288 80.1886 87.4052 80.2669 85.9343C80.3453 84.3106 80.2669 82.7251 80.0122 81.1205Z" fill="#DED1BD"/>
<path d="M80.1515 94.099C80.0305 92.6836 82.8322 92.6101 82.933 94.0255C83.0539 95.6614 83.0136 97.2789 82.7919 98.9148C82.6105 100.312 79.8088 100.385 80.0104 98.9883C80.2321 97.3524 80.2724 95.7349 80.1515 94.099Z" fill="#DED1BD"/>
<path d="M82.8548 106.023L82.9996 110.903C83.0409 112.316 80.1866 112.389 80.1452 110.977L80.0004 106.097C79.9591 104.684 82.8134 104.611 82.8548 106.023Z" fill="#DED1BD"/>
<path d="M80.0302 123.555C80.4851 121.444 80.5943 119.333 80.3941 117.183C80.2485 115.65 82.7595 115.59 82.9051 117.103C83.1235 119.453 82.9597 121.802 82.4684 124.112C82.1409 125.625 79.7027 125.048 80.0302 123.555Z" fill="#DED1BD"/>
<path d="M83.5857 130.078C83.7167 132.34 83.8665 134.583 83.9975 136.844C84.0911 138.333 81.5079 138.41 81.4143 136.922C81.2833 134.66 81.1335 132.417 81.0025 130.156C80.9089 128.667 83.4921 128.59 83.5857 130.078Z" fill="#DED1BD"/>
<path d="M81.2876 142.819C81.4892 141.432 84.1909 141.943 83.9893 143.33C83.707 145.192 83.707 147.054 83.9086 148.916C84.0497 150.321 81.2674 150.376 81.1263 148.989C80.9045 146.926 80.9851 144.882 81.2876 142.819Z" fill="#DED1BD"/>
<path d="M82.51 155.092C82.654 153.695 85.138 153.603 84.994 155.019C84.832 156.655 84.67 158.29 84.49 159.908C84.346 161.305 81.862 161.397 82.006 159.981C82.168 158.345 82.33 156.71 82.51 155.092Z" fill="#DED1BD"/>
<path d="M84.8746 168.986L84.9996 172.944C85.0412 174.304 82.1671 174.375 82.1254 173.014L82.0004 169.056C81.9588 167.696 84.8329 167.625 84.8746 168.986Z" fill="#DED1BD"/>
<path d="M83.8947 183.028L83.9995 186.898C84.0415 188.317 81.1473 188.391 81.1053 186.972L81.0005 183.102C80.9585 181.683 83.8527 181.609 83.8947 183.028Z" fill="#DED1BD"/>
<path d="M78.8352 7.05367L78.9996 12.8708C79.0406 14.3251 76.2059 14.4006 76.1648 12.9463L76.0004 7.12922C75.9594 5.67494 78.7941 5.59939 78.8352 7.05367Z" fill="#DED1BD"/>
<path d="M76.4788 18.1628C76.6065 16.6757 79.123 16.5778 78.9953 18.0845C78.8312 20.0021 78.6853 21.9197 78.5212 23.8372C78.3935 25.3243 75.877 25.4222 76.0047 23.9155C76.1688 21.9979 76.3147 20.0803 76.4788 18.1628Z" fill="#DED1BD"/>
<path d="M75.0065 29.1493C74.8504 27.6596 77.5429 27.6016 77.699 29.0719C77.9331 31.3161 78.0307 33.5797 77.9916 35.8433C77.9526 37.333 75.2602 37.4104 75.2992 35.9207C75.3577 33.6571 75.2602 31.4129 75.0065 29.1493Z" fill="#DED1BD"/>
<path d="M74.0272 43.1859C73.8845 41.6487 76.6988 41.5889 76.8416 43.1061C77.0659 45.3419 77.0455 47.5778 76.8212 49.8137C76.6581 51.3309 73.8437 51.4307 74.0068 49.8935C74.2516 47.6577 74.2516 45.4218 74.0272 43.1859Z" fill="#DED1BD"/>
<path d="M74.4747 57.2583C74.5473 56.5889 74.9647 56.0411 75.7087 56.0005C76.3257 55.9803 77.0516 56.528 76.9971 57.1772C76.8338 58.6987 76.6705 60.2202 76.5253 61.7417C76.4527 62.4111 76.0353 62.9589 75.2913 62.9995C74.6743 63.0197 73.9484 62.472 74.0029 61.8228C74.1662 60.3013 74.3295 58.7798 74.4747 57.2583Z" fill="#DED1BD"/>
<path d="M73.2223 69.1678C73.2827 67.6638 76.0594 67.5857 75.999 69.0897C75.9185 71.0038 75.8582 72.918 75.7777 74.8322C75.7173 76.3362 72.9406 76.4143 73.001 74.9103C73.0815 72.9962 73.1418 71.082 73.2223 69.1678Z" fill="#DED1BD"/>
<path d="M72.1736 82.1352C72.0731 80.6732 74.8453 80.5973 74.9458 82.0592C75.0663 83.768 74.9859 85.4578 74.7047 87.1476C74.4837 88.5906 71.7919 88.059 72.0129 86.616C72.2539 85.1351 72.274 83.6351 72.1535 82.1352H72.1736Z" fill="#DED1BD"/>
<path d="M74.8352 92.0897L74.9996 97.8322C75.0406 99.3362 72.2059 99.4143 72.1648 97.9103L72.0004 92.1678C71.9594 90.6638 74.7941 90.5857 74.8352 92.0897Z" fill="#DED1BD"/>
<path d="M71.1648 105.122C71.2059 103.677 74.0406 103.602 73.9996 105.047C73.9379 107.318 73.8968 109.607 73.8352 111.878C73.7941 113.323 70.9594 113.398 71.0004 111.953C71.0621 109.682 71.1031 107.393 71.1648 105.122Z" fill="#DED1BD"/>
<path d="M73.8548 119.062L73.9996 123.861C74.0409 125.328 71.1866 125.404 71.1452 123.938L71.0004 119.139C70.9591 117.672 73.8134 117.596 73.8548 119.062Z" fill="#DED1BD"/>
<path d="M74.4621 130.019C74.6403 132.322 74.8184 134.605 74.9966 136.908C75.1035 138.314 72.6448 138.388 72.5379 136.981C72.3597 134.678 72.1816 132.395 72.0034 130.092C71.8965 128.686 74.3552 128.612 74.4621 130.019Z" fill="#DED1BD"/>
<path d="M73.8352 145.09L73.9996 150.832C74.0406 152.336 71.2059 152.414 71.1648 150.91L71.0004 145.168C70.9594 143.664 73.7941 143.586 73.8352 145.09Z" fill="#DED1BD"/>
<path d="M72.2031 159.122C72.2436 157.677 75.0401 157.602 74.9996 159.047C74.9388 161.318 74.8577 163.607 74.7969 165.878C74.7564 167.323 71.9599 167.398 72.0004 165.953C72.0612 163.682 72.1423 161.393 72.2031 159.122Z" fill="#DED1BD"/>
<path d="M73.4618 172.122C73.5537 170.677 76.0894 170.602 75.9976 172.047C75.8506 174.318 75.6852 176.607 75.5382 178.878C75.4463 180.323 72.9106 180.398 73.0024 178.953C73.1494 176.682 73.3148 174.393 73.4618 172.122Z" fill="#DED1BD"/>
<path d="M74.044 188.679C74.3011 187.837 74.3209 186.995 74.1429 186.135C74.0242 185.55 74.8154 185.019 75.4879 185C76.2988 184.982 76.7735 185.476 76.8922 186.062C77.09 187.105 77.0108 188.167 76.6944 189.192C76.279 190.564 73.6287 190.052 74.044 188.679Z" fill="#DED1BD"/>
<path d="M67.0243 16.53C67.3544 14.7552 67.5011 13.0007 67.4644 11.2058C67.4278 9.6529 69.9587 9.57223 69.9954 11.1251C70.0321 13.1418 69.8487 15.1182 69.4819 17.0946C69.1884 18.6274 66.7308 18.0627 67.0243 16.53Z" fill="#DED1BD"/>
<path d="M69.8548 22.0624L69.9996 26.8614C70.0409 28.3278 67.1866 28.4039 67.1452 26.9376L67.0004 22.1386C66.9591 20.6722 69.8134 20.5961 69.8548 22.0624Z" fill="#DED1BD"/>
<path d="M69.8947 36.1249L69.9995 39.7945C70.0415 41.347 67.1473 41.4277 67.1053 39.8751L67.0005 36.2055C66.9585 34.653 69.8527 34.5723 69.8947 36.1249Z" fill="#DED1BD"/>
<path d="M68.4768 49.0193C68.656 51.3215 68.8174 53.6054 68.9966 55.9076C69.1041 57.3145 66.6307 57.3876 66.5232 55.9807C66.3439 53.6785 66.1826 51.3946 66.0034 49.0924C65.8959 47.6855 68.3693 47.6124 68.4768 49.0193Z" fill="#DED1BD"/>
<path d="M68.8352 65.0897L68.9996 70.8322C69.0406 72.3362 66.2059 72.4143 66.1648 70.9103L66.0004 65.1678C65.9594 63.6638 68.7941 63.5857 68.8352 65.0897Z" fill="#DED1BD"/>
<path d="M66.0473 79.1166C65.9054 77.6693 68.7028 77.6129 68.8447 79.0414C69.0677 81.3157 69.0474 83.6088 68.8042 85.8831C68.642 87.3115 65.8446 87.4055 66.0068 85.9582C66.2703 83.6652 66.2703 81.3909 66.0473 79.1166Z" fill="#DED1BD"/>
<path d="M64.0109 93.1821C63.8086 91.6499 66.6 91.5902 66.8023 93.1025C67.1057 95.4505 67.0451 97.7587 66.7214 100.107C66.4989 101.619 63.8086 101.062 64.0109 99.5496C64.3143 97.4204 64.2738 95.2913 64.0109 93.1821Z" fill="#DED1BD"/>
<path d="M65.8352 107.054L65.9996 112.871C66.0406 114.325 63.2059 114.401 63.1648 112.946L63.0004 107.129C62.9594 105.675 65.7941 105.599 65.8352 107.054Z" fill="#DED1BD"/>
<path d="M65.8352 119.02L65.9996 124.907C66.0406 126.315 63.2059 126.388 63.1648 124.98L63.0004 119.093C62.9594 117.685 65.7941 117.612 65.8352 119.02Z" fill="#DED1BD"/>
<path d="M63.3516 134.18C63.3134 132.66 65.9475 132.581 65.9857 134.101C66.0429 136.685 65.9284 139.27 65.6421 141.835C65.4703 143.335 62.8363 143.414 63.008 141.914C63.2944 139.329 63.4089 136.764 63.3516 134.18Z" fill="#DED1BD"/>
<path d="M62.0066 151.149C61.8499 149.66 64.5525 149.602 64.7092 151.072C64.9442 153.316 65.0421 155.58 64.9833 157.843C64.9638 159.333 62.2416 159.41 62.2807 157.921C62.3199 155.657 62.222 153.413 62.0066 151.149Z" fill="#DED1BD"/>
<path d="M62.1841 164.192C62.2249 162.657 65.0404 162.577 64.9996 164.112C64.9384 166.344 64.8771 168.576 64.8159 170.808C64.7751 172.343 61.9596 172.423 62.0004 170.888C62.0616 168.656 62.1229 166.424 62.1841 164.192Z" fill="#DED1BD"/>
<path d="M66.8352 178.09L66.9996 183.832C67.0406 185.336 64.2059 185.414 64.1648 183.91L64.0004 178.168C63.9594 176.664 66.7941 176.586 66.8352 178.09Z" fill="#DED1BD"/>
<path d="M63.8947 17.1249L63.9995 20.7945C64.0415 22.347 61.1473 22.4277 61.1053 20.8751L61.0005 17.2055C60.9585 15.653 63.8527 15.5723 63.8947 17.1249Z" fill="#DED1BD"/>
<path d="M62.8548 28.0624L62.9996 32.8614C63.0409 34.3278 60.1866 34.4039 60.1452 32.9376L60.0004 28.1386C59.9591 26.6722 62.8134 26.5961 62.8548 28.0624Z" fill="#DED1BD"/>
<path d="M58.0271 41.1859C57.8644 39.6487 60.6922 39.5889 60.8346 41.1061C61.0584 43.3419 61.0584 45.5778 60.8143 47.8137C60.6515 49.3309 57.8441 49.4307 58.0068 47.8935C58.2509 45.6577 58.2509 43.4218 58.0271 41.1859Z" fill="#DED1BD"/>
<path d="M57.005 54.084C56.8684 52.6789 59.5622 52.6242 59.6988 54.0111C59.9331 56.3103 60.0307 58.6097 59.9916 60.909C59.9721 62.3141 57.2588 62.3871 57.2978 60.9819C57.3369 58.6826 57.2393 56.3833 57.005 54.084Z" fill="#DED1BD"/>
<path d="M59.8352 69.02L59.9996 74.9069C60.0406 76.3147 57.2059 76.3878 57.1648 74.98L57.0004 69.0931C56.9594 67.6853 59.7941 67.6122 59.8352 69.02Z" fill="#DED1BD"/>
<path d="M55.2414 85.1837C55.3213 83.6593 58.0782 83.5801 57.9983 85.1045C57.9184 86.6685 57.8385 88.2523 57.7586 89.8163C57.6787 91.3407 54.9218 91.4199 55.0017 89.8955C55.0816 88.3315 55.1615 86.7477 55.2414 85.1837Z" fill="#DED1BD"/>
<path d="M53.4666 97.1394C53.4666 95.672 56 95.5958 56 97.0632C56 99.998 55.8531 102.933 55.5411 105.868C55.3942 107.316 52.8425 107.411 53.0077 105.944C53.3198 103.009 53.4666 100.074 53.4666 97.1394Z" fill="#DED1BD"/>
<path d="M55.7782 113.072L55.9996 120.851C56.0398 122.331 53.2621 122.407 53.2218 120.928L53.0004 113.149C52.9602 111.669 55.7379 111.593 55.7782 113.072Z" fill="#DED1BD"/>
<path d="M53.005 126.14C52.8684 124.662 55.5622 124.605 55.6988 126.063C55.9331 128.653 56.0307 131.243 55.9916 133.853C55.9721 135.33 53.2783 135.407 53.2978 133.93C53.3369 131.32 53.2393 128.73 53.005 126.14Z" fill="#DED1BD"/>
<path d="M53.1449 142.167C53.1656 140.664 56.0206 140.586 55.9999 142.089C55.9585 144.997 55.8964 147.925 55.8551 150.833C55.8344 152.336 52.9794 152.414 53.0001 150.911C53.0415 148.003 53.1036 145.075 53.1449 142.167Z" fill="#DED1BD"/>
<path d="M53.2136 158.09C53.3144 156.686 56.1172 156.613 55.9962 158.017C55.8147 160.315 55.7542 162.612 55.7946 164.91C55.8147 166.314 53.0321 166.387 53.0119 164.983C52.9716 162.685 53.0321 160.388 53.2136 158.09Z" fill="#DED1BD"/>
<path d="M54.045 173.178C53.9422 171.661 56.7786 171.582 56.8814 173.099C57.0458 175.68 57.0458 178.241 56.8403 180.822C56.717 182.339 53.8806 182.418 54.0039 180.901C54.2094 178.32 54.23 175.759 54.045 173.178Z" fill="#DED1BD"/>
<path d="M51.5083 14.1505C51.6165 12.6791 54.1048 12.5823 53.9966 14.0731C53.8343 16.3383 53.672 18.5842 53.4917 20.8495C53.3835 22.3209 50.8952 22.4177 51.0034 20.9269C51.1657 18.6617 51.328 16.4158 51.5083 14.1505Z" fill="#DED1BD"/>
<path d="M51.01 27.087C50.8163 25.678 53.4898 25.6231 53.6836 27.0138C53.9548 28.9718 54.0517 30.9297 53.9742 32.906C53.916 34.3149 51.2425 34.3881 51.3006 32.9791C51.3781 31.0029 51.2813 29.045 51.01 27.087Z" fill="#DED1BD"/>
<path d="M52.8352 41.0897L52.9996 46.8322C53.0406 48.3362 50.2059 48.4143 50.1648 46.9103L50.0004 41.1678C49.9594 39.6638 52.7941 39.5857 52.8352 41.0897Z" fill="#DED1BD"/>
<path d="M51.8352 53.0897L51.9996 58.8322C52.0406 60.3362 49.2059 60.4143 49.1648 58.9103L49.0004 53.1678C48.9594 51.6638 51.7941 51.5857 51.8352 53.0897Z" fill="#DED1BD"/>
<path d="M51.8159 67.1119L51.9996 73.8084C52.0404 75.343 49.2249 75.4227 49.1841 73.8881L49.0004 67.1916C48.9596 65.657 51.7751 65.5773 51.8159 67.1119Z" fill="#DED1BD"/>
<path d="M50.8159 80.1119L50.9996 86.8084C51.0404 88.343 48.2249 88.4227 48.1841 86.8881L48.0004 80.1916C47.9596 78.657 50.7751 78.5773 50.8159 80.1119Z" fill="#DED1BD"/>
<path d="M49.7782 92.0717L49.9996 99.8515C50.0398 101.331 47.2621 101.407 47.2218 99.9283L47.0004 92.1485C46.9602 90.6694 49.7379 90.5925 49.7782 92.0717Z" fill="#DED1BD"/>
<path d="M46.2595 108.143C46.4376 106.672 49.1877 106.594 48.9898 108.066C48.7128 110.331 48.6535 112.577 48.8315 114.842C48.9503 116.333 46.2199 116.411 46.1012 114.92C45.9232 112.654 45.9825 110.408 46.2595 108.143Z" fill="#DED1BD"/>
<path d="M47.8352 125.02L47.9996 130.907C48.0406 132.315 45.2059 132.388 45.1648 130.98L45.0004 125.093C44.9594 123.685 47.7941 123.612 47.8352 125.02Z" fill="#DED1BD"/>
<path d="M47.8352 137.09L47.9996 142.832C48.0406 144.336 45.2059 144.414 45.1648 142.91L45.0004 137.168C44.9594 135.664 47.7941 135.586 47.8352 137.09Z" fill="#DED1BD"/>
<path d="M48.7782 151.044L48.9996 158.882C49.0398 160.322 46.2621 160.397 46.2218 158.956L46.0004 151.118C45.9602 149.678 48.7379 149.603 48.7782 151.044Z" fill="#DED1BD"/>
<path d="M48.4917 167.109C48.654 169.35 48.8343 171.57 48.9966 173.811C49.1048 175.352 46.6165 175.412 46.5083 173.891C46.346 171.65 46.1657 169.43 46.0034 167.189C45.8952 165.648 48.3835 165.588 48.4917 167.109Z" fill="#DED1BD"/>
<path d="M43.1841 20.1558C43.2249 18.6673 46.0404 18.59 45.9996 20.0784L45.8159 26.8442C45.7751 28.3327 42.9596 28.41 43.0004 26.9216L43.1841 20.1558Z" fill="#DED1BD"/>
<path d="M41.6362 33.1324C41.7388 31.674 44.0994 31.5983 43.9967 33.0566C43.7915 36.3333 43.5691 39.6099 43.3638 42.8676C43.2612 44.326 40.9006 44.4017 41.0033 42.9434C41.2085 39.6667 41.4309 36.3901 41.6362 33.1324Z" fill="#DED1BD"/>
<path d="M40.1268 50.091C40.0067 48.6859 42.7893 48.6129 42.8894 50.018C43.0696 52.3172 43.0296 54.6164 42.7693 56.9156C42.6092 58.3025 39.8465 58.3937 40.0067 56.9886C40.2669 54.6894 40.307 52.3902 40.1268 50.091Z" fill="#DED1BD"/>
<path d="M33.1285 40.1936C33.0084 38.6564 35.7695 38.5766 35.8895 40.1137C36.0696 42.3496 36.0296 44.5855 35.7695 46.8214C35.5894 48.3386 32.8284 48.4184 33.0084 46.9012C33.2685 44.6654 33.3085 42.4295 33.1285 40.1936Z" fill="#DED1BD"/>
<path d="M36.5212 25.0869L36.9953 30.8347C37.123 32.3452 34.6065 32.404 34.4788 30.9131L34.0047 25.1653C33.877 23.6548 36.3935 23.596 36.5212 25.0869Z" fill="#DED1BD"/>
<path d="M26.0124 32.07C25.7929 30.6836 28.5471 30.6289 28.7667 31.997C29.1059 34.0584 29.066 36.1015 28.7068 38.1811C28.4673 39.5675 25.7929 39.0567 26.0324 37.6703C26.3517 35.8096 26.3318 33.9489 26.0324 32.07H26.0124Z" fill="#DED1BD"/>
<path d="M21.4917 38.0492C21.654 40.3246 21.8163 42.6001 21.9966 44.8756C22.1048 46.3237 19.6165 46.3989 19.5083 44.9508C19.346 42.6754 19.1657 40.3999 19.0034 38.1244C18.8952 36.6763 21.3835 36.6011 21.4917 38.0492Z" fill="#DED1BD"/>
<path d="M28.7969 47.0193L28.9996 53.9076C29.0401 55.3145 26.2436 55.3876 26.2031 53.9807L26.0004 47.0924C25.9599 45.6855 28.7564 45.6124 28.7969 47.0193Z" fill="#DED1BD"/>
<path d="M13.2823 45.0794C13.1148 43.6803 15.683 43.6258 15.8505 45.0068C16.1296 47.4235 16.0179 49.8039 15.5155 52.1843C15.2363 53.5652 12.7426 53.0565 13.0218 51.6755C13.4684 49.4768 13.5428 47.2963 13.2823 45.0794Z" fill="#DED1BD"/>
<path d="M17.9449 51.042C18.5704 50.8842 19.5088 51.1823 19.6261 51.7434C19.9388 53.1461 20.0757 54.5314 19.9584 55.9516C19.8606 57.3018 17.1434 57.3719 17.2607 56.0218C17.3585 54.7944 17.2998 53.567 17.0261 52.3746C16.9088 51.8135 17.1825 51.2524 17.9254 51.0596L17.9449 51.042Z" fill="#DED1BD"/>
<path d="M33.1907 52.0801C33.3126 50.6987 36.1181 50.6079 35.9961 52.0074C35.7319 54.97 35.7319 57.9325 35.9961 60.9133C36.1181 62.3128 33.3126 62.3855 33.1907 60.986C32.9264 58.0234 32.9467 55.0608 33.1907 52.0801Z" fill="#DED1BD"/>
<path d="M23.0177 60.0453C23.1458 59.5057 23.5117 59.2824 24.0422 59.0591C24.4264 58.9103 25.0117 59.0591 25.2862 59.3196C26.0911 60.0639 25.8898 61.0872 25.9081 62.0547C25.9447 63.3385 25.963 64.6037 25.9996 65.8876C26.0362 67.3202 23.5117 67.3947 23.4751 65.962C23.4385 64.3991 23.5666 62.7245 23.4019 61.1244C23.0726 60.8453 22.9263 60.436 23.036 60.0453H23.0177Z" fill="#DED1BD"/>
<path d="M42.8548 64.0234L42.9996 68.9032C43.0409 70.3157 40.1866 70.3891 40.1452 68.9766L40.0004 64.0968C39.9591 62.6843 42.8134 62.6109 42.8548 64.0234Z" fill="#DED1BD"/>
<path d="M31.0262 67.3551C30.7142 66.0377 33.2878 65.4053 33.5997 66.7403C33.9311 68.1456 34.0871 69.5333 33.9506 70.9562C33.8337 72.2912 31.1431 72.379 31.2601 71.0264C31.3576 69.7968 31.2991 68.5847 31.0067 67.3727L31.0262 67.3551Z" fill="#DED1BD"/>
<path d="M15.0167 66.4846C15.1965 64.958 15.3943 63.4517 15.5741 61.9251C15.646 61.2737 16.491 60.887 17.0843 61.0295C17.8035 61.1923 18.0732 61.8436 17.9833 62.5154C17.8035 64.042 17.6057 65.5483 17.4259 67.0749C17.354 67.7263 16.509 68.113 15.9157 67.9705C15.1965 67.8077 14.9268 67.1564 15.0167 66.4846Z" fill="#DED1BD"/>
<path d="M9.17845 56.053C9.05797 54.6969 11.8289 54.6264 11.9494 55.9825C12.0699 57.4091 11.9695 58.8004 11.7085 60.2094C11.4474 61.5479 8.75678 61.0547 9.01781 59.7162C9.25876 58.501 9.29892 57.2858 9.17845 56.053Z" fill="#DED1BD"/>
<path d="M6.03653 73.637C6.48674 71.8049 6.61281 69.9729 6.43272 68.122C6.28865 66.6677 8.77384 66.611 8.91791 68.0464C9.116 70.1051 8.95392 72.1449 8.44968 74.1658C8.08951 75.5824 5.67636 75.0535 6.03653 73.637Z" fill="#DED1BD"/>
<path d="M14.0958 73.0877C13.9146 71.6778 16.7129 71.6229 16.8739 73.0145C17.0954 74.754 17.0148 76.4568 16.7129 78.178C16.4713 79.5696 13.7737 79.0569 14.0153 77.6653C14.277 76.1456 14.277 74.6075 14.0958 73.0877Z" fill="#DED1BD"/>
<path d="M22.2414 71.1837C22.3213 69.6593 25.0782 69.5801 24.9983 71.1045C24.9184 72.6685 24.8385 74.2523 24.7586 75.8163C24.6787 77.3407 21.9218 77.4199 22.0017 75.8955C22.0816 74.3315 22.1615 72.7477 22.2414 71.1837Z" fill="#DED1BD"/>
<path d="M31.8548 75.9872L31.9996 80.942C32.0409 82.3046 29.1866 82.3753 29.1452 81.0128L29.0004 76.058C28.9591 74.6954 31.8134 74.6247 31.8548 75.9872Z" fill="#DED1BD"/>
<path d="M40.8947 74.0281L40.9995 77.8982C41.0415 79.3172 38.1473 79.3909 38.1053 77.9719L38.0005 74.1018C37.9585 72.6828 40.8527 72.6091 40.8947 74.0281Z" fill="#DED1BD"/>
<path d="M37.0295 84.0173C37.1229 83.6443 37.3471 83.3273 37.758 83.1594C38.2624 82.9543 38.8975 82.8983 39.3271 83.29C40.0743 83.9614 39.9249 84.8379 39.9436 85.7331C39.9622 86.7775 39.9809 87.8405 39.9996 88.8849C40.037 90.321 37.4405 90.3956 37.4218 88.9595C37.4031 87.6913 37.4965 86.3672 37.3844 85.0803C37.0669 84.8006 36.9361 84.3903 37.0295 84.0173Z" fill="#DED1BD"/>
<path d="M37.3124 97.1197C37.3708 95.6777 40.0575 95.6028 39.9991 97.0448C39.9017 99.3295 39.8044 101.596 39.6876 103.88C39.6292 105.322 36.9425 105.397 37.0009 103.955C37.0983 101.67 37.1956 99.4044 37.3124 97.1197Z" fill="#DED1BD"/>
<path d="M39.8159 111.049L39.9996 117.876C40.0404 119.324 37.2249 119.399 37.1841 117.951L37.0004 111.124C36.9596 109.676 39.7751 109.601 39.8159 111.049Z" fill="#DED1BD"/>
<path d="M28.0762 89.1737C27.8736 87.6524 30.6896 87.5931 30.8719 89.0947C31.0948 90.774 31.0137 92.4337 30.7301 94.113C30.487 95.6146 27.7723 95.0614 28.0154 93.5598C28.2585 92.0978 28.2585 90.6357 28.0559 89.1737H28.0762Z" fill="#DED1BD"/>
<path d="M23.8746 83.1045L23.9996 87.8163C24.0412 89.3407 21.1671 89.4199 21.1254 87.8955L21.0004 83.1837C20.9588 81.6593 23.8329 81.5801 23.8746 83.1045Z" fill="#DED1BD"/>
<path d="M29.8159 101.112L29.9996 107.808C30.0404 109.343 27.2249 109.423 27.1841 107.888L27.0004 101.192C26.9596 99.657 29.7751 99.5773 29.8159 101.112Z" fill="#DED1BD"/>
<path d="M22.8548 95.9872L22.9996 100.942C23.0409 102.305 20.1866 102.375 20.1452 101.013L20.0004 96.058C19.9591 94.6954 22.8134 94.6247 22.8548 95.9872Z" fill="#DED1BD"/>
<path d="M18.2414 110.139C18.3213 108.672 21.0782 108.596 20.9983 110.062C20.9184 111.662 20.8385 113.262 20.7586 114.861C20.6787 116.328 17.9218 116.404 18.0017 114.938C18.0816 113.338 18.1615 111.738 18.2414 110.139Z" fill="#DED1BD"/>
<path d="M29.8159 115.049L29.9996 121.876C30.0404 123.324 27.2249 123.399 27.1841 121.951L27.0004 115.124C26.9596 113.676 29.7751 113.601 29.8159 115.049Z" fill="#DED1BD"/>
<path d="M38.506 126.048C38.6691 127.997 38.8322 129.927 38.9953 131.876C39.1222 133.333 36.6209 133.39 36.494 131.952C36.3309 130.003 36.1678 128.073 36.0047 126.124C35.8778 124.667 38.3791 124.61 38.506 126.048Z" fill="#DED1BD"/>
<path d="M38.8548 139.062L38.9996 143.861C39.0409 145.328 36.1866 145.404 36.1452 143.938L36.0004 139.139C35.9591 137.672 38.8134 137.596 38.8548 139.062Z" fill="#DED1BD"/>
<path d="M38.4626 150.727C38.8139 152.46 39.0173 154.175 38.9988 155.943C38.9988 157.304 36.4286 157.375 36.4471 156.014C36.4471 154.458 36.3361 152.902 36.0218 151.364C35.7444 150.038 38.2037 149.401 38.4626 150.745V150.727Z" fill="#DED1BD"/>
<path d="M36.0066 160.149C35.8499 158.66 38.5525 158.602 38.7092 160.072C38.9442 162.316 39.0421 164.58 38.9833 166.843C38.9442 168.333 36.2416 168.41 36.2807 166.921C36.3395 164.657 36.2416 162.394 36.0066 160.149Z" fill="#DED1BD"/>
<path d="M27.2626 130.117C27.4602 128.679 30.1874 128.603 29.9898 130.041C29.7329 131.971 29.6538 133.92 29.7724 135.869C29.8514 137.326 27.1242 137.401 27.0452 135.944C26.9464 133.996 27.0057 132.066 27.2626 130.117Z" fill="#DED1BD"/>
<path d="M29.5212 142.087C29.6853 144.009 29.8312 145.912 29.9953 147.835C30.123 149.345 27.6065 149.404 27.4788 147.913C27.3147 145.991 27.1688 144.088 27.0047 142.165C26.877 140.655 29.3935 140.596 29.5212 142.087Z" fill="#DED1BD"/>
<path d="M27.0099 155.116C26.8186 153.67 29.4584 153.613 29.6497 155.041C29.9558 157.313 30.0514 159.586 29.9749 161.877C29.9175 163.323 27.2777 163.398 27.3351 161.952C27.4116 159.661 27.2968 157.388 27.0099 155.116Z" fill="#DED1BD"/>
<path d="M19.154 149.094C19.0331 147.685 21.8151 147.612 21.9361 149.02C22.0772 150.758 21.9764 152.459 21.7143 154.179C21.4926 155.569 18.7912 155.057 19.0129 153.667C19.2548 152.148 19.275 150.612 19.154 149.094Z" fill="#DED1BD"/>
<path d="M18.0437 140.524C18.5108 138.749 18.6365 136.994 18.4389 135.198C18.2772 133.645 20.7564 133.585 20.9181 135.118C21.1157 137.135 20.954 139.132 20.451 141.109C20.0558 142.622 17.6484 142.057 18.0437 140.544V140.524Z" fill="#DED1BD"/>
<path d="M18.0364 122.532C17.6652 121.043 20.2441 120.328 20.6153 121.837C20.9474 123.128 21.0842 124.438 20.9474 125.769C20.8888 126.404 20.4199 126.98 19.6189 127C18.9547 127 18.1732 126.484 18.2318 125.848C18.3295 124.736 18.2904 123.644 18.0169 122.552L18.0364 122.532Z" fill="#DED1BD"/>
<path d="M12.8352 137.02L12.9996 142.907C13.0406 144.315 10.2059 144.388 10.1648 142.98L10.0004 137.093C9.95936 135.685 12.7941 135.612 12.8352 137.02Z" fill="#DED1BD"/>
<path d="M9.01176 124.089C8.89463 123.527 9.67545 123.018 10.3391 123C11.1395 122.983 11.608 123.457 11.7251 124.019C11.9789 125.318 12.0569 126.634 11.9593 127.951C11.8617 129.302 9.16792 129.372 9.26552 128.021C9.3436 126.704 9.26552 125.388 9.03128 124.089H9.01176Z" fill="#DED1BD"/>
<path d="M12.8548 112.023L12.9996 116.903C13.0409 118.316 10.1866 118.389 10.1452 116.977L10.0004 112.097C9.95908 110.684 12.8134 110.611 12.8548 112.023Z" fill="#DED1BD"/>
<path d="M10.0089 100.182C9.90925 99.5723 10.6664 99.0196 11.3639 99.0005C12.1808 98.9815 12.679 99.496 12.7786 100.106C12.9779 101.345 13.0377 102.603 12.9779 103.86C12.9181 105.328 10.1683 105.404 10.2281 103.937C10.2878 102.679 10.2281 101.44 10.0288 100.182H10.0089Z" fill="#DED1BD"/>
<path d="M13.8548 85.0234L13.9996 89.9032C14.0409 91.3157 11.1866 91.3891 11.1452 89.9766L11.0004 85.0968C10.9591 83.6843 13.8134 83.6109 13.8548 85.0234Z" fill="#DED1BD"/>
<path d="M3.0264 84.5996C3.26565 83.4468 3.30553 82.2941 3.1859 81.1413C3.0264 79.662 5.77786 79.6043 5.93737 81.0645C6.07693 82.4286 5.97724 83.7926 5.69811 85.1375C5.3791 86.5977 2.70739 86.0597 3.0264 84.5996Z" fill="#DED1BD"/>
<path d="M4.89468 93.0281L4.99955 96.8982C5.04149 98.3172 2.14726 98.3909 2.10531 96.9719L2.00045 93.1018C1.95851 91.6828 4.85274 91.6091 4.89468 93.0281Z" fill="#DED1BD"/>
<path d="M2.85477 105.023L2.99955 109.903C3.04092 111.316 0.186597 111.389 0.14523 109.977L0.000445321 105.097C-0.0409217 103.684 2.8134 103.611 2.85477 105.023Z" fill="#DED1BD"/>
<path d="M0.0162587 117.137C0.0723765 115.673 2.6725 115.596 2.59768 117.061C2.52285 118.564 2.63509 120.067 2.97179 121.532C3.28979 122.959 0.820614 123.644 0.502613 122.198C0.128495 120.524 -0.058565 118.831 0.0162587 117.118V117.137Z" fill="#DED1BD"/>
<path d="M125.145 192.977L125 188.097C124.959 186.684 127.813 186.611 127.855 188.023L128 192.903C128.041 194.316 125.187 194.389 125.145 192.977Z" fill="#DED1BD"/>
<path d="M127.669 181.209C127.393 182.548 124.743 182.055 125.02 180.716C125.257 179.501 125.337 178.286 125.238 177.053C125.139 175.697 127.887 175.626 127.966 176.983C128.065 178.391 127.946 179.8 127.65 181.209H127.669Z" fill="#DED1BD"/>
<path d="M124.105 169.972L124 166.102C123.959 164.683 126.853 164.609 126.895 166.028L127 169.898C127.041 171.317 124.147 171.391 124.105 169.972Z" fill="#DED1BD"/>
<path d="M127.919 159.911C128.141 161.323 125.33 161.378 125.128 159.984C124.905 158.591 124.986 157.216 125.269 155.823C125.553 154.43 128.262 154.943 127.979 156.336C127.737 157.528 127.757 158.719 127.939 159.911H127.919Z" fill="#DED1BD"/>
<path d="M128.797 149.808C128.756 151.343 125.96 151.423 126 149.888L126.203 143.192C126.244 141.657 129.04 141.577 129 143.112L128.797 149.808Z" fill="#DED1BD"/>
<path d="M128.831 136.869C128.931 138.326 126.166 138.401 126.066 136.944C125.945 134.996 125.985 133.066 126.226 131.117C126.406 129.679 129.172 129.603 128.992 131.041C128.751 132.99 128.691 134.92 128.831 136.869Z" fill="#DED1BD"/>
<path d="M128.952 118.415C128.569 120.209 128.442 122.002 128.551 123.834C128.642 125.336 126.131 125.413 126.04 123.912C125.912 121.885 126.094 119.858 126.531 117.869C126.859 116.388 129.297 116.953 128.97 118.415H128.952Z" fill="#DED1BD"/>
<path d="M127.165 111.946L127 106.129C126.959 104.675 129.794 104.599 129.835 106.054L130 111.871C130.041 113.325 127.206 113.401 127.165 111.946Z" fill="#DED1BD"/>
<path d="M129.796 98.9069C129.756 100.315 126.94 100.388 127.001 98.98C127.062 97.0238 127.143 95.0493 127.204 93.0931C127.244 91.6853 130.06 91.6122 129.999 93.02C129.938 94.9762 129.857 96.9507 129.796 98.9069Z" fill="#DED1BD"/>
<path d="M127.125 86.0143L127 82.0564C126.959 80.6959 129.833 80.6252 129.875 81.9857L130 85.9436C130.041 87.3041 127.167 87.3748 127.125 86.0143Z" fill="#DED1BD"/>
<path d="M129.911 72.8498C130.052 74.3407 127.276 74.3988 127.135 72.9273C126.934 70.6619 126.954 68.4159 127.216 66.1506C127.377 64.6791 130.173 64.5823 129.992 66.0731C129.73 68.3385 129.71 70.5845 129.911 72.8498Z" fill="#DED1BD"/>
<path d="M127.085 59.9086L127 57.1697C126.958 55.6633 129.873 55.585 129.915 57.0914L130 59.8303C130.042 61.3367 127.127 61.415 127.085 59.9086Z" fill="#DED1BD"/>
<path d="M127.165 49.98L127 44.0931C126.959 42.6853 129.794 42.6122 129.835 44.02L130 49.9069C130.041 51.3147 127.206 51.3878 127.165 49.98Z" fill="#DED1BD"/>
<path d="M127.165 35.9463L127 30.1292C126.959 28.6749 129.794 28.5994 129.835 30.0537L130 35.8708C130.041 37.3251 127.206 37.4006 127.165 35.9463Z" fill="#DED1BD"/>
<path d="M129.894 23.8221C129.936 25.3391 127.049 25.4179 127.029 23.9009C126.966 21.32 127.008 18.7588 127.132 16.1779C127.195 14.6609 130.081 14.5821 129.998 16.0991C129.874 18.68 129.853 21.2412 129.894 23.8221Z" fill="#DED1BD"/>
<path d="M126.165 8.94633L126 3.12921C125.959 1.67493 128.794 1.5994 128.835 3.05368L129 8.87078C129.041 10.3251 126.206 10.4006 126.165 8.94633Z" fill="#DED1BD"/>
<path d="M135.803 5.82C135.922 7.33968 133.17 7.41862 133.05 5.89895C132.93 4.22139 133.03 2.56356 133.309 0.886001C133.568 -0.613936 136.242 -0.0613304 135.982 1.43861C135.743 2.89907 135.703 4.35954 135.803 5.82Z" fill="#DED1BD"/>
<path d="M135.49 16.9078C135.346 18.3047 132.862 18.3965 133.006 16.9813C133.168 15.3455 133.33 13.7097 133.51 12.0922C133.654 10.6953 136.138 10.6034 135.994 12.0187C135.832 13.6545 135.67 15.2903 135.49 16.9078Z" fill="#DED1BD"/>
<path d="M135.165 30.9103L135 25.1678C134.959 23.6638 137.794 23.5857 137.835 25.0897L138 30.8322C138.041 32.3362 135.206 32.4143 135.165 30.9103Z" fill="#DED1BD"/>
<path d="M136.105 44.9257L136 41.1513C135.959 39.6686 138.853 39.5915 138.895 41.0743L139 44.8487C139.041 46.3314 136.147 46.4085 136.105 44.9257Z" fill="#DED1BD"/>
<path d="M139.777 59.9436C139.697 61.3041 136.921 61.3748 137.002 60.0143C137.082 58.6891 137.163 57.3816 137.223 56.0564C137.303 54.6959 140.079 54.6252 139.998 55.9857C139.918 57.3109 139.837 58.6184 139.777 59.9436Z" fill="#DED1BD"/>
<path d="M132.165 190.946L132 185.129C131.959 183.675 134.794 183.599 134.835 185.054L135 190.871C135.041 192.325 132.206 192.401 132.165 190.946Z" fill="#DED1BD"/>
<path d="M133.165 177.91L133 172.168C132.959 170.664 135.794 170.586 135.835 172.09L136 177.832C136.041 179.336 133.206 179.414 133.165 177.91Z" fill="#DED1BD"/>
<path d="M133.165 164.91L133 159.168C132.959 157.664 135.794 157.586 135.835 159.09L136 164.832C136.041 166.336 133.206 166.414 133.165 164.91Z" fill="#DED1BD"/>
<path d="M137.874 150.821C137.993 152.339 135.244 152.418 135.125 150.9C134.925 148.317 134.965 145.754 135.244 143.172C135.403 141.673 138.153 141.575 137.993 143.093C137.714 145.675 137.695 148.238 137.874 150.821Z" fill="#DED1BD"/>
<path d="M136.222 136.956L136 129.118C135.96 127.678 138.738 127.603 138.778 129.044L139 136.882C139.04 138.322 136.262 138.397 136.222 136.956Z" fill="#DED1BD"/>
<path d="M135.125 121.896L135 117.184C134.959 115.659 137.833 115.58 137.875 117.104L138 121.816C138.041 123.341 135.167 123.42 135.125 121.896Z" fill="#DED1BD"/>
<path d="M137.203 106.899L137 99.1803C136.96 97.6602 139.756 97.5813 139.797 99.1013L140 106.82C140.04 108.34 137.244 108.419 137.203 106.899Z" fill="#DED1BD"/>
<path d="M137.165 90.9103L137 85.1678C136.959 83.6638 139.794 83.5857 139.835 85.0897L140 90.8322C140.041 92.3362 137.206 92.4143 137.165 90.9103Z" fill="#DED1BD"/>
<path d="M139.894 76.8829C139.995 78.3216 137.219 78.3963 137.119 76.9576C136.938 74.3418 136.958 71.7261 137.219 69.1103C137.36 67.6903 140.136 67.5969 139.995 69.0356C139.733 71.6513 139.693 74.2671 139.894 76.8829Z" fill="#DED1BD"/>
<path d="M142.705 189.811C142.626 191.342 139.923 191.422 140.002 189.891C140.1 187.663 140.198 185.436 140.295 183.189C140.374 181.658 143.077 181.578 142.998 183.109C142.9 185.337 142.802 187.564 142.705 189.811Z" fill="#DED1BD"/>
<path d="M144.849 175.835C144.969 177.335 142.197 177.413 142.077 175.913C141.916 173.887 142.016 171.9 142.298 169.875C142.499 168.394 145.19 168.939 144.989 170.42C144.748 172.212 144.728 174.024 144.869 175.835H144.849Z" fill="#DED1BD"/>
<path d="M143.203 161.981L143 155.092C142.96 153.686 145.756 153.612 145.797 155.019L146 161.908C146.04 163.314 143.244 163.388 143.203 161.981Z" fill="#DED1BD"/>
<path d="M146.76 146.856C146.561 148.329 143.811 148.406 144.01 146.933C144.309 144.666 144.349 142.418 144.11 140.151C143.97 138.659 146.72 138.601 146.859 140.074C147.079 142.341 147.039 144.589 146.76 146.856Z" fill="#DED1BD"/>
<path d="M147.875 130.888C147.875 132.32 144.979 132.394 145 130.963C145.042 128.006 145.083 125.068 145.125 122.112C145.125 120.68 148.021 120.606 148 122.037C147.958 124.994 147.917 127.932 147.875 130.888Z" fill="#DED1BD"/>
<path d="M148.757 113.859C148.597 115.318 145.829 115.414 146.008 113.936C146.307 111.344 146.327 108.752 146.088 106.141C145.949 104.662 148.697 104.605 148.836 106.064C149.075 108.656 149.056 111.248 148.757 113.859Z" fill="#DED1BD"/>
<path d="M148.936 96.842C149.018 98.3333 146.205 98.4108 146.124 96.9195C145.94 93.6657 145.961 90.4118 146.185 87.158C146.287 85.6667 149.099 85.5892 148.997 87.0805C148.773 90.3343 148.753 93.5882 148.936 96.842Z" fill="#DED1BD"/>
<path d="M148.976 73.3731C148.609 75.2004 148.481 77.0276 148.554 78.8737C148.609 80.3242 146.078 80.3996 146.023 78.9491C145.931 76.8958 146.115 74.8613 146.518 72.8457C146.812 71.414 149.269 71.9415 148.976 73.3731Z" fill="#DED1BD"/>
<path d="M147.165 63.9463L147 58.1292C146.959 56.6749 149.794 56.5994 149.835 58.0537L150 63.8708C150.041 65.3251 147.206 65.4006 147.165 63.9463Z" fill="#DED1BD"/>
<path d="M148.988 49.862C149.206 51.3269 146.467 51.404 146.249 49.9391C145.892 47.5683 145.931 45.2361 146.289 42.8653C146.507 41.4004 149.166 41.9401 148.948 43.405C148.63 45.5638 148.67 47.7033 148.988 49.862Z" fill="#DED1BD"/>
<path d="M147.816 35.8084C147.775 37.343 144.96 37.4227 145 35.8881C145.062 33.6559 145.123 31.4238 145.184 29.1916C145.225 27.657 148.04 27.5773 148 29.1119C147.938 31.3441 147.877 33.5762 147.816 35.8084Z" fill="#DED1BD"/>
<path d="M146.728 19.4439C146.728 19.4439 146.864 19.6182 146.903 19.7537C147.117 20.5089 147 21.1091 146.319 21.6707C145.52 22.329 143.962 21.9611 144.001 20.9155C144.079 18.6694 144.137 16.4039 144.195 14.1577C144.234 12.6667 146.922 12.5893 146.883 14.0803C146.825 15.8617 146.766 17.6625 146.728 19.4439Z" fill="#DED1BD"/>
<path d="M146.8 6.90765C146.92 8.32354 144.169 8.3787 144.05 6.98121C143.93 5.58371 144.03 4.20459 144.309 2.82549C144.588 1.42799 147.259 1.94287 146.98 3.34036C146.74 4.53559 146.701 5.71242 146.8 6.90765Z" fill="#DED1BD"/>
<path d="M155.956 8.45581C155.506 10.231 155.38 11.9861 155.578 13.8016C155.74 15.3549 153.255 15.4155 153.093 13.8823C152.877 11.865 153.039 9.86791 153.544 7.89097C153.94 6.378 156.352 6.94284 155.956 8.45581Z" fill="#DED1BD"/>
<path d="M154.976 21.4492C154.575 23.5567 154.447 25.6641 154.556 27.8113C154.629 29.3422 152.113 29.4217 152.04 27.8908C151.912 25.5448 152.095 23.2187 152.532 20.8925C152.824 19.3815 155.268 19.9382 154.976 21.4492Z" fill="#DED1BD"/>
<path d="M155.973 42.5094C156.29 43.9586 153.674 44.6541 153.357 43.1857C152.902 41.0796 152.882 38.9928 153.298 36.8674C153.595 35.3989 156.251 35.94 155.954 37.4084C155.617 39.0894 155.597 40.8091 155.954 42.4901L155.973 42.5094Z" fill="#DED1BD"/>
<path d="M156.966 52.3229C156.51 54.1817 156.419 56.0222 156.656 57.9174C156.839 59.3206 154.319 59.3753 154.136 57.9903C153.862 55.9129 154.008 53.8537 154.519 51.8127C154.866 50.4277 157.313 50.9562 156.966 52.3229Z" fill="#DED1BD"/>
<path d="M155.203 74.9807L155 68.0924C154.96 66.6855 157.756 66.6124 157.797 68.0193L158 74.9076C158.04 76.3145 155.244 76.3876 155.203 74.9807Z" fill="#DED1BD"/>
<path d="M155.165 89.98L155 84.0931C154.959 82.6853 157.794 82.6122 157.835 84.02L158 89.9069C158.041 91.3147 155.206 91.3878 155.165 89.98Z" fill="#DED1BD"/>
<path d="M155.913 107.915C156.053 109.321 153.264 109.376 153.143 107.988C152.923 105.687 152.963 103.386 153.224 101.085C153.384 99.6973 156.154 99.606 155.993 101.012C155.712 103.313 155.692 105.614 155.913 107.915Z" fill="#DED1BD"/>
<path d="M156.97 117.404C156.474 119.552 156.419 121.699 156.731 123.865C156.951 125.336 154.42 125.394 154.2 123.943C153.851 121.563 153.961 119.203 154.512 116.863C154.842 115.392 157.3 115.953 156.97 117.404Z" fill="#DED1BD"/>
<path d="M156.99 136.948C157.186 138.312 154.478 138.365 154.282 137.019C154.046 135.371 153.948 133.724 154.027 132.059C154.085 130.695 156.794 130.624 156.735 131.988C156.656 133.653 156.735 135.3 156.99 136.948Z" fill="#DED1BD"/>
<path d="M155.667 155.888C155.762 157.32 153.141 157.394 153.066 155.962C152.896 153.247 153.066 150.55 153.461 147.835C153.669 146.421 156.195 146.942 155.988 148.356C155.611 150.866 155.517 153.359 155.667 155.888Z" fill="#DED1BD"/>
<path d="M152.165 170.91L152 165.168C151.959 163.664 154.794 163.586 154.835 165.09L155 170.832C155.041 172.336 152.206 172.414 152.165 170.91Z" fill="#DED1BD"/>
<path d="M150.105 187.972L150 184.102C149.959 182.683 152.853 182.609 152.895 184.028L153 187.898C153.041 189.317 150.147 189.391 150.105 187.972Z" fill="#DED1BD"/>
<path d="M162.659 181.99C163.049 182.363 163.086 182.849 162.863 183.297C162.696 183.633 162.361 183.857 161.952 183.951C161.543 184.063 160.986 183.988 160.688 183.689C159.945 182.924 160.131 181.953 160.093 181C160.056 179.712 160.038 178.423 160 177.116C159.963 175.679 162.529 175.604 162.566 177.042C162.603 178.648 162.491 180.347 162.64 181.953L162.659 181.99Z" fill="#DED1BD"/>
<path d="M162.934 167.883C163.056 169.322 160.26 169.396 160.138 167.958C159.936 165.342 159.956 162.726 160.199 160.11C160.341 158.69 163.137 158.597 162.995 160.036C162.752 162.651 162.731 165.267 162.934 167.883Z" fill="#DED1BD"/>
<path d="M163.796 154.816C163.736 156.341 160.94 156.42 161.001 154.896C161.062 153.331 161.143 151.748 161.204 150.184C161.264 148.659 164.06 148.58 163.999 150.104C163.938 151.669 163.857 153.252 163.796 154.816Z" fill="#DED1BD"/>
<path d="M164.586 143.844C164.492 145.333 161.909 145.41 162.002 143.922C162.134 141.66 162.283 139.398 162.414 137.156C162.508 135.667 165.091 135.59 164.998 137.078C164.866 139.34 164.717 141.602 164.586 143.844Z" fill="#DED1BD"/>
<path d="M165.835 128.832C165.794 130.336 162.959 130.414 163 128.91C163.062 126.996 163.124 125.082 163.165 123.168C163.206 121.664 166.041 121.586 166 123.09C165.938 125.004 165.876 126.918 165.835 128.832Z" fill="#DED1BD"/>
<path d="M165.988 112.88C166.203 114.331 163.499 114.389 163.284 112.956C163.029 111.351 162.951 109.747 163.029 108.142C163.107 106.671 165.811 106.595 165.733 108.066C165.655 109.689 165.733 111.275 165.988 112.88Z" fill="#DED1BD"/>
<path d="M165.849 98.901C165.969 100.316 163.168 100.39 163.067 98.9745C162.946 97.3386 162.986 95.7211 163.208 94.0852C163.389 92.6882 166.191 92.6147 165.99 94.0117C165.768 95.6476 165.728 97.2651 165.849 98.901Z" fill="#DED1BD"/>
<path d="M163.145 87.9766L163 83.0968C162.959 81.6843 165.813 81.6109 165.855 83.0234L166 87.9032C166.041 89.3157 163.187 89.3891 163.145 87.9766Z" fill="#DED1BD"/>
<path d="M165.97 70.4455C165.515 72.5561 165.406 74.6667 165.606 76.8172C165.751 78.3503 163.24 78.4101 163.095 76.8968C162.877 74.5472 163.04 72.1977 163.532 69.888C163.859 68.3747 166.297 68.9521 165.97 70.4455Z" fill="#DED1BD"/>
<path d="M162.414 63.9216C162.283 61.6598 162.134 59.4175 162.002 57.1558C161.909 55.6673 164.492 55.59 164.586 57.0784C164.717 59.3402 164.866 61.5825 164.998 63.8442C165.091 65.3327 162.508 65.41 162.414 63.9216Z" fill="#DED1BD"/>
<path d="M164.712 51.1806C164.511 52.5678 161.809 52.0567 162.011 50.6695C162.293 48.8078 162.293 46.946 162.091 45.0843C161.95 43.6788 164.733 43.6241 164.874 45.0113C165.095 47.0738 165.015 49.1181 164.712 51.1806Z" fill="#DED1BD"/>
<path d="M163.49 37.9078C163.346 39.3047 160.862 39.3966 161.006 37.9813C161.168 36.3455 161.33 34.7097 161.51 33.0922C161.654 31.6953 164.138 31.6034 163.994 33.0187C163.832 34.6545 163.67 36.2903 163.49 37.9078Z" fill="#DED1BD"/>
<path d="M161.125 24.0143L161 20.0564C160.959 18.6959 163.833 18.6252 163.875 19.9857L164 23.9436C164.041 25.3041 161.167 25.3748 161.125 24.0143Z" fill="#DED1BD"/>
<path d="M162.105 10.9719L162 7.10184C161.959 5.68282 164.853 5.60911 164.895 7.02812L165 10.8982C165.041 12.3172 162.147 12.3909 162.105 10.9719Z" fill="#DED1BD"/>
<path d="M168.165 186.946L168 181.129C167.959 179.675 170.794 179.599 170.835 181.054L171 186.871C171.041 188.325 168.206 188.401 168.165 186.946Z" fill="#DED1BD"/>
<path d="M169.521 175.837C169.394 177.324 166.877 177.422 167.005 175.915C167.169 173.998 167.315 172.08 167.479 170.163C167.606 168.676 170.123 168.578 169.995 170.085C169.831 172.002 169.685 173.92 169.521 175.837Z" fill="#DED1BD"/>
<path d="M170.993 164.851C171.15 166.34 168.457 166.398 168.301 164.928C168.067 162.684 167.969 160.42 168.008 158.157C168.047 156.667 170.74 156.59 170.701 158.079C170.642 160.343 170.74 162.606 170.993 164.851Z" fill="#DED1BD"/>
<path d="M171.973 151.814C172.116 153.351 169.301 153.411 169.158 151.894C168.934 149.658 168.954 147.422 169.179 145.186C169.342 143.669 172.156 143.569 171.993 145.106C171.748 147.342 171.748 149.578 171.973 151.814Z" fill="#DED1BD"/>
<path d="M171.525 137.742C171.453 138.411 171.035 138.959 170.291 138.999C169.674 139.02 168.948 138.472 169.003 137.823C169.166 136.301 169.33 134.78 169.475 133.258C169.547 132.589 169.965 132.041 170.709 132.001C171.326 131.98 172.052 132.528 171.997 133.177C171.834 134.699 171.689 136.22 171.525 137.742Z" fill="#DED1BD"/>
<path d="M172.778 124.832C172.717 126.336 169.941 126.414 170.001 124.91C170.081 122.996 170.142 121.082 170.222 119.168C170.283 117.664 173.059 117.586 172.999 119.09C172.919 121.004 172.858 122.918 172.778 124.832Z" fill="#DED1BD"/>
<path d="M173.826 111.865C173.927 113.327 171.155 113.403 171.054 111.941C170.934 110.232 171.014 108.542 171.295 106.852C171.516 105.409 174.208 105.941 173.987 107.384C173.746 108.865 173.726 110.365 173.847 111.865H173.826Z" fill="#DED1BD"/>
<path d="M171.165 101.91L171 96.1678C170.959 94.6638 173.794 94.5857 173.835 96.0897L174 101.832C174.041 103.336 171.206 103.414 171.165 101.91Z" fill="#DED1BD"/>
<path d="M174.835 88.878C174.794 90.323 171.959 90.3981 172 88.953C172.062 86.6823 172.103 84.3928 172.165 82.122C172.206 80.677 175.041 80.6019 175 82.047C174.938 84.3177 174.897 86.6072 174.835 88.878Z" fill="#DED1BD"/>
<path d="M173.145 74.9376L173 70.1386C172.959 68.6722 175.813 68.5961 175.855 70.0624L176 74.8614C176.041 76.3278 173.187 76.4039 173.145 74.9376Z" fill="#DED1BD"/>
<path d="M171.538 63.9807C171.36 61.6785 171.182 59.3946 171.003 57.0924C170.896 55.6855 173.355 55.6124 173.462 57.0193C173.64 59.3215 173.818 61.6054 173.997 63.9076C174.104 65.3145 171.645 65.3875 171.538 63.9807Z" fill="#DED1BD"/>
<path d="M172.165 48.9103L172 43.1678C171.959 41.6638 174.794 41.5857 174.835 43.0897L175 48.8322C175.041 50.3362 172.206 50.4143 172.165 48.9103Z" fill="#DED1BD"/>
<path d="M174.797 34.878C174.756 36.323 171.96 36.3981 172 34.953C172.061 32.6823 172.142 30.3928 172.203 28.122C172.244 26.677 175.04 26.6019 175 28.047C174.939 30.3177 174.858 32.6072 174.797 34.878Z" fill="#DED1BD"/>
<path d="M172.538 21.878C172.446 23.323 169.911 23.3981 170.002 21.953C170.149 19.6823 170.315 17.3928 170.462 15.122C170.554 13.677 173.089 13.6019 172.998 15.047C172.851 17.3177 172.685 19.6072 172.538 21.878Z" fill="#DED1BD"/>
<path d="M172.936 5.3208C172.679 6.1627 172.659 7.00459 172.837 7.86479C172.956 8.45045 172.165 8.98121 171.512 8.99951C170.701 9.01781 170.227 8.52366 170.108 7.938C169.91 6.89478 169.989 5.83326 170.306 4.80834C170.721 3.43569 173.371 3.94814 172.956 5.3208H172.936Z" fill="#DED1BD"/>
<path d="M178.976 178.47C178.646 180.245 178.499 181.999 178.536 183.794C178.572 185.347 176.041 185.428 176.005 183.875C175.968 181.858 176.151 179.882 176.518 177.905C176.812 176.373 179.269 176.937 178.976 178.47Z" fill="#DED1BD"/>
<path d="M176.145 171.938L176 167.139C175.959 165.672 178.813 165.596 178.855 167.062L179 171.861C179.041 173.328 176.187 173.404 176.145 171.938Z" fill="#DED1BD"/>
<path d="M176.105 157.875L176 154.206C175.959 152.653 178.853 152.572 178.895 154.125L179 157.794C179.041 159.347 176.147 159.428 176.105 157.875Z" fill="#DED1BD"/>
<path d="M176.523 144.981C176.344 142.678 176.183 140.395 176.003 138.092C175.896 136.686 178.369 136.612 178.477 138.019C178.656 140.322 178.817 142.605 178.997 144.908C179.104 146.314 176.631 146.388 176.523 144.981Z" fill="#DED1BD"/>
<path d="M177.165 128.91L177 123.168C176.959 121.664 179.794 121.586 179.835 123.09L180 128.832C180.041 130.336 177.206 130.414 177.165 128.91Z" fill="#DED1BD"/>
<path d="M179.953 114.883C180.095 116.331 177.297 116.387 177.155 114.959C176.932 112.684 176.953 110.391 177.196 108.117C177.358 106.688 180.155 106.594 179.993 108.042C179.73 110.335 179.73 112.609 179.953 114.883Z" fill="#DED1BD"/>
<path d="M181.989 101.818C182.191 103.35 179.4 103.41 179.198 101.898C178.894 99.5495 178.955 97.2413 179.279 94.8933C179.501 93.381 182.191 93.9382 181.989 95.4505C181.686 97.5796 181.726 99.7087 181.989 101.818Z" fill="#DED1BD"/>
<path d="M180.165 86.9463L180 81.1292C179.959 79.6749 182.794 79.5994 182.835 81.0537L183 86.8708C183.041 88.3251 180.206 88.4006 180.165 86.9463Z" fill="#DED1BD"/>
<path d="M181.165 74.98L181 69.0931C180.959 67.6853 183.794 67.6122 183.835 69.02L184 74.9069C184.041 76.3147 181.206 76.3878 181.165 74.98Z" fill="#DED1BD"/>
<path d="M182.648 60.8203C182.687 62.3396 180.052 62.4185 180.014 60.8992C179.957 58.3145 180.072 55.7299 180.358 53.1649C180.53 51.6654 183.164 51.5864 182.992 53.086C182.706 55.6707 182.591 58.2356 182.648 60.8203Z" fill="#DED1BD"/>
<path d="M183.993 43.8507C184.15 45.3404 181.448 45.3984 181.291 43.9281C181.056 41.6839 180.958 39.4203 181.017 37.1567C181.036 35.667 183.758 35.5896 183.719 37.0793C183.68 39.3429 183.778 41.5871 183.993 43.8507Z" fill="#DED1BD"/>
<path d="M183.816 30.8084C183.775 32.343 180.96 32.4227 181 30.8881C181.062 28.6559 181.123 26.4238 181.184 24.1916C181.225 22.657 184.04 22.5773 184 24.1119C183.938 26.3441 183.877 28.5762 183.816 30.8084Z" fill="#DED1BD"/>
<path d="M179.165 16.9103L179 11.1678C178.959 9.66383 181.794 9.5857 181.835 11.0897L182 16.8322C182.041 18.3362 179.206 18.4143 179.165 16.9103Z" fill="#DED1BD"/>
<path d="M182.105 177.875L182 174.206C181.959 172.653 184.853 172.572 184.895 174.125L185 177.794C185.041 179.347 182.147 179.428 182.105 177.875Z" fill="#DED1BD"/>
<path d="M184.145 165.938L184 161.139C183.959 159.672 186.813 159.596 186.855 161.062L187 165.861C187.041 167.328 184.187 167.404 184.145 165.938Z" fill="#DED1BD"/>
<path d="M187.973 152.814C188.115 154.351 185.308 154.411 185.165 152.894C184.942 150.658 184.942 148.422 185.186 146.186C185.348 144.669 188.156 144.569 187.993 146.106C187.749 148.342 187.749 150.578 187.973 152.814Z" fill="#DED1BD"/>
<path d="M188.995 138.916C189.132 140.321 186.438 140.376 186.301 138.989C186.067 136.69 185.969 134.39 186.008 132.091C186.028 130.686 188.741 130.613 188.702 132.018C188.663 134.317 188.761 136.617 188.995 138.916Z" fill="#DED1BD"/>
<path d="M187.165 124.98L187 119.093C186.959 117.685 189.794 117.612 189.835 119.02L190 124.907C190.041 126.315 187.206 126.388 187.165 124.98Z" fill="#DED1BD"/>
<path d="M190.759 109.816C190.679 111.341 187.922 111.42 188.002 109.896C188.082 108.332 188.162 106.748 188.241 105.184C188.321 103.659 191.078 103.58 190.998 105.104C190.918 106.668 190.838 108.252 190.759 109.816Z" fill="#DED1BD"/>
<path d="M192.533 96.8606C192.533 98.328 190 98.4042 190 96.9368C190 94.002 190.147 91.0672 190.459 88.1325C190.606 86.6841 193.158 86.5888 192.992 88.0562C192.68 90.991 192.533 93.9258 192.533 96.8606Z" fill="#DED1BD"/>
<path d="M190.222 80.9283L190 73.1485C189.96 71.6694 192.738 71.5925 192.778 73.0717L193 80.8515C193.04 82.3306 190.262 82.4075 190.222 80.9283Z" fill="#DED1BD"/>
<path d="M192.995 67.8602C193.132 69.3376 190.438 69.3952 190.301 67.937C190.067 65.3468 189.969 62.7565 190.008 60.1472C190.028 58.6698 192.722 58.593 192.702 60.0704C192.663 62.6798 192.761 65.27 192.995 67.8602Z" fill="#DED1BD"/>
<path d="M192.855 51.833C192.834 53.3359 189.979 53.414 190 51.9111C190.041 49.0029 190.104 46.0752 190.145 43.167C190.166 41.6641 193.021 41.586 193 43.0889C192.959 45.9971 192.896 48.9248 192.855 51.833Z" fill="#DED1BD"/>
<path d="M192.786 35.9098C192.686 37.3138 189.883 37.3868 190.004 35.9827C190.185 33.6852 190.246 31.3877 190.205 29.0902C190.185 27.6862 192.968 27.6132 192.988 29.0173C193.028 31.3148 192.968 33.6123 192.786 35.9098Z" fill="#DED1BD"/>
<path d="M191.955 20.8221C192.058 22.3391 189.221 22.4179 189.119 20.9009C188.954 18.32 188.954 15.7588 189.16 13.1779C189.283 11.6609 192.119 11.5821 191.996 13.0991C191.791 15.68 191.77 18.2412 191.955 20.8221Z" fill="#DED1BD"/>
<path d="M194.492 179.849C194.384 181.321 191.895 181.418 192.003 179.927C192.166 177.662 192.328 175.416 192.508 173.151C192.616 171.679 195.105 171.582 194.997 173.073C194.834 175.338 194.672 177.584 194.492 179.849Z" fill="#DED1BD"/>
<path d="M194.99 165.913C195.184 167.322 192.51 167.377 192.316 165.986C192.045 164.028 191.948 162.07 192.026 160.094C192.084 158.685 194.757 158.612 194.699 160.021C194.622 161.997 194.719 163.955 194.99 165.913Z" fill="#DED1BD"/>
<path d="M194.165 152.91L194 147.168C193.959 145.664 196.794 145.586 196.835 147.09L197 152.832C197.041 154.336 194.206 154.414 194.165 152.91Z" fill="#DED1BD"/>
<path d="M194.165 140.91L194 135.168C193.959 133.664 196.794 133.586 196.835 135.09L197 140.832C197.041 142.336 194.206 142.414 194.165 140.91Z" fill="#DED1BD"/>
<path d="M194.184 127.888L194 121.192C193.96 119.657 196.775 119.577 196.816 121.112L197 127.808C197.04 129.343 194.225 129.423 194.184 127.888Z" fill="#DED1BD"/>
<path d="M195.184 114.888L195 108.192C194.96 106.657 197.775 106.577 197.816 108.112L198 114.808C198.04 116.343 195.225 116.423 195.184 114.888Z" fill="#DED1BD"/>
<path d="M196.222 101.928L196 94.1485C195.96 92.6694 198.738 92.5925 198.778 94.0717L199 101.851C199.04 103.331 196.262 103.407 196.222 101.928Z" fill="#DED1BD"/>
<path d="M199.74 85.8569C199.562 87.3284 196.83 87.4058 197.008 85.9343C197.286 83.669 197.345 81.423 197.167 79.1576C197.048 77.6668 199.78 77.5893 199.899 79.0802C200.077 81.3455 200.017 83.5915 199.74 85.8569Z" fill="#DED1BD"/>
<path d="M198.165 68.98L198 63.0931C197.959 61.6853 200.794 61.6122 200.835 63.02L201 68.9069C201.041 70.3147 198.206 70.3878 198.165 68.98Z" fill="#DED1BD"/>
<path d="M198.165 56.9103L198 51.1678C197.959 49.6638 200.794 49.5857 200.835 51.0897L201 56.8322C201.041 58.3362 198.206 58.4143 198.165 56.9103Z" fill="#DED1BD"/>
<path d="M198.222 42.9564L198 35.1184C197.96 33.678 200.738 33.6032 200.778 35.0436L201 42.8816C201.04 44.322 198.262 44.3968 198.222 42.9564Z" fill="#DED1BD"/>
<path d="M197.508 26.8914C197.346 24.6505 197.166 22.4296 197.003 20.1886C196.895 18.648 199.384 18.5879 199.492 20.1086C199.654 22.3495 199.834 24.5704 199.997 26.8114C200.105 28.352 197.616 28.4121 197.508 26.8914Z" fill="#DED1BD"/>
<path d="M203.816 174.844C203.775 176.333 200.96 176.41 201 174.922L201.184 168.156C201.225 166.667 204.04 166.59 204 168.078L203.816 174.844Z" fill="#DED1BD"/>
<path d="M203.364 160.868C203.261 162.326 200.901 162.402 201.003 160.943C201.209 157.667 201.431 154.39 201.636 151.132C201.722 149.674 204.099 149.598 203.997 151.057C203.792 154.333 203.569 157.61 203.364 160.868Z" fill="#DED1BD"/>
<path d="M205.873 142.909C205.993 144.314 203.211 144.387 203.111 142.982C202.93 140.683 202.97 138.384 203.231 136.084C203.391 134.698 206.153 134.606 205.993 136.011C205.733 138.311 205.693 140.61 205.873 142.909Z" fill="#DED1BD"/>
<path d="M212.872 154.806C212.992 156.344 210.231 156.423 210.11 154.886C209.93 152.65 209.97 150.415 210.231 148.179C210.411 146.661 213.172 146.582 212.992 148.099C212.731 150.335 212.691 152.571 212.872 154.806Z" fill="#DED1BD"/>
<path d="M209.479 168.913L209.005 163.165C208.877 161.655 211.394 161.596 211.521 163.087L211.995 168.835C212.123 170.345 209.606 170.404 209.479 168.913Z" fill="#DED1BD"/>
<path d="M219.988 161.93C220.207 163.316 217.453 163.371 217.233 162.003C216.894 159.942 216.934 157.899 217.293 155.819C217.533 154.433 220.207 154.943 219.968 156.33C219.648 158.19 219.668 160.051 219.968 161.93H219.988Z" fill="#DED1BD"/>
<path d="M223.508 155.951C223.346 153.675 223.184 151.4 223.003 149.124C222.895 147.676 225.384 147.601 225.492 149.049C225.654 151.325 225.816 153.6 225.997 155.876C226.105 157.324 223.616 157.399 223.508 155.951Z" fill="#DED1BD"/>
<path d="M218.203 146.981L218 140.092C217.96 138.686 220.756 138.612 220.797 140.019L221 146.908C221.04 148.314 218.244 148.388 218.203 146.981Z" fill="#DED1BD"/>
<path d="M232.717 148.921C232.885 150.32 230.313 150.374 230.145 148.993C229.866 146.577 229.996 144.196 230.481 141.816C230.76 140.435 233.258 140.944 232.978 142.325C232.531 144.523 232.456 146.704 232.717 148.921Z" fill="#DED1BD"/>
<path d="M228.055 141.958C227.43 142.116 226.491 141.818 226.374 141.257C226.061 139.854 225.924 138.469 226.042 137.048C226.139 135.698 228.857 135.628 228.739 136.978C228.642 138.206 228.7 139.433 228.974 140.625C229.091 141.186 228.817 141.748 228.075 141.94L228.055 141.958Z" fill="#DED1BD"/>
<path d="M212.809 141.92C212.687 143.301 209.882 143.392 210.004 141.993C210.268 139.03 210.268 136.067 210.004 133.087C209.882 131.687 212.687 131.614 212.809 133.014C213.074 135.977 213.053 138.939 212.809 141.92Z" fill="#DED1BD"/>
<path d="M222.99 133.955C222.861 134.476 222.494 134.718 221.963 134.941C221.577 135.09 220.991 134.941 220.716 134.68C219.909 133.936 220.11 132.913 220.092 131.945C220.055 130.661 220.037 129.396 220 128.112C219.964 126.68 222.494 126.605 222.531 128.038C222.568 129.601 222.439 131.275 222.604 132.876C222.935 133.155 223.063 133.564 222.971 133.955H222.99Z" fill="#DED1BD"/>
<path d="M204.145 129.977L204 125.097C203.959 123.684 206.813 123.611 206.855 125.023L207 129.903C207.041 131.316 204.187 131.389 204.145 129.977Z" fill="#DED1BD"/>
<path d="M215.974 126.645C216.286 127.962 213.712 128.595 213.4 127.26C213.069 125.854 212.913 124.467 213.049 123.044C213.166 121.709 215.857 121.621 215.74 122.974C215.642 124.203 215.701 125.415 215.993 126.627L215.974 126.645Z" fill="#DED1BD"/>
<path d="M230.983 127.515C230.804 129.042 230.606 130.548 230.426 132.075C230.354 132.726 229.509 133.113 228.916 132.971C228.196 132.808 227.927 132.156 228.017 131.485C228.196 129.958 228.394 128.452 228.574 126.925C228.646 126.274 229.491 125.887 230.084 126.029C230.804 126.192 231.073 126.844 230.983 127.515Z" fill="#DED1BD"/>
<path d="M236.822 136.947C236.942 138.303 234.171 138.374 234.051 137.017C233.93 135.591 234.031 134.2 234.292 132.791C234.553 131.452 237.243 131.945 236.982 133.284C236.741 134.499 236.701 135.714 236.822 136.947Z" fill="#DED1BD"/>
<path d="M239.963 120.363C239.513 122.195 239.387 124.027 239.567 125.878C239.711 127.332 237.226 127.389 237.082 125.954C236.884 123.895 237.046 121.855 237.55 119.834C237.91 118.418 240.324 118.946 239.963 120.363Z" fill="#DED1BD"/>
<path d="M232.904 120.912C233.085 122.322 230.287 122.377 230.126 120.986C229.905 119.246 229.985 117.543 230.287 115.822C230.529 114.43 233.226 114.943 232.985 116.335C232.723 117.854 232.723 119.393 232.904 120.912Z" fill="#DED1BD"/>
<path d="M223.759 122.816C223.679 124.341 220.922 124.42 221.002 122.896C221.082 121.332 221.162 119.748 221.241 118.184C221.321 116.659 224.078 116.58 223.998 118.104C223.918 119.669 223.838 121.252 223.759 122.816Z" fill="#DED1BD"/>
<path d="M214.145 118.013L214 113.058C213.959 111.695 216.813 111.625 216.855 112.987L217 117.942C217.041 119.305 214.187 119.375 214.145 118.013Z" fill="#DED1BD"/>
<path d="M205.105 118.972L205 115.102C204.959 113.683 207.853 113.609 207.895 115.028L208 118.898C208.041 120.317 205.147 120.391 205.105 118.972Z" fill="#DED1BD"/>
<path d="M208.97 109.983C208.877 110.356 208.653 110.673 208.242 110.841C207.738 111.046 207.102 111.102 206.673 110.71C205.926 110.039 206.075 109.162 206.056 108.267C206.038 107.223 206.019 106.159 206 105.115C205.963 103.679 208.56 103.604 208.578 105.04C208.597 106.309 208.503 107.633 208.616 108.92C208.933 109.199 209.064 109.61 208.97 109.983Z" fill="#DED1BD"/>
<path d="M208.688 96.8803C208.629 98.3223 205.943 98.3972 206.001 96.9552C206.098 94.6705 206.196 92.4044 206.312 90.1197C206.371 88.6777 209.057 88.6028 208.999 90.0448C208.902 92.3295 208.804 94.5956 208.688 96.8803Z" fill="#DED1BD"/>
<path d="M207.184 82.9508L207 76.1244C206.96 74.6763 209.775 74.6011 209.816 76.0492L210 82.8756C210.04 84.3237 207.225 84.3989 207.184 82.9508Z" fill="#DED1BD"/>
<path d="M217.924 105.826C218.126 107.348 215.31 107.407 215.128 105.905C214.905 104.226 214.986 102.566 215.27 100.887C215.513 99.3854 218.228 99.9386 217.985 101.44C217.742 102.902 217.742 104.364 217.944 105.826H217.924Z" fill="#DED1BD"/>
<path d="M222.125 110.896L222 106.184C221.959 104.659 224.833 104.58 224.875 106.104L225 110.816C225.041 112.341 222.167 112.42 222.125 110.896Z" fill="#DED1BD"/>
<path d="M216.184 92.8881L216 86.1916C215.96 84.657 218.775 84.5773 218.816 86.1119L219 92.8084C219.04 94.343 216.225 94.4227 216.184 92.8881Z" fill="#DED1BD"/>
<path d="M224.145 98.0128L224 93.058C223.959 91.6954 226.813 91.6247 226.855 92.9872L227 97.942C227.041 99.3046 224.187 99.3753 224.145 98.0128Z" fill="#DED1BD"/>
<path d="M227.759 83.8614C227.679 85.3278 224.922 85.4039 225.002 83.9376C225.082 82.3379 225.162 80.7383 225.241 79.1386C225.321 77.6722 228.078 77.5961 227.998 79.0624C227.918 80.6621 227.838 82.2617 227.759 83.8614Z" fill="#DED1BD"/>
<path d="M216.184 78.9509L216 72.1244C215.96 70.6763 218.775 70.6011 218.816 72.0492L219 78.8756C219.04 80.3237 216.225 80.3989 216.184 78.9509Z" fill="#DED1BD"/>
<path d="M207.494 67.9517C207.331 66.0028 207.168 64.0729 207.005 62.124C206.878 60.6671 209.379 60.6103 209.506 62.0483C209.669 63.9972 209.832 65.9271 209.995 67.876C210.122 69.3329 207.621 69.3897 207.494 67.9517Z" fill="#DED1BD"/>
<path d="M207.145 54.9376L207 50.1386C206.959 48.6722 209.813 48.5961 209.855 50.0624L210 54.8614C210.041 56.3278 207.187 56.4039 207.145 54.9376Z" fill="#DED1BD"/>
<path d="M207.537 43.2726C207.186 41.54 206.983 39.825 207.001 38.0571C207.001 36.6957 209.571 36.625 209.553 37.9863C209.553 39.5421 209.664 41.098 209.978 42.6361C210.256 43.9621 207.796 44.5985 207.537 43.2549V43.2726Z" fill="#DED1BD"/>
<path d="M209.993 33.8507C210.15 35.3404 207.448 35.3984 207.291 33.9281C207.056 31.6839 206.958 29.4203 207.017 27.1567C207.056 25.667 209.758 25.5896 209.719 27.0793C209.661 29.3429 209.758 31.5871 209.993 33.8507Z" fill="#DED1BD"/>
<path d="M218.737 63.883C218.54 65.3209 215.813 65.3966 216.01 63.9586C216.267 62.0288 216.346 60.08 216.228 58.1312C216.149 56.6744 218.876 56.5987 218.955 58.0555C219.054 60.0043 218.994 61.9342 218.737 63.883Z" fill="#DED1BD"/>
<path d="M216.479 51.9131C216.315 49.9907 216.169 48.0878 216.005 46.1653C215.877 44.6548 218.394 44.596 218.521 46.0869C218.685 48.0093 218.831 49.9122 218.995 51.8347C219.123 53.3452 216.606 53.404 216.479 51.9131Z" fill="#DED1BD"/>
<path d="M218.99 38.8843C219.181 40.3305 216.542 40.3868 216.35 38.9594C216.044 36.6868 215.949 34.4143 216.025 32.1229C216.082 30.6768 218.722 30.6016 218.665 32.0478C218.588 34.3391 218.703 36.6117 218.99 38.8843Z" fill="#DED1BD"/>
<path d="M226.846 43.9063C226.967 45.3148 224.185 45.388 224.064 43.9795C223.923 42.2418 224.024 40.5406 224.286 38.8212C224.507 37.431 227.209 37.9432 226.987 39.3333C226.745 40.8516 226.725 42.3881 226.846 43.9063Z" fill="#DED1BD"/>
<path d="M227.956 53.476C227.489 55.2512 227.363 57.0062 227.561 58.8016C227.723 60.3549 225.244 60.4155 225.082 58.8823C224.884 56.865 225.046 54.8679 225.549 52.891C225.944 51.378 228.352 51.9428 227.956 53.4558V53.476Z" fill="#DED1BD"/>
<path d="M227.964 72.468C228.335 73.9574 225.756 74.6723 225.385 73.1631C225.053 71.8723 224.916 70.5617 225.053 69.2312C225.111 68.5957 225.58 68.0199 226.362 68C227.026 68 227.807 68.5163 227.749 69.1518C227.651 70.2638 227.69 71.356 227.964 72.4482V72.468Z" fill="#DED1BD"/>
<path d="M233.165 56.98L233 51.0931C232.959 49.6853 235.794 49.6122 235.835 51.02L236 56.9069C236.041 58.3147 233.206 58.3878 233.165 56.98Z" fill="#DED1BD"/>
<path d="M236.988 68.9112C237.106 69.4729 236.32 69.982 235.672 69.9995C234.866 70.0171 234.395 69.5431 234.277 68.9814C234.021 67.6825 233.943 66.366 234.041 65.0495C234.12 63.6979 236.851 63.6277 236.752 64.9793C236.674 66.2958 236.752 67.6123 236.988 68.9112Z" fill="#DED1BD"/>
<path d="M233.145 80.9766L233 76.0968C232.959 74.6843 235.813 74.6109 235.855 76.0234L236 80.9032C236.041 82.3157 233.187 82.3891 233.145 80.9766Z" fill="#DED1BD"/>
<path d="M235.991 93.8178C236.091 94.4277 235.334 94.9804 234.636 94.9995C233.819 95.0185 233.321 94.504 233.221 93.8941C233.022 92.6553 232.962 91.3974 233.022 90.1395C233.082 88.672 235.832 88.5957 235.772 90.0633C235.712 91.3211 235.772 92.56 235.971 93.8178H235.991Z" fill="#DED1BD"/>
<path d="M232.145 108.977L232 104.097C231.959 102.684 234.813 102.611 234.855 104.023L235 108.903C235.041 110.316 232.187 110.389 232.145 108.977Z" fill="#DED1BD"/>
<path d="M243.974 109.4C243.734 110.553 243.694 111.706 243.814 112.859C243.974 114.338 241.222 114.396 241.063 112.936C240.923 111.571 241.023 110.207 241.302 108.862C241.621 107.402 244.293 107.94 243.974 109.4Z" fill="#DED1BD"/>
<path d="M242.105 100.972L242 97.1018C241.959 95.6828 244.853 95.6091 244.895 97.0281L245 100.898C245.041 102.317 242.147 102.391 242.105 100.972Z" fill="#DED1BD"/>
<path d="M243.145 88.9766L243 84.0968C242.959 82.6843 245.813 82.6109 245.855 84.0234L246 88.9032C246.041 90.3157 243.187 90.3891 243.145 88.9766Z" fill="#DED1BD"/>
<path d="M245.984 76.8625C245.928 78.3274 243.327 78.4035 243.402 76.9386C243.477 75.4356 243.365 73.9326 243.028 72.4677C242.71 71.0408 245.179 70.3559 245.497 71.8018C245.871 73.476 246.059 75.1693 245.984 76.8815V76.8625Z" fill="#DED1BD"/>
</svg>
