<svg xmlns="http://www.w3.org/2000/svg" width="157" height="85" viewBox="0 0 157 85" fill="none">
<path d="M156.583 84.4106C156.583 84.4106 156.5 84.4106 156.433 84.4606C156.383 84.4772 156.316 84.5105 156.249 84.5105C156.249 84.4772 156.266 84.4439 156.283 84.4106C156.283 84.4439 156.283 84.4939 156.283 84.4939C156.283 84.5438 156.316 84.4772 156.333 84.4606C156.333 84.4606 156.333 84.4273 156.333 84.4106C156.333 84.4106 156.333 84.4606 156.333 84.4273V84.4939C156.333 84.4939 156.333 84.4439 156.35 84.4106C156.35 84.4606 156.349 84.444 156.333 84.4773C156.349 84.4773 156.333 84.4773 156.366 84.4773C156.383 84.4273 156.366 84.4273 156.383 84.3773C156.383 84.3773 156.416 84.3274 156.416 84.3773V84.3273C156.416 84.3273 156.466 84.2941 156.466 84.3607C156.583 84.1609 156.633 84.011 156.633 83.9277C156.633 83.8944 156.633 83.8611 156.633 83.8278C156.717 83.6113 156.7 83.3615 156.55 83.2117C156.466 83.1451 156.416 83.1118 156.316 83.1118C156.149 83.1118 156.032 83.245 155.949 83.4115C155.882 83.4448 155.815 83.4948 155.765 83.5447C155.632 83.6613 155.498 83.7445 155.365 83.8278C155.365 83.8278 155.331 83.8278 155.315 83.8611C155.315 83.8611 155.298 83.8611 155.281 83.8611C155.265 83.7612 155.181 83.8611 155.131 83.8944C155.114 83.8944 155.098 83.8944 155.064 83.8944C155.031 83.8445 154.997 83.7112 154.947 83.8111C154.947 83.8111 154.947 83.8111 154.947 83.8278H154.897C154.897 83.8278 154.831 83.7945 154.78 83.8611C154.78 83.8777 154.747 83.9111 154.73 83.9444C154.68 83.9444 154.647 83.9444 154.597 83.9444C154.597 83.9111 154.563 83.8944 154.53 83.8944C154.48 83.8112 154.296 83.961 154.246 83.8445C154.196 83.8445 154.313 83.7945 154.246 83.7778C154.263 83.7279 154.28 83.7778 154.296 83.7112C154.23 83.6946 154.246 83.578 154.163 83.5614V83.5114C154.063 83.5114 154.046 83.3449 153.963 83.3782C153.862 83.3449 153.963 83.2117 153.846 83.2283V83.145C153.846 83.145 153.779 83.195 153.762 83.145C153.779 83.1117 153.729 83.0785 153.762 83.0618C153.729 82.9452 153.562 82.9619 153.529 82.7454C153.462 82.7787 153.445 82.6788 153.395 82.6954C153.395 82.6621 153.312 82.5622 153.395 82.5789C153.395 82.5789 153.395 82.5789 153.395 82.5955H153.428C153.428 82.429 153.312 82.4623 153.278 82.379C153.278 82.4124 153.312 82.4457 153.278 82.4457L153.245 82.3624H153.278L153.228 82.2125V82.2625C153.228 82.2625 153.228 82.1126 153.161 82.0959C153.128 82.0959 153.161 82.1958 153.111 82.1459C153.095 82.046 153.061 81.8961 153.028 81.7795C152.994 81.8295 152.994 81.7795 152.961 81.7795L152.994 81.7463C152.911 81.6796 153.045 81.6464 152.961 81.5631H152.978L152.911 81.5797C152.811 81.5298 152.944 81.4632 152.828 81.4299C152.844 81.4632 152.777 81.5131 152.761 81.4299H152.794C152.794 81.4299 152.761 81.3965 152.761 81.3632C152.777 81.3632 152.811 81.33 152.777 81.2967H152.828L152.744 81.2467C152.744 81.1468 152.677 81.0802 152.694 81.0135C152.694 81.0135 152.661 80.847 152.611 80.847C152.644 80.847 152.627 80.7638 152.677 80.7471C152.627 80.7471 152.56 80.6472 152.577 80.564C152.544 80.3641 152.427 80.3141 152.41 80.1143C152.377 80.1476 152.36 80.0477 152.327 80.1143C152.277 80.0477 152.26 79.9645 152.26 79.8812C152.26 79.8146 152.227 79.7813 152.16 79.8146C152.126 79.748 152.16 79.698 152.16 79.6647C152.11 79.5481 152.093 79.5149 152.06 79.4149C152.026 79.3816 151.96 79.4149 151.943 79.315C151.976 79.315 151.96 79.2984 151.943 79.2484C151.943 79.2651 151.96 79.2651 151.976 79.1984H151.96C151.926 79.1485 151.926 79.1651 151.926 79.1984C151.926 79.1984 151.926 79.1985 151.926 79.2151C151.926 79.1319 151.876 79.0486 151.926 78.9986C151.859 78.8321 151.776 78.7322 151.709 78.599C151.709 78.5657 151.759 78.5823 151.776 78.599L151.726 78.499C151.726 78.499 151.759 78.549 151.793 78.5657C151.793 78.4824 151.759 78.4324 151.726 78.3658C151.692 78.3159 151.659 78.2659 151.659 78.1827C151.659 78.1827 151.659 78.0328 151.642 77.9662C151.642 77.9662 151.676 77.9662 151.676 77.9995C151.659 77.8996 151.626 77.7497 151.676 77.733C151.676 77.5998 151.659 77.45 151.642 77.3001C151.626 77.1502 151.592 77.0337 151.542 76.967C151.542 76.967 151.526 76.8505 151.492 76.7506V76.7339C151.442 76.6506 151.459 76.4341 151.425 76.3675H151.459L151.425 76.1511V76.2343C151.425 76.2343 151.459 76.0512 151.392 75.9346C151.392 75.7847 151.208 75.7347 151.208 75.5849C151.158 75.5349 151.275 75.6016 151.225 75.5183C151.258 75.485 151.258 75.5516 151.292 75.5183C151.258 75.435 151.292 75.3351 151.258 75.2186H151.292C151.208 75.0687 151.275 74.8689 151.192 74.8023C151.142 74.669 151.258 74.6357 151.175 74.5192L151.208 74.4359C151.208 74.4359 151.142 74.4192 151.158 74.3359C151.192 74.3359 151.158 74.2361 151.192 74.2527C151.208 74.0529 151.092 73.953 151.158 73.6699C151.108 73.6366 151.125 73.5034 151.092 73.47C151.108 73.47 151.092 73.2203 151.142 73.3369V73.3701H151.175C151.225 73.2203 151.142 73.1203 151.142 72.9871C151.142 73.0371 151.142 73.087 151.108 73.0537V72.9205L151.142 72.9372V72.7373L151.125 72.7707C151.125 72.6708 151.192 72.6208 151.142 72.5209C151.108 72.4875 151.092 72.6208 151.092 72.5209C151.108 72.3876 151.142 72.1878 151.142 72.0213C151.108 72.0546 151.108 72.0046 151.092 71.9547H151.125C151.075 71.7715 151.192 71.8548 151.158 71.6882H151.108C151.041 71.5384 151.175 71.5717 151.075 71.4218C151.075 71.4884 151.008 71.4718 151.008 71.3885H151.041C151.041 71.3885 151.025 71.3386 151.041 71.3053C151.058 71.3219 151.092 71.3053 151.075 71.2386L151.108 71.2719L151.041 71.1554C151.075 71.0388 151.041 70.889 151.075 70.839C151.075 70.839 151.075 70.6059 151.041 70.5726C151.075 70.6059 151.075 70.4893 151.108 70.5059C151.075 70.456 151.041 70.3061 151.075 70.2229C151.092 69.9731 150.991 69.8232 151.025 69.5901C150.991 69.6234 150.991 69.4902 150.958 69.5401C150.891 69.3403 151.008 69.0739 150.858 69.0739C150.841 68.9739 150.875 68.9406 150.875 68.8907C150.841 68.7241 150.841 68.6742 150.824 68.541C150.808 68.4744 150.741 68.491 150.741 68.3578C150.774 68.3911 150.758 68.3412 150.741 68.2912C150.741 68.3245 150.758 68.3245 150.774 68.2579C150.774 68.2579 150.774 68.2579 150.758 68.2246C150.741 68.158 150.724 68.1746 150.724 68.2079C150.724 68.2079 150.724 68.2079 150.724 68.2246C150.758 68.1247 150.691 67.9914 150.724 67.9581C150.674 67.725 150.607 67.5751 150.557 67.4086C150.574 67.3753 150.607 67.4086 150.624 67.4586L150.591 67.3253C150.591 67.3253 150.624 67.3919 150.641 67.4252C150.658 67.2254 150.524 67.1255 150.524 66.8924H150.491V66.8591C150.491 66.8591 150.441 66.8591 150.441 66.8258C150.457 66.7758 150.507 66.7758 150.474 66.6759C150.474 66.5927 150.407 66.5094 150.357 66.4428C150.224 65.6601 150.073 64.8941 149.94 64.0948C149.94 61.8967 149.973 59.6819 149.99 57.4672V57.3339V57.3673C149.99 57.3673 149.99 57.3173 149.99 57.3007C150.007 57.2673 150.023 57.234 149.99 57.1841C149.99 57.1674 149.99 57.1341 149.99 57.1175C149.99 57.0508 149.99 56.9842 149.99 56.9176C149.99 56.851 150.04 56.8177 150.023 56.7345H150.057C150.007 56.6346 150.123 56.5346 150.057 56.468C150.057 56.3681 150.157 56.4014 150.107 56.2848L150.157 56.2349C150.157 56.2349 150.107 56.2016 150.14 56.1516C150.173 56.1516 150.173 56.085 150.19 56.1184C150.24 56.0018 150.157 55.8852 150.24 55.7353C150.19 55.702 150.24 55.6354 150.19 55.6021C150.207 55.6021 150.19 55.4522 150.257 55.5355V55.5521H150.29C150.357 55.4689 150.274 55.4023 150.29 55.319C150.29 55.3523 150.29 55.3856 150.257 55.3523V55.2691H150.29V55.1525V55.1692C150.307 55.1025 150.374 55.0859 150.324 55.0193C150.307 54.986 150.274 55.0859 150.274 55.0193C150.307 54.936 150.34 54.8194 150.357 54.7195C150.324 54.7195 150.324 54.7195 150.307 54.6862H150.34C150.307 54.5863 150.407 54.6196 150.374 54.5197H150.324C150.257 54.4364 150.39 54.4364 150.307 54.3532C150.307 54.3865 150.24 54.3865 150.257 54.3365H150.29C150.29 54.3365 150.274 54.3032 150.29 54.2866C150.29 54.2866 150.34 54.2866 150.324 54.2532H150.357L150.307 54.2033C150.34 54.1367 150.307 54.0534 150.34 54.0201C150.34 54.0201 150.357 53.8869 150.324 53.8703C150.357 53.8869 150.374 53.8203 150.407 53.8203C150.374 53.787 150.34 53.7037 150.39 53.6538C150.424 53.5039 150.34 53.4207 150.39 53.2874C150.357 53.2874 150.374 53.2208 150.324 53.2542C150.274 53.1376 150.424 52.971 150.274 52.971C150.274 52.9044 150.307 52.8878 150.307 52.8545C150.307 52.7545 150.29 52.7212 150.29 52.638C150.29 52.6047 150.207 52.6213 150.224 52.5381C150.257 52.5381 150.24 52.5381 150.24 52.4881C150.24 52.5048 150.24 52.5048 150.274 52.4548C150.274 52.4548 150.274 52.4548 150.257 52.4548C150.257 52.4049 150.24 52.4215 150.24 52.4548C150.274 52.3882 150.24 52.3216 150.274 52.2883C150.257 52.1551 150.19 52.0718 150.157 51.9553C150.173 51.922 150.207 51.9552 150.224 51.9719V51.8886C150.224 51.8886 150.224 51.922 150.224 51.9553C150.257 51.8221 150.14 51.7721 150.174 51.6389H150.14V51.6222C150.14 51.6222 150.107 51.6222 150.09 51.6055C150.123 51.5722 150.157 51.5722 150.14 51.5056C150.157 51.439 150.09 51.3891 150.073 51.3391C150.073 51.3724 150.073 51.3724 150.04 51.3724C150.04 51.3391 150.057 51.3058 150.04 51.2891L150.073 51.2559C150.073 51.2559 150.007 51.2226 149.99 51.2226C150.007 51.1893 150.023 51.2392 150.057 51.2226C150.023 51.1227 150.04 51.1726 150.007 51.0727C149.957 51.0394 149.973 51.106 149.94 51.1227C149.94 51.0894 149.906 51.0727 149.89 51.056C149.89 51.056 149.89 51.0393 149.89 51.0227C149.89 51.0227 149.89 51.0061 149.89 50.9894C149.89 50.9894 149.84 50.8562 149.806 50.7896C149.74 50.6064 149.673 50.4399 149.589 50.2734C149.356 49.3075 148.988 48.4083 148.321 48.0253C148.154 47.942 148.004 47.8921 147.82 47.8588C147.753 47.8088 147.686 47.7589 147.62 47.7256C147.186 47.4758 146.518 47.4758 146.001 47.8588C146.001 47.8588 146.001 47.8421 146.001 47.8255C145.967 47.8588 145.917 47.8921 145.9 47.8255C145.817 47.8754 145.683 47.9254 145.65 48.042C145.65 48.042 145.617 48.0419 145.583 48.1085C145.567 48.1918 145.5 48.1752 145.466 48.2251V48.1918L145.4 48.2418H145.433C145.45 48.3417 145.366 48.2085 145.35 48.3084C145.299 48.3251 145.333 48.5748 145.266 48.5582C145.266 48.6248 145.266 48.4749 145.249 48.5248C145.233 48.4749 145.249 48.4749 145.249 48.4416C145.233 48.4916 145.183 48.4416 145.166 48.4916V48.4583C145.133 48.5748 145.049 48.4916 145.032 48.5749C144.999 48.6415 144.966 48.4916 144.932 48.6081L144.899 48.5749C144.899 48.5749 144.899 48.6581 144.882 48.6414C144.882 48.6081 144.849 48.6414 144.849 48.5915C144.782 48.5915 144.765 48.758 144.665 48.7413C144.665 48.8246 144.632 48.808 144.632 48.8746C144.632 48.8413 144.565 48.9412 144.582 48.8412V48.7913C144.582 48.7913 144.515 48.8912 144.482 48.9245C144.482 48.9245 144.515 48.9245 144.515 48.9412L144.482 48.9745V48.9412L144.415 48.9745V49.0078C144.415 49.0078 144.365 48.9579 144.365 49.0411C144.365 49.0911 144.415 49.0744 144.381 49.1077C144.331 49.1077 144.265 49.1243 144.214 49.1576C144.231 49.1909 144.214 49.2076 144.214 49.2243V49.191C144.164 49.2909 144.148 49.1243 144.114 49.2076V49.2742C144.114 49.3908 144.064 49.2243 144.064 49.3741C144.064 49.3408 144.114 49.4408 144.064 49.4574V49.4241C144.064 49.4241 144.064 49.4574 144.031 49.4574C144.031 49.4241 144.014 49.4074 143.997 49.4241V49.3741V49.474C143.947 49.474 143.931 49.5573 143.897 49.524C143.897 49.524 143.831 49.5573 143.847 49.6239C143.847 49.5739 143.814 49.6073 143.797 49.5573C143.797 49.6073 143.764 49.6905 143.73 49.6739C143.647 49.7072 143.647 49.8404 143.563 49.8737C143.58 49.907 143.547 49.9237 143.563 49.9736C143.53 50.0902 143.397 50.0069 143.463 50.1901C143.447 50.2234 143.413 50.1901 143.397 50.1901C143.397 50.1901 143.346 50.2734 143.296 50.3233C143.296 50.3566 143.33 50.4232 143.296 50.4565C143.296 50.4232 143.28 50.4399 143.263 50.4565C143.263 50.4565 143.263 50.4233 143.23 50.4399C143.23 50.4399 143.23 50.4565 143.23 50.4732C143.23 50.5065 143.23 50.5065 143.23 50.5065C143.18 50.5065 143.18 50.5897 143.146 50.5564C143.096 50.6563 143.096 50.7563 143.063 50.8395C143.046 50.8395 143.029 50.7896 143.046 50.7563L143.013 50.8229C143.013 50.8229 143.013 50.773 143.013 50.7563C142.929 50.773 142.979 50.9394 142.896 50.9727V51.0061C142.896 51.0061 142.912 51.056 142.896 51.056C142.862 51.056 142.846 51.0061 142.829 51.056C142.796 51.056 142.796 51.1559 142.796 51.2059C142.796 51.1892 142.812 51.2059 142.829 51.2059C142.829 51.2225 142.796 51.2059 142.796 51.2392H142.762C142.762 51.2392 142.762 51.2892 142.779 51.3058C142.762 51.3058 142.779 51.2558 142.762 51.2392C142.729 51.3224 142.762 51.2892 142.712 51.3558C142.612 51.4723 142.529 51.6555 142.378 51.7388C142.378 51.8387 142.278 51.9053 142.278 51.9719C142.261 51.9552 142.128 52.1718 142.178 52.0052C142.178 52.0052 142.195 51.9719 142.195 51.9886V51.9386C142.061 52.0052 142.044 52.1884 141.961 52.2883C141.994 52.255 142.028 52.2217 142.011 52.2716L141.928 52.3716V52.3216L141.794 52.4715H141.828C141.828 52.4715 141.711 52.5214 141.677 52.6546C141.677 52.7213 141.761 52.6213 141.711 52.7046C141.627 52.7879 141.494 52.9377 141.394 53.0709C141.427 53.0876 141.394 53.1209 141.394 53.1709H141.36C141.293 53.3374 141.277 53.1375 141.21 53.3207V53.3873C141.193 53.5705 141.126 53.3874 141.11 53.6205C141.143 53.5539 141.176 53.6538 141.11 53.7204V53.6705C141.11 53.6705 141.076 53.737 141.06 53.7537C141.06 53.7204 141.043 53.7037 141.01 53.7537V53.6871L140.976 53.8536C140.893 53.9036 140.843 54.0868 140.793 54.0701C140.793 54.0701 140.659 54.2366 140.676 54.3199C140.676 54.2533 140.609 54.3532 140.609 54.2866C140.609 54.3698 140.542 54.5197 140.475 54.5364C140.325 54.6862 140.292 54.9027 140.142 55.0193C140.175 55.0526 140.092 55.1192 140.142 55.1358C140.041 55.3523 139.841 55.3523 139.891 55.5521C139.841 55.6354 139.791 55.6021 139.758 55.6354V55.6021C139.658 55.752 139.624 55.802 139.541 55.9019C139.507 55.9685 139.541 56.0517 139.441 56.1184C139.441 56.0517 139.424 56.1183 139.39 56.135C139.39 56.1017 139.407 56.085 139.357 56.1184C139.357 56.1184 139.357 56.1517 139.357 56.1683C139.307 56.2349 139.324 56.2349 139.357 56.2183C139.357 56.2183 139.357 56.2183 139.374 56.2183C139.307 56.2349 139.224 56.3847 139.207 56.3348C139.057 56.518 138.973 56.6845 138.856 56.851C138.823 56.851 138.856 56.7844 138.873 56.7345L138.79 56.851C138.79 56.851 138.823 56.7678 138.856 56.7345C138.723 56.8011 138.673 57.0342 138.506 57.1341V57.2007H138.489C138.489 57.2007 138.489 57.2673 138.472 57.3007C138.439 57.3007 138.439 57.234 138.372 57.3007C138.305 57.334 138.239 57.5005 138.189 57.6004C138.222 57.5671 138.222 57.6004 138.222 57.6171C138.189 57.6504 138.155 57.6503 138.139 57.7003L138.105 57.667C138.105 57.667 138.055 57.8169 138.055 57.8502C138.022 57.8502 138.089 57.7669 138.072 57.7336C137.955 57.9002 138.022 57.8169 137.905 57.9834C137.872 58.1 137.938 58.0001 137.938 58.0833C137.888 58.1666 137.855 58.2665 137.788 58.3331H137.838C137.838 58.3331 137.805 58.4164 137.788 58.4497C137.788 58.4497 137.771 58.4663 137.755 58.483C137.705 58.4996 137.671 58.5163 137.621 58.6162C137.554 58.6828 137.504 58.7494 137.438 58.816C137.354 58.8826 137.271 58.9492 137.187 59.0325C137.221 59.0658 137.187 59.0991 137.137 59.149V59.1158C136.987 59.3322 137.02 59.0991 136.887 59.2989V59.2656V59.3822C136.786 59.5987 136.77 59.3822 136.686 59.6653C136.736 59.5986 136.753 59.7152 136.686 59.7818V59.7319C136.686 59.7319 136.653 59.8151 136.62 59.8318C136.62 59.7818 136.62 59.7652 136.553 59.8318V59.7485L136.503 59.9317C136.403 59.9983 136.302 60.1981 136.236 60.1815C136.236 60.1815 136.052 60.3647 136.035 60.4646C136.052 60.398 135.952 60.4979 135.952 60.4313C135.919 60.5146 135.802 60.7144 135.735 60.731C135.518 60.9142 135.434 61.1806 135.217 61.3638C135.251 61.3971 135.151 61.497 135.201 61.5137C135.051 61.7968 134.817 61.8467 134.85 62.0799C134.783 62.1964 134.733 62.1798 134.683 62.2297V62.1964C134.567 62.4129 134.516 62.4629 134.416 62.6127C134.366 62.696 134.416 62.7792 134.299 62.8958C134.299 62.8292 134.283 62.8958 134.233 62.9291C134.249 62.8958 134.249 62.8792 134.199 62.9291C134.199 62.9458 134.199 62.9624 134.199 62.9791C134.149 63.0624 134.166 63.0624 134.199 63.0291C134.199 63.0291 134.199 63.0291 134.216 63.0291C134.132 63.079 134.032 63.2622 133.999 63.2289C133.815 63.4787 133.715 63.6951 133.565 63.9116C133.532 63.9116 133.565 63.845 133.598 63.7784L133.498 63.9282C133.498 63.9282 133.548 63.8283 133.582 63.7784C133.415 63.8949 133.331 64.1781 133.148 64.3279V64.3946H133.114C133.114 64.3946 133.114 64.4778 133.081 64.5111C133.047 64.5111 133.047 64.4445 132.964 64.5444C132.881 64.5944 132.797 64.7775 132.73 64.8941C132.78 64.8442 132.78 64.8941 132.764 64.9108C132.73 64.9607 132.68 64.9607 132.664 65.0107L132.63 64.9774C132.63 64.9774 132.547 65.1439 132.547 65.1938C132.513 65.1938 132.597 65.0939 132.58 65.0606C132.43 65.2605 132.497 65.1606 132.346 65.377C132.28 65.5269 132.38 65.377 132.363 65.477C132.296 65.5769 132.246 65.7101 132.146 65.7933C131.829 66.1264 131.512 66.4594 131.195 66.8091C130.844 67.1921 130.494 67.5585 130.143 67.9415C130.143 67.9415 130.143 67.9415 130.143 67.9248C130.01 67.9748 129.943 68.2079 129.759 68.2579C129.759 68.3578 129.659 68.3911 129.659 68.4577C129.659 68.441 129.509 68.5909 129.576 68.4577C129.576 68.4577 129.592 68.441 129.592 68.4577V68.4077C129.475 68.4077 129.442 68.5909 129.359 68.6576C129.392 68.6576 129.425 68.6076 129.409 68.6576L129.325 68.7241V68.6742L129.208 68.7741H129.242C129.242 68.7741 129.125 68.7741 129.092 68.9073C129.075 68.9573 129.158 68.9073 129.108 68.9739C129.025 69.0239 128.891 69.0905 128.791 69.1738C128.824 69.2071 128.791 69.2237 128.774 69.2737V69.2403C128.674 69.3902 128.691 69.1904 128.607 69.3403V69.4069C128.557 69.5734 128.524 69.3736 128.474 69.5901C128.507 69.5401 128.524 69.6567 128.474 69.69V69.64C128.474 69.64 128.441 69.7066 128.424 69.7066C128.424 69.6733 128.424 69.64 128.374 69.7066V69.64L128.34 69.7899C128.274 69.8065 128.19 69.9564 128.157 69.9398C128.157 69.9398 128.023 70.0397 128.023 70.1229C128.023 70.0563 127.956 70.1229 127.956 70.0563C127.956 70.1229 127.856 70.2562 127.806 70.2562C127.639 70.3561 127.589 70.5559 127.456 70.6392C127.472 70.6725 127.406 70.7224 127.456 70.7557C127.356 70.9389 127.172 70.889 127.205 71.1054C127.155 71.1721 127.122 71.1387 127.088 71.1554C126.988 71.2553 126.955 71.2886 126.871 71.3718C126.838 71.4384 126.871 71.5218 126.788 71.5717C126.788 71.5218 126.771 71.5551 126.738 71.5717C126.738 71.5551 126.738 71.5384 126.705 71.555V71.5883C126.671 71.6549 126.671 71.6549 126.705 71.6383C126.638 71.6383 126.571 71.7881 126.538 71.7382C126.471 71.8215 126.404 71.9214 126.354 72.0046C125.67 72.4376 124.985 72.8206 124.301 73.2036C123.583 73.6033 122.882 74.0029 122.164 74.4026C122.064 74.4525 121.947 74.5191 121.847 74.5691C121.447 74.7023 121.029 74.8355 120.629 74.9854C119.811 75.2852 118.993 75.5516 118.192 75.8014C117.975 75.868 117.774 75.9346 117.557 76.0178C117.491 76.0178 117.44 76.0178 117.374 76.0178C117.324 76.0178 117.257 76.0178 117.207 76.0178C117.057 75.9512 116.923 75.9013 116.773 75.8513C116.072 75.6182 115.371 75.3684 114.653 75.1686C113.935 74.9521 113.201 74.8022 112.483 74.6024C112.132 74.5025 111.782 74.4026 111.448 74.236C111.298 74.1528 111.148 74.0862 110.981 74.0196C110.864 73.953 110.73 73.8697 110.613 73.8197C110.23 73.2869 109.846 72.7873 109.495 72.2045C109.061 71.4884 108.661 70.7224 108.277 69.973C108.16 69.7566 108.026 69.5401 107.909 69.3236C107.826 69.0072 107.726 68.6908 107.642 68.3578C107.509 67.8415 107.359 67.342 107.175 66.8757C107.776 65.8766 108.343 64.8275 108.877 63.7618C110.597 60.348 112.049 56.6678 113.334 52.9544C113.434 52.6713 113.518 52.4048 113.618 52.1218C113.902 51.5056 114.169 50.8895 114.386 50.2567C114.67 49.3908 115.087 48.5082 115.154 47.5923C115.354 47.0261 115.621 46.4933 115.855 45.9271C116.088 45.3776 116.305 44.8114 116.489 44.2286C116.906 42.9796 117.224 41.7141 117.557 40.4318C117.674 39.9656 117.791 39.516 117.925 39.0497C117.958 38.9498 117.991 38.8665 118.025 38.7666C118.025 38.7666 118.041 38.75 118.058 38.7333C118.125 38.6334 118.158 38.5501 118.142 38.4335C118.208 38.4502 118.192 38.3337 118.225 38.317C118.208 38.2171 118.325 38.1838 118.308 38.0839C118.308 38.0839 118.325 38.1005 118.325 38.1171C118.325 38.0505 118.342 37.9673 118.392 37.9839C118.425 37.8507 118.509 37.6509 118.475 37.5344C118.475 37.5344 118.475 37.4844 118.475 37.4178C118.442 37.3512 118.509 37.2512 118.509 37.2013H118.542L118.559 37.1014V37.1347C118.475 37.1014 118.609 37.0681 118.576 36.9682C118.576 36.9349 118.576 36.8849 118.542 36.8516C118.542 36.8183 118.542 36.785 118.542 36.7517C118.542 36.7517 118.542 36.7184 118.542 36.7017C118.576 36.7017 118.542 36.735 118.592 36.7184C118.592 36.6684 118.659 36.6351 118.642 36.5685H118.676C118.642 36.4686 118.759 36.4186 118.709 36.352C118.709 36.2687 118.809 36.3021 118.776 36.2188C118.776 36.2188 118.776 36.2188 118.776 36.2021H118.809V36.1689C118.843 36.1189 118.893 36.0689 118.943 36.0023C119.076 35.8025 119.176 35.6027 119.193 35.3529C119.277 35.3529 119.277 35.1031 119.31 35.0531C119.31 34.8699 119.444 34.7035 119.427 34.5203C119.427 34.5203 119.444 34.5203 119.427 34.5702C119.444 34.437 119.46 34.2705 119.51 34.2705C119.56 33.9707 119.661 33.5877 119.627 33.3879C119.61 33.288 119.644 33.2547 119.644 33.1381C119.627 33.0049 119.694 32.7884 119.694 32.6885H119.727L119.761 32.4554V32.5387C119.661 32.5054 119.811 32.3721 119.794 32.1889C119.827 32.0224 119.677 31.8559 119.744 31.6894C119.727 31.6061 119.794 31.756 119.777 31.6394C119.811 31.6394 119.794 31.6894 119.827 31.6727C119.827 31.5561 119.894 31.4896 119.894 31.3397H119.928C119.894 31.1399 120.028 30.99 119.978 30.8734C119.978 30.6902 120.095 30.7569 120.061 30.557L120.111 30.4904C120.128 30.4071 120.061 30.4238 120.111 30.3405C120.145 30.3405 120.145 30.224 120.161 30.2739C120.228 30.0741 120.161 29.841 120.278 29.5579C120.228 29.4913 120.278 29.3414 120.245 29.3081C120.278 29.3081 120.278 29.025 120.312 29.1749V29.2082H120.345C120.428 29.0583 120.345 28.9251 120.362 28.7585C120.362 28.8085 120.345 28.8751 120.328 28.8252V28.6753L120.362 28.7086L120.395 28.4755L120.362 28.5088C120.395 28.3922 120.445 28.3589 120.412 28.2257C120.395 28.1758 120.362 28.3423 120.362 28.2257C120.395 28.0758 120.445 27.8593 120.462 27.6595C120.462 27.6595 120.462 27.6595 120.445 27.6595C120.445 27.6262 120.445 27.5929 120.445 27.5762C120.445 27.5762 120.445 27.5429 120.445 27.5263C120.445 27.5096 120.445 27.493 120.445 27.4597C120.445 27.4097 120.512 27.4264 120.495 27.2931H120.445V27.2598C120.445 27.2265 120.445 27.2099 120.445 27.1766C120.445 27.11 120.512 27.11 120.445 26.9768C120.445 27.0267 120.412 27.0267 120.395 27.0101C120.395 26.9934 120.395 26.9768 120.395 26.9434H120.412C120.412 26.9434 120.395 26.8935 120.412 26.8602C120.428 26.8935 120.462 26.8602 120.445 26.7936L120.478 26.8269L120.412 26.6937C120.445 26.5771 120.412 26.4106 120.445 26.344C120.445 26.344 120.445 26.0942 120.412 26.0609C120.445 26.0942 120.445 25.9609 120.478 25.9943C120.445 25.9443 120.412 25.7778 120.445 25.6945C120.462 25.4281 120.362 25.2616 120.395 25.0118C120.362 25.0451 120.362 24.9119 120.328 24.9618C120.261 24.762 120.362 24.5289 120.278 24.4623C120.261 24.429 120.245 24.4123 120.228 24.3624C120.228 24.3124 120.261 24.2791 120.261 24.2291C120.228 24.0459 120.228 23.996 120.211 23.8461C120.211 23.8128 120.178 23.7962 120.161 23.7795C120.161 23.7795 120.161 23.7462 120.161 23.7296C120.161 23.7296 120.145 23.7296 120.128 23.7296C120.128 23.7296 120.128 23.7129 120.128 23.6963H120.145C120.145 23.6963 120.145 23.663 120.145 23.6463C120.145 23.6463 120.145 23.6463 120.145 23.613C120.145 23.5797 120.211 23.563 120.178 23.5131H120.195H120.161C120.145 23.4298 120.128 23.4464 120.145 23.4964C120.145 23.4964 120.145 23.4964 120.145 23.5131C120.145 23.4964 120.145 23.4631 120.145 23.4465C120.145 23.4465 120.145 23.4298 120.145 23.4132C120.145 23.3632 120.145 23.3133 120.145 23.2633C120.145 23.2633 120.145 23.23 120.161 23.23C120.145 23.0801 120.111 22.9469 120.078 22.8303C120.078 22.8137 120.095 22.7804 120.128 22.7804C120.095 22.7637 120.061 22.6971 120.078 22.6305C120.078 22.6305 120.078 22.6638 120.078 22.6805V22.6138C120.078 22.6138 120.078 22.5639 120.078 22.5473C120.078 22.5639 120.078 22.6305 120.111 22.6638C120.145 22.464 120.011 22.3141 120.044 22.081L120.011 22.0477C120.011 22.0477 119.978 21.9977 119.961 21.9811C119.994 21.9311 120.028 21.9478 120.011 21.8478C120.028 21.7479 119.961 21.6147 119.928 21.5314C119.928 21.5981 119.928 21.5814 119.894 21.5648C119.894 21.5148 119.894 21.4648 119.894 21.4315L119.928 21.3982C119.928 21.3982 119.861 21.2817 119.844 21.2817C119.861 21.2317 119.878 21.3483 119.911 21.3483C119.861 21.1485 119.894 21.2483 119.844 21.0485C119.794 20.9652 119.811 21.0818 119.777 21.0652C119.761 20.6489 119.727 20.1826 119.61 19.8163C119.627 19.7163 119.661 19.5831 119.677 19.4166C119.677 19.1502 119.644 18.967 119.527 18.8338C119.594 18.7505 119.46 18.6173 119.444 18.5507C119.444 18.5507 119.343 18.4341 119.293 18.3508C119.243 18.2842 119.193 18.2176 119.11 18.2176C119.11 18.2176 119.126 18.1843 119.16 18.201C119.06 18.151 118.926 18.151 118.943 18.0844C118.776 18.0511 118.559 18.0511 118.409 18.1177C118.075 17.9845 117.674 18.0345 117.19 18.3342C116.873 18.5174 116.573 18.8005 116.289 19.1169C116.389 18.8504 116.339 18.7005 115.771 19.1835C115.621 19.35 115.521 19.4998 115.471 19.6997C115.404 19.6664 115.354 19.8829 115.304 19.9162C115.271 20.0827 115.104 20.1493 115.07 20.3325C115.07 20.3325 115.07 20.2992 115.07 20.2659C115.02 20.3658 114.953 20.5156 114.92 20.4823C114.803 20.7155 114.603 21.0319 114.569 21.2484C114.569 21.3483 114.519 21.3483 114.486 21.4648C114.486 21.598 114.352 21.7646 114.319 21.8645H114.286L114.202 22.0643L114.236 21.9977C114.202 22.0477 114.169 22.0976 114.169 22.1476C114.169 22.1143 114.102 22.1809 114.102 22.1143C114.102 22.1975 114.019 22.3474 113.969 22.3807C113.818 22.5473 113.785 22.7471 113.651 22.8803C113.685 22.8969 113.601 22.9802 113.651 22.9969C113.568 23.2133 113.368 23.2466 113.434 23.4465C113.384 23.5297 113.351 23.5131 113.318 23.5464V23.5131C113.234 23.6796 113.201 23.7296 113.134 23.8461C113.101 23.9127 113.151 23.9793 113.067 24.0792C113.067 24.0293 113.051 24.0793 113.017 24.1126C113.017 24.0793 113.017 24.0626 112.984 24.1126C112.984 24.1126 112.984 24.1459 112.984 24.1625C112.95 24.2458 112.967 24.2291 112.984 24.2125C112.984 24.2125 112.984 24.2125 113 24.2125C112.934 24.2625 112.884 24.4123 112.85 24.379C112.783 24.4955 112.75 24.6121 112.7 24.7287C112.65 24.7953 112.6 24.8619 112.55 24.9452C112.55 24.9285 112.583 24.8952 112.583 24.8619C112.533 24.9119 112.5 24.9785 112.483 25.0451C112.466 25.0784 112.45 25.1117 112.416 25.145C112.383 25.2116 112.333 25.2949 112.299 25.3615C112.016 25.7945 111.732 26.2441 111.465 26.6937C111.381 26.8435 111.365 27.0101 111.381 27.1599C111.331 27.2599 111.281 27.3598 111.248 27.4763C110.814 28.5421 110.346 29.6078 109.979 30.7069C109.745 31.3896 109.562 32.1057 109.412 32.8051C109.228 33.4379 109.044 34.0873 108.861 34.7201C108.827 34.8367 108.794 34.9366 108.761 35.0531C108.36 36.4686 107.943 37.8507 107.742 39.2995C107.692 39.4494 107.642 39.5826 107.592 39.7324C107.375 40.3985 107.192 41.0813 107.025 41.764C106.808 42.4967 106.591 43.2461 106.39 43.9955C106.09 45.2111 105.84 46.4267 105.673 47.6589C105.556 48.1752 105.406 48.9079 105.439 49.4907C105.422 49.6739 105.389 49.857 105.372 50.0402C105.322 50.34 105.272 50.6564 105.272 50.9561C105.272 50.9894 105.272 51.0227 105.272 51.056C105.239 51.3891 105.222 51.7388 105.205 52.0718C105.239 52.2383 105.172 52.5214 105.205 52.7046L105.172 52.7879C105.172 52.7879 105.172 52.9377 105.172 53.0043C105.172 53.1042 105.172 53.2042 105.172 53.2542V53.3707C105.172 53.5205 105.172 53.7037 105.155 53.8536H105.189C105.122 54.17 105.189 54.2866 105.122 54.603C105.189 54.9693 105.022 55.2191 105.088 55.6021C105.088 55.5521 105.072 55.6188 105.055 55.6188C105.055 55.8019 105.055 56.0018 105.122 55.9851C105.122 56.1183 105.088 56.1017 105.072 56.1184C105.105 56.1184 105.105 56.2182 105.105 56.3348V56.2848V56.5846L105.172 56.518C105.155 56.6845 105.088 56.5679 105.105 56.7178H105.155C105.139 56.9343 105.055 57.0675 105.005 57.284C104.988 57.7336 105.005 58.1832 105.022 58.5995C105.022 58.816 105.022 59.0158 105.005 59.2157C105.005 59.3156 104.988 59.4155 104.972 59.5321C104.972 59.6486 104.938 59.7486 104.922 59.8651L104.888 59.9151C104.888 59.9151 104.972 60.1315 104.922 60.1815L104.955 60.2814C104.955 60.2814 104.938 60.3813 104.922 60.3314C104.922 60.4313 104.921 60.4313 104.955 60.4813L104.922 60.5978C104.922 60.9641 105.022 61.2306 105.055 61.5803C105.055 62.0299 105.255 62.7126 105.389 63.1123C105.356 63.1456 105.322 63.1956 105.322 63.2455C105.305 63.3455 105.272 63.3621 105.272 63.3621C105.255 63.4287 105.272 63.5286 105.322 63.6619C105.322 63.6785 105.339 63.7118 105.356 63.7284C105.489 64.7109 105.673 65.6768 105.89 66.6093C105.823 66.7758 105.756 66.9423 105.723 67.0756C105.589 67.5418 105.172 67.8749 105.055 68.3412V68.3911C105.005 68.491 104.938 68.5909 104.855 68.6908C104.855 68.6908 104.788 68.7907 104.705 68.9239C104.654 68.9906 104.604 69.0905 104.554 69.1738C104.504 69.257 104.488 69.3236 104.471 69.3569C104.471 69.3902 104.454 69.4235 104.437 69.4568C104.437 69.4568 104.437 69.4735 104.437 69.4902C104.354 69.6067 104.287 69.7233 104.204 69.8399C103.937 70.1896 103.636 70.4726 103.336 70.7557C103.269 70.8223 103.219 70.8889 103.202 70.9722C101.984 71.9547 100.865 72.3044 99.8305 72.1712C99.7971 72.1712 99.7804 72.1379 99.747 72.1212C99.747 72.1212 99.6802 72.0713 99.6135 72.0213C99.5634 71.988 99.5133 71.9547 99.4632 71.9381C99.3631 71.8881 99.2629 71.8715 99.1461 71.8881C99.1461 71.7715 98.9124 71.8048 98.8623 71.7715C98.8623 71.7715 98.8289 71.7715 98.8122 71.7715C98.7955 71.7049 98.7622 71.6383 98.7121 71.5883C98.0611 71.0055 97.3767 70.456 96.7758 69.7899C96.1582 69.1238 95.6408 68.3078 95.2068 67.392C94.7561 66.4428 94.3054 65.4603 93.8881 64.4778C93.6711 63.9949 93.4541 63.512 93.2371 63.0291C93.0702 62.6627 92.9534 62.2963 92.7197 62.0299C92.3858 60.9808 92.1188 59.965 91.8851 59.0325C91.9185 58.9326 91.9351 58.8326 91.9184 58.7327C91.6681 56.7011 91.401 54.6862 91.1339 52.6546C91.1005 52.3716 91.0505 52.1051 91.0171 51.822V51.6222V51.6888C91.0171 51.6888 91.0171 51.6888 91.0004 51.6888C91.0004 51.6722 91.0004 51.6555 91.0004 51.6222C91.0004 51.5722 91.0505 51.4723 91.0171 51.4057C91.0171 51.3558 91.0004 51.3058 90.967 51.2559C90.967 51.1726 90.967 51.0727 90.9503 50.9894C90.967 50.9894 90.9503 51.0227 91.0004 50.9894C91.0004 50.8895 91.0505 50.8229 91.0338 50.723H91.0672C91.0171 50.5731 91.1339 50.4232 91.0672 50.3233C91.0672 50.1568 91.1673 50.2067 91.1173 50.0402L91.1673 49.9736C91.1673 49.9736 91.1172 49.9237 91.1506 49.8404C91.184 49.8404 91.184 49.7405 91.2007 49.7904C91.2675 49.6073 91.1673 49.4241 91.2675 49.1743C91.2174 49.1244 91.2675 48.9911 91.2174 48.9578C91.2341 48.9578 91.2174 48.708 91.2842 48.8412V48.8746H91.3176C91.3843 48.7247 91.3009 48.6248 91.3176 48.4916C91.3176 48.5415 91.3176 48.5915 91.2842 48.5582V48.4249L91.3176 48.4416C91.3176 48.375 91.3176 48.3084 91.3176 48.2418L91.2842 48.2751C91.2842 48.1752 91.351 48.1252 91.2842 48.0253C91.2508 47.992 91.2508 48.1252 91.2341 48.0253C91.2341 47.8921 91.2675 47.6922 91.2675 47.5424C91.2341 47.5757 91.2341 47.5424 91.2174 47.4924H91.2508C91.184 47.3259 91.3175 47.3759 91.2508 47.2426H91.2007C91.1172 47.1261 91.2508 47.1261 91.1506 47.0095C91.1506 47.0761 91.0838 47.0761 91.0838 46.9929H91.1173C91.1173 46.9929 91.0839 46.9429 91.1005 46.9262C91.1172 46.9429 91.1506 46.9262 91.1339 46.8596H91.184L91.1173 46.793C91.1339 46.6931 91.0839 46.5765 91.1173 46.5099C91.1173 46.5099 91.1173 46.3101 91.0672 46.2934C91.1006 46.3101 91.1005 46.2102 91.1339 46.2269C91.1005 46.1936 91.0505 46.0603 91.0838 45.977C91.0838 45.7439 91.0004 45.6274 91.0171 45.4109C90.9837 45.4275 90.9837 45.3276 90.9503 45.3609C90.8836 45.1777 91.0171 44.9446 90.8502 44.928C90.8502 44.8447 90.8669 44.8114 90.8835 44.7448C90.8835 44.7448 90.8669 44.6449 90.8669 44.6116C90.9003 44.545 90.917 44.4617 90.917 44.3784C90.9503 43.0796 90.9169 41.7973 90.8502 40.5318C90.7834 39.416 90.7166 38.267 90.316 37.3678C90.316 37.3345 90.2826 37.3012 90.2659 37.2845C90.316 37.168 90.3494 37.0348 90.316 36.9016C90.2993 36.7683 90.266 36.6351 90.2326 36.5185C90.2326 36.402 90.1992 36.2854 90.1658 36.1689C90.1157 35.9524 90.0656 35.7359 89.9989 35.5361C89.9989 35.4361 89.9655 35.3363 89.9488 35.253C89.7652 34.1872 89.4647 33.1048 88.6802 32.8051C88.7136 32.6885 88.7136 32.5553 88.6802 32.4554C88.4298 31.8226 87.7955 31.8559 87.3281 31.7393C86.9442 31.6394 86.577 31.5229 86.1764 31.5062C85.7925 31.4729 85.3919 31.4063 85.008 31.4896C84.3403 31.6228 83.5891 32.2389 83.0049 32.8051C82.4207 33.3546 81.7196 33.9707 81.319 34.82C81.2523 34.9532 81.2523 35.0864 81.269 35.203C81.1688 35.2696 81.052 35.3529 80.9685 35.4361C80.5512 35.8525 80.184 36.3687 79.8168 36.8349C78.9822 37.884 78.1977 39.0164 77.4465 40.1821C77.0793 40.7316 76.7121 41.2811 76.3782 41.8806C76.1112 42.3635 75.8941 42.8797 75.6271 43.3793C75.6271 43.3793 75.5937 43.396 75.577 43.4626V43.4292V43.4792C75.577 43.4792 75.577 43.4792 75.577 43.4959C75.5102 43.6124 75.4435 43.7124 75.3767 43.8289C75.2932 43.9621 75.2265 44.0787 75.143 44.2119C75.1263 44.2452 75.0762 44.3118 75.0429 44.3784V44.4118C75.0429 44.4118 74.9594 44.4451 74.9594 44.4118C74.9594 44.495 74.8759 44.6449 74.8259 44.6615C74.6923 44.7781 74.6589 44.9446 74.5588 45.0779C74.5421 45.1112 74.5087 45.1444 74.492 45.1611C74.492 45.1777 74.4586 45.1944 74.442 45.2111C74.0914 45.5941 73.7576 45.8938 73.6908 46.5433C73.6908 46.5433 73.6908 46.5766 73.6908 46.5932C73.6741 46.6265 73.6574 46.6432 73.6407 46.6265C73.574 46.7431 73.5239 46.8597 73.4738 46.9596C73.4404 47.0262 73.3903 47.0928 73.357 47.1427C73.357 47.1261 73.357 47.0928 73.3737 47.0761L73.3069 47.2093C73.3069 47.2093 73.3403 47.1261 73.357 47.0761C73.2234 47.1594 73.2067 47.4092 73.0732 47.5257V47.5757C73.0732 47.5924 73.0398 47.6256 73.0231 47.6423C73.0231 47.6423 72.9897 47.6423 72.9564 47.6756C72.9063 47.7089 72.8562 47.8421 72.8228 47.9421C72.8061 47.9754 72.7727 48.0087 72.756 48.042C72.756 48.042 72.7394 48.0753 72.7227 48.0919C72.7227 48.0919 72.7227 48.0919 72.7227 48.0753C72.6225 48.2085 72.6559 48.1752 72.5891 48.2751C72.2386 48.758 71.8714 49.2243 71.4875 49.6572C70.5527 50.723 69.4844 51.4057 68.9503 49.7904C68.8668 49.5573 68.8167 49.3075 68.75 49.0577C68.75 49.0244 68.7667 48.9911 68.7834 48.9578C68.9169 48.1585 68.8835 47.3259 68.9169 46.5266C68.9336 46.1436 68.9503 45.7606 68.967 45.3609C69.1005 44.3618 69.2007 43.3793 69.3342 42.3802C69.4344 41.5975 69.5512 40.8148 69.5846 40.0488C69.668 39.7491 69.7348 39.466 69.8016 39.1662C69.8016 39.1496 69.8016 39.1329 69.8016 39.1163C70.0019 38.4169 70.1855 37.7008 70.3691 36.9848C70.5861 36.0689 70.8198 35.1697 71.0535 34.2538C71.1202 34.1706 71.187 34.0707 71.2705 33.9374C71.3873 33.671 71.4374 33.4878 71.3706 33.2714C71.5042 33.2714 71.4374 33.0382 71.4875 32.9716C71.4374 32.7884 71.6377 32.6219 71.5876 32.4387C71.5876 32.4387 71.621 32.4554 71.621 32.4887C71.621 32.3555 71.621 32.1723 71.7045 32.1889C71.7379 31.8892 71.8547 31.4563 71.7712 31.2398H71.7879C71.7879 31.2398 71.7545 31.1732 71.7712 31.1399C71.8881 30.7402 71.9882 30.3239 72.0216 29.9076C72.0216 29.741 72.0049 29.6412 71.9382 29.5745C71.9382 29.458 71.9715 29.3414 71.9715 29.2248C71.9715 29.1915 71.9715 29.1749 71.9715 29.1416C71.9715 29.1416 71.9715 29.1249 71.9715 29.1083H72.0216C71.9382 28.9251 72.1218 28.7586 72.055 28.642C72.055 28.642 72.055 28.6253 72.055 28.6087C72.055 28.592 72.055 28.5754 72.055 28.5587C72.0884 28.4588 72.2052 28.4755 72.1384 28.3256L72.2219 28.259C72.2219 28.259 72.1384 28.1924 72.1885 28.1091C72.2386 28.1091 72.2386 27.9926 72.272 28.0592C72.3721 27.8593 72.2386 27.6262 72.4222 27.3764C72.3554 27.3098 72.4222 27.1766 72.3721 27.11C72.4055 27.11 72.4389 26.8435 72.489 27.0101C72.489 27.0101 72.489 27.0434 72.4723 27.0434L72.5224 27.0767C72.5224 27.0767 72.5891 26.9435 72.5891 26.8602C72.5891 26.7603 72.5724 26.677 72.5891 26.5938C72.5558 26.6437 72.5557 26.7103 72.5224 26.6604L72.5557 26.4939L72.5891 26.5271L72.6559 26.2774L72.5891 26.3107C72.6392 26.1941 72.7394 26.1608 72.6726 26.0109C72.6726 25.9943 72.6559 26.0109 72.6392 26.0109C72.6726 25.961 72.7227 25.8944 72.7728 25.8111H72.7894C72.8562 25.578 72.8729 25.4114 72.7894 25.2782C72.8562 25.2449 72.8562 25.2116 72.8562 25.1616C72.8562 25.145 72.8729 25.1117 72.8562 25.0617H72.8395V25.0284C72.7394 24.9285 72.9063 24.7287 72.8228 24.6288C72.8228 24.6288 72.8729 24.6288 72.8729 24.6454C72.8729 24.6454 72.8729 24.6121 72.8729 24.5955C72.8562 24.5122 72.8395 24.4456 72.9063 24.4123C72.9063 24.3624 72.9063 24.3124 72.8896 24.2624C72.923 24.0793 72.9563 23.8795 72.9897 23.6963C72.9897 23.6963 72.9897 23.6963 72.9897 23.6796C73.0732 23.1967 73.1233 22.7137 73.0732 22.2475C73.0565 22.031 72.923 21.9478 72.7728 21.9644C72.7728 21.8645 72.8228 21.8312 72.8395 21.7646C72.8061 21.5648 72.8061 21.5148 72.8061 21.3483C72.8061 21.315 72.7727 21.315 72.756 21.2983C72.756 21.2151 72.756 21.1318 72.756 21.0319C72.756 20.9153 72.756 20.8154 72.756 20.6988C72.7227 19.8662 72.539 19.0835 72.3387 18.3508C71.9882 15.3368 70.8532 13.0721 69.1506 11.8065C68.9837 11.5734 68.8167 11.3236 68.6164 11.1237C67.6984 10.1746 66.4966 10.2079 65.3114 10.2911C64.9609 10.3244 64.6104 10.4243 64.2765 10.5409C64.2765 10.4909 64.2765 10.4577 64.2431 10.4077C64.2098 10.2911 64.1764 10.1912 64.143 10.0746C64.143 10.0247 64.143 9.97473 64.1263 9.92477C64.1263 9.82486 64.0929 9.75824 64.0428 9.70828C63.9928 9.47515 63.9427 9.25868 63.8759 9.0422C63.7758 8.77576 63.6756 8.52601 63.5588 8.29288C63.2082 7.36035 62.7909 6.51104 62.2902 5.76169C62.2902 5.72839 62.2902 5.6951 62.3069 5.67845C62.2067 5.49527 62.1066 5.1622 61.9396 5.12889H61.9564C61.8562 5.12889 61.9063 5.02899 61.8228 4.97903C61.8228 4.97903 61.8228 4.96239 61.8228 4.94574C61.7227 4.94574 61.6893 4.7126 61.6225 4.6793L61.6559 4.62934C61.6559 4.62934 61.5891 4.52944 61.5557 4.47948L61.5891 4.5461C61.4723 4.66267 61.5891 4.34625 61.4389 4.31295C61.4055 4.22968 61.272 4.31295 61.1718 4.31295C61.1384 4.27964 61.1217 4.24634 61.0884 4.21304C61.1051 4.19638 61.1217 4.16308 61.0884 4.16308C61.1384 4.07982 61.1384 4.14643 61.1718 4.06317C61.0884 4.04652 61.1217 3.87997 61.0216 3.87997L61.055 3.8134C60.9047 3.8467 60.9715 3.58025 60.8714 3.64686C60.838 3.64686 60.838 3.56361 60.8547 3.497C60.8547 3.44704 60.8547 3.38042 60.7712 3.38042C60.7712 3.33046 60.7712 3.29718 60.7712 3.24722C60.7378 3.18061 60.6711 3.3138 60.6377 3.21389C60.6711 3.16393 60.5876 3.09734 60.6544 3.08069C60.5709 2.86421 60.3372 2.99739 60.2704 2.73095C60.187 2.83087 60.1369 2.6977 60.0701 2.78096C60.0868 2.731 59.9199 2.66438 60.0701 2.61443C60.0701 2.61443 60.0868 2.61441 60.0701 2.64771L60.1035 2.58109C60.0702 2.39791 59.9199 2.54782 59.8365 2.46456C59.8365 2.49787 59.8865 2.5145 59.8365 2.5478L59.753 2.48118L59.7864 2.43123L59.6862 2.31465V2.39794C59.6862 2.39794 59.6529 2.18146 59.5527 2.24807C59.5193 2.28138 59.5527 2.33133 59.536 2.34798C59.5026 2.31468 59.4692 2.28138 59.4358 2.24807C59.4358 2.23142 59.4025 2.1981 59.4025 2.18145C59.3524 2.11484 59.3357 2.06487 59.2522 2.01492C59.2522 2.03157 59.2522 2.04822 59.2522 2.06487C59.2355 2.04822 59.2189 2.03157 59.2022 2.01492C59.1688 1.99826 59.1521 1.965 59.1187 1.94834C59.1187 1.89839 59.1187 1.8484 59.0353 1.86505C59.0353 1.86505 58.9852 1.84842 58.9685 1.83177C58.2674 1.28224 57.4495 1.21559 56.6316 1.06572C56.4981 1.03242 56.3645 0.999117 56.231 0.965812C56.0808 0.899203 55.9305 0.782649 55.7803 0.666083C55.5466 0.49956 55.2962 0.399644 55.0458 0.29973C54.495 0.0832494 53.9108 0 53.3266 0C53.1597 0 52.9928 0.0166503 52.8258 0.0499549C52.6255 0.0499549 52.4085 0.0666073 52.2082 0.0499549C51.841 0.0499549 51.4905 0.0499692 51.1232 0.116578C51.1232 0.116578 51.0899 0.116578 51.0732 0.116578C48.2021 0.166535 45.2477 1.03245 42.3099 2.39794C42.2431 2.39794 42.1596 2.41457 42.0929 2.43123C41.8592 2.48118 41.6088 2.53113 41.3584 2.63104C41.1247 2.73096 40.9078 2.91415 40.6741 3.01407C40.2401 3.18059 39.7894 3.14727 39.3554 3.36375C39.1551 3.46367 38.9548 3.64688 38.7378 3.71349C38.5041 3.79675 38.2537 3.81338 38.02 3.89664C37.5526 4.06316 37.0686 4.27963 36.6346 4.61268C36.2006 4.94572 35.7499 5.27878 35.3159 5.61183C34.8986 5.92822 34.4479 6.12805 34.014 6.39449C33.4798 6.72753 33.0959 7.2271 32.6452 7.74332C32.3948 8.02641 32.1444 8.29283 31.8941 8.55927C31.5769 8.77575 31.2765 9.00889 30.976 9.24202C29.891 10.058 28.8061 10.9239 27.7545 11.8398C27.1202 12.406 26.4859 13.0055 25.9016 13.6882C25.6513 13.9713 25.4009 14.2544 25.1672 14.5708C25.1338 14.6041 25.1171 14.654 25.1004 14.704C25.0837 14.704 24.8668 14.8872 24.8668 15.0204C24.8834 14.9205 24.7666 15.0204 24.7666 14.9205C24.7332 15.037 24.5997 15.2702 24.4995 15.2702C24.2325 15.4367 24.1323 15.7864 23.8819 15.9196C23.9153 15.9696 23.7985 16.0528 23.8485 16.1194C23.7651 16.2027 23.6816 16.286 23.6149 16.3692C23.5314 16.4192 23.4646 16.4692 23.4312 16.5691C23.0974 16.9188 22.7636 17.2851 22.4297 17.6181C21.3113 18.7338 20.1429 19.7496 19.108 21.0652C18.6239 21.4149 18.2567 21.9478 17.9229 22.5473C17.7727 22.7138 17.6224 22.8636 17.4889 23.0301C16.6877 23.8961 15.9198 24.8286 15.1687 25.7944C13.6664 27.7095 12.0974 29.7244 10.8955 32.0391C10.5784 32.6718 10.2446 33.238 9.86065 33.8042C9.62696 34.1539 9.30981 34.6202 9.15959 35.1031C9.05943 35.2863 8.97598 35.4695 8.87583 35.6526C8.79237 35.6859 8.72558 35.7692 8.6755 35.8857C8.60874 36.0356 8.52528 36.2021 8.44182 36.352C8.37505 36.4353 8.30828 36.5185 8.2582 36.5852C8.09128 36.8016 7.95777 37.0348 7.80754 37.2679C7.674 37.4677 7.55716 37.6842 7.44031 37.9007C7.40693 37.9507 7.37354 37.9839 7.35685 38.0339C6.98962 38.5668 6.58901 38.9998 6.30524 39.6159C6.27186 39.6992 6.25517 39.7657 6.25517 39.849C6.05487 40.182 5.87127 40.5151 5.67097 40.8648C5.47066 41.2145 5.28705 41.5809 5.12013 41.9472C5.10344 41.9472 5.08673 41.9972 5.05335 42.0638C4.95319 42.2803 4.85305 42.4967 4.7529 42.6965V42.63L4.73619 42.7299C4.66943 42.8631 4.60267 42.9963 4.5359 43.1462C4.50251 43.1961 4.46913 43.2294 4.43575 43.2294C4.43575 43.2294 4.23544 43.4959 4.26882 43.6291C4.26882 43.5292 4.16867 43.679 4.13528 43.5958C4.13528 43.7123 4.05185 43.9788 3.95169 44.0287C3.7347 44.2952 3.7347 44.6282 3.53439 44.878C3.58447 44.8947 3.53439 44.9946 3.53439 45.0279C3.21725 45.6274 2.93348 46.2435 2.6998 46.8763C2.6998 46.8763 2.6831 46.9429 2.6664 46.9596C2.6664 46.9596 2.66639 46.9929 2.6497 46.9929C2.59962 47.0928 2.54955 47.1927 2.49947 47.2926C2.46609 47.3425 2.44939 47.3925 2.41601 47.4591C2.41601 47.4591 2.41601 47.4591 2.41601 47.4758C2.21571 47.8588 1.91526 48.3417 1.84849 48.808C1.84849 48.808 1.8485 48.8246 1.8318 48.8412V48.9245C1.8318 48.9245 1.8318 48.9412 1.8318 48.9578C1.8318 48.9911 1.8318 49.0244 1.8318 49.0577V49.0744C1.76504 49.0744 1.73166 49.0078 1.68158 49.141C1.59812 49.2243 1.56472 49.474 1.53134 49.6239C1.56472 49.5573 1.58141 49.5906 1.58141 49.6239C1.54803 49.6905 1.49797 49.7072 1.49797 49.7738L1.43119 49.7405C1.43119 49.7405 1.4145 49.957 1.43119 50.0069C1.36442 50.0069 1.43119 49.8737 1.43119 49.8404C1.31434 50.1235 1.38113 49.9736 1.26428 50.2567C1.24759 50.4399 1.33103 50.2567 1.34772 50.3733C1.29765 50.5065 1.28096 50.673 1.1975 50.8229H1.26428C1.21421 51.0893 1.16411 51.2392 1.06396 51.4057C1.06396 51.4557 1.06396 51.5057 1.06396 51.539C0.71343 52.3216 0.37959 53.1043 0.0457498 53.9036C-0.137862 54.3199 0.279447 54.603 0.446367 54.1867C0.696746 53.6038 0.94713 53.0377 1.18082 52.4715C1.23089 52.5381 1.28096 52.5381 1.33104 52.4715C1.39781 52.4049 1.46458 52.2716 1.51465 52.1717C1.56473 52.0551 1.59812 51.9719 1.59812 51.9719C1.74835 51.6222 1.79841 51.3891 1.84849 51.1393C1.84849 51.0727 1.88187 51.0227 1.89856 50.9561C1.91525 50.8895 1.93196 50.8062 1.96534 50.7396C3.1004 48.2418 4.28552 45.7939 5.55411 43.396C5.93803 42.7465 6.32196 42.0804 6.68918 41.4143C7.64062 40.1154 8.49191 38.7 9.39327 37.3512C9.69373 36.8849 9.99418 36.4186 10.2779 35.9357C10.5951 35.6026 10.9456 35.3029 11.1626 34.8533C11.1793 34.8533 11.196 34.77 11.196 34.7534L11.5966 34.2205C11.5966 34.2205 12.3978 33.1381 12.4646 32.7051C12.9153 32.1223 13.366 31.5229 13.8 30.9234C15.1854 29.0084 16.5875 27.11 17.9563 25.195C18.6406 24.2291 19.3751 23.2799 20.0261 22.2475C20.5602 21.648 21.111 21.0819 21.6452 20.4657C21.7286 20.3658 21.8121 20.2659 21.8956 20.1659C21.9457 20.0993 22.0124 20.0494 22.0625 19.9828C23.1642 18.7672 24.2825 17.5349 25.3842 16.3193C25.3842 16.4358 25.4009 16.5025 25.4677 16.5191C25.6012 16.5524 25.8516 16.3859 25.8516 16.3859C26.3857 16.1028 26.5526 15.6698 27.1035 15.1037C27.6209 14.704 27.8045 14.7207 28.3053 14.2211C28.5557 14.0213 28.8227 13.7548 29.0731 13.5383C29.1566 13.3219 29.407 13.2552 29.5071 13.0554H29.5739C29.5739 13.0554 29.6573 12.9388 29.7241 12.9388C29.7241 12.9388 29.8743 12.8223 29.891 12.7724L29.9745 12.7223V12.7557C30.0746 12.6058 30.2082 12.5059 30.325 12.456L30.2916 12.3893C30.5587 12.3061 30.6088 12.0729 30.8592 12.0063C31.0929 11.6067 31.3599 11.8398 31.5936 11.4235C31.5602 11.4734 31.627 11.4568 31.627 11.4734C31.7605 11.3402 31.8941 11.2236 31.8607 11.0571C31.9608 10.9739 31.9608 11.0571 31.9775 11.0905C31.9608 11.0238 32.0276 10.9239 32.1111 10.8573L32.0777 10.9073L32.2947 10.7074L32.2112 10.6242C32.3448 10.5576 32.2947 10.7574 32.3948 10.6242L32.3614 10.5243C32.5284 10.4077 32.6619 10.4909 32.8455 10.441C33.1627 10.1912 33.4798 9.87483 33.797 9.57509C34.1141 9.27534 34.4313 9.00892 34.7484 8.85905L34.7985 8.909C34.8486 9.00892 34.9153 8.60925 34.9654 8.69252L35.0155 8.57594C35.0155 8.57594 35.0823 8.57593 35.0656 8.62589C35.1323 8.57593 35.1323 8.5593 35.1657 8.4927H35.2492C35.5162 8.35948 35.6998 8.04306 35.9669 7.84323C36.2173 7.75997 36.5344 7.44359 36.8182 7.12719C36.9183 7.1605 37.0686 7.09391 37.0686 7.09391C37.2856 7.0273 37.4024 6.89406 37.5026 6.76084C37.5527 6.69423 37.6027 6.61096 37.6528 6.54435C37.7029 6.47774 37.7529 6.41116 37.8364 6.3612C37.9866 6.29459 38.1202 6.29456 38.2537 6.27791C38.3872 6.2446 38.5208 6.19464 38.7044 6.06142C38.888 5.96151 39.0716 5.81168 39.2386 5.69512C39.2886 5.52859 39.4555 5.56186 39.5223 5.39534L39.5724 5.44529C39.5724 5.44529 39.6225 5.3454 39.6725 5.36205C39.6725 5.36205 39.7727 5.3121 39.7894 5.26214L39.8395 5.24547V5.27881C39.9062 5.1789 39.9897 5.12889 40.0564 5.12889V5.04565C40.2234 5.07896 40.2568 4.86246 40.4237 4.92907C40.5906 4.64598 40.7408 4.97904 40.9244 4.6793C40.9077 4.7126 40.9244 4.71262 40.9244 4.74592C41.0079 4.67931 41.1081 4.62933 41.0914 4.46281C41.1581 4.44616 41.1414 4.49611 41.1581 4.56272C41.1581 4.47946 41.2082 4.42951 41.2583 4.41286V4.44619L41.3751 4.3629L41.3417 4.2297C41.3417 4.2297 41.3751 4.39622 41.4419 4.32961V4.21304C41.542 4.19638 41.6255 4.34623 41.7256 4.39619C42.1763 4.27962 42.627 3.81339 43.061 3.86335V3.94659C43.0944 4.07981 43.1945 3.71345 43.2112 3.83001L43.2613 3.74677C43.2613 3.74677 43.3114 3.78009 43.278 3.8134C43.3281 3.8134 43.3281 3.78006 43.3448 3.7301L43.3948 3.79673C43.5785 3.79673 43.712 3.58026 43.8956 3.54695C44.0125 3.59691 44.1627 3.54696 44.3296 3.44704C44.4965 3.36378 44.6634 3.24719 44.7803 3.16393C45.1141 2.84754 45.5314 3.23055 45.8653 2.91416C45.8653 2.91416 45.8986 2.88085 45.8986 2.8642L46.2158 2.79758C46.2158 2.79758 46.583 2.71433 46.8167 2.5478C46.9336 2.46454 47.017 2.36461 47.017 2.21474C47.1839 2.14813 47.3508 2.08156 47.5344 1.9983C47.7681 2.01495 48.0185 2.03159 48.2522 2.03159C48.4358 2.03159 48.6194 1.98165 48.8031 1.9983C49.0034 2.01495 49.187 2.03159 49.3873 2.03159C49.8046 2.03159 50.2052 1.98165 50.6058 1.9983C51.0064 1.9983 51.4237 1.96498 51.841 1.93168C52.5921 1.88172 53.36 1.78181 54.1111 1.6819C54.1612 1.83177 54.2947 1.91501 54.2947 1.91501C54.5952 2.18144 54.8288 1.94831 55.2295 1.96496C55.5633 2.09818 55.5967 2.28136 55.9472 2.33132C56.0975 2.39792 56.2644 2.44791 56.3979 2.51452C56.4313 2.49786 56.448 2.49785 56.4814 2.49785C56.4814 2.49785 56.4981 2.49785 56.5147 2.49785L56.5648 2.53113C56.5648 2.53113 56.7151 2.61441 56.7818 2.59776L56.8152 2.681C56.8152 2.681 56.9154 2.6477 56.9488 2.681C56.9488 2.681 57.0155 2.681 57.0489 2.681C57.0823 2.681 57.0823 2.681 57.099 2.681L57.1491 2.69767V2.73095C57.1491 2.73095 57.2826 2.731 57.3327 2.78096V2.69767C57.4662 2.86419 57.583 2.73098 57.7333 2.91416C57.8835 2.8642 57.9503 2.91417 58.0337 2.98078C58.1172 3.04739 58.1839 3.09731 58.3175 2.9974C58.2841 3.01405 58.3175 3.04737 58.3175 3.06402C58.3676 3.06402 58.4176 3.06402 58.4677 3.01407C58.6346 3.13063 58.8016 3.26387 59.0019 3.29718C59.0352 3.29718 59.0686 3.29718 59.102 3.29718C59.2355 3.39709 59.3858 3.44701 59.536 3.51362C59.6695 3.61353 59.7864 3.71345 59.9199 3.83001C59.9867 3.91328 60.0535 3.99658 60.1035 4.07984C60.1035 4.11314 60.1035 4.11311 60.1035 4.09646C60.1703 4.19637 60.2538 4.29627 60.3205 4.39619C60.7211 4.96237 61.1217 5.5619 61.5057 6.16138C61.539 6.37786 61.6058 6.5943 61.7393 6.69422C61.7393 6.72752 61.7727 6.72754 61.7894 6.71088L61.9564 7.09391C61.9564 7.09391 61.9563 7.12717 61.9897 7.16048C61.9897 7.17713 62.0231 7.21047 62.0398 7.24377C62.0398 7.26042 62.0398 7.26039 62.0398 7.26039C62.0398 7.26039 62.0398 7.26041 62.0398 7.27706C62.0899 7.36032 62.1733 7.57682 62.2902 7.71003C62.3403 7.77664 62.407 7.82658 62.4738 7.84323C62.5072 7.90984 62.5406 7.95982 62.5739 8.02643C62.8243 8.45939 63.058 8.85901 63.2416 9.34193C63.3418 9.60837 63.3752 9.87484 63.4419 10.1579C63.4419 10.2079 63.4753 10.2578 63.492 10.3078C63.492 10.4077 63.5087 10.4909 63.5254 10.5909C63.4252 10.6075 63.3084 10.6408 63.2083 10.6575C62.8577 10.7074 62.5406 10.7407 62.19 10.8573C61.9564 10.9406 61.7393 11.0571 61.5223 11.1737C60.1536 11.6233 58.7682 12.2894 57.4328 13.0721C57.3494 12.9888 57.2158 12.9222 57.0322 12.8889V12.8556C56.8319 12.9056 56.7151 12.9722 56.6316 13.1887C56.5648 13.0388 56.4814 13.2719 56.4313 13.2552C56.3645 13.4384 56.1809 13.3052 56.1142 13.4884C56.1142 13.4884 56.1142 13.4218 56.1142 13.4051C56.0474 13.4884 55.9639 13.5883 55.9305 13.505C55.8471 13.5883 55.7469 13.6716 55.6635 13.7548C55.58 13.8381 55.5132 13.9214 55.4799 14.0213V13.9879C55.4465 14.1378 55.4131 14.0546 55.3463 14.1545C55.3463 14.1545 55.3463 14.1545 55.3463 14.1378C55.2962 14.2877 55.1627 14.2877 55.1126 14.371V14.3043L54.9624 14.4043H55.0125C55.0292 14.5708 54.8789 14.3377 54.8122 14.5208C54.7454 14.5541 54.712 14.7706 54.6786 14.8872C54.6453 14.9038 54.6119 14.9372 54.5785 14.9538C54.5785 14.9205 54.5785 14.8872 54.5451 14.9538C54.5117 14.8705 54.5618 14.8705 54.5284 14.8206C54.4783 14.9205 54.3949 14.8206 54.3114 14.9538V14.8872C54.2113 15.1037 54.0443 14.9871 54.0277 15.1536C53.9442 15.3035 53.8774 15.0371 53.8273 15.2702L53.7439 15.2202C53.7439 15.2202 53.7439 15.3535 53.6771 15.3701C53.6604 15.3202 53.5937 15.3868 53.6104 15.3202C53.4601 15.3535 53.4267 15.6699 53.2097 15.6865C53.2097 15.8197 53.1263 15.8364 53.1263 15.9363C53.1096 15.903 52.9761 16.0695 53.0261 15.9029C53.0261 15.9029 53.0428 15.8696 53.0428 15.9029V15.8364C52.8926 15.8031 52.9093 16.0362 52.8258 16.0862C52.8592 16.0862 52.8926 16.0528 52.8759 16.1194L52.7924 16.1694V16.1028L52.6589 16.1694L52.6923 16.2193C52.6923 16.2193 52.5754 16.1361 52.5254 16.286C52.5254 16.3692 52.6088 16.3359 52.5588 16.4025C52.4586 16.4192 52.3251 16.4525 52.2082 16.5191C52.2416 16.5857 52.2082 16.6024 52.1915 16.6523V16.5857C52.0747 16.7689 52.0747 16.4691 51.9912 16.6523V16.7689C51.9412 16.9854 51.8911 16.6856 51.841 16.9687C51.8911 16.9188 51.9078 17.0853 51.841 17.1186V17.052C51.841 17.052 51.8076 17.1353 51.7909 17.1353C51.7909 17.0853 51.7575 17.0353 51.7242 17.0853V16.9854L51.6908 17.1685C51.6073 17.1685 51.5405 17.3351 51.4905 17.2685C51.4905 17.2685 51.3402 17.3517 51.3569 17.4683C51.3569 17.385 51.2902 17.435 51.2735 17.3351C51.2735 17.435 51.19 17.5682 51.1232 17.5349C50.9563 17.5682 50.9229 17.8346 50.756 17.8513C50.7894 17.9179 50.7059 17.9346 50.756 18.0178C50.6559 18.2177 50.4389 18.0178 50.4723 18.3508C50.4055 18.4175 50.3721 18.3508 50.3387 18.3508V18.3176C50.3387 18.3176 50.2552 18.4175 50.2219 18.4341C50.1885 18.4674 50.1551 18.4674 50.0883 18.534C50.0383 18.6173 50.0883 18.7672 49.9715 18.8338C49.9715 18.7505 49.9381 18.8005 49.9047 18.8338C49.9214 18.8005 49.9047 18.7672 49.8547 18.8005C49.8547 18.8171 49.8547 18.8504 49.8547 18.8671C49.8046 18.9503 49.838 18.9503 49.8547 18.9337C49.8547 18.9337 49.8546 18.9337 49.888 18.9504C49.7879 18.967 49.7545 19.1502 49.6877 19.0835C49.5709 19.2834 49.5709 19.4499 49.5041 19.5831C49.4874 19.5498 49.4874 19.4832 49.5041 19.4499C49.5041 19.4832 49.4707 19.4999 49.454 19.5332C49.4207 19.4666 49.4707 19.4666 49.4874 19.4333C49.4374 19.4166 49.4206 19.4666 49.3873 19.5332C49.3873 19.5665 49.3539 19.5831 49.3372 19.5998C49.2537 19.5332 49.1369 19.5332 49.0201 19.6664C48.0519 20.6655 47.1005 21.7146 46.2325 22.8969C45.8152 23.4631 45.4313 24.0126 44.9639 24.4956C44.5132 24.9618 44.0959 25.5114 43.6953 26.0775C43.3281 26.6271 43.0276 27.2432 42.6437 27.7594C42.4768 27.9926 42.41 28.209 42.3099 28.5088C42.193 28.8585 41.976 29.2248 41.8091 29.5579C41.1581 30.8401 40.407 32.0224 39.8228 33.3713C39.5223 34.054 39.2886 34.7534 39.0049 35.4528C38.8713 35.8025 38.7044 36.1189 38.5542 36.4519C38.4206 36.7683 38.3038 37.1014 38.2036 37.4178C38.1703 37.4511 38.1536 37.4844 38.1536 37.4844C37.9199 37.7342 37.9366 38.0006 37.8865 38.3336C37.8197 38.5335 37.753 38.7333 37.6695 38.9331C37.6027 39.0497 37.5526 39.1663 37.5193 39.3495C37.4692 39.4827 37.4191 39.6159 37.369 39.7491C37.2522 40.0655 37.1353 40.3652 37.0519 40.6983C36.9684 41.0646 36.9184 41.4476 36.885 41.814C36.885 41.9305 36.8516 42.0471 36.8516 42.1637C36.8015 42.1137 36.7514 42.1137 36.7014 42.147C36.5845 42.2136 36.4844 42.4801 36.4844 42.4801C36.234 42.9963 36.3341 43.3293 36.2841 44.0121C36.1839 44.6116 36.0504 44.7781 36.0504 45.3609C36.017 45.644 36.0337 45.9271 36.017 46.1935C36.1004 46.3101 36.0003 46.5432 36.0504 46.6765L36.0003 46.7431C36.0003 46.7431 36.0337 46.843 36.0003 46.893C36.0003 46.893 36.0003 47.0595 36.0003 47.0928V47.176H35.9836C36.017 47.2926 36.0003 47.4258 35.9836 47.559H36.0504C35.9502 47.8088 36.0838 47.9087 35.9669 48.1419C36.1005 48.425 35.8167 48.6248 35.9335 48.9245C35.9335 48.8912 35.9001 48.9412 35.8834 48.9412C35.8834 49.091 35.8835 49.2409 36.017 49.2243C36.017 49.3242 35.9669 49.3075 35.9168 49.3242C35.9669 49.3242 35.9836 49.4074 35.9836 49.4907V49.4574L35.9669 49.6905L36.0671 49.6406C36.0337 49.7738 35.9335 49.6905 35.9502 49.8071H36.0337C36.0003 49.9736 35.8668 50.0902 35.8 50.2567C35.7833 50.4399 35.7833 50.6064 35.7833 50.7896C35.7833 50.9728 35.8 51.1726 35.8167 51.3558C35.8501 51.7221 35.9002 52.0718 35.8668 52.4382L35.8167 52.5048C35.7332 52.5714 35.9836 52.6047 35.9002 52.6879L35.9502 52.7379C35.9502 52.7379 35.9335 52.8212 35.9002 52.8045C35.9002 52.8711 35.9168 52.8711 35.9669 52.9044L35.9335 53.021C35.9335 53.3207 36.1172 53.4539 36.1839 53.737C36.1839 53.9369 36.2674 54.17 36.3675 54.3532C36.4176 54.4531 36.4844 54.5363 36.5511 54.6196C36.6012 54.6862 36.6513 54.7362 36.6847 54.7861C36.9684 55.0359 36.7514 55.8519 37.0853 56.2183C37.0853 56.2516 37.1187 56.2515 37.1353 56.2515L37.1854 56.3681C37.2522 56.5347 37.319 56.6179 37.369 56.7178C37.369 56.7178 37.6528 57.1175 37.753 57.1841C37.7697 57.1841 37.7697 57.1841 37.803 57.1841C37.8197 57.1674 37.8865 57.1674 37.8865 57.1674C37.8865 57.1674 37.8865 57.1674 37.9199 57.1674C37.9366 57.1674 37.9533 57.1841 37.9867 57.1841C38.02 57.1841 38.0868 57.1841 38.1369 57.0675C38.1536 57.0841 38.1703 57.1175 38.187 57.1341C38.6043 57.6004 39.0716 57.9168 39.6225 58.0334C39.7059 58.05 39.7727 58.0334 39.8395 57.9834C40.1232 58.0667 40.4404 58.0667 40.7575 58.0334C40.9077 58.0167 41.058 57.9668 41.2082 57.9335C41.5587 57.9335 41.9259 57.9001 42.2932 57.8335C42.6437 57.8002 42.9776 57.8169 43.3281 57.8002C44.4131 57.7669 45.4647 57.1008 46.4328 56.1849C46.4328 56.1849 46.4495 56.1683 46.4662 56.1516C46.5162 56.1183 46.583 56.085 46.6331 56.0517C46.8 55.9352 46.9502 55.8019 47.1172 55.6687C47.1672 55.702 47.2173 55.7187 47.2841 55.702C47.5845 55.6188 47.8516 55.369 48.0853 55.0359C48.2856 54.8694 48.5026 54.6863 48.7029 54.5031C49.1536 54.0868 49.5542 53.5705 49.9548 53.0543C50.3387 52.5714 50.7226 52.1218 51.1066 51.6555C51.4571 51.2392 51.6908 50.7563 51.9578 50.2567C52.0079 50.1734 52.058 50.0736 52.1081 49.9736C52.1081 49.9736 52.1414 49.907 52.1581 49.8737C52.2583 49.6739 52.2249 49.4907 52.1581 49.3575C52.1915 49.2742 52.2249 49.1909 52.2583 49.1077C52.4252 48.7746 52.5921 48.4416 52.7424 48.1085C54.8789 44.9612 56.7985 41.481 58.4677 37.9007C58.8683 37.0181 59.2689 36.1355 59.6528 35.2363C59.6862 35.1864 59.7029 35.1197 59.7363 35.0531C60.0535 34.6035 60.3706 34.1373 60.6544 33.6377C61.105 32.8384 61.3721 31.9391 61.5891 31.0066C61.6225 30.8734 61.6058 30.7735 61.5891 30.6902C61.973 29.6245 62.2735 28.5255 62.5239 27.3931C62.5739 27.2932 62.5906 27.1933 62.624 27.0767C62.6574 26.9768 62.7075 26.8602 62.7409 26.7603C62.7409 26.7436 62.7743 26.7103 62.791 26.6937C62.791 26.6937 62.791 26.677 62.791 26.6604C62.8243 26.5438 62.8744 26.4272 62.9078 26.3273L62.9412 26.3606C63.0914 26.2274 62.9912 26.0109 63.058 25.8444C63.058 25.8444 63.058 25.8611 63.0413 25.8777C63.0413 25.8444 63.058 25.8111 63.0747 25.7778L63.1749 25.5613H63.1248C63.1916 25.4781 63.2583 25.4448 63.2249 25.3116C63.2249 25.2782 63.2082 25.2949 63.1915 25.3116C63.2082 25.2449 63.2249 25.1617 63.2416 25.0951C63.3084 24.9785 63.3585 24.8286 63.4085 24.6954C63.3585 24.6954 63.3585 24.6621 63.3585 24.6121C63.3585 24.6121 63.3585 24.5955 63.3585 24.5788H63.4085C63.3919 24.3457 63.5421 24.5122 63.5254 24.2791L63.4586 24.2291C63.4586 24.2291 63.4586 24.2125 63.4586 24.1958C63.4586 24.1459 63.492 24.1126 63.492 24.0626C63.492 24.0626 63.5254 24.0293 63.5087 23.9793C63.6088 23.6629 63.6923 23.3299 63.7925 23.0135C63.9761 22.4473 64.1263 21.8978 64.2765 21.315C64.4101 20.7654 64.5603 20.2159 64.5937 19.6331C64.5937 19.4999 64.5603 19.3833 64.5102 19.3167C64.6104 18.9004 64.6938 18.4674 64.6771 18.0678C64.6938 17.9512 64.7272 17.8513 64.7439 17.7347C64.8941 17.0187 65.0277 16.2859 64.8774 15.6365C64.9108 15.2702 64.9442 14.9205 64.9442 14.5541C64.9442 13.7048 64.794 13.0054 64.6104 12.2561C64.6104 12.2061 64.5937 12.1562 64.577 12.1062C64.6104 11.9564 64.6104 11.8065 64.4935 11.7066C64.4935 11.6733 64.4935 11.6067 64.4935 11.5734C64.4935 11.4901 64.4935 11.4235 64.4935 11.3402C64.5102 11.3402 64.5436 11.3402 64.5603 11.3236C65.5618 11.2236 66.53 11.2736 67.4814 11.5567C67.7819 11.64 68.0656 11.7732 68.3327 11.9064C68.5163 12.1062 68.6832 12.3394 68.8334 12.5725V12.5892C68.7667 13.0221 68.9336 13.0887 69.0337 13.3219C69.0838 13.555 69.0338 13.7048 69.1506 13.9213C69.184 14.0379 69.2507 14.1545 69.3175 14.2544C69.3843 14.2544 69.3843 14.3876 69.451 14.4043V14.4542C69.451 14.4542 69.4844 14.4542 69.4844 14.5042C69.4844 14.5042 69.5178 14.5708 69.5512 14.5708L69.5679 14.6041C69.5679 14.6041 69.6513 14.6874 69.668 14.7373L69.7014 14.6874C69.7181 14.8206 69.8016 14.7706 69.8183 14.9039C69.9518 14.9039 69.8516 15.137 70.0019 15.137C69.9852 15.137 70.0019 15.1702 69.9852 15.1702C70.0186 15.2035 70.052 15.2535 70.1187 15.1702C70.1354 15.2035 70.1187 15.2202 70.102 15.2535C70.1187 15.2202 70.1521 15.2369 70.1688 15.2535C70.1688 15.5699 70.3357 15.7531 70.5026 16.1694C70.5026 16.236 70.536 16.286 70.536 16.3359C70.536 16.3859 70.5694 16.4525 70.5694 16.4691C70.5694 16.5191 70.5694 16.5691 70.5694 16.619C70.5694 16.719 70.5694 16.7855 70.6028 16.9687C70.6028 17.0686 70.6195 17.1686 70.6529 17.2851C70.6696 17.4017 70.7029 17.5516 70.7363 17.6515C70.8532 17.7014 70.8198 17.9512 70.9199 18.0012L70.8865 18.0844C70.8865 18.0844 70.9533 18.1344 70.9366 18.1844C70.9366 18.1844 70.9867 18.3009 71.0201 18.3009L71.0535 18.3675H71.0368C71.0368 18.3675 71.1369 18.5174 71.1369 18.6007L71.187 18.5507C71.1703 18.7671 71.3038 18.7339 71.2705 18.9504C71.4875 19.0503 71.2371 19.3667 71.4541 19.4832C71.4207 19.4832 71.4207 19.5165 71.404 19.5332C71.4541 19.6331 71.4875 19.733 71.6043 19.6497C71.621 19.733 71.5876 19.733 71.5375 19.783C71.5876 19.7497 71.621 19.783 71.6544 19.8496H71.621L71.6878 19.9828L71.7545 19.8995C71.7545 19.8995 71.7545 19.9162 71.7545 19.9328C71.7212 19.9828 71.6711 19.9995 71.7045 20.0494L71.7545 19.9995C71.7545 19.9995 71.7545 20.0661 71.7545 20.0994C71.7212 20.1993 71.6711 20.3159 71.6544 20.4158C71.6878 20.6156 71.7712 20.7988 71.8547 20.9819C71.8881 21.1818 71.9048 21.3982 71.9548 21.5981C71.9548 21.6647 71.9882 21.7313 71.9882 21.7979C71.9882 21.7979 71.9882 21.8479 72.0049 21.8645C72.0216 21.9478 72.0383 22.0477 72.055 22.131C72.055 22.2475 72.0717 22.3141 72.1051 22.3974C72.0216 23.5131 71.8714 24.6454 71.7045 25.7445C71.621 26.3107 71.5041 26.8769 71.404 27.443C71.2705 27.7261 71.2204 28.0758 71.1536 28.4089C71.0535 28.975 70.9366 29.5412 70.8365 30.124C70.7029 30.6902 70.5861 31.2564 70.4526 31.8392C70.2189 32.4221 70.102 33.1215 69.9685 33.721C69.8683 34.1872 69.7682 34.6535 69.668 35.1364C69.3175 36.4519 68.967 37.7675 68.7166 39.0997C68.6164 39.4993 68.533 39.8823 68.4328 40.282C68.3827 40.5151 68.3327 40.7649 68.2993 40.998C68.1991 41.0813 68.099 41.2312 68.0823 41.431C68.0489 41.6475 68.0322 41.8806 68.0322 42.0971C68.0322 42.1137 68.0322 42.1304 68.0322 42.147C67.9988 42.2636 67.9822 42.3635 67.9488 42.4801C67.8987 42.6966 67.9488 42.8464 68.0155 42.9297C68.0155 43.1795 67.9988 43.4293 67.9821 43.6791C67.8987 43.7623 67.8319 43.9122 67.8486 44.0787C67.8486 44.112 67.8486 44.162 67.8486 44.1953C67.8486 44.2286 67.8486 44.2785 67.8486 44.3285C67.8486 44.4617 67.8653 44.5949 67.882 44.7281C67.882 45.1611 67.882 45.6107 67.882 46.0437C67.882 46.3434 67.882 46.7597 67.9655 47.0595C67.9154 47.6257 67.9321 48.1918 68.1657 48.5915C68.1824 48.6248 68.2158 48.6414 68.2325 48.6581C68.2325 48.808 68.2659 48.9578 68.316 49.1077C68.3327 49.1576 68.3661 49.191 68.3994 49.2243C68.5497 50.1235 68.8334 50.9228 69.3676 51.2891C70.1354 51.8054 71.0869 50.9894 71.7879 50.2234C72.0049 49.9903 72.2052 49.7572 72.3888 49.5074C72.706 49.2576 72.8395 48.9912 73.0565 48.6248C73.19 48.425 73.3236 48.2418 73.4571 48.042C73.6074 47.8588 73.7242 47.7255 73.9078 47.3925C74.0246 47.2093 74.1415 47.0095 74.2583 46.8263C74.6089 46.6598 74.9093 46.0603 75.2098 45.7439C75.5603 45.3443 75.9108 44.9446 76.2614 44.5283C76.4116 44.5783 76.6119 44.4617 76.6954 44.1619C76.712 44.062 76.7621 43.9621 76.8122 43.8789C77.1794 43.4126 77.5466 42.9464 77.8972 42.4801C78.1809 42.0971 78.5482 41.6974 78.665 41.1645C78.7485 41.048 78.8319 40.948 78.8987 40.8315C78.9154 40.6983 79.0489 40.6317 79.099 40.4985H79.1491C79.1491 40.4985 79.1825 40.3986 79.2159 40.3986C79.2159 40.3986 79.2826 40.2986 79.2993 40.2653L79.3327 40.2154C79.3327 40.2154 79.4329 40.0488 79.4996 39.9989L79.4662 39.9656C79.5998 39.8657 79.5998 39.7324 79.7333 39.6492C79.8001 39.3994 79.9837 39.466 80.0671 39.1996C80.0671 39.2329 80.0838 39.1996 80.0838 39.2162C80.1339 39.1329 80.2007 39.033 80.1673 38.9664C80.2174 38.9165 80.2174 38.9498 80.2341 38.9664C80.2174 38.9331 80.2341 38.8665 80.2841 38.8166V38.8498L80.3676 38.7L80.3175 38.6667C80.3175 38.6667 80.3843 38.7167 80.4177 38.6334L80.3843 38.5835C80.4678 38.5002 80.5512 38.5168 80.6514 38.4502C80.9518 38.0672 81.1855 37.5343 81.5193 37.3179L81.5527 37.3512C81.5527 37.3512 81.5861 37.168 81.6195 37.218V37.1513C81.6195 37.1513 81.6863 37.1513 81.6696 37.168C81.703 37.1347 81.703 37.118 81.7197 37.0847H81.7697C81.9033 36.9848 81.9867 36.8016 82.137 36.6684C82.3373 36.5851 82.621 36.1688 82.7712 35.9357C82.9715 35.5693 83.3555 35.4861 83.5558 35.1031L83.5725 35.0531L83.6225 34.9865L83.6726 34.9532L83.7894 34.8533C83.7894 34.8533 83.8562 34.7867 83.9731 34.6868C84.0231 34.6368 84.0732 34.5869 84.1233 34.5203C84.1233 34.5203 84.1567 34.5203 84.1734 34.5203V34.4703C84.2902 34.4703 84.3236 34.3704 84.4238 34.4037C84.5573 34.2372 84.6408 34.4536 84.7743 34.2705C84.7576 34.2871 84.7743 34.3038 84.7743 34.3038C84.8411 34.2705 84.9078 34.2538 84.9078 34.1373C84.9579 34.1373 84.9412 34.1539 84.9579 34.2039C84.9579 34.1539 84.9913 34.1206 85.0247 34.1206L85.1248 34.104V34.0207C85.1248 34.0207 85.1248 34.1206 85.1749 34.0873V34.0207C85.1749 34.0207 85.2917 34.1206 85.3585 34.1539C85.5087 34.1539 85.659 34.0706 85.8259 34.0207C85.9928 33.9707 86.1431 33.9374 86.2766 33.9707V34.0207C86.2766 34.0207 86.3767 33.8875 86.3767 33.9541L86.4101 33.9041C86.4101 33.9041 86.4435 33.9208 86.4101 33.9541C86.4435 33.9541 86.4435 33.9541 86.4602 33.9041L86.4935 33.9541C86.6104 33.9707 86.7106 33.8542 86.8441 33.8542C86.9943 33.9374 87.2781 33.8042 87.445 33.7376C87.5618 33.671 87.6787 33.7376 87.7955 33.7709C87.8122 33.7709 87.8456 33.7709 87.8623 33.7876C88.1461 34.0873 88.4298 34.4037 88.6802 34.7534C88.7303 34.8533 88.7637 34.9532 88.797 35.0365C88.9973 35.5028 89.1976 35.9523 89.4146 36.402C89.882 38.7333 90.0323 41.2311 90.1157 43.7456C90.099 44.3118 90.0656 44.8614 90.0489 45.4275C90.0323 45.4775 89.9989 45.5274 89.9822 45.5774C89.6149 47.0095 89.615 48.4749 89.6484 49.8903C89.6817 51.2891 89.7318 52.7046 89.8987 54.0534C89.9321 54.2533 89.9488 54.4697 89.9822 54.6696C89.9822 54.8028 89.9822 54.9693 89.9822 55.2024C89.9822 55.5188 89.9822 55.6687 89.9655 55.8519C89.9655 56.0351 89.9655 56.2016 90.0323 56.4514C90.0657 56.7012 90.1324 56.9509 90.1825 57.1674C90.1825 57.1674 90.1992 57.2007 90.2159 57.2174C90.2159 57.4338 90.2159 57.6337 90.2659 57.8002C90.2659 57.8668 90.2659 57.9334 90.2659 58C90.3494 58.4163 90.4663 58.7994 90.5998 59.1824C90.7333 59.9151 90.6999 60.2148 90.9503 60.9641C91.0505 61.3471 91.184 61.7302 91.3008 62.0799C91.401 62.2131 91.4511 62.5461 91.5679 62.7127V62.8126C91.5679 62.8126 91.6347 62.9458 91.6514 63.0124C91.7181 63.0957 91.7348 63.2289 91.7682 63.2622L91.8183 63.3787H91.8016C91.8851 63.5286 91.9685 63.6952 92.0186 63.8617L92.052 63.8117C92.1522 64.1781 92.2857 64.228 92.3692 64.561C92.5027 64.6943 92.5694 64.8608 92.6195 64.994C92.6696 65.1439 92.7197 65.2938 92.8365 65.427C92.8031 65.3937 92.8365 65.4603 92.8198 65.477C92.9033 65.6268 92.9868 65.81 93.0535 65.76C93.1036 65.8932 93.0702 65.8766 93.0535 65.9265C93.0869 65.8932 93.137 65.9932 93.187 66.0931L93.1537 66.0598L93.2872 66.3262L93.3206 66.2097C93.3706 66.3762 93.2705 66.3262 93.354 66.4428L93.404 66.3928C93.4875 66.6093 93.4875 66.7925 93.5376 67.0256C93.621 67.2254 93.7212 67.4252 93.788 67.6251C93.8214 67.725 93.8547 67.8249 93.8881 67.9581C93.9215 68.0913 94.005 68.2579 94.0884 68.3578C94.2553 68.5576 94.4056 68.6409 94.489 68.7907C94.5892 68.9406 94.6392 69.1571 94.7394 69.4069V69.4902C94.7394 69.4902 94.7728 69.5734 94.8229 69.6067C94.8896 69.64 94.9397 69.6566 94.9397 69.7066C94.9731 69.7066 95.0065 69.7399 95.0399 69.7399C95.0399 69.7732 95.09 69.8066 95.0399 69.8066C95.1067 69.8565 95.1066 69.8399 95.1734 69.8565L95.2235 69.9564C95.4739 70.1729 95.7242 70.1896 95.9579 70.3727C96.2083 70.6392 96.7591 71.1054 97.1097 71.3386C97.3601 71.4884 97.5937 71.7382 97.8775 71.9214C98.0778 72.0546 98.2781 72.1712 98.4951 72.2378C98.5285 72.2711 98.5619 72.3044 98.6119 72.3377C98.6954 72.4043 98.7622 72.4043 98.8457 72.371C100.264 73.0371 101.867 72.8872 103.62 71.4718C103.703 71.5051 103.786 71.4718 103.887 71.3885C104.287 71.0055 104.671 70.6058 105.005 70.1229C105.572 69.4901 106.09 68.8074 106.591 68.0747C106.674 68.3745 106.774 68.6575 106.874 68.9573C106.874 68.9573 106.874 68.9739 106.874 68.9906C106.874 69.0072 106.874 69.0239 106.874 69.0405C106.874 69.2237 106.874 69.4069 106.975 69.5401C106.975 69.5401 106.975 69.5567 106.991 69.5567C107.025 69.69 107.058 69.8232 107.108 69.9398C107.108 70.023 107.142 70.1562 107.175 70.2562C107.192 70.3061 107.225 70.3394 107.242 70.3727C107.325 70.6225 107.409 70.8723 107.509 71.1054C107.509 71.1554 107.492 71.2053 107.492 71.2386C107.475 71.7049 107.692 72.038 107.876 72.3544C108.093 72.754 108.327 73.1203 108.56 73.47C109.028 74.1361 109.562 74.6856 110.129 75.1686C110.363 75.3684 110.63 75.535 110.881 75.6848C111.031 75.8514 111.198 76.0012 111.381 75.9679C111.582 76.0678 111.799 76.1677 111.999 76.2676C113.635 77.35 115.488 77.8996 117.374 77.8663C118.459 77.8496 119.56 77.5665 120.645 77.0836C120.695 77.0836 120.729 77.0836 120.779 77.0836C120.929 77.0836 121.163 77.1169 121.396 77.067C121.513 76.9837 121.68 77.0004 121.797 76.8838C121.797 76.8838 121.831 76.9004 121.847 76.9171C121.881 76.8838 121.914 76.8505 121.947 76.8671C121.947 76.8671 122.047 76.8338 122.081 76.8172H122.148C122.148 76.8172 122.231 76.8005 122.281 76.7838C122.331 76.7838 122.381 76.7839 122.448 76.7672C122.498 76.7506 122.532 76.7173 122.582 76.7006C122.682 76.6673 122.749 76.6173 122.882 76.6007C123.116 76.3676 123.266 76.5008 123.45 76.2343C123.433 76.2676 123.45 76.251 123.466 76.2676C123.516 76.2177 123.583 76.1677 123.617 76.1178C123.75 76.0678 123.867 76.0345 124 75.9679C124.051 75.9512 124.084 75.9179 124.134 75.9013C124.134 75.9013 124.151 75.918 124.167 75.9346C124.201 75.9679 124.268 75.9846 124.318 75.9846C124.368 75.9846 124.401 75.9846 124.434 75.9846C124.468 75.9846 124.468 75.9846 124.468 75.9846C124.735 75.9346 124.852 75.7847 124.985 75.6515C125.052 75.5849 125.102 75.5017 125.169 75.4184C125.353 75.3351 125.486 75.2186 125.636 74.9521C125.67 74.9355 125.703 74.9188 125.736 74.8855C125.837 74.8355 125.953 74.7689 126.12 74.6191C126.287 74.5025 126.471 74.3526 126.621 74.2028C126.688 74.0695 126.838 74.0029 126.905 73.8864H126.955C126.955 73.8864 127.005 73.8031 127.038 73.7864C127.038 73.7864 127.122 73.7032 127.155 73.6699L127.205 73.6199C127.205 73.6199 127.356 73.4534 127.422 73.4034V73.3701C127.422 73.3701 127.422 73.3535 127.439 73.3369C127.439 73.3369 127.439 73.3368 127.456 73.3202C128.123 72.7873 128.758 72.1212 129.375 71.4385C130.343 70.3394 131.328 69.2404 132.263 68.0747C133.148 66.9923 134.016 65.8433 134.85 64.6943C135.017 64.5111 135.167 64.3279 135.334 64.1447C135.685 63.7284 136.119 63.3288 136.302 62.7459C136.319 62.696 136.319 62.6294 136.319 62.5794C137.504 61.0141 138.656 59.3988 139.791 57.7502C139.941 57.617 140.092 57.5005 140.258 57.4006C140.392 57.3839 140.542 57.284 140.609 57.0509C140.659 56.8844 140.659 56.7178 140.609 56.5846C140.659 56.5347 140.709 56.5346 140.726 56.468C140.776 56.3681 140.826 56.518 140.859 56.3681H140.909C140.909 56.3681 140.909 56.3015 140.943 56.2848C140.943 56.3181 140.993 56.2515 140.993 56.3015C141.093 56.2515 141.11 56.0683 141.243 56.0184C141.243 55.9351 141.293 55.9185 141.293 55.8519C141.293 55.8686 141.394 55.7353 141.36 55.8519V55.8852C141.46 55.8852 141.444 55.7353 141.51 55.6687C141.494 55.6687 141.477 55.702 141.477 55.6687L141.527 55.6188V55.6521L141.611 55.5688H141.577C141.577 55.5688 141.677 55.5688 141.677 55.4689C141.677 55.4189 141.61 55.4689 141.644 55.4023C141.694 55.369 141.794 55.319 141.861 55.2524C141.827 55.2191 141.861 55.2025 141.861 55.1692V55.2024C141.911 55.0859 141.944 55.2524 141.994 55.1358V55.0692C141.994 54.936 142.044 55.1025 142.061 54.936C142.044 54.9693 142.011 54.8861 142.061 54.8528V54.886C142.061 54.886 142.078 54.8361 142.095 54.8361C142.095 54.8694 142.111 54.886 142.145 54.8361V54.9027L142.161 54.7861C142.211 54.7861 142.245 54.6529 142.295 54.6862C142.295 54.6862 142.378 54.603 142.378 54.5364C142.378 54.5863 142.428 54.5364 142.445 54.5863C142.445 54.5197 142.495 54.4198 142.529 54.4198C142.645 54.3365 142.645 54.17 142.762 54.1034C142.729 54.0701 142.762 54.0368 142.762 54.0035C142.812 53.9702 142.879 53.9369 142.946 53.8536C143.013 53.787 143.079 53.7037 143.146 53.6371C143.146 53.5372 143.246 53.5539 143.263 53.454H143.296C143.296 53.454 143.313 53.4206 143.346 53.4206C143.346 53.4206 143.397 53.3874 143.397 53.3541H143.43C143.43 53.3541 143.497 53.2708 143.547 53.2542V53.2042C143.547 53.2042 143.614 53.0709 143.714 53.0543C143.764 52.8711 143.881 53.0043 143.931 52.8045C143.931 52.8378 143.931 52.8045 143.947 52.8378C143.981 52.7879 144.031 52.7212 143.981 52.638C144.014 52.6047 144.014 52.638 144.031 52.6546C144.014 52.6213 144.031 52.5714 144.048 52.5547V52.588L144.098 52.5048L144.048 52.4548C144.048 52.4548 144.098 52.5214 144.114 52.4548L144.081 52.4049C144.081 52.4049 144.198 52.4049 144.265 52.4049C144.448 52.205 144.565 51.8553 144.782 51.7554L144.815 51.7887C144.815 51.7887 144.815 51.6555 144.849 51.6888V51.6389C144.849 51.6389 144.882 51.6389 144.882 51.6722C144.899 51.6555 144.882 51.6388 144.899 51.6055H144.932C145.016 51.5722 145.032 51.4224 145.116 51.3558C145.249 51.3391 145.383 51.0727 145.45 50.9228C145.55 50.673 145.817 50.7563 145.917 50.5065V50.4732L146.051 50.3566C146.051 50.3566 146.217 50.2067 146.284 50.0402C146.334 49.957 146.334 49.8737 146.284 49.7904L146.535 49.6572C146.535 49.6572 146.668 49.5906 146.818 49.4907C146.818 49.4907 146.852 49.4907 146.868 49.4907C146.952 49.524 147.002 49.574 147.052 49.6073C147.102 49.6406 147.152 49.6739 147.219 49.6905C147.269 49.7238 147.353 49.7572 147.419 49.8071C147.486 49.7738 147.503 49.8904 147.57 49.8737V49.9237C147.57 49.9237 147.603 49.9237 147.603 49.957C147.603 49.957 147.653 50.0069 147.67 50.0069L147.703 50.0402C147.703 50.0402 147.803 50.1235 147.837 50.1735V50.1235C147.903 50.2567 147.987 50.1901 148.02 50.3067C148.17 50.2734 148.104 50.5232 148.254 50.4899C148.237 50.4899 148.254 50.5231 148.254 50.5231C148.304 50.5398 148.337 50.5898 148.387 50.4899C148.421 50.5232 148.387 50.5398 148.387 50.5731C148.404 50.5398 148.438 50.5398 148.471 50.5731H148.454L148.521 50.6231L148.554 50.5398C148.554 50.5398 148.504 50.6397 148.554 50.6564L148.588 50.5898C148.588 50.5898 148.588 50.7729 148.604 50.8728C148.671 50.9561 148.738 51.0227 148.821 51.106C148.838 51.1559 148.872 51.2226 148.888 51.2725C148.872 51.3891 148.838 51.489 148.888 51.6722C148.888 51.822 148.922 51.9552 148.955 52.0718C149.022 52.1051 148.972 52.2383 149.038 52.2716L149.005 52.3216C149.005 52.3216 149.038 52.3549 149.022 52.3882C149.022 52.3882 149.038 52.4548 149.055 52.4715V52.5214C149.055 52.5214 149.105 52.6213 149.088 52.6879C149.088 52.7212 149.072 52.7546 149.055 52.7879C148.922 53.5539 149.089 54.2366 149.122 54.9527C149.155 55.7686 149.139 56.6179 149.155 57.4338C149.155 57.9001 149.189 58.3664 149.205 58.816C149.155 59.1158 149.172 59.2823 149.189 59.4488C149.189 59.5321 149.205 59.5987 149.205 59.6819C149.205 59.7152 149.205 59.7818 149.205 59.8485C149.205 59.9151 149.205 59.9817 149.205 60.0649C149.122 60.5978 149.055 60.7643 149.072 61.3139C149.072 61.3971 149.072 61.4804 149.072 61.547C149.072 61.7302 149.072 61.8967 149.105 62.0299C149.105 62.0299 149.105 62.0299 149.105 62.0466C149.172 62.1465 149.105 62.3629 149.172 62.4795L149.139 62.5461C149.139 62.5461 149.172 62.6294 149.139 62.696C149.139 62.696 149.139 62.8459 149.172 62.8625V62.9458C149.205 63.0457 149.205 63.1789 149.205 63.2788H149.239C149.205 63.512 149.289 63.5619 149.255 63.795C149.372 64.0282 149.222 64.2447 149.356 64.4778C149.356 64.4445 149.339 64.4944 149.322 64.5111C149.339 64.6277 149.372 64.7609 149.439 64.7276C149.439 64.8108 149.439 64.8108 149.406 64.8442C149.439 64.8275 149.456 64.8941 149.472 64.9607V64.9274V65.044C149.472 65.1106 149.472 65.1772 149.472 65.2438C149.472 65.3604 149.489 65.4603 149.506 65.5769C149.506 65.5769 149.506 65.6102 149.506 65.6268C149.506 65.6601 149.506 65.6768 149.506 65.7101C149.589 66.6093 149.689 67.5085 149.84 68.3744C149.84 69.2071 149.873 70.0563 149.906 70.889C150.04 74.5858 150.29 78.599 151.559 81.6131C151.726 82.0127 151.909 82.3624 152.11 82.6788C152.11 82.762 152.11 82.8453 152.126 82.9286C152.193 83.1284 152.277 83.3116 152.377 83.4781C152.444 83.7112 152.527 83.9444 152.661 84.0942C152.727 84.1775 152.828 84.2108 152.928 84.1775C153.278 84.5105 153.696 84.727 154.079 84.8103C154.079 84.8103 154.096 84.8103 154.113 84.8103C154.113 84.8103 154.113 84.8103 154.13 84.8103C154.13 84.8103 154.13 84.8103 154.13 84.8436C154.163 84.8436 154.213 84.8436 154.263 84.8269C154.397 84.8269 154.547 84.8269 154.68 84.8269C154.68 84.8269 154.697 84.8269 154.714 84.8269C154.714 84.8602 154.714 84.8936 154.747 84.8269V84.8936C154.747 84.8936 154.78 84.8103 154.78 84.8436C154.78 84.8769 154.78 84.8769 154.78 84.9102C154.814 84.9768 154.864 84.8269 154.897 84.9269C154.897 84.8935 154.914 84.8769 154.931 84.8769C154.931 84.8769 154.964 84.8769 154.981 84.8936C154.981 84.8936 154.981 84.8935 154.981 84.9102V84.9601C154.981 85.0434 155.031 84.9102 155.048 84.9269C155.048 84.9269 155.048 84.9269 155.064 84.9269L155.098 84.9601V84.9435C155.098 84.9768 155.098 85.0101 155.131 84.9435C155.164 84.9435 155.198 84.9435 155.231 84.9601H155.265C155.265 84.9934 155.265 85.0101 155.281 84.9935V84.9601C155.281 84.9601 155.431 84.9601 155.515 84.9601C155.582 84.9601 155.648 84.9435 155.715 84.9269C155.765 84.9269 155.815 84.9269 155.865 84.9269C155.865 84.9269 155.899 84.9269 155.916 84.9269C156.016 84.9435 156.116 84.9601 156.233 84.9601C156.233 84.9601 156.333 84.9602 156.483 84.8936C156.633 84.8436 156.817 84.6771 156.917 84.4939C157.017 84.3107 157.017 84.1609 156.967 84.1609L156.583 84.4106ZM35.0656 7.59346C35.0656 7.59346 35.0489 7.62677 35.0322 7.66008C34.9654 7.74334 34.932 7.72665 34.8986 7.72665C34.9487 7.6767 35.0155 7.64343 35.0656 7.61012V7.59346ZM35.1824 7.51021C35.1824 7.51021 35.3159 7.41031 35.3827 7.36035C35.3159 7.44361 35.2492 7.47691 35.1824 7.51021ZM46.5329 1.61528C46.3827 1.68189 46.2325 1.76516 46.0656 1.83177C45.882 1.91503 45.715 1.91499 45.5481 1.89834C45.8653 1.79842 46.1991 1.69852 46.5163 1.59861L46.5329 1.61528ZM35.8167 7.31034C35.7666 7.44356 35.8334 7.14384 35.7499 7.27706C35.7165 7.1938 35.7833 7.17717 35.7332 7.14386C35.6498 7.26043 35.5496 7.19383 35.4328 7.36035V7.32701C35.6164 7.17714 35.8167 7.04391 36.0337 6.89404C35.9669 7.06056 35.9168 7.29369 35.8167 7.31034ZM60.9047 12.3394C60.9715 12.4726 61.0884 12.5559 61.2386 12.456C61.8061 12.1063 62.3236 11.8898 62.9078 11.8232C63.1248 11.7899 63.3585 11.7399 63.5755 11.6733C63.6088 11.8565 63.6422 12.0563 63.6756 12.2395C63.6756 12.2561 63.6756 12.2894 63.6756 12.306C63.6756 12.3227 63.6756 12.356 63.6756 12.3727C63.7257 12.6391 63.7925 12.8889 63.8592 13.1553C63.926 13.938 63.9427 14.7373 63.926 15.5699C63.8091 15.6865 63.709 16.0029 63.709 16.0029C63.492 16.6523 63.6422 16.9854 63.5922 17.7014C63.4753 18.3342 63.3418 18.4841 63.275 19.1169C63.2082 19.4 63.1582 19.7496 63.0914 20.066C63.0413 20.2825 62.9912 20.499 62.9412 20.7322C62.8076 21.3983 62.6741 22.0477 62.5739 22.7137C62.4571 23.1134 62.3236 23.5297 62.2401 23.9627C62.1066 24.6454 61.9396 25.3282 61.7894 26.0276C61.706 26.3939 61.6225 26.7436 61.5223 27.11C61.489 27.11 61.489 27.1433 61.5057 27.1766C61.4723 27.3265 61.4222 27.4763 61.3721 27.6429H61.3554C61.2052 27.926 61.2052 28.2257 61.0717 28.5254C60.9548 28.6753 60.838 28.9584 60.7545 29.2082C60.6711 29.458 60.5876 29.741 60.5208 29.9575C60.4374 30.2739 60.2537 30.5071 60.0534 30.8068C59.8531 31.0899 59.6862 31.4063 59.6361 31.7227C59.6194 31.7227 59.6361 31.8059 59.6361 31.8059C59.5861 31.9392 59.536 32.0557 59.4692 32.1723C59.4359 32.2056 59.3858 32.2555 59.3524 32.3055C59.2856 32.4054 59.2355 32.4887 59.2355 32.4887C58.8182 33.1381 58.8516 33.5877 58.6012 34.3038C58.5679 34.3871 58.5178 34.4703 58.4844 34.5536C58.2173 35.0531 58.0504 35.1864 57.7666 35.8192C57.5997 36.1356 57.4328 36.4852 57.2659 36.8183C57.2659 37.0347 57.0489 37.2346 56.9988 37.4677L56.9154 37.501C56.9154 37.501 56.882 37.6675 56.8152 37.7008C56.7985 37.8007 56.715 37.8841 56.715 37.9507L56.665 38.0506V38.0172C56.5982 38.2171 56.5148 38.3836 56.4146 38.5168L56.4647 38.5501C56.2477 38.8166 56.2811 39.0164 56.0641 39.2495C55.9973 39.7158 55.6801 39.7324 55.5967 40.2154C55.5967 40.1487 55.5633 40.2153 55.5466 40.1987C55.4798 40.3819 55.3797 40.5817 55.4799 40.665C55.4131 40.7982 55.3964 40.7482 55.3463 40.7316C55.3964 40.7649 55.3463 40.8981 55.3129 40.998V40.9314L55.1961 41.2312H55.3129C55.2128 41.381 55.1961 41.1978 55.146 41.3644L55.2128 41.4143C55.0959 41.6142 54.9457 41.6641 54.7955 41.814C54.3949 42.6133 54.1111 43.6124 53.5603 44.1786H53.4935C53.4267 44.0954 53.4601 44.4617 53.3934 44.4284V44.545C53.3934 44.545 53.3099 44.5949 53.3099 44.545C53.2598 44.6116 53.2765 44.6282 53.2598 44.7115L53.1763 44.7448C52.9594 45.0112 52.8759 45.3609 52.6589 45.6773C52.3418 45.9771 51.9745 46.8597 51.8076 47.3759C51.7575 47.5591 51.6741 47.7589 51.5906 47.9254C51.5072 48.0753 51.4237 48.2085 51.3069 48.3417C51.1066 48.5915 50.8729 48.8746 50.7393 49.2742C50.7226 49.2742 50.7059 49.3575 50.7226 49.3741C50.6058 49.574 50.5056 49.7571 50.3888 49.957C50.3888 49.957 50.2886 50.1401 50.1718 50.3733C50.0549 50.6064 49.9214 50.8895 49.838 51.1393C49.1035 52.0718 48.3357 52.9544 47.5344 53.7704C46.5663 54.7695 45.498 55.7187 44.3964 56.4181C44.2628 56.4014 44.1293 56.4181 44.0125 56.4181C43.8289 56.4347 43.6452 56.5013 43.4616 56.468C43.1779 56.4347 42.9775 56.5346 42.6938 56.6512C42.5769 56.7011 42.4434 56.6845 42.3266 56.7345C42.193 56.7844 42.0762 56.901 41.926 56.9676C41.6923 57.0675 41.4252 57.0842 41.1748 57.1508C40.624 57.1008 40.1065 56.901 39.5557 57.0509C38.7879 56.6512 38.1035 55.9684 37.586 55.0859C37.4024 54.5696 37.3524 53.9702 37.3023 53.3873C37.2522 52.7379 37.0853 52.1384 37.0352 51.4723C37.0018 50.7396 36.9684 50.0402 37.0352 49.2909C37.102 48.5415 37.152 47.7755 37.1854 47.0261C37.2188 46.2934 37.2021 45.5774 37.2021 44.8614H37.2522C37.2522 44.8614 37.1687 44.7781 37.2188 44.7281C37.2689 44.7281 37.2689 44.6615 37.3023 44.7115C37.4024 44.5949 37.2689 44.4117 37.4191 44.2619C37.3356 44.2119 37.4191 44.1287 37.3524 44.0787C37.3857 44.0787 37.4024 43.8955 37.4525 44.0121V44.0287H37.5026C37.6194 43.9788 37.5026 43.8622 37.5193 43.7623C37.5026 43.7956 37.4859 43.8289 37.4692 43.7956L37.5026 43.7124L37.536 43.7456L37.586 43.6124H37.536C37.536 43.6124 37.6695 43.5625 37.6194 43.4626C37.586 43.4126 37.536 43.5125 37.536 43.4292C37.586 43.346 37.6695 43.2294 37.7196 43.1128C37.6528 43.1128 37.6695 43.0796 37.6695 43.0463H37.7196C37.6695 42.913 37.8364 43.0463 37.8197 42.8964L37.753 42.8631C37.6695 42.7298 37.8698 42.8298 37.753 42.6799C37.753 42.6966 37.7196 42.6966 37.7029 42.6799C37.7029 42.6799 37.7029 42.6466 37.7029 42.63C37.7029 42.6133 37.7029 42.5967 37.7029 42.58C37.7196 42.58 37.753 42.58 37.753 42.5467L37.803 42.5966L37.7363 42.4801C37.7363 42.4801 37.7696 42.2969 37.8364 42.2802C37.8364 42.2802 37.9032 42.1304 37.8364 42.0804C37.8698 42.1137 37.9199 42.0304 37.9699 42.0804C37.9199 42.0304 37.9032 41.8972 37.9699 41.8639C38.0701 41.714 37.9533 41.5642 38.0534 41.4143H38.0367C40.1232 34.1539 43.712 27.4264 48.0185 22.1975C48.0686 22.1975 48.1354 22.1809 48.1855 22.1476C48.2689 22.1143 48.319 22.0643 48.319 22.0643C48.7697 21.7646 48.753 21.3816 48.97 21.1485C49.1035 21.0819 49.2204 21.0652 49.3706 21.0152C49.5041 20.9486 49.6877 20.882 49.9381 20.5323C50.1551 20.2492 50.2552 20.0161 50.3053 19.9328C50.3053 19.8662 50.3053 19.8329 50.3387 19.8163C50.3387 19.8163 50.3721 19.783 50.4055 19.7663C50.4389 19.7496 50.4556 19.7163 50.4723 19.6664L50.5223 19.6997C50.5223 19.6997 50.5724 19.5998 50.6225 19.6164C50.6225 19.6164 50.7226 19.5498 50.7393 19.4999L50.7894 19.4666V19.4999C50.8562 19.3999 50.9563 19.3167 51.0398 19.2668L51.0064 19.2001C51.2067 19.1502 51.2234 18.9337 51.407 18.9004C51.5238 18.5507 51.7575 18.7838 51.8577 18.4175C51.8577 18.4674 51.8744 18.4508 51.8911 18.4674C51.9745 18.3675 52.058 18.2676 51.9912 18.1177C52.058 18.0678 52.058 18.1177 52.0914 18.1677C52.058 18.1011 52.0914 18.0344 52.1415 17.9845V18.0344L52.2583 17.9012L52.2082 17.818C52.2082 17.818 52.2082 17.818 52.2249 17.8013C52.275 17.818 52.275 17.9179 52.3251 17.8513L52.2917 17.7514C52.3918 17.7014 52.492 17.8013 52.6255 17.8013C52.8425 17.6515 53.0595 17.4183 53.2598 17.1685C53.4601 16.9354 53.6437 16.7023 53.8607 16.6024L53.9108 16.6523C53.9609 16.7522 53.9442 16.4025 53.9943 16.4858V16.4025C53.9943 16.4025 54.061 16.4025 54.061 16.4525C54.0944 16.4192 54.0944 16.4025 54.1111 16.3359L54.1779 16.3692C54.3448 16.286 54.4283 16.0362 54.5952 15.9363C54.8122 15.9363 55.146 15.5866 55.363 15.3368C55.5466 15.2202 55.7135 15.087 55.8972 14.9704C55.9138 14.9704 55.9305 14.9705 55.9472 14.9538C56.1308 14.8872 56.2978 14.8206 56.4146 14.6374C57.4495 13.988 58.4844 13.4218 59.536 12.9388C59.9867 12.739 60.4374 12.5392 60.888 12.3727L60.9047 12.3394ZM43.061 28.4421C43.2446 28.1924 43.3948 27.8926 43.5451 27.6095C43.7621 27.2432 43.9958 26.8769 44.2294 26.5438C43.7287 27.3431 43.2279 28.1591 42.7606 28.9917C42.7939 28.8918 42.8106 28.7919 42.8607 28.692C42.9108 28.5921 42.9942 28.5254 43.061 28.4421ZM40.891 32.6219C40.891 32.6219 40.9411 32.5386 40.9578 32.5053C40.5238 33.4212 40.1065 34.3537 39.7226 35.2863C39.8061 35.0365 39.9062 34.7867 40.0064 34.5536C40.2734 33.8875 40.5739 33.238 40.891 32.6219ZM39.2052 36.6018C38.9381 37.3179 38.671 38.0339 38.4206 38.7666C38.4206 38.7333 38.4206 38.7167 38.4206 38.6834C38.4206 38.6501 38.4373 38.6168 38.454 38.5835C38.6877 37.9174 38.9047 37.2679 39.2052 36.6351V36.6018ZM69.5345 13.9547C69.5345 13.9547 69.5512 13.9713 69.5679 13.9879C69.5512 13.9879 69.5345 13.9879 69.5178 13.9713L69.5345 13.9547ZM69.6847 14.1212C69.6847 14.1212 69.7014 14.1545 69.7181 14.1711C69.7181 14.1711 69.7014 14.1711 69.6847 14.2044C69.668 14.1878 69.6847 14.1545 69.6847 14.1378V14.1212ZM69.7849 14.2544C69.7849 14.2544 69.8016 14.2877 69.8183 14.3043C69.8016 14.3043 69.7849 14.271 69.7849 14.2544ZM143.397 52.2716C143.397 52.2716 143.397 52.2383 143.413 52.2383C143.413 52.2383 143.413 52.2383 143.43 52.2383C143.43 52.3049 143.397 52.2383 143.38 52.2716H143.397ZM119.694 30.5071C119.694 30.5071 119.661 30.5737 119.661 30.5404C119.661 30.4737 119.677 30.4238 119.694 30.3572C119.694 30.3905 119.694 30.4238 119.694 30.4238V30.5071ZM106.223 50.1568C106.223 50.1568 106.224 50.1235 106.24 50.1235C106.541 49.4741 106.591 48.6581 106.724 47.9587C106.908 46.9096 107.108 45.8605 107.342 44.8281C107.475 44.2286 107.609 43.6124 107.742 43.0129C107.876 42.6632 108.01 42.2969 108.143 41.9305C108.544 40.7316 108.994 39.5493 109.345 38.317C109.695 37.1014 110.046 35.8691 110.313 34.6368C110.43 34.1372 110.513 33.6377 110.597 33.1214C110.63 32.9216 110.664 32.7218 110.664 32.5387C110.697 32.4887 110.714 32.4387 110.747 32.3888C110.714 32.3888 110.73 32.3555 110.73 32.3055H110.764C110.764 32.1723 110.847 32.3055 110.864 32.1556L110.83 32.1057C110.83 31.9558 110.914 32.0724 110.881 31.9059C110.881 31.9558 110.814 31.9058 110.847 31.8392V31.8725C110.847 31.8725 110.864 31.8226 110.881 31.7893C110.881 31.8226 110.914 31.8226 110.931 31.7726V31.8226V31.706C110.981 31.6394 110.981 31.5062 111.031 31.4896C111.031 31.4896 111.098 31.3397 111.081 31.2731C111.081 31.323 111.131 31.2398 111.164 31.2731C111.164 31.2231 111.164 31.0732 111.214 31.0399C111.315 30.8734 111.264 30.7069 111.365 30.5736C111.365 30.5736 111.365 30.557 111.365 30.5404C111.431 30.3738 111.498 30.2239 111.565 30.0574C111.565 29.9076 111.698 29.7077 111.715 29.5412L111.765 29.5079C111.765 29.5079 111.782 29.3914 111.815 29.3581C111.815 29.3581 111.865 29.2082 111.865 29.1582L111.899 29.0749C111.932 28.9584 111.982 28.8252 112.032 28.7253H111.999C112.132 28.4921 112.099 28.3589 112.233 28.1758C112.266 27.8594 112.466 27.7761 112.5 27.443C112.5 27.493 112.516 27.443 112.533 27.443C112.583 27.3098 112.633 27.1766 112.566 27.1267C112.566 27.11 112.566 27.0933 112.583 27.0767C112.6 27.0434 112.617 27.0767 112.633 27.0767C112.617 27.0767 112.633 27.0101 112.633 26.9601C112.633 26.9601 112.633 26.9268 112.65 26.9102L112.683 26.8435C112.75 26.6937 112.817 26.5438 112.884 26.3939C112.917 26.3606 112.95 26.3273 113 26.2774C113.201 25.8611 113.384 25.3615 113.568 24.9119C113.651 24.7287 113.735 24.5622 113.818 24.379H113.852C113.852 24.379 113.868 24.3124 113.868 24.2458C113.952 24.0626 114.052 23.8795 114.135 23.6963C114.269 23.4298 114.403 23.1467 114.553 22.8303C114.67 22.6138 114.803 22.3974 114.92 22.1975C115.087 21.9144 115.271 21.648 115.454 21.3816C115.805 20.932 116.105 20.3491 116.472 20.0827L116.506 20.116C116.506 20.116 116.556 20.0327 116.573 19.9828C116.739 19.8829 116.89 19.8829 117.057 19.8329C117.207 19.7996 117.357 19.7164 117.507 19.6831C117.875 19.5998 118.208 19.6497 118.542 19.7163V19.7496C118.542 19.8162 118.542 19.8662 118.542 19.8662C118.542 20.0494 118.576 20.1826 118.626 20.2825C118.659 20.5157 118.709 20.7488 118.759 20.9819C118.893 21.5481 118.976 22.1143 119.026 22.7304C119.06 23.0468 119.076 23.3799 119.11 23.6963C119.11 24.4123 119.11 25.145 119.06 25.8777C119.026 26.5605 118.976 27.2599 118.909 27.9426C118.809 28.3589 118.726 28.7919 118.626 29.2082C118.626 29.2082 118.626 29.2248 118.626 29.2415C118.626 29.2581 118.626 29.2748 118.626 29.2914C118.509 29.8243 118.392 30.3572 118.275 30.89C118.025 31.7726 117.791 32.6718 117.591 33.5544C117.307 34.8033 117.023 36.0523 116.739 37.3179C116.606 37.9173 116.472 38.5168 116.372 39.133C116.372 39.1663 116.372 39.1996 116.372 39.2329C116.139 39.9822 115.888 40.7316 115.621 41.4809C115.521 41.7973 115.404 42.1137 115.304 42.4301C115.237 42.58 115.17 42.7299 115.087 42.9796C115.003 43.2128 114.92 43.4626 114.853 43.6791C114.853 43.6957 114.853 43.729 114.853 43.7456C114.853 43.7456 114.853 43.7789 114.853 43.7956C114.82 43.8955 114.786 43.9955 114.736 44.0954H114.703C114.703 44.0954 114.686 44.2119 114.653 44.2452C114.653 44.2452 114.603 44.3785 114.603 44.4118L114.569 44.4783C114.536 44.5783 114.486 44.6948 114.436 44.7781H114.469C114.336 44.9779 114.369 45.1112 114.236 45.2777C114.219 45.5774 114.002 45.6607 114.002 45.9604C114.002 45.9271 113.985 45.9604 113.969 45.9604C113.935 46.0936 113.902 46.2102 113.969 46.2602C113.935 46.3434 113.918 46.3268 113.885 46.3268C113.918 46.3268 113.885 46.4267 113.885 46.4933V46.46L113.818 46.6598H113.885C113.835 46.7431 113.802 46.6432 113.785 46.7431H113.835C113.768 46.9096 113.685 46.9595 113.601 47.0761C113.485 47.3592 113.401 47.6756 113.318 47.9753C113.234 48.2917 113.151 48.6081 113.034 48.8746H112.984C112.984 48.8746 113.017 49.0744 112.967 49.0744V49.141C112.967 49.141 112.934 49.191 112.934 49.141C112.917 49.2076 112.934 49.2076 112.934 49.2576L112.884 49.3075C112.8 49.5406 112.817 49.7571 112.733 49.9903C112.6 50.2567 112.483 50.8229 112.433 51.1726C112.4 51.4224 112.316 51.6721 112.216 51.9219C112.166 52.0718 112.116 52.2217 112.082 52.3549C112.032 52.5048 111.966 52.638 111.915 52.7879C111.598 53.5539 111.298 54.3032 111.064 55.1192C110.814 55.9685 110.48 56.7178 110.163 57.5338C109.946 58.0666 109.745 58.6162 109.562 59.1657C109.495 59.2823 109.428 59.4155 109.345 59.632C109.245 59.8484 109.145 60.0816 109.061 60.2981C109.061 60.4313 108.928 60.5812 108.911 60.731H108.861C108.861 60.731 108.844 60.8643 108.811 60.8976C108.811 60.8976 108.761 61.0308 108.744 61.0641L108.711 61.1307C108.677 61.2306 108.627 61.3471 108.577 61.4304H108.61C108.477 61.6136 108.494 61.7468 108.36 61.8967C108.327 62.1965 108.126 62.1964 108.076 62.4962C108.076 62.4629 108.06 62.4962 108.043 62.4962C107.993 62.6127 107.943 62.7293 107.993 62.7959C107.943 62.8792 107.943 62.8459 107.909 62.8292C107.926 62.8459 107.909 62.9291 107.876 62.9957V62.9624L107.793 63.1456H107.859C107.793 63.2455 107.793 63.129 107.759 63.2289L107.793 63.2622C107.709 63.3787 107.609 63.3954 107.525 63.4953C107.225 63.9949 107.025 64.6443 106.691 65.0606H106.657C106.657 65.0606 106.657 65.2438 106.591 65.2272V65.3104H106.557C106.524 65.2438 106.457 65.2105 106.407 65.2105C106.407 65.2105 106.407 65.2105 106.407 65.1938H106.457L106.39 65.1606C106.407 65.0773 106.357 65.0107 106.39 64.9607C106.39 64.9607 106.39 64.8275 106.34 64.8275C106.374 64.8275 106.374 64.7609 106.407 64.7609C106.374 64.7609 106.324 64.661 106.357 64.611C106.357 64.4445 106.274 64.3945 106.29 64.2446C106.257 64.2779 106.257 64.1947 106.223 64.2446C106.157 64.1447 106.274 63.9283 106.123 63.9783C106.107 63.9283 106.14 63.8783 106.14 63.845C106.107 63.7451 106.09 63.7118 106.073 63.6285C106.057 63.5952 105.99 63.6285 105.973 63.5453C106.006 63.5453 105.99 63.5286 105.973 63.4953C105.973 63.4953 105.99 63.4953 106.006 63.462C106.006 63.462 106.007 63.462 105.99 63.462C105.973 63.4287 105.956 63.4453 105.973 63.462C105.973 63.462 105.973 63.462 105.973 63.4787C105.99 63.412 105.94 63.3454 105.973 63.3121C105.94 63.2289 105.89 63.1623 105.856 63.1123C105.856 63.079 105.856 63.0457 105.856 63.0124C105.856 63.0124 105.873 63.0124 105.89 63.0291L105.856 62.9624C105.856 62.9624 105.89 62.9957 105.906 63.0124C105.923 62.9291 105.873 62.8958 105.84 62.8292C105.439 58.7994 105.673 54.4031 106.207 50.2067L106.223 50.1568ZM113.718 48.5415C113.718 48.5415 113.752 48.375 113.718 48.325C113.735 48.325 113.785 48.1086 113.802 48.2585V48.2917V48.325C113.768 48.5249 113.701 48.708 113.635 48.8912C113.635 48.7913 113.668 48.6747 113.735 48.5582L113.718 48.5415ZM113.868 47.9421V47.9753C113.868 47.992 113.852 48.0086 113.835 47.9753V47.9254L113.868 47.9421ZM113.902 48.0253C113.902 48.0253 113.885 48.0586 113.885 48.0753C113.885 48.0419 113.885 48.0087 113.885 47.992V48.0253H113.902ZM113.501 49.1244C113.501 49.1244 113.501 49.1244 113.501 49.141C113.501 49.141 113.501 49.141 113.501 49.1244ZM119.327 33.0215C119.327 33.0215 119.327 33.0548 119.327 33.0715C119.327 33.0715 119.327 33.0382 119.327 33.0215ZM119.51 31.6227C119.51 31.6227 119.51 31.5728 119.51 31.5562H119.477C119.477 31.5562 119.477 31.5395 119.477 31.5228C119.477 31.4895 119.477 31.4396 119.494 31.4063C119.494 31.4063 119.494 31.3896 119.494 31.373C119.494 31.323 119.51 31.2731 119.527 31.2231C119.527 31.1398 119.56 31.0566 119.577 30.9733C119.56 31.1732 119.56 31.373 119.51 31.5895C119.51 31.6061 119.51 31.6394 119.494 31.6561L119.51 31.6227ZM119.644 30.7069C119.644 30.7069 119.661 30.607 119.677 30.557C119.677 30.5903 119.677 30.607 119.677 30.6403L119.644 30.7069ZM119.744 30.1573C119.794 29.8909 119.844 29.6078 119.894 29.3414C119.878 29.6245 119.827 29.9075 119.744 30.1573ZM110.413 58.8493C110.413 58.8493 110.497 58.8826 110.53 58.8826C110.246 59.5653 109.946 60.2481 109.645 60.9308C109.929 60.2481 110.163 59.5487 110.413 58.8493ZM147.286 48.708C147.286 48.708 147.152 48.708 147.085 48.708C147.052 48.708 147.035 48.708 147.002 48.708C147.069 48.6914 147.136 48.6747 147.202 48.6581C147.236 48.6581 147.252 48.6914 147.286 48.708ZM135.067 62.7127C135.067 62.7127 135.051 62.7626 135.034 62.7793C135.017 62.7793 135 62.8126 134.984 62.8292C135 62.7793 135.034 62.746 135.067 62.7127ZM114.786 76.2676C114.686 76.2676 114.586 76.2676 114.486 76.2676C114.386 76.201 114.286 76.1511 114.202 76.0845C114.252 76.0845 114.319 76.1178 114.369 76.1344C114.503 76.1677 114.653 76.2177 114.786 76.2676ZM90.7166 47.7422C90.7166 47.7422 90.7166 47.6756 90.7166 47.6257C90.7166 47.6257 90.7166 47.6923 90.7166 47.7422ZM81.3691 36.6851C81.3691 36.6851 81.3858 36.6518 81.4025 36.6351C81.4025 36.6351 81.3858 36.6684 81.3691 36.6684V36.6851ZM82.4708 35.4361C82.4541 35.5361 82.4207 35.5194 82.3706 35.6027C82.3373 35.7026 82.2371 35.7858 82.2037 35.8525V35.8192L82.0869 35.9357L82.1202 35.9024C82.1536 36.0023 82.0201 35.9357 81.97 36.0689C81.9033 36.1355 81.92 36.402 81.8198 36.4353C81.8198 36.5186 81.8198 36.3354 81.7864 36.4353C81.7697 36.3853 81.7864 36.3853 81.7697 36.352C81.7363 36.4186 81.6696 36.3853 81.6195 36.4852V36.4519C81.5694 36.5518 81.5027 36.5685 81.4526 36.6018C81.5193 36.5019 81.5861 36.4186 81.6529 36.3354C81.9366 36.019 82.2204 35.6859 82.5209 35.3695C82.5042 35.4028 82.4875 35.4361 82.4708 35.4694V35.4361ZM94.923 69.2237C94.923 69.2237 94.873 69.1238 94.923 69.1238C94.923 69.1238 94.9564 69.1238 94.9731 69.1238C94.9731 69.1405 94.9564 69.1571 94.9397 69.1738C94.9397 69.2071 94.9731 69.2237 94.9898 69.257C94.9731 69.257 94.9397 69.2903 94.923 69.2237ZM116.272 77.3167C116.406 77.3001 116.556 77.2668 116.673 77.2335C116.689 77.2335 116.706 77.2335 116.723 77.2335C116.956 77.2501 117.173 77.2834 117.407 77.3334C117.023 77.3667 116.639 77.3667 116.255 77.3334L116.272 77.3167ZM143.447 52.3882V52.3549C143.447 52.3549 143.447 52.3882 143.413 52.3882C143.413 52.3549 143.397 52.3383 143.38 52.3549V52.305V52.4049C143.38 52.4049 143.38 52.4049 143.363 52.4049C143.363 52.3882 143.363 52.3549 143.363 52.3382C143.346 52.3715 143.33 52.3383 143.33 52.3216C143.33 52.2883 143.38 52.3049 143.38 52.2716L143.413 52.305C143.413 52.305 143.413 52.2217 143.413 52.1884C143.413 52.205 143.413 52.2383 143.413 52.255C143.413 52.255 143.413 52.2717 143.413 52.305C143.413 52.2717 143.463 52.3715 143.43 52.3882H143.447ZM144.465 51.1892C144.465 51.1892 144.482 51.1559 144.498 51.1393C144.498 51.1559 144.482 51.1726 144.465 51.1892ZM144.966 50.6397C144.966 50.723 144.882 50.7396 144.865 50.7896V50.7563L144.799 50.8229H144.832C144.832 50.8229 144.765 50.8063 144.749 50.9062C144.699 50.9395 144.749 51.1726 144.699 51.1726C144.699 51.2392 144.699 51.0893 144.665 51.1559C144.648 51.106 144.665 51.106 144.648 51.0893C144.632 51.1393 144.582 51.0893 144.565 51.1726V51.1393C144.665 50.9728 144.799 50.8062 144.915 50.6397C144.966 50.5731 145.016 50.5231 145.049 50.4565C145.049 50.4565 145.066 50.4565 145.082 50.4565C145.066 50.4898 145.049 50.5231 145.049 50.5564C145.049 50.5564 145.016 50.5898 144.999 50.6397H144.966Z" fill="#ac8856"/>
</svg>