<svg xmlns="http://www.w3.org/2000/svg" version="1.1" xmlns:xlink="http://www.w3.org/1999/xlink" width="512" height="512" x="0" y="0" viewBox="0 0 609.626 609.626" style="enable-background:new 0 0 512 512" xml:space="preserve"><g><path d="M508.021 50.802V25.401C508.021 11.372 496.649 0 482.62 0s-25.401 11.372-25.401 25.401v25.401H330.214V25.401C330.214 11.372 318.841 0 304.813 0s-25.401 11.372-25.401 25.401v25.401H152.406V25.401C152.406 11.372 141.034 0 127.005 0s-25.401 11.372-25.401 25.401v25.401C45.516 50.867.064 96.319 0 152.406v355.615c.064 56.088 45.516 101.54 101.604 101.604h406.417c56.088-.064 101.54-45.516 101.604-101.604V152.406c-.064-56.087-45.516-101.539-101.604-101.604zM330.214 482.62c0 14.029-11.372 25.401-25.401 25.401s-25.401-11.372-25.401-25.401v-91.087l-7.441 7.443c-10.045 9.793-26.127 9.589-35.92-.456-9.618-9.865-9.618-25.599 0-35.464l50.802-50.802c9.921-9.919 26.004-9.918 35.923.003a25.398 25.398 0 0 1 7.438 17.957zm228.609-279.411H50.802v-50.802c.031-28.044 22.758-50.771 50.802-50.802v25.401c0 14.029 11.372 25.401 25.401 25.401s25.401-11.372 25.401-25.401v-25.401h127.005v25.401c0 14.029 11.372 25.401 25.401 25.401s25.401-11.372 25.401-25.401v-25.401h127.005v25.401c0 14.029 11.372 25.401 25.401 25.401s25.401-11.372 25.401-25.401v-25.401c28.044.031 50.771 22.758 50.802 50.802v50.802z" fill="#ac8856" opacity="1" data-original="#000000"></path></g></svg>