<?xml version="1.0" encoding="UTF-8" standalone="no"?>
<!DOCTYPE svg PUBLIC "-//W3C//DTD SVG 1.1//EN" "http://www.w3.org/Graphics/SVG/1.1/DTD/svg11.dtd">
<svg xmlns="http://www.w3.org/2000/svg" version="1.1" viewBox="0.00 0.00 220.00 139.00">
<g stroke-width="2.00" fill="none" stroke-linecap="butt">
<path stroke="#f6fbf9" stroke-opacity="0.549" vector-effect="non-scaling-stroke" d="
  M 149.08 29.63
  Q 143.14 28.48 136.34 29.02"
/>
<path stroke="#fefefe" stroke-opacity="0.549" vector-effect="non-scaling-stroke" d="
  M 135.29 49.18
  L 135.45 29.83"
/>
<path stroke="#fefefe" stroke-opacity="0.549" vector-effect="non-scaling-stroke" d="
  M 109.05 94.07
  Q 107.54 94.62 106.99 95.44
  A 4.14 4.14 0.0 0 0 106.81 99.77
  Q 106.99 100.10 106.60 102.31"
/>
<path stroke="#fefefe" stroke-opacity="0.549" vector-effect="non-scaling-stroke" d="
  M 103.90 101.64
  L 104.01 98.47
  A 0.64 0.63 1.3 0 0 103.37 97.81
  L 103.00 97.81
  A 0.62 0.62 0.0 0 0 102.38 98.44
  L 102.45 105.97"
/>
<path stroke="#fefefe" stroke-opacity="0.549" vector-effect="non-scaling-stroke" d="
  M 99.91 112.92
  L 69.23 112.93"
/>
<path stroke="#fefefe" stroke-opacity="0.549" vector-effect="non-scaling-stroke" d="
  M 64.07 101.64
  Q 64.60 97.84 61.48 95.26"
/>
<path stroke="#fefefe" stroke-opacity="0.549" vector-effect="non-scaling-stroke" d="
  M 60.64 74.77
  Q 65.02 78.21 69.15 80.09
  Q 73.10 81.89 77.33 81.98"
/>
<path stroke="#fefefe" stroke-opacity="0.549" vector-effect="non-scaling-stroke" d="
  M 83.78 97.75
  C 80.81 99.27 79.69 102.43 82.52 104.80
  Q 84.92 106.81 88.90 105.56
  A 0.07 0.05 -84.8 0 0 88.93 105.52
  L 89.01 104.76
  A 0.09 0.09 0.0 0 0 88.91 104.66
  L 85.94 104.81
  A 2.51 2.49 -16.3 0 1 83.66 103.57
  L 83.19 102.74
  A 0.73 0.72 -15.1 0 1 83.82 101.65
  L 88.71 101.65
  A 0.61 0.60 88.2 0 0 89.31 101.00
  Q 89.21 99.32 87.75 98.17"
/>
<path stroke="#fefefe" stroke-opacity="0.549" vector-effect="non-scaling-stroke" d="
  M 99.59 78.02
  L 103.37 81.64
  A 1.08 1.03 65.5 0 0 104.09 81.93
  L 108.44 81.93
  A 0.63 0.63 0.0 0 0 109.07 81.30
  L 109.07 63.12
  A 0.55 0.54 88.9 0 1 109.59 62.57
  C 116.16 62.33 122.09 60.03 125.10 53.99
  Q 127.97 48.23 125.32 41.69"
/>
<path stroke="#f6fbf9" stroke-opacity="0.549" vector-effect="non-scaling-stroke" d="
  M 97.69 115.33
  L 70.24 115.34"
/>
<path stroke="#fefefe" stroke-opacity="0.549" vector-effect="non-scaling-stroke" d="
  M 79.95 104.29
  Q 75.35 105.99 73.31 103.15
  C 71.17 100.17 72.19 96.15 76.21 95.57
  Q 76.86 95.47 79.18 96.39
  A 0.36 0.35 10.4 0 0 79.66 96.06
  L 79.66 95.11
  A 0.77 0.77 0.0 0 0 79.13 94.38
  C 71.46 91.82 66.65 101.63 72.87 105.39
  Q 75.76 107.13 80.00 105.57
  A 0.10 0.08 -9.9 0 0 80.07 105.49
  L 80.17 104.45
  A 0.16 0.16 0.0 0 0 79.95 104.29"
/>
<path stroke="#fefefe" stroke-opacity="0.549" vector-effect="non-scaling-stroke" d="
  M 104.23 95.84
  A 1.06 1.06 0.0 0 0 103.17 94.78
  A 1.06 1.06 0.0 0 0 102.11 95.84
  A 1.06 1.06 0.0 0 0 103.17 96.90
  A 1.06 1.06 0.0 0 0 104.23 95.84"
/>
<path stroke="#fefefe" stroke-opacity="0.549" vector-effect="non-scaling-stroke" d="
  M 92.76 106.45
  A 0.17 0.17 0.0 0 0 92.93 106.28
  L 92.93 100.40
  A 1.18 1.17 0.0 0 1 94.11 99.23
  L 96.32 99.23
  A 0.77 0.77 0.0 0 1 97.09 100.06
  C 96.93 102.01 96.25 106.02 99.23 106.09
  Q 100.29 106.12 100.45 106.01
  A 0.45 0.45 0.0 0 0 100.31 105.20
  L 99.34 104.97
  A 1.09 1.09 0.0 0 1 98.50 103.91
  L 98.50 99.69
  A 0.51 0.50 -90.0 0 1 99.00 99.18
  L 100.66 99.18
  A 0.38 0.37 5.6 0 0 101.03 98.88
  Q 101.06 98.73 101.06 98.60
  A 0.67 0.67 0.0 0 0 100.39 97.88
  L 99.05 97.88
  A 0.58 0.57 -81.7 0 1 98.50 97.14
  Q 98.67 96.60 98.57 95.54
  A 0.18 0.18 0.0 0 0 98.22 95.48
  L 97.41 97.30
  A 1.18 1.17 -78.0 0 1 96.34 98.00
  L 91.23 98.00
  A 0.37 0.37 0.0 0 0 90.87 98.43
  Q 91.47 102.11 90.81 106.23
  A 0.19 0.19 0.0 0 0 91.00 106.45
  L 92.76 106.45"
/>
<path stroke="#f6fbf9" stroke-opacity="0.549" vector-effect="non-scaling-stroke" d="
  M 83.41 100.67
  L 87.33 100.59
  A 0.18 0.18 0.0 0 0 87.50 100.40
  L 87.50 100.30
  A 1.82 1.36 -1.3 0 0 85.65 98.98
  L 85.01 99.00
  A 1.82 1.36 -1.3 0 0 83.22 100.40
  L 83.23 100.50
  A 0.18 0.18 0.0 0 0 83.41 100.67"
/>
</g>
<path fill="#9dd5b7" fill-opacity="0.098" d="
  M 149.08 29.63
  Q 143.14 28.48 136.34 29.02
  Q 138.40 25.84 140.71 23.46
  Q 152.65 11.10 166.85 0.65
  A 1.17 1.16 -33.2 0 1 168.55 1.00
  L 170.45 4.31
  A 1.42 1.41 53.5 0 1 170.19 6.06
  Q 158.65 16.74 149.08 29.63
  Z"
/>
<path fill="#ffffff" d="
  M 79.98 26.38
  L 88.67 35.08
  A 0.82 0.81 34.8 0 1 88.84 35.99
  L 87.83 38.28
  A 0.71 0.71 0.0 0 1 86.84 38.62
  Q 77.90 33.77 69.66 37.75
  Q 55.48 44.59 57.31 60.51
  Q 57.78 64.54 60.13 67.86
  A 0.17 0.17 0.0 0 1 59.92 68.11
  C 52.47 64.93 48.04 59.01 47.78 50.67
  Q 47.39 38.56 57.41 31.44
  Q 64.27 26.57 73.68 28.04
  A 3.86 3.40 56.8 0 1 74.37 28.23
  L 77.38 29.49
  A 0.44 0.44 0.0 0 0 77.95 29.26
  L 79.15 26.54
  A 0.51 0.51 0.0 0 1 79.98 26.38
  Z"
/>
<path fill="#ffffff" d="
  M 113.75 36.90
  L 109.43 36.90
  A 0.36 0.35 -90.0 0 0 109.08 37.26
  L 109.08 46.72
  A 2.08 2.08 0.0 0 1 107.46 48.75
  Q 103.25 49.71 98.94 49.20
  A 0.63 0.63 0.0 0 1 98.38 48.57
  L 98.38 29.21
  A 0.35 0.35 0.0 0 1 98.74 28.86
  L 106.86 29.09
  A 3.03 2.82 52.3 0 1 107.65 29.22
  Q 112.92 30.86 114.15 36.40
  A 0.41 0.41 0.0 0 1 113.75 36.90
  Z"
/>
<path fill="#ffffff" d="
  M 136.34 29.02
  Q 143.14 28.48 149.08 29.63
  Q 156.54 32.46 159.70 39.78
  A 0.22 0.22 0.0 0 1 159.43 40.08
  Q 152.80 37.76 147.33 38.35
  A 0.57 0.56 -3.4 0 0 146.83 38.91
  L 146.83 68.34
  A 0.66 0.66 0.0 0 1 146.20 69.00
  L 136.20 69.51
  A 0.59 0.58 88.1 0 1 135.59 68.93
  L 135.29 49.18
  L 135.45 29.83
  Q 135.44 29.49 135.60 29.20
  A 0.65 0.64 5.1 0 1 135.95 28.91
  Q 136.44 28.75 136.34 29.02
  Z"
/>
<path fill="#f5f6f8" fill-opacity="0.098" d="
  M 135.45 29.83
  L 135.29 49.18
  Q 120.74 70.50 109.37 92.08
  Q 109.01 92.75 109.05 94.07
  Q 107.54 94.62 106.99 95.44
  A 4.14 4.14 0.0 0 0 106.81 99.77
  Q 106.99 100.10 106.60 102.31
  Q 106.54 101.24 106.04 100.51
  Q 105.45 99.65 104.78 100.29
  Q 104.32 100.72 103.90 101.64
  L 104.01 98.47
  A 0.64 0.63 1.3 0 0 103.37 97.81
  L 103.00 97.81
  A 0.62 0.62 0.0 0 0 102.38 98.44
  L 102.45 105.97
  Q 100.08 109.74 99.91 112.92
  L 69.23 112.93
  Q 68.17 106.42 64.07 101.64
  Q 64.60 97.84 61.48 95.26
  Q 58.08 88.36 51.72 84.24
  A 0.47 0.47 0.0 0 1 51.61 83.56
  Q 55.35 78.60 60.64 74.77
  Q 65.02 78.21 69.15 80.09
  Q 73.10 81.89 77.33 81.98
  L 83.78 97.75
  C 80.81 99.27 79.69 102.43 82.52 104.80
  Q 84.92 106.81 88.90 105.56
  A 0.07 0.05 -84.8 0 0 88.93 105.52
  L 89.01 104.76
  A 0.09 0.09 0.0 0 0 88.91 104.66
  L 85.94 104.81
  A 2.51 2.49 -16.3 0 1 83.66 103.57
  L 83.19 102.74
  A 0.73 0.72 -15.1 0 1 83.82 101.65
  L 88.71 101.65
  A 0.61 0.60 88.2 0 0 89.31 101.00
  Q 89.21 99.32 87.75 98.17
  Q 92.65 87.33 99.59 78.02
  L 103.37 81.64
  A 1.08 1.03 65.5 0 0 104.09 81.93
  L 108.44 81.93
  A 0.63 0.63 0.0 0 0 109.07 81.30
  L 109.07 63.12
  A 0.55 0.54 88.9 0 1 109.59 62.57
  C 116.16 62.33 122.09 60.03 125.10 53.99
  Q 127.97 48.23 125.32 41.69
  Q 129.56 34.90 135.45 29.83
  Z
  M 79.95 104.29
  Q 75.35 105.99 73.31 103.15
  C 71.17 100.17 72.19 96.15 76.21 95.57
  Q 76.86 95.47 79.18 96.39
  A 0.36 0.35 10.4 0 0 79.66 96.06
  L 79.66 95.11
  A 0.77 0.77 0.0 0 0 79.13 94.38
  C 71.46 91.82 66.65 101.63 72.87 105.39
  Q 75.76 107.13 80.00 105.57
  A 0.10 0.08 -9.9 0 0 80.07 105.49
  L 80.17 104.45
  A 0.16 0.16 0.0 0 0 79.95 104.29
  Z
  M 104.23 95.84
  A 1.06 1.06 0.0 0 0 103.17 94.78
  A 1.06 1.06 0.0 0 0 102.11 95.84
  A 1.06 1.06 0.0 0 0 103.17 96.90
  A 1.06 1.06 0.0 0 0 104.23 95.84
  Z
  M 92.76 106.45
  A 0.17 0.17 0.0 0 0 92.93 106.28
  L 92.93 100.40
  A 1.18 1.17 0.0 0 1 94.11 99.23
  L 96.32 99.23
  A 0.77 0.77 0.0 0 1 97.09 100.06
  C 96.93 102.01 96.25 106.02 99.23 106.09
  Q 100.29 106.12 100.45 106.01
  A 0.45 0.45 0.0 0 0 100.31 105.20
  L 99.34 104.97
  A 1.09 1.09 0.0 0 1 98.50 103.91
  L 98.50 99.69
  A 0.51 0.50 -90.0 0 1 99.00 99.18
  L 100.66 99.18
  A 0.38 0.37 5.6 0 0 101.03 98.88
  Q 101.06 98.73 101.06 98.60
  A 0.67 0.67 0.0 0 0 100.39 97.88
  L 99.05 97.88
  A 0.58 0.57 -81.7 0 1 98.50 97.14
  Q 98.67 96.60 98.57 95.54
  A 0.18 0.18 0.0 0 0 98.22 95.48
  L 97.41 97.30
  A 1.18 1.17 -78.0 0 1 96.34 98.00
  L 91.23 98.00
  A 0.37 0.37 0.0 0 0 90.87 98.43
  Q 91.47 102.11 90.81 106.23
  A 0.19 0.19 0.0 0 0 91.00 106.45
  L 92.76 106.45
  Z"
/>
<path fill="#ffffff" d="
  M 125.32 41.69
  Q 127.97 48.23 125.10 53.99
  C 122.09 60.03 116.16 62.33 109.59 62.57
  A 0.55 0.54 88.9 0 0 109.07 63.12
  L 109.07 81.30
  A 0.63 0.63 0.0 0 1 108.44 81.93
  L 104.09 81.93
  A 1.08 1.03 65.5 0 1 103.37 81.64
  L 99.59 78.02
  L 94.94 73.36
  A 0.30 0.30 0.0 0 1 95.16 72.85
  L 97.77 72.85
  A 0.61 0.60 0.0 0 0 98.38 72.25
  L 98.38 53.66
  A 0.60 0.59 -89.1 0 1 98.99 53.06
  Q 104.16 53.25 109.41 51.64
  C 117.74 49.10 120.33 39.73 116.41 32.48
  A 0.24 0.24 0.0 0 1 116.76 32.17
  Q 121.89 35.83 125.32 41.69
  Z"
/>
<path fill="#ffffff" d="
  M 162.04 35.68
  Q 169.86 42.16 172.73 49.47
  Q 174.36 53.63 174.25 59.74
  Q 174.07 70.32 165.77 76.53
  C 158.30 82.12 150.31 82.23 141.06 81.75
  A 1.09 1.05 68.6 0 1 140.34 81.42
  L 132.63 73.16
  A 0.14 0.14 0.0 0 1 132.72 72.93
  L 147.63 72.18
  A 3.76 3.65 -56.6 0 0 148.85 71.91
  Q 150.81 71.11 152.03 70.77
  C 157.15 69.33 161.65 65.21 163.98 60.08
  Q 169.43 48.09 161.85 35.85
  A 0.13 0.13 0.0 0 1 162.04 35.68
  Z"
/>
<path fill="#ffffff" d="
  M 77.33 81.98
  Q 73.10 81.89 69.15 80.09
  Q 65.02 78.21 60.64 74.77
  L 57.02 71.35
  A 0.20 0.19 45.9 0 1 57.02 71.06
  Q 57.38 70.73 57.92 71.56
  Q 57.94 71.59 58.65 71.85
  Q 69.52 75.91 81.32 71.38
  A 1.42 1.42 0.0 0 0 82.11 69.49
  L 81.10 67.17
  A 0.08 0.08 0.0 0 1 81.23 67.08
  Q 87.18 72.34 89.40 74.33
  Q 90.37 75.19 90.86 78.20
  A 0.69 0.67 -18.7 0 1 90.50 78.91
  Q 84.66 81.95 77.33 81.98
  Z"
/>
<path fill="#ffffff" d="
  M 182.75 77.19
  A 5.26 5.26 0.0 0 1 177.49 82.45
  A 5.26 5.26 0.0 0 1 172.23 77.19
  A 5.26 5.26 0.0 0 1 177.49 71.93
  A 5.26 5.26 0.0 0 1 182.75 77.19
  Z
  M 181.96 77.21
  A 4.46 4.46 0.0 0 0 177.50 72.75
  A 4.46 4.46 0.0 0 0 173.04 77.21
  A 4.46 4.46 0.0 0 0 177.50 81.67
  A 4.46 4.46 0.0 0 0 181.96 77.21
  Z"
/>
<path fill="#ffffff" d="
  M 176.45 79.48
  A 0.37 0.37 0.0 0 1 176.08 79.85
  L 175.80 79.85
  A 0.35 0.35 0.0 0 1 175.45 79.50
  L 175.45 75.47
  A 0.63 0.63 0.0 0 1 176.08 74.84
  L 178.43 74.84
  A 0.92 0.91 -7.3 0 1 179.32 75.52
  Q 179.55 76.35 179.06 77.19
  A 0.85 0.85 0.0 0 0 179.02 77.95
  L 179.52 79.12
  A 0.41 0.41 0.0 0 1 179.30 79.66
  L 178.96 79.81
  A 0.22 0.21 -24.7 0 1 178.68 79.71
  L 178.05 78.24
  A 0.84 0.83 -56.9 0 0 176.45 78.58
  L 176.45 79.48
  Z
  M 177.96 76.99
  A 0.57 0.54 51.1 0 0 178.04 76.00
  Q 177.58 75.71 176.78 75.87
  A 0.57 0.55 63.7 0 0 176.49 76.79
  Q 176.95 77.32 177.96 76.99
  Z"
/>
<path fill="#ffffff" d="
  M 165.41 104.10
  C 166.81 104.95 169.99 105.48 171.02 103.84
  A 1.71 1.58 28.6 0 0 170.23 101.51
  C 167.77 100.33 163.95 98.91 165.16 95.74
  A 1.99 1.97 81.6 0 1 165.74 94.95
  Q 167.79 93.28 171.36 93.91
  A 0.69 0.69 0.0 0 1 171.93 94.59
  L 171.93 95.57
  A 0.31 0.31 0.0 0 1 171.40 95.79
  Q 170.34 94.73 167.97 95.35
  A 1.40 1.36 -15.9 0 0 166.97 97.09
  Q 167.31 98.18 168.56 98.71
  Q 170.68 99.61 172.29 100.81
  A 1.71 1.70 -81.0 0 1 172.89 101.64
  C 174.44 106.11 168.53 106.93 165.66 105.93
  A 1.15 1.14 -80.3 0 1 164.90 104.85
  L 164.90 104.39
  A 0.34 0.34 0.0 0 1 165.41 104.10
  Z"
/>
<path fill="#ffffff" d="
  M 9.29 94.46
  L 8.69 95.81
  A 0.39 0.38 32.5 0 1 8.08 95.94
  Q 7.38 95.32 6.19 95.51
  A 0.69 0.69 0.0 0 0 5.61 96.19
  L 5.61 105.96
  A 0.11 0.11 0.0 0 1 5.50 106.07
  L 3.80 106.07
  A 0.17 0.17 0.0 0 1 3.63 105.90
  L 3.63 96.13
  A 0.62 0.61 89.5 0 0 3.01 95.51
  Q 1.73 95.52 0.71 95.97
  A 0.34 0.34 0.0 0 1 0.24 95.65
  Q 0.26 94.75 0.66 94.42
  A 1.03 1.01 -63.4 0 1 1.29 94.20
  L 9.08 94.15
  A 0.22 0.22 0.0 0 1 9.29 94.46
  Z"
/>
<path fill="#ffffff" d="
  M 42.92 104.42
  A 0.16 0.16 0.0 0 1 43.14 104.59
  L 43.03 105.64
  A 0.10 0.08 -9.5 0 1 42.96 105.72
  Q 38.66 107.27 35.75 105.49
  C 29.48 101.65 34.41 91.75 42.15 94.39
  A 0.78 0.78 0.0 0 1 42.68 95.13
  L 42.68 96.09
  A 0.36 0.36 0.0 0 1 42.19 96.42
  Q 39.85 95.48 39.19 95.58
  C 35.12 96.14 34.06 100.20 36.21 103.23
  Q 38.25 106.11 42.92 104.42
  Z"
/>
<path fill="#ffffff" d="
  M 79.95 104.29
  A 0.16 0.16 0.0 0 1 80.17 104.45
  L 80.07 105.49
  A 0.10 0.08 -9.9 0 1 80.00 105.57
  Q 75.76 107.13 72.87 105.39
  C 66.65 101.63 71.46 91.82 79.13 94.38
  A 0.77 0.77 0.0 0 1 79.66 95.11
  L 79.66 96.06
  A 0.36 0.35 10.4 0 1 79.18 96.39
  Q 76.86 95.47 76.21 95.57
  C 72.19 96.15 71.17 100.17 73.31 103.15
  Q 75.35 105.99 79.95 104.29
  Z"
/>
<path fill="#ffffff" d="
  M 106.60 102.31
  Q 106.99 100.10 106.81 99.77
  A 4.14 4.14 0.0 0 1 106.99 95.44
  Q 107.54 94.62 109.05 94.07
  Q 110.07 93.91 110.95 94.08
  Q 112.53 94.38 112.98 95.06
  Q 113.32 95.57 113.17 96.05
  A 1.18 1.14 35.5 0 1 111.13 96.36
  Q 110.93 96.10 110.77 95.69
  A 0.93 0.93 0.0 0 0 109.83 95.12
  Q 109.17 95.17 108.27 96.08
  A 1.12 1.11 -65.1 0 0 108.96 97.98
  Q 111.09 98.16 112.58 97.73
  A 0.41 0.41 0.0 0 1 113.10 98.12
  L 113.10 105.69
  A 0.25 0.24 -1.2 0 1 112.86 105.93
  L 111.66 106.00
  A 0.33 0.33 0.0 0 1 111.32 105.67
  L 111.32 99.32
  A 0.35 0.34 88.5 0 0 110.96 98.97
  L 108.53 99.09
  A 0.58 0.58 0.0 0 0 107.98 99.70
  L 108.30 105.86
  A 0.18 0.17 -0.0 0 1 108.12 106.03
  L 106.73 106.03
  A 0.27 0.26 2.0 0 1 106.46 105.75
  L 106.60 102.31
  Z"
/>
<path fill="#ffffff" d="
  M 199.51 96.19
  Q 198.86 96.07 198.95 95.43
  Q 199.16 93.97 200.11 94.08
  A 1.14 1.12 37.8 0 1 200.40 96.26
  Q 200.25 96.32 199.51 96.19
  Z"
/>
<path fill="#ffffff" d="
  M 11.89 98.25
  Q 12.59 97.77 14.75 97.83
  Q 17.17 97.90 17.10 100.52
  Q 17.01 103.47 17.34 105.81
  A 0.25 0.25 0.0 0 1 17.09 106.09
  L 15.83 106.09
  A 0.18 0.18 0.0 0 1 15.65 105.91
  L 15.65 100.94
  A 1.93 1.92 2.6 0 0 13.90 99.03
  Q 11.55 98.81 11.59 101.15
  Q 11.64 103.62 11.72 105.84
  A 0.23 0.23 0.0 0 1 11.49 106.08
  L 10.24 106.08
  A 0.15 0.15 0.0 0 1 10.09 105.93
  L 10.09 94.86
  A 0.67 0.66 -90.0 0 1 10.75 94.19
  L 11.08 94.19
  A 0.53 0.53 0.0 0 1 11.61 94.72
  L 11.61 98.11
  A 0.18 0.17 -18.0 0 0 11.89 98.25
  Z"
/>
<path fill="#ffffff" d="
  M 44.84 94.36
  Q 48.74 94.24 50.84 94.98
  A 2.67 2.58 -76.8 0 1 52.54 97.83
  Q 52.16 100.63 48.82 100.87
  A 0.23 0.23 0.0 0 1 48.65 100.47
  Q 48.96 100.17 49.68 99.70
  Q 52.10 98.10 49.46 96.04
  A 1.60 1.59 -71.0 0 0 46.88 97.30
  L 46.88 105.92
  A 0.16 0.16 0.0 0 1 46.72 106.08
  L 45.00 106.08
  A 0.23 0.22 -85.6 0 1 44.78 105.82
  Q 45.36 102.18 45.03 95.58
  Q 45.00 95.14 44.80 94.96
  Q 44.63 94.81 44.59 94.73
  A 0.28 0.27 79.3 0 1 44.84 94.36
  Z"
/>
<path fill="#ffffff" d="
  M 61.48 95.26
  Q 64.60 97.84 64.07 101.64
  C 62.65 106.28 58.87 106.24 54.38 106.07
  A 0.45 0.45 0.0 0 1 53.95 105.62
  L 53.95 95.05
  A 0.43 0.43 0.0 0 1 54.42 94.62
  L 61.48 95.26
  Z
  M 56.09 96.34
  L 56.05 104.00
  A 0.64 0.64 0.0 0 0 56.69 104.65
  L 58.08 104.65
  A 4.03 3.73 0.3 0 0 62.13 100.95
  L 62.13 99.47
  A 4.03 3.73 0.3 0 0 58.12 95.71
  L 56.73 95.71
  A 0.64 0.64 0.0 0 0 56.09 96.34
  Z"
/>
<circle fill="#ffffff" cx="103.17" cy="95.84" r="1.06"/>
<ellipse fill="#ffffff" cx="0.00" cy="0.00" transform="translate(138.90,95.82) rotate(-0.7)" rx="1.17" ry="1.02"/>
<path fill="#ffffff" d="
  M 90.81 106.23
  Q 91.47 102.11 90.87 98.43
  A 0.37 0.37 0.0 0 1 91.23 98.00
  L 96.34 98.00
  A 1.18 1.17 -78.0 0 0 97.41 97.30
  L 98.22 95.48
  A 0.18 0.18 0.0 0 1 98.57 95.54
  Q 98.67 96.60 98.50 97.14
  A 0.58 0.57 -81.7 0 0 99.05 97.88
  L 100.39 97.88
  A 0.67 0.67 0.0 0 1 101.06 98.60
  Q 101.06 98.73 101.03 98.88
  A 0.38 0.37 5.6 0 1 100.66 99.18
  L 99.00 99.18
  A 0.51 0.50 -90.0 0 0 98.50 99.69
  L 98.50 103.91
  A 1.09 1.09 0.0 0 0 99.34 104.97
  L 100.31 105.20
  A 0.45 0.45 0.0 0 1 100.45 106.01
  Q 100.29 106.12 99.23 106.09
  C 96.25 106.02 96.93 102.01 97.09 100.06
  A 0.77 0.77 0.0 0 0 96.32 99.23
  L 94.11 99.23
  A 1.18 1.17 -0.0 0 0 92.93 100.40
  L 92.93 106.28
  A 0.17 0.17 0.0 0 1 92.76 106.45
  L 91.00 106.45
  A 0.19 0.19 0.0 0 1 90.81 106.23
  Z"
/>
<path fill="#ffffff" d="
  M 136.19 99.11
  L 134.48 99.19
  A 0.61 0.60 87.2 0 0 133.91 99.83
  L 134.11 103.74
  A 1.29 1.28 -79.5 0 0 134.87 104.85
  L 136.29 105.48
  A 0.22 0.22 0.0 0 1 136.26 105.90
  Q 132.88 106.84 132.73 103.73
  Q 132.57 100.54 132.70 99.82
  A 0.54 0.54 0.0 0 0 132.13 99.19
  Q 132.01 99.19 131.65 99.05
  A 0.33 0.33 0.0 0 1 131.67 98.43
  Q 133.44 97.85 133.67 95.60
  A 0.24 0.24 0.0 0 1 134.14 95.54
  Q 134.39 96.21 134.05 97.06
  A 0.63 0.63 0.0 0 0 134.67 97.92
  L 136.14 97.84
  A 0.45 0.45 0.0 0 1 136.61 98.27
  L 136.63 98.61
  A 0.47 0.47 0.0 0 1 136.19 99.11
  Z"
/>
<path fill="#ffffff" d="
  M 210.02 104.32
  A 0.18 0.18 0.0 0 1 210.27 104.47
  L 210.36 105.31
  A 0.06 0.06 0.0 0 1 210.32 105.38
  Q 207.57 106.56 205.21 105.72
  C 202.30 104.66 201.86 100.79 203.84 98.69
  Q 205.61 96.83 208.66 97.19
  A 0.87 0.87 0.0 0 1 209.42 97.97
  L 209.49 98.61
  A 0.42 0.41 10.6 0 1 208.88 99.01
  C 203.35 96.20 202.41 107.26 210.02 104.32
  Z"
/>
<path fill="#ffffff" d="
  M 182.07 104.43
  A 0.23 0.23 0.0 0 1 182.38 104.65
  L 182.38 105.41
  A 0.10 0.09 -8.8 0 1 182.32 105.50
  Q 177.81 107.09 175.71 104.76
  C 172.86 101.60 175.21 97.11 179.41 97.14
  A 2.75 2.74 -11.6 0 1 181.90 98.78
  L 182.54 100.22
  A 0.99 0.98 -12.2 0 1 181.65 101.60
  L 177.02 101.64
  A 0.61 0.61 0.0 0 0 176.45 102.48
  Q 177.90 105.98 182.07 104.43
  Z
  M 176.79 100.46
  L 180.61 100.42
  A 0.13 0.13 0.0 0 0 180.74 100.29
  L 180.74 100.22
  A 1.97 1.86 -0.6 0 0 178.75 98.38
  L 178.61 98.38
  A 1.97 1.86 -0.6 0 0 176.66 100.26
  L 176.66 100.33
  A 0.13 0.13 0.0 0 0 176.79 100.46
  Z"
/>
<path fill="#ffffff" d="
  M 196.76 97.88
  A 0.33 0.33 0.0 0 1 197.09 97.60
  L 197.93 97.60
  A 0.40 0.40 0.0 0 1 198.29 98.16
  L 194.95 105.72
  A 0.70 0.69 45.3 0 1 193.68 105.71
  L 190.36 98.04
  A 0.51 0.51 0.0 0 1 190.83 97.32
  L 191.21 97.32
  A 0.84 0.84 0.0 0 1 191.98 97.82
  L 194.26 103.09
  A 0.27 0.27 0.0 0 0 194.73 103.12
  Q 196.38 100.57 196.76 97.88
  Z"
/>
<path fill="#ffffff" d="
  M 218.89 104.47
  A 0.23 0.23 0.0 0 1 219.20 104.69
  L 219.20 105.45
  A 0.10 0.09 -8.3 0 1 219.13 105.54
  Q 214.60 107.10 212.52 104.75
  C 209.68 101.56 212.08 97.07 216.29 97.14
  A 2.75 2.74 -11.1 0 1 218.77 98.80
  L 219.40 100.25
  A 0.99 0.99 0.0 0 1 218.49 101.63
  L 213.85 101.63
  A 0.61 0.61 0.0 0 0 213.28 102.47
  Q 214.70 105.99 218.89 104.47
  Z
  M 213.65 100.42
  L 217.47 100.42
  A 0.13 0.13 0.0 0 0 217.60 100.29
  L 217.60 100.22
  A 1.97 1.84 0.0 0 0 215.63 98.38
  L 215.49 98.38
  A 1.97 1.84 -0.0 0 0 213.52 100.22
  L 213.52 100.29
  A 0.13 0.13 0.0 0 0 213.65 100.42
  Z"
/>
<path fill="#ffffff" d="
  M 186.45 105.77
  A 0.25 0.25 0.0 0 1 186.20 106.05
  L 184.83 106.05
  A 0.21 0.20 90.0 0 1 184.63 105.84
  L 184.63 97.79
  A 0.36 0.36 0.0 0 1 185.15 97.47
  Q 186.88 98.32 188.36 97.43
  A 0.50 0.49 -15.8 0 1 189.11 97.84
  L 189.11 98.58
  A 0.57 0.57 0.0 0 1 188.41 99.13
  Q 186.72 98.74 186.48 99.97
  Q 186.01 102.42 186.45 105.77
  Z"
/>
<rect fill="#ffffff" x="-0.91" y="-4.27" transform="translate(200.00,101.77) rotate(-0.6)" width="1.82" height="8.54" rx="0.27"/>
<path fill="#ffffff" d="
  M 26.98 104.60
  A 0.10 0.09 -90.0 0 1 27.07 104.70
  L 27.02 105.43
  A 0.03 0.01 -22.5 0 1 27.00 105.45
  Q 22.80 106.86 20.52 104.92
  Q 18.15 102.89 19.23 100.20
  Q 20.31 97.54 23.95 97.61
  A 3.28 3.28 0.0 0 1 26.74 99.25
  L 27.32 100.25
  A 0.92 0.92 0.0 0 1 26.52 101.63
  L 21.62 101.63
  A 0.69 0.69 0.0 0 0 21.03 102.67
  L 21.50 103.49
  A 2.57 2.55 -16.3 0 0 23.85 104.76
  L 26.98 104.60
  Z
  M 21.29 100.62
  L 25.25 100.60
  A 0.18 0.18 0.0 0 0 25.43 100.42
  L 25.43 100.30
  A 1.63 1.28 -0.3 0 0 23.80 99.03
  L 22.74 99.03
  A 1.63 1.28 -0.3 0 0 21.11 100.32
  L 21.11 100.44
  A 0.18 0.18 0.0 0 0 21.29 100.62
  Z"
/>
<path fill="#ffffff" d="
  M 87.75 98.17
  Q 89.21 99.32 89.31 101.00
  A 0.61 0.60 88.2 0 1 88.71 101.65
  L 83.82 101.65
  A 0.73 0.72 -15.1 0 0 83.19 102.74
  L 83.66 103.57
  A 2.51 2.49 -16.3 0 0 85.94 104.81
  L 88.91 104.66
  A 0.09 0.09 0.0 0 1 89.01 104.76
  L 88.93 105.52
  A 0.07 0.05 -84.8 0 1 88.90 105.56
  Q 84.92 106.81 82.52 104.80
  C 79.69 102.43 80.81 99.27 83.78 97.75
  Q 85.88 97.41 87.75 98.17
  Z
  M 83.41 100.67
  L 87.33 100.59
  A 0.18 0.18 0.0 0 0 87.50 100.40
  L 87.50 100.30
  A 1.82 1.36 -1.3 0 0 85.65 98.98
  L 85.01 99.00
  A 1.82 1.36 -1.3 0 0 83.22 100.40
  L 83.23 100.50
  A 0.18 0.18 0.0 0 0 83.41 100.67
  Z"
/>
<path fill="#ffffff" d="
  M 103.90 101.64
  Q 104.81 107.26 102.45 105.97
  L 102.38 98.44
  A 0.62 0.62 0.0 0 1 103.00 97.81
  L 103.37 97.81
  A 0.64 0.63 1.3 0 1 104.01 98.47
  L 103.90 101.64
  Z"
/>
<path fill="#ffffff" d="
  M 121.76 105.00
  A 0.18 0.18 0.0 0 1 121.99 105.17
  L 121.99 106.00
  A 0.06 0.06 0.0 0 1 121.94 106.06
  Q 119.15 106.92 116.94 105.85
  C 114.22 104.52 114.20 100.71 116.35 98.88
  Q 118.27 97.26 121.19 97.93
  A 0.85 0.85 0.0 0 1 121.85 98.76
  L 121.85 99.39
  A 0.41 0.40 16.8 0 1 121.22 99.72
  C 116.14 96.41 114.06 107.06 121.76 105.00
  Z"
/>
<rect fill="#ffffff" x="-0.89" y="-4.08" transform="translate(138.85,101.90) rotate(-0.8)" width="1.78" height="8.16" rx="0.27"/>
<path fill="#ffffff" d="
  M 150.7241 101.2233
  A 4.61 4.31 -9.7 0 1 146.9062 106.2484
  A 4.61 4.31 -9.7 0 1 141.6359 102.7767
  A 4.61 4.31 -9.7 0 1 145.4538 97.7516
  A 4.61 4.31 -9.7 0 1 150.7241 101.2233
  Z
  M 145.5838 99.1269
  A 3.06 2.79 -102.0 0 0 143.4910 102.7001
  A 3.06 2.79 -102.0 0 0 146.8562 105.1131
  A 3.06 2.79 -102.0 0 0 148.9490 101.5399
  A 3.06 2.79 -102.0 0 0 145.5838 99.1269
  Z"
/>
<path fill="#ffffff" d="
  M 152.07 105.78
  Q 152.78 102.76 152.21 98.54
  A 0.61 0.60 0.1 0 1 152.90 97.86
  Q 154.24 98.04 156.98 97.82
  Q 159.44 97.61 159.55 100.51
  Q 159.69 104.43 159.85 105.78
  A 0.26 0.25 -3.0 0 1 159.59 106.06
  L 158.31 106.06
  A 0.22 0.22 0.0 0 1 158.09 105.84
  L 158.09 101.06
  A 1.99 1.99 0.0 0 0 156.10 99.07
  L 155.37 99.07
  A 1.30 1.30 0.0 0 0 154.07 100.37
  L 154.07 105.81
  A 0.27 0.26 -90.0 0 1 153.81 106.08
  L 152.30 106.08
  A 0.24 0.24 0.0 0 1 152.07 105.78
  Z"
/>
<path fill="#ffffff" d="
  M 124.89 99.40
  A 0.19 0.19 0.0 0 1 124.64 99.22
  L 124.64 98.51
  A 0.23 0.23 0.0 0 1 124.78 98.30
  Q 127.75 97.12 129.43 99.03
  A 1.82 1.77 -69.9 0 1 129.86 99.99
  C 130.02 101.27 129.31 104.29 130.92 105.20
  A 0.68 0.65 60.5 0 1 130.60 106.45
  Q 127.83 106.28 128.48 102.68
  A 0.57 0.57 0.0 0 0 127.74 102.04
  Q 126.01 102.62 125.14 103.30
  A 0.77 0.77 0.0 0 0 124.93 104.23
  Q 125.57 105.58 127.49 105.34
  A 0.26 0.26 0.0 0 1 127.71 105.77
  C 126.19 107.42 124.06 106.16 123.15 104.83
  A 2.04 1.90 -22.5 0 1 124.51 101.86
  Q 125.33 101.68 127.77 100.84
  A 0.84 0.84 0.0 0 0 127.68 99.23
  Q 126.32 98.92 124.89 99.40
  Z"
/>
<path fill="#9dd5b7" fill-opacity="0.098" d="
  M 83.41 100.67
  A 0.18 0.18 0.0 0 1 83.23 100.50
  L 83.22 100.40
  A 1.82 1.36 -1.3 0 1 85.01 99.00
  L 85.65 98.98
  A 1.82 1.36 -1.3 0 1 87.50 100.30
  L 87.50 100.40
  A 0.18 0.18 0.0 0 1 87.33 100.59
  L 83.41 100.67
  Z"
/>
<path fill="#ffffff" d="
  M 69.23 112.93
  L 99.91 112.92
  L 218.85 112.92
  A 0.59 0.59 0.0 0 1 219.44 113.51
  L 219.44 114.77
  A 0.56 0.56 0.0 0 1 218.88 115.33
  L 97.69 115.33
  L 70.24 115.34
  L 3.75 115.33
  A 0.59 0.58 -0.0 0 1 3.16 114.75
  L 3.16 113.48
  A 0.56 0.56 0.0 0 1 3.72 112.92
  L 69.23 112.93
  Z"
/>
<path fill="#9dd5b7" fill-opacity="0.098" d="
  M 97.69 115.33
  L 95.45 121.95
  A 3.37 3.29 78.4 0 1 94.57 123.32
  L 78.44 138.39
  A 0.41 0.40 61.4 0 1 77.77 138.19
  Q 74.88 126.65 70.24 115.34
  L 97.69 115.33
  Z"
/>
</svg>
