<svg xmlns="http://www.w3.org/2000/svg" width="24" height="24" viewBox="0 0 24 24" fill="none">
<path d="M12.5 0C7.26168 0 3 4.1545 3 9.26104C3 11.0244 3.49291 12.8965 4.46499 14.8253C5.23578 16.3547 6.30864 17.9242 7.65381 19.4903C9.93739 22.1491 12.1847 23.8551 12.2792 23.9265C12.3442 23.9755 12.4222 24 12.5 24C12.5778 24 12.6558 23.9755 12.7208 23.9265C12.8153 23.8552 15.0626 22.1491 17.3462 19.4903C18.6913 17.9242 19.7642 16.3546 20.535 14.8253C21.5071 12.8965 22 11.0244 22 9.26104C22 4.1545 17.7383 0 12.5 0ZM12.5 6.05923C14.311 6.05923 15.7844 7.49553 15.7844 9.26104C15.7844 11.0265 14.3111 12.4628 12.5 12.4628C10.6889 12.4628 9.21559 11.0265 9.21559 9.26104C9.21559 7.49553 10.6889 6.05923 12.5 6.05923Z" fill="#ac8856"/>
</svg>