<svg width="307" height="226" viewBox="0 0 307 226" fill="none" xmlns="http://www.w3.org/2000/svg">
<path d="M287.908 45.6305C272.677 33.6686 253.078 28.9134 234.248 24.5062C211.844 19.272 189.451 14.0305 167.047 8.79632C142.967 3.16198 118.11 -2.49821 94.1821 1.16189C57.1443 6.83675 28.1217 34.8043 13.9695 67.6647C-0.182756 100.525 -1.42587 137.781 0.969406 174.115C1.93208 188.617 4.12096 204.542 15.2159 215.019C26.0003 225.193 42.4447 227.264 56.8865 225.369C89.9093 221.055 116.695 200.063 147.339 188.504C192.148 171.612 248.559 173.133 280.054 138.763C302.755 113.99 323.351 73.49 287.886 45.6451L287.908 45.6305Z" fill="#F6EDDF"/>
</svg>
