<svg xmlns="http://www.w3.org/2000/svg" width="242" height="185" viewBox="0 0 242 185" fill="none">
<g id="Group">
<path id="Vector" d="M235.265 75.5588C232.889 92.1224 229.239 108.423 221.344 122.62C206.515 149.297 180.281 170.576 155.007 179.9C125.961 190.61 95.7095 179.532 68.7242 166.65C44.6208 155.152 22.4387 137.677 10.9808 108.879C-2.1014 75.9795 -0.721541 37.5416 1.28708 1.87295C1.40934 -0.423163 4.39609 -0.300564 4.25636 1.99555C2.5796 31.6522 1.39188 62.4131 8.50064 91.1058C16.3779 122.918 35.5559 144.6 60.1483 158.342C84.8805 172.153 115.726 185.299 143.445 179.568C169.557 174.169 195.966 154.03 213.065 129.824C224.209 114.049 229.379 95.4176 232.261 75.4361C235.177 55.2268 237.221 34.8248 239.02 14.4753C239.23 12.1967 242.199 12.3018 241.989 14.5979C240.173 34.9649 238.129 55.3671 235.23 75.5588H235.265Z" fill="#ac8856"/>
<path id="Vector_2" d="M211.354 111.035C202.288 139.002 184.052 156.432 160.445 165.26C113.32 182.881 55.4719 167.51 31.0112 113.303C16.6277 81.4281 16.2093 40.8992 16.0001 5.3427C15.9653 -0.379838 23.3749 -0.0483624 23.4273 5.65673C23.619 35.543 24.1246 67.8544 32.7721 96.1182C40.269 120.579 55.8206 139.927 75.2426 151.407C115.359 175.117 183.773 166.865 203.386 111.14C214.423 79.7705 215.068 43.4813 216.567 10.1406C216.829 4.43547 224.238 4.73205 223.994 10.4546C222.495 43.7256 221.588 79.4565 211.372 111.053L211.354 111.035Z" fill="#ac8856"/>
<path id="Vector_3" d="M157.31 148.136C136.702 157.508 111.034 154.611 90.1122 148.991C68.091 143.075 54.1664 125.868 45.3718 101.733C34.1867 71.0193 30.1209 36.9895 32.7907 3.50059C33.1571 -1.03673 39.0899 -0.809838 38.7235 3.74493C36.0013 37.6701 40.1893 72.6947 52.5261 103.322C58.5985 118.417 67.2186 131.47 80.4802 138.014C92.625 144 106.358 145.309 119.41 146.234C133.37 147.229 147.818 146.443 160.626 138.713C171.776 131.959 180.745 121.035 187.446 108.557C203.307 79.0993 205.227 43.2544 207.059 9.46887C207.303 4.9141 213.253 5.14099 212.992 9.71321C210.252 60.2694 203.708 127.003 157.275 148.136H157.31Z" fill="#ac8856"/>
<path id="Vector_4" d="M179.208 101.855C164.025 124.428 140.134 131.813 117.046 133.053C106.051 133.646 94.5506 132.756 84.516 127.134C73.3819 120.884 66.5408 108.96 61.0262 96.2682C49.0719 68.8063 44.2553 37.5035 46.5589 6.51501C46.8905 1.95839 52.8415 2.18537 52.4925 6.75945C50.4332 34.4832 54.1677 62.4165 64.0627 87.4866C69.0189 100.022 75.0747 113.255 85.7201 119.924C95.2836 125.912 106.697 126.523 117.342 125.965C139.959 124.743 163.414 117.043 177.061 93.562C191.023 69.5394 192.611 39.6858 194.059 11.6129C194.286 7.05629 200.237 7.28317 199.993 11.8572C198.405 42.8632 196.293 76.4529 179.208 101.855Z" fill="#ac8856"/>
<path id="Vector_5" d="M168.608 85.3199C155.602 100.746 134.369 106.879 116.831 108.835C98.1943 110.914 80.5866 104.59 71.2772 84.1668C60.7997 61.1579 60.0326 30.5319 61.6539 4.8675C61.7934 2.57885 64.7571 2.70115 64.6176 4.98981C63.1358 28.4704 63.9377 54.3968 71.4864 76.305C79.7672 100.362 98.2466 107.979 118.905 105.027C135.101 102.703 154.678 97.095 166.603 82.7167C181.229 65.0713 183.827 34.6201 184.036 11.2443C184.054 8.95567 187.017 9.07798 187 11.3666C186.791 35.6334 183.932 67.133 168.59 85.3199H168.608Z" fill="#ac8856"/>
<path id="Vector_6" d="M165.866 74.9393C153.675 90.1128 135.466 93.7748 118.749 93.1441C102.838 92.5483 83.0685 93.0915 75.0693 73.8354C66.8071 53.9487 67.0527 27.4213 69.4735 5.85244C69.7366 3.59218 72.7187 3.69732 72.4556 5.97511C70.2453 25.564 70.3857 46.6773 75.5079 65.5303C78.3321 75.9555 83.5069 84.103 92.8568 86.556C101.189 88.7462 110.346 89.2544 118.889 89.5873C134.466 90.183 151.482 87.0642 163.095 73.2398C175.655 58.2765 175.111 34.1145 177.005 14.5782C177.233 12.3004 180.216 12.4229 179.988 14.7007C178.04 34.7452 178.461 59.2752 165.849 74.9393H165.866Z" fill="#ac8856"/>
<path id="Vector_7" d="M155.359 63.6844C147.033 77.9283 134.571 83.1016 120.461 82.0879C106.772 81.1092 93.3105 77.7535 86.5448 62.2688C79.1305 45.2809 82.268 25.2522 81.006 6.84871C80.8483 4.57667 83.828 4.7164 83.9858 6.97095C85.0199 22.0712 82.9341 37.958 86.5448 52.6388C91.3649 72.1958 104.686 77.404 120.601 78.54C135.062 79.5712 147.033 73.7688 154.605 58.4762C161.774 44.0051 162.387 26.7902 163.018 10.5539C163.106 8.26435 166.086 8.38659 165.998 10.6761C165.297 28.7825 164.403 48.1821 155.341 63.6844H155.359Z" fill="#ac8856"/>
<path id="Vector_8" d="M118.078 70.1422C90.5649 67.9264 88.8399 27.4311 90.4081 2.86529C90.5475 0.579688 93.5271 0.701833 93.3702 2.98743C91.9414 25.5294 92.5688 64.4544 118.235 66.583C143.256 68.6593 149.006 31.0602 151.027 9.30336C151.236 7.03521 154.199 7.13991 153.989 9.42551C151.794 33.2062 144.894 72.2882 118.078 70.1248V70.1422Z" fill="#ac8856"/>
<path id="Vector_9" d="M121.318 53.2073C101.511 53.5745 99 26.1406 99 7.8689C99 5.57838 101.964 5.70068 101.964 7.9912C101.964 23.9899 103.638 50.06 121.457 49.6578C137.167 49.2906 143.758 29.725 142.973 13.5864C142.869 11.3134 145.833 11.4533 145.937 13.7088C146.809 31.9456 138.614 52.8926 121.3 53.2073H121.318Z" fill="#ac8856"/>
<path id="Vector_10" d="M118.062 36.8627C109.25 34.7877 104.614 22.7008 108.241 13.3288C109.038 11.2711 111.904 12.3086 111.108 14.3836C107.87 22.7873 112.346 33.0585 120.468 33.4216C129.28 33.8193 135.508 24.4646 137.1 15.179C137.472 12.9657 140.338 14.0204 139.967 16.2338C138.02 27.5771 128.89 39.4045 118.079 36.8627H118.062Z" fill="#ac8856"/>
<path id="Vector_11" d="M121.943 28.1873C115.556 27.9262 111.489 19.3439 113.531 12.398C114.172 10.2394 116.976 11.2839 116.335 13.4599C114.933 18.2298 117.599 24.4619 122.099 24.6534C126.599 24.8449 129.852 19.0131 128.883 14.0866C128.451 11.8757 131.324 11.0576 131.756 13.2684C133.158 20.4232 128.329 28.4659 121.943 28.2047V28.1873Z" fill="#ac8856"/>
</g>
</svg>