<svg xmlns="http://www.w3.org/2000/svg" width="208" height="203" viewBox="0 0 208 203" fill="none">
<g id="Group">
<path id="Vector" d="M36.4197 60.8827C44.8071 53.2086 53.7536 46.2239 64.0317 42.179C83.3414 34.5763 106.339 34.7403 123.681 40.7685C143.608 47.7003 154.786 66.598 163.463 85.032C171.218 101.493 175.386 120.262 169.021 140.344C161.747 163.282 144.461 182.877 128.037 200.746C126.984 201.899 125.462 200.544 126.525 199.398C140.184 184.544 154.061 168.898 162.673 150.752C172.224 130.635 171.452 110.955 164.406 93.1039C157.316 75.156 146.717 54.9151 129.633 45.9422C113.541 37.4891 90.9421 36.6511 71.4998 41.974C58.8293 45.443 48.0776 52.9954 37.9507 62.2459C27.7073 71.6011 17.8414 81.435 8.12691 91.347C7.03486 92.4534 5.51458 91.1144 6.61418 89.9989C16.3454 80.0852 26.2115 70.2512 36.4381 60.8978L36.4197 60.8827Z" fill="#ac8856"/>
<path id="Vector_2" d="M64.1124 52.9317C80.9283 42.1861 98.0525 40.9378 114.312 46.5258C146.769 57.6824 170.696 90.7864 160.291 129.809C154.174 152.756 136.961 174.196 121.777 192.938C119.334 195.955 115.565 192.573 117.991 189.558C130.746 173.798 144.377 156.631 151.97 138.061C158.534 121.986 158.647 105.104 153.332 90.675C142.353 60.872 102.688 35.5859 68.3635 56.3258C49.0442 68.0032 33.094 86.7594 17.9612 103.599C15.3691 106.479 11.5851 103.116 14.1755 100.219C29.2783 83.4162 45.1264 65.0661 64.1107 52.915L64.1124 52.9317Z" fill="#ac8856"/>
<path id="Vector_3" d="M108.57 55.6814C123.539 59.6927 135.884 72.3702 144.538 84.4213C153.646 97.1063 153.584 112.227 147.808 128.772C140.455 149.824 127.896 169.531 112.003 186.027C109.848 188.26 106.803 185.564 108.966 183.321C125.075 166.618 137.999 146.333 144.705 124.827C148.014 114.23 149.091 103.604 144.895 94.3927C141.049 85.9612 134.34 79.3056 127.825 73.1481C120.86 66.5596 112.867 60.6974 102.74 59.2095C93.9129 57.9265 84.4386 59.79 75.4944 63.4577C54.3561 72.0981 37.8423 90.1625 22.265 107.179C20.1664 109.474 17.1123 106.77 19.2277 104.473C42.5362 79.0088 74.854 46.6681 108.589 55.6966L108.57 55.6814Z" fill="#ac8856"/>
<path id="Vector_4" d="M77.5914 70.2952C95.3956 64.9091 111.198 71.3285 123.908 80.654C129.963 85.093 135.64 90.5364 138.49 97.8507C141.647 105.973 140.077 115.243 137.475 124.346C131.856 144.052 120.807 162.706 106.14 178.115C103.987 180.383 100.948 177.69 103.117 175.42C116.238 161.634 126.395 145.232 132.062 127.682C134.89 118.904 137.442 109.28 134.725 101.147C132.282 93.8425 126.53 88.5847 120.675 84.2781C108.22 75.147 92.5119 69.0826 75.1232 75.6133C57.3341 82.2946 43.537 97.412 30.5866 111.647C28.4889 113.961 25.4499 111.268 27.5644 108.953C41.8617 93.2252 57.5566 76.3562 77.5914 70.2952Z" fill="#ac8856"/>
<path id="Vector_5" d="M75.5711 84.408C89.0793 81.934 102.927 87.9029 113.026 94.4654C123.758 101.439 130.327 112.381 126.444 127.137C122.064 143.756 109.278 160.174 97.3684 172.952C96.309 174.094 94.7975 172.747 95.8568 171.605C106.752 159.914 117.496 145.949 122.947 131.176C128.938 114.956 122.466 102.958 110.291 95.5679C100.742 89.7791 87.9943 84.2517 75.5079 86.6429C60.1883 89.5806 45.7018 104.45 35.5234 116.638C34.5285 117.832 33.0169 116.485 34.0119 115.291C44.5741 102.636 59.6501 87.3283 75.5802 84.4155L75.5711 84.408Z" fill="#ac8856"/>
<path id="Vector_6" d="M72.8824 91.1264C85.7658 88.4623 96.8855 94.3879 105.388 101.91C113.482 109.066 124.087 117.289 120.053 130.769C115.887 144.691 104.419 158.414 93.9285 168.616C92.8243 169.681 91.3044 168.343 92.4162 167.269C101.95 158.008 110.901 146.942 116.273 134.91C119.247 128.26 120.015 121.786 116.157 116.485C112.722 111.758 108.134 107.553 103.794 103.703C95.8747 96.6905 85.6131 90.995 73.6102 93.2049C60.6234 95.6009 50.5801 108.43 41.2348 117.799C40.1415 118.888 38.6291 117.541 39.7224 116.452C49.3126 106.841 59.5775 93.8727 72.8916 91.134L72.8824 91.1264Z" fill="#ac8856"/>
<path id="Vector_7" d="M73.8044 101.398C84.2968 97.5625 93.0876 100.253 100.098 106.887C106.902 113.321 112.568 120.898 109.507 131.911C106.145 143.99 95.9128 153.091 88.6981 163.247C87.8084 164.502 86.296 163.14 87.1782 161.894C93.0987 153.562 101.002 146.168 105.384 136.94C111.215 124.642 106.416 116.158 98.5052 108.679C91.3168 101.884 82.5156 99.7346 71.9719 104.444C61.9926 108.899 54.2972 117.623 47.0117 125.829C45.9851 126.986 44.4652 125.633 45.4918 124.475C53.6151 115.324 62.394 105.58 73.8136 101.406L73.8044 101.398Z" fill="#ac8856"/>
<path id="Vector_8" d="M95.8455 113.559C109.515 126.72 92.9416 148.801 81.4976 161.056C80.4363 162.199 78.9051 160.836 79.9756 159.7C90.4713 148.45 106.95 127.675 94.2248 115.365C81.8197 103.364 62.5234 120.661 52.0518 131.239C50.961 132.343 49.4316 130.996 50.5299 129.884C61.9682 118.315 82.5164 100.739 95.8379 113.568L95.8455 113.559Z" fill="#ac8856"/>
<path id="Vector_9" d="M86.5392 121.728C97.1258 130.086 86.604 145.613 78.7158 155.232C77.7269 156.438 76.2192 155.094 77.208 153.888C84.1149 145.466 94.4886 131.018 84.9334 123.537C76.5041 116.948 64.5874 124.403 58.0332 133.238C57.107 134.48 55.6069 133.127 56.5255 131.894C63.9397 121.917 77.2972 114.427 86.5484 121.736L86.5392 121.728Z" fill="#ac8856"/>
<path id="Vector_10" d="M81.9268 132.467C85.5746 137.283 82.753 145.598 76.8421 148.993C75.5444 149.738 74.514 147.981 75.8192 147.226C81.1119 144.176 83.2328 136.883 79.2026 133.259C74.8316 129.325 67.5874 131.611 62.7627 135.821C61.6168 136.827 60.5939 135.061 61.7398 134.054C67.6341 128.913 77.4405 126.553 81.9178 132.46L81.9268 132.467Z" fill="#ac8856"/>
<path id="Vector_11" d="M75.867 133.959C79.1291 136.873 77.4397 143.322 73.2502 146.227C71.9453 147.127 70.9293 145.341 72.2421 144.431C75.1187 142.436 76.498 137.878 74.2029 135.821C71.9077 133.764 67.5759 135.535 65.8836 138.645C65.123 140.039 63.2368 139.239 63.9974 137.845C66.4581 133.331 72.6127 131.037 75.8748 133.95L75.867 133.959Z" fill="#ac8856"/>
</g>
</svg>