<svg xmlns="http://www.w3.org/2000/svg" width="179" height="225" viewBox="0 0 179 225" fill="none">
<path d="M21.3983 30.999C21.7769 33.3265 21.9122 35.6947 22.2772 38.0222C22.6288 40.2686 23.2508 42.4608 23.9268 44.626C25.333 49.0916 26.6852 53.5843 28.0643 58.0635C29.43 62.4615 30.8768 66.873 31.9855 71.3387C33.0672 75.642 33.7703 80.0264 34.5681 84.3974C35.3658 88.8089 36.2717 93.2339 37.7185 97.4966C38.3946 99.4994 38.8408 101.57 39.8008 103.478C40.7608 105.386 42.0183 107.118 43.1135 108.958C44.2357 110.853 45.1146 112.856 46.1287 114.804C47.1158 116.699 47.9676 118.742 49.2251 120.474C50.4961 122.234 52.0781 123.749 53.4032 125.468C54.7148 127.173 55.9181 128.946 57.108 130.732C59.5013 134.304 61.854 137.958 64.9233 141.003C67.9791 144.048 70.778 147.404 74.0367 150.232C77.2953 153.06 80.7567 155.645 83.9478 158.554C85.5703 160.043 86.8819 161.613 88.1935 163.372C89.4374 165.023 90.8842 166.457 92.0064 168.203C96.3603 174.942 100.268 182.168 105.582 188.244C108.3 191.356 111.599 193.698 114.898 196.147C116.764 197.541 118.657 198.907 120.604 200.207C122.389 201.397 123.944 202.859 125.688 204.09C127.405 205.308 129.352 206.134 131.137 207.23C133.084 208.434 134.937 209.787 136.829 211.087C138.601 212.304 140.372 213.509 142.319 214.429C144.144 215.282 146.037 215.958 147.93 216.635C149.891 217.338 151.784 218.232 153.758 218.895C155.665 219.531 157.625 219.842 159.586 220.289C161.844 220.803 164.075 221.452 166.333 221.98C168.334 222.454 170.376 222.792 172.363 223.306C174.054 223.739 175.811 224.362 177.569 224.172C178.57 224.064 178.57 222.494 177.569 222.603C175.744 222.792 173.972 222.061 172.228 221.655C170.173 221.168 168.091 220.803 166.035 220.302C163.845 219.774 161.668 219.138 159.464 218.665C157.476 218.245 155.475 217.893 153.569 217.176C151.716 216.486 149.905 215.688 148.025 215.024C146.051 214.321 144.077 213.617 142.211 212.656C138.357 210.667 135.072 207.717 131.326 205.552C129.42 204.442 127.405 203.536 125.661 202.155C124.052 200.883 122.47 199.625 120.766 198.461C118.887 197.189 117.061 195.836 115.236 194.482C113.478 193.17 111.653 191.911 109.99 190.477C107.042 187.919 104.649 184.793 102.458 181.586C100.241 178.338 97.9964 175.064 95.9547 171.694C94.8189 169.827 93.7371 167.905 92.4661 166.119C91.3304 164.522 89.9377 163.155 88.7884 161.572C86.314 158.175 82.9472 155.577 79.7156 152.938C76.3353 150.191 73.1172 147.377 70.1696 144.169C68.7498 142.627 67.2625 141.138 65.7887 139.65C64.2337 138.08 62.8816 136.361 61.6106 134.562C59.1497 131.097 56.9728 127.444 54.3226 124.115C52.984 122.423 51.3885 120.935 50.1987 119.135C49.0629 117.389 48.1975 115.4 47.251 113.546C46.264 111.597 45.358 109.594 44.2087 107.727C43.127 105.968 41.9101 104.263 41.0177 102.395C40.0983 100.46 39.6115 98.2815 38.9625 96.2381C38.2729 94.0729 37.705 91.8672 37.2182 89.6479C36.2717 85.3717 35.6092 81.0413 34.7844 76.7381C33.9461 72.3536 32.7697 68.0774 31.4852 63.8147C30.1331 59.3491 28.7269 54.897 27.3747 50.4449C26.0632 46.101 24.4001 41.7707 23.751 37.2644C23.4401 35.0451 23.2913 32.8123 22.9262 30.6065C22.764 29.6051 21.2496 30.0382 21.4118 31.026L21.3983 30.999Z" fill="#6c9549"/>
<path d="M163.375 134.233C163.052 137.341 161.61 139.328 159.212 141.449C152.866 147.139 147.086 151.139 144.041 159.45C142.559 163.504 141.171 167.126 137.857 170.058C135.149 172.437 131.901 174.099 129.005 176.22C126.782 177.842 124.72 179.653 122.497 181.275C121.419 182.058 120.49 182.856 119.317 183.504C118.213 184.112 117.04 184.694 116.219 185.707C114.912 187.329 113.901 189.234 113.201 191.194C113.012 191.707 112.877 193.018 112.298 193.248C111.651 193.504 110.991 192.761 110.964 192.167C110.856 190.504 111.692 188.883 111.476 187.139C111.395 186.531 111.301 185.923 111.233 185.315C111.085 184.126 110.897 182.937 111.018 181.748C111.166 180.207 111.718 178.774 112.46 177.437C113.174 176.126 114.13 175.599 115.046 174.477C116.879 172.193 119.088 170.247 121.406 168.463C125.933 164.963 130.945 162.18 135.66 158.936C136.213 158.558 136.765 158.166 137.291 157.761C141.441 154.612 145.105 151.288 148.015 146.95C150.266 143.571 152.192 139.99 154.334 136.558C157.096 132.111 160.263 127.774 164.749 125.219C165.679 124.03 166.945 123.355 168.724 123.611C169.546 123.719 164.17 127.084 163.415 134.233H163.375Z" fill="#6c9549"/>
<path d="M100.242 181.049C99.4369 177.208 98.8195 173.339 98.3632 169.457C97.9472 165.927 99.0074 162.412 101.074 159.52C101.249 159.276 101.396 159.059 101.49 158.896C103.101 156.439 103.074 153.385 103.906 150.643C104.577 148.43 105.57 147.711 106.711 146.068C107.852 144.426 107.127 141.86 107.462 139.96C108.241 135.671 112.508 133.892 114.468 130.159C116.79 125.734 119.205 121.146 120.896 116.422C121.621 119.694 122.856 122.857 122.842 126.291C122.842 131.286 119.34 132.114 116.937 135.671C114.696 138.996 114.575 141.955 115.085 145.919C115.313 147.697 115.474 149.204 114.884 150.969C113.931 153.806 111.327 155.543 110.106 158.204C108.872 160.891 107.865 163.783 107.704 166.674C107.503 170.366 104.389 172.267 103.839 175.66C103.651 176.76 103.691 177.235 103.275 178.144C103.007 178.714 102.618 179.176 102.322 179.719C102.027 180.262 101.061 182.189 100.256 181.063L100.242 181.049Z" fill="#6c9549"/>
<path d="M113.211 194.182C110.116 191.721 106.912 189.413 103.626 187.257C100.639 185.294 97.0009 184.7 93.4982 185.322C93.1995 185.377 92.9551 185.405 92.7515 185.432C89.8325 185.819 87.0901 184.423 84.2662 183.967C81.9853 183.594 80.8856 184.188 78.917 184.506C76.9348 184.824 74.9526 183 73.0927 182.474C68.8975 181.272 65.4083 184.423 61.1725 184.575C56.1627 184.755 50.963 184.921 45.9668 184.368C48.5871 186.51 50.8815 189.054 53.9633 190.588C58.4572 192.813 60.7516 189.952 65.0147 189.33C69.0062 188.736 71.7214 189.952 75.0477 192.205C76.5411 193.214 77.8309 194.03 79.6773 194.278C82.6505 194.665 85.3794 193.034 88.2984 193.09C91.2581 193.145 94.3128 193.504 96.9738 194.652C100.381 196.117 103.463 194.099 106.762 195.094C107.835 195.412 108.242 195.661 109.247 195.674C109.885 195.674 110.455 195.522 111.08 195.495C111.691 195.467 113.863 195.439 113.211 194.182Z" fill="#6c9549"/>
<path d="M96.6751 174.866C94.836 173.483 92.0023 172.637 89.9044 171.562C84.7412 168.943 79.8096 165.975 74.5782 163.49C72.5211 162.509 72.0716 162.738 70.3142 162.818C68.0391 162.926 65.4507 160.642 63.3799 159.702C60.8597 158.574 58.0397 157.338 55.2197 157.432C51.6231 157.566 50.2063 158.319 46.9095 155.955C41.8961 152.368 38.5993 146.552 33.2863 143.369C36.2152 147.412 38.7628 151.75 41.8553 155.686C43.5037 157.795 45.4109 161.408 48.013 162.523C50.9692 163.799 54.8927 164.86 58.1078 165.021C60.2602 165.128 62.3718 164.806 64.4153 165.693C66.6768 166.673 67.9029 168.876 69.6466 170.501C72.4258 173.093 75.7498 171.858 79.1829 172.932C81.4988 173.658 83.3788 174.329 85.8446 174.195C87.493 174.101 88.6919 174.262 90.2994 174.692C91.907 175.122 92.5609 174.719 93.9777 174.759C94.7678 174.786 95.8441 175.39 96.6887 174.84L96.6751 174.866Z" fill="#6c9549"/>
<path d="M87.3303 162.377C85.7238 161.02 85.1929 157.788 84.73 155.833C84.2536 153.837 83.7635 151.488 84.1447 149.424C84.5395 147.32 85.7238 147.293 86.7176 145.881C87.3711 144.957 87.3711 142.934 87.5481 141.835C87.9429 139.54 88.3241 137.232 88.787 134.951C89.6719 130.687 90.6793 126.383 91.7956 122.174C92.5307 119.391 93.402 115.63 95.131 113.254C94.6817 113.865 95.0901 114.585 95.2127 115.331C95.6347 117.857 95.7027 120.355 95.7572 122.921C95.8253 125.881 96.5332 132.235 93.9466 134.326C93.2795 134.869 92.8847 134.435 92.4218 135.657C91.9181 136.974 92.1632 138.861 92.2993 140.232C92.5852 143.002 93.8377 146.044 92.7758 148.8C91.8909 151.081 89.7807 151.339 88.4602 152.995C87.4119 154.312 88.5827 156.064 88.1335 157.693C87.8748 158.644 86.7993 159.336 86.6496 160.246C86.5134 161.101 87.657 162.038 87.3439 162.391L87.3303 162.377Z" fill="#6c9549"/>
<path d="M8.7179 130.497C8.94935 130.215 10.3109 129.624 10.9916 129.355C14.0959 128.186 17.4452 127.474 20.74 127.044C23.7217 126.641 26.7715 126.654 29.7804 126.896C31.455 127.031 33.5654 126.95 35.1584 127.555C36.1931 127.958 36.9011 128.858 37.7997 129.503C40.0462 131.115 42.4832 132.808 44.9612 134.003C48.9231 135.925 53.7157 134.178 57.487 137.013C58.9711 138.128 60.1284 139.592 61.6669 140.694C62.8105 141.527 64.1176 142.118 65.234 142.938C67.6711 144.725 71.5923 146.847 72.9129 149.709C70.1491 147.009 66.0781 145.679 62.3204 145.893C59.5974 146.055 58.3856 142.965 56.4659 141.178C53.8518 138.746 51.0607 138.679 47.7523 139.324C44.4438 139.955 42.211 141.205 39.4199 139.109C36.7241 137.08 35.8527 135.414 32.272 135.911C30.0663 136.22 27.8062 136.959 25.6414 136.019C23.7762 135.213 22.4011 133.573 20.5358 132.7C17.9489 131.491 15.5391 131.518 12.7888 131.236C11.5771 131.115 10.4606 130.672 8.7179 130.483V130.497Z" fill="#6c9549"/>
<path d="M74.0852 149.695C70.3687 144.538 66.9642 138.417 69.6499 132.174C70.423 130.382 71.5352 128.713 71.3453 126.663C71.1148 124.193 69.2701 122.374 68.5105 120.122C66.8693 115.276 71.3996 111.34 72.973 107.092C74.7227 102.369 72.2405 98.1077 71.5216 93.4389C73.1357 95.7733 75.6722 99.0034 75.835 102.03C75.9706 104.459 74.031 106.685 74.1123 109.155C74.1666 110.77 75.089 112.29 75.2924 113.906C75.5637 116.009 75.0347 117.068 74.4514 119.009C73.1357 123.392 77.3406 125.116 77.6525 129.106C77.9103 132.391 74.8855 135.96 74.3836 139.272C74.1259 141.009 74.4922 142.855 74.6142 144.687C74.7634 146.804 73.3121 148.514 74.0717 149.709L74.0852 149.695Z" fill="#6c9549"/>
<path d="M39.6154 102.948C37.5167 97.4465 35.8272 91.2552 39.0346 87.1051C39.9586 85.9155 41.1201 84.9557 41.3181 83.2119C41.5557 81.1301 40.381 78.9942 40.1566 76.8854C39.6682 72.3703 43.9448 70.7482 45.9247 67.8282C48.1157 64.5974 46.8618 60.2446 47.073 56.1891C47.9573 58.6629 49.4488 62.1776 49.0793 64.7055C48.7757 66.7333 46.8486 67.8688 46.4922 69.91C46.2546 71.2483 46.743 72.8029 46.6374 74.1953C46.4922 75.9932 45.8983 76.6826 45.1063 78.0615C43.3112 81.1707 46.3866 84.05 45.9642 87.4025C45.6211 90.1738 42.5984 92.0122 41.6349 94.5401C41.1333 95.8649 41.1201 97.5006 40.9089 99.0417C40.6713 100.813 39.2194 101.705 39.6286 102.948H39.6154Z" fill="#6c9549"/>
<path d="M4.75513 111.295C11.2068 109.996 18.1475 109.805 24.7079 109.586C26.7181 109.518 29.5433 108.957 31.4177 109.586C34.433 110.584 36.8778 113.769 39.7438 115.3C41.1564 116.051 42.2837 115.915 43.6284 116.448C46.6709 117.651 48.9935 120.931 51.2075 123.186C52.3212 124.321 53.924 125.373 54.6846 126.727C50.5962 124.198 46.5622 121.642 42.569 118.949C41.4416 118.184 40.0426 116.872 38.7794 116.407C38.1546 116.174 37.4619 116.325 36.8235 116.284C35.1257 116.161 33.4551 115.655 31.7573 115.587C30.3175 115.532 29.0543 115.764 27.696 116.051C26.5144 116.298 25.2648 116.475 24.0695 116.188C22.9965 115.928 22.263 115.067 21.2851 114.726C19.8589 114.22 18.3241 114.329 16.7078 113.837C14.2493 113.099 11.8588 113.673 9.45468 113.14C8.08284 112.839 6.76532 112.088 5.40706 111.691C5.51572 111.773 5.62441 111.855 4.75513 111.308V111.295Z" fill="#6c9549"/>
<path d="M57.4402 130.689C56.1004 130.526 55.6984 128.127 55.216 126.982C54.1575 124.419 52.8042 122.074 52.2683 119.13C51.8261 116.703 52.1343 113.882 51.7056 111.442C50.848 106.575 48.9052 102.172 49.1598 96.6106C51.4242 100.332 54.7873 103.317 56.8105 107.27C58.0298 109.656 58.3915 113.227 58.6193 116.322C58.8337 119.307 57.735 122.851 58.1637 125.714C58.3513 126.995 58.4585 128.74 57.4536 130.689H57.4402Z" fill="#6c9549"/>
<path d="M39.9862 104.534C39.8781 103.141 37.3241 101.873 36.1619 101.281C34.8241 100.592 33.7295 99.5717 32.4322 98.8274C30.6349 97.7798 30.162 98.3587 28.3647 98.5517C26.0674 98.8136 24.5133 96.3464 22.9188 94.9956C21.9323 94.1549 20.5809 92.9282 19.2431 92.8041C18.2431 92.7214 18.0404 93.2038 17.2296 93.576C15.4053 94.4168 12.6486 92.1977 10.8513 91.3569C6.59455 89.3721 3.85133 88.173 0 85.5128C2.5135 88.4349 5.59457 90.4334 8.58103 92.7766C10.0945 93.9619 11.3648 94.6649 13.108 95.0232C15.3783 95.4918 17.2431 95.5056 18.9188 97.0356C20.9053 98.8412 22.9052 99.7508 25.4458 100.316C26.716 100.592 27.8917 100.55 29.1349 101.005C30.7701 101.598 30.9998 101.432 32.5403 101.239C35.0943 100.909 38.2295 102.962 40.4187 104.148C40.4322 104.313 40.1213 104.41 39.9727 104.534H39.9862Z" fill="#6c9549"/>
<path d="M33.7131 83.8303C33.9275 83.8303 34.142 84.1008 34.0616 83.7491C32.9758 82.0583 32.7211 80.3404 30.8712 79.1095C29.5575 78.2438 26.9436 77.4051 25.5093 77.0264C23.9409 76.6206 21.8364 77.2428 20.4423 76.1336C18.4182 74.5374 18.7667 70.777 16.7962 68.978C14.4235 66.8002 10.7775 68.7886 7.86864 68.3963C4.61128 67.9635 2.17157 65.6504 0 63.3238C1.72922 65.9345 3.60589 68.234 6.03215 70.1548C7.18496 71.0746 8.28418 71.8862 9.7453 72.1703C10.7238 72.3596 12.1581 71.7915 12.9892 72.0215C14.638 72.4949 14.6246 73.9558 15.4825 75.4708C16.5549 77.3645 18.2305 78.8389 20.4155 79.1771C21.9168 79.407 22.5468 79.1094 23.8739 79.921C25.3618 80.8273 26.0187 81.5984 27.8149 81.8418C29.5307 82.0583 33.1232 81.9365 33.7264 83.8167L33.7131 83.8303Z" fill="#6c9549"/>
<path d="M24.2411 41.1324C21.6496 38.0513 17.1248 34.0243 16.6723 29.9297C16.5215 28.5648 17.0014 26.8486 17.0837 25.4837C17.2071 23.281 16.9877 21.1053 17.6458 18.9702C19.3735 13.2945 23.4595 6.51064 20.1825 0.713318C21.773 3.11873 23.2676 5.6728 24.1588 8.42957C24.9678 10.9431 24.5153 11.808 23.3498 14.0377C21.0189 18.4702 22.6643 21.5918 23.8298 26.0377C24.3371 27.9567 24.9541 29.4837 24.2548 31.2675C23.6241 32.8621 22.9659 34.0513 22.8288 35.8756C22.6917 37.781 23.7201 39.4432 24.2411 41.1189V41.1324Z" fill="#6c9549"/>
<path d="M32.7818 73.3681C32.994 70.6992 31.0045 67.5538 30.9117 64.6806C30.8056 61.2628 33.5377 59.765 35.2884 57.1234C38.8561 51.7175 39.6917 44.95 40.3151 38.7544C42.9013 43.3296 42.1056 50.5465 40.6599 55.3804C39.6652 58.6757 36.6678 59.8467 35.8985 63.2645C35.6598 64.313 35.8189 65.0074 35.2089 65.9334C34.5988 66.8593 33.0072 67.5538 32.7287 68.6976C32.4502 69.8686 33.5112 71.2303 33.3388 72.5239C33.2459 73.2047 32.7154 74.0762 32.795 73.3545L32.7818 73.3681Z" fill="#6c9549"/>
<path d="M27.8106 53.021C26.6926 51.3383 26.8073 44.9981 27.3233 43.2616C28.3122 39.9097 27.4236 36.3155 28.2692 32.9906C28.8712 30.6484 29.9462 28.9926 29.9605 26.4485C29.9605 24.5773 29.3872 23.0293 28.9286 21.3197C31.1932 24.7389 33.4578 28.7503 32.0675 32.7349C30.9495 35.9656 31.1215 38.8193 31.3508 42.1847C31.5085 44.5404 30.0752 47.3269 29.4016 49.6422C29.0002 51.0018 28.5989 52.2402 27.8106 53.0075V53.021Z" fill="#6c9549"/>
<path d="M29.3102 61.737C26.7681 57.976 22.8945 56.2603 18.7652 55.121C13.7617 53.7347 11.4483 47.5717 8.7179 43.5087C9.33661 46.1991 11.0717 49.1227 12.2419 51.662C12.7261 52.7327 13.2641 54.0504 14.0173 54.9837C14.905 56.0681 16.25 56.6171 17.4336 57.3172C18.5635 57.9897 19.6798 58.978 20.8769 59.4996C21.7915 59.8977 28.3149 61.3252 29.3237 61.737H29.3102Z" fill="#6c9549"/>
</svg>