<svg xmlns="http://www.w3.org/2000/svg" width="215" height="174" viewBox="0 0 215 174" fill="none">
<path d="M1.07242 163.65C23.5479 161.977 38.7451 152.088 49.4242 143.79C49.2763 143.643 49.1285 143.495 48.9642 143.364C48.5863 143.019 47.4691 142.167 47.4198 141.593C47.3705 141.084 47.8305 140.805 47.962 140.379C48.7999 137.854 48.7835 134.902 47.3541 132.606C46.6969 131.54 45.7112 130.671 44.939 129.67C43.9204 128.342 43.2139 126.85 42.1131 125.554C40.2237 123.307 38.5479 120.618 37.1679 118.01C36.4778 116.698 36.215 115.255 35.5578 113.927C34.9663 112.746 34.3256 111.532 34.227 110.171C34.0298 107.531 34.8677 104.546 36.0835 102.25C36.8886 100.725 37.7757 99.3313 38.8437 97.9866C39.7966 96.8222 40.9795 95.7562 41.4724 94.3458C42.2774 92.0335 43.2139 89.9016 43.3289 87.4089C43.6575 88.8193 43.4932 89.9673 43.526 91.3448C43.5589 92.6568 43.9368 93.7227 43.7889 95.0674C43.526 97.3961 43.5918 99.0362 44.1011 101.283C44.4625 102.89 44.6761 104.35 45.744 105.596C46.9927 107.039 48.5206 108.269 49.5721 109.893C51.2479 112.516 50.9686 116.354 51.5765 119.339C51.8558 120.667 52.7265 121.536 52.7101 122.914C52.6937 124.685 52.7265 126.44 52.743 128.227C52.743 130.343 53.3508 132.507 53.3015 134.623C53.2523 136.968 52.8251 139.198 52.3815 141.412C54.9938 139.313 57.3103 137.378 59.364 135.82C60.1691 133.721 60.6784 131.507 60.9412 129.277C61.6806 123.029 60.6291 116.813 59.4626 110.68C58.1811 103.89 57.0475 97.1502 56.8503 90.2297C56.6203 82.0464 57.3761 73.8794 58.4933 65.7945C59.4626 58.8247 62.4527 51.1498 61.352 44.1472C63.5042 47.5091 66.2972 51.8222 66.9708 55.8072C67.7266 60.3007 66.0837 65.2041 66.2479 69.7631C66.4944 76.4869 69.386 82.8006 71.4232 89.1144C73.3455 95.0674 74.3476 101.234 74.1834 107.482C74.0026 114.419 72.4911 121.257 69.7803 127.588C69.961 127.588 70.1253 127.555 70.306 127.555C74.4791 124.406 78.6522 121.241 82.8252 118.092C86.0454 115.649 88.6905 113.894 92.0586 111.893C94.4901 110.45 98.9754 107.957 98.3511 104.481C97.7596 101.217 88.9863 97.2814 86.6533 94.8051C78.0607 85.6706 79.6215 71.7146 84.3696 61.137C90.9085 46.5579 102.146 34.2256 109.671 20.2041C110.887 28.7646 104.446 39.7686 102.393 48.0667C99.4847 59.7595 98.0225 72.223 101.374 83.9814C103.263 90.6068 106.221 99.397 111.856 90.2297C115.536 84.2603 116.423 76.8313 119.069 70.4191C122.404 62.3342 125.016 53.9705 126.708 45.3936C128.105 38.2762 129.008 30.7653 133.149 24.7959C137.141 19.0233 143.466 15.6778 149.167 11.8732C154.326 8.44569 158.203 2.65671 163.51 0C160.109 8.4457 156.593 17.1046 150.399 23.7955C149.217 25.0747 147.919 26.3047 146.999 27.7806C146.013 29.355 145.487 31.1589 144.879 32.93C141.61 42.4417 137.946 51.7729 134.496 61.2354C130.832 71.2555 125.821 80.7836 119.627 89.4753C125.361 85.5394 130.208 80.3572 133.773 74.4042C135.958 70.7307 137.667 66.7621 140.213 63.3346C146.046 55.4629 155.509 51.3466 163.789 46.0988C171.363 41.2937 177.508 35.7179 186.347 32.848C196.172 29.6666 205.619 29.4041 215 33.8976C205.685 37.9646 197.897 39.1946 189.666 46.1644C178.28 55.8072 169.277 67.91 157.711 77.3561C151.139 82.7351 143.877 86.835 135.827 89.5901C131.473 91.0824 127.02 92.1975 122.535 93.1323C120.974 94.3131 119.414 95.4939 117.853 96.6746L116.276 97.8553C115.996 98.1341 115.717 98.3965 115.438 98.6753C118.658 97.7242 122.026 97.1829 125.46 96.9042C132.261 96.3466 139.08 96.7074 145.898 96.609C149.217 96.5598 152.552 96.4122 155.854 95.9202C159.501 95.379 163.099 94.4935 166.632 93.4603C179.48 89.7048 193.724 81.21 205.734 91.8532C190.241 94.8215 175.159 102.365 160.504 108.105L148.724 112.713C145.06 114.14 141.413 115.714 137.568 116.616C133.806 117.502 129.83 117.649 126.133 116.387C122.699 115.222 119.693 113.14 116.506 111.5C111.987 109.171 106.878 108.285 101.883 108.81L85.6182 121.11L84.1067 122.422C86.1275 121.979 88.2305 121.815 90.3171 121.897C97.0531 122.159 103.28 124.996 109.49 127.325C115.586 129.605 121.894 130.966 128.318 131.868C136.155 132.983 144.074 133.655 151.78 135.574C158.351 137.214 164.414 140.937 169.638 145.119C165.547 146.726 162.36 145.545 158.253 145.447C153.176 145.315 147.853 146.414 142.776 146.726C129.698 147.496 116.391 147.201 103.658 143.872C97.2667 142.199 91.3193 139.608 85.4868 136.542C82.3159 134.885 78.8986 133.032 75.3334 132.163C74.9227 132.212 74.5119 132.13 74.1012 131.901C73.8712 131.851 73.6248 131.819 73.3947 131.786C73.0169 132.114 72.6554 132.425 72.2775 132.753C68.0223 136.476 63.7835 140.215 59.5283 143.921C58.5754 145.135 57.4911 146.266 56.2917 147.25C56.7682 147.332 57.261 147.398 57.7539 147.447C59.4297 147.595 60.3662 147.939 61.9763 148.562C65.3115 149.858 68.2195 152.252 71.6039 153.335C74.6434 154.302 77.5843 155.417 80.558 156.516C82.0531 157.074 83.9753 157.926 85.5032 158.271C87.3269 158.681 88.2634 157.91 89.6599 159.55C91.0728 161.206 92.2064 163.109 94.0137 164.437C95.3445 165.405 97.0696 165.815 98.5811 166.487C99.8954 167.061 101.21 167.602 102.508 168.225C103.953 168.931 105.547 168.848 107.042 169.504C108.077 169.964 108.734 170.472 109.885 170.521C110.837 170.57 111.807 170.521 112.76 170.521C114.32 170.521 115.865 170.521 117.426 170.521C118.756 170.521 121.089 170.029 122.059 171.062C121.894 172.473 119.101 172.719 118.034 172.981C115.536 173.604 113.006 173.391 110.46 173.408C108.767 173.408 107.141 173.293 105.547 173.703C104.364 173.998 103.411 173.998 102.146 173.998C99.3697 173.998 96.6095 173.949 93.833 173.998C91.7793 174.031 89.9556 173.686 88.0334 172.866C86.8997 172.391 85.8811 171.735 84.6982 171.44C83.466 171.128 82.1845 171.308 80.9687 171.03C79.0793 170.587 77.305 169.422 75.4484 168.799C74.2162 168.389 73.099 167.979 71.9818 167.34C69.4024 165.847 66.1987 163.617 64.2107 161.485C62.0584 159.173 59.8898 156.713 57.8854 154.253C56.456 152.498 53.8109 151.76 52.9401 149.628C50.4428 151.563 40.273 158.763 34.8677 162.469C28.3945 166.93 10.3057 170.751 9.51713 170.751C3.76683 170.784 -2.52563 165.29 1.03955 163.732L1.07242 163.65Z" fill="#6c9549"/>
</svg>