<svg xmlns="http://www.w3.org/2000/svg" version="1.1" xmlns:xlink="http://www.w3.org/1999/xlink" width="512" height="512" x="0" y="0" viewBox="0 0 485 485" style="enable-background:new 0 0 512 512" xml:space="preserve"><g><path d="M411.494 57.953C366.257 20.581 306.24 0 242.5 0S118.743 20.581 73.506 57.953C27.717 95.78 2.5 146.227 2.5 200c0 50.591 21.962 98.125 61.84 133.849 37.054 33.192 87.599 54.423 143.16 60.292V475a10 10 0 0 0 16.074 7.944l149.951-114.663c35.514-26.813 60.008-50.324 77.084-73.992C472.068 264.546 482.5 233.704 482.5 200c0-53.773-25.217-104.22-71.006-142.047zm-50.067 294.404L227.501 454.766v-69.765a10 10 0 0 0-9.261-9.973c-54.809-4.065-104.725-23.98-140.555-56.076C42.099 287.073 22.5 244.829 22.5 200c0-99.252 98.691-180 220-180s220 80.748 220 180c0 66.832-48.555 112.704-101.073 152.357z" fill="#767676" opacity="1" data-original="#000000"></path><path d="M299.708 156.655c-.039-7.48-3.955-11.646-10.225-11.574-6.211.084-9.951 4.352-9.99 11.813-.108 13.805-.03 27.598-.059 41.391 0 1.992-.186 3.961-.352 7.721-2.363-2.76-3.701-4.18-4.893-5.718-12.793-16.608-25.547-33.248-38.33-49.879-3.125-4.067-7.08-6.52-12.266-4.893-5.166 1.615-7.431 5.834-7.441 10.928-.098 26.656-.098 53.296 0 79.941.01 4.371 1.777 8.121 6.035 10.133 7.52 3.539 14.639-1.797 14.727-11.344.176-13.027.059-26.074.059-39.121v-7.559c2.51 1.142 3.731 2.476 4.844 3.902a26319.483 26319.483 0 0 1 38.203 49.297c3.155 4.129 6.768 7.149 12.432 5.223 5.547-1.882 7.305-6.043 7.305-11.439-.029-26.283.049-52.549-.049-78.822zM338.829 165.955c1.924-.148 4.121-.449 6.357-.455 7.54-.065 15.118.084 22.647-.098 2.754-.078 5.771-.273 8.203-1.416 4.765-2.223 6.181-6.67 4.902-11.475-1.25-4.903-4.902-7.451-10.068-7.467-13.409-.033-26.817-.062-40.225-.033-9.61.025-13.457 3.744-13.477 13.314-.098 25.324-.098 50.65 0 75.963.02 9.42 4.131 13.424 13.516 13.463 12.5.058 24.951.039 37.412-.012 2.05-.02 4.14-.301 6.113-.879 4.463-1.308 6.885-4.355 7.031-9.105.166-4.981-2.099-8.414-6.777-9.844-2.51-.766-5.215-.957-7.803-.977-9.356-.121-18.741-.055-28.262-.055v-19.643c1.787-.166 3.233-.404 4.689-.418 8.877-.049 17.783.199 26.65-.117 7.724-.289 11.777-4.521 11.484-11.07-.254-5.886-4.571-9.519-11.641-9.652-4.921-.088-9.824-.016-14.775-.02-18.34 0-18.34 0-16.621-18.389.03-.365.274-.703.645-1.615zM156.328 226.988c-2.061-.24-4.141-.109-6.211-.109-8.662-.014-17.285 0-26.758 0v-7.689c0-20.205.039-40.424-.029-60.631-.029-8.622-3.848-13.426-10.381-13.477-6.768-.063-10.43 4.531-10.43 13.273-.019 25.688-.039 51.362.02 77.059.04 8.164 4.004 12.16 12.188 12.324 7.344.129 34.922.246 41.338-.086 6.259-.352 10.615-4.981 10.527-10.465-.098-5.263-4.268-9.488-10.264-10.199zM198.593 155.269c-.059-7.785-2.539-10.25-10.049-10.26-7.647-.02-10.234 2.334-10.254 10.068-.088 27.402-.088 54.795 0 82.207.02 7.692 2.813 10.453 10.049 10.465 7.441.04 10.215-2.832 10.254-10.855.04-13.414.02-26.82.02-40.244 0-13.795.02-27.578-.02-41.381z" fill="#767676" opacity="1" data-original="#000000"></path></g></svg>