<svg width="945" height="173" viewBox="0 0 945 173" fill="none" xmlns="http://www.w3.org/2000/svg">
<path d="M266.24 132V41.248H280.576V87.968L323.328 41.12H339.2L303.36 81.312L341.248 132H324.992L294.272 90.4L280.576 104.608V132H266.24ZM386.58 77.216C381.119 77.3013 376.255 78.5387 371.988 80.928C367.807 83.3173 364.82 86.688 363.028 91.04V132H348.948V65.056H362.004V80.032C364.308 75.424 367.337 71.7547 371.092 69.024C374.847 66.208 378.815 64.672 382.996 64.416C383.849 64.416 384.532 64.416 385.044 64.416C385.641 64.416 386.153 64.4587 386.58 64.544V77.216ZM396.183 106.016V65.056H410.263V103.2C410.263 109.173 411.33 113.696 413.463 116.768C415.682 119.755 418.882 121.248 423.063 121.248C425.708 121.248 428.268 120.693 430.743 119.584C433.303 118.475 435.607 116.853 437.655 114.72C439.788 112.501 441.495 109.856 442.775 106.784V65.056H456.855V116.128C456.855 117.749 457.154 118.901 457.751 119.584C458.348 120.267 459.33 120.651 460.695 120.736V132C459.244 132.256 458.05 132.427 457.111 132.512C456.172 132.597 455.276 132.64 454.423 132.64C451.863 132.64 449.73 131.957 448.023 130.592C446.316 129.141 445.335 127.307 445.079 125.088L444.823 118.432C441.836 123.296 437.954 127.008 433.175 129.568C428.396 132.043 423.148 133.28 417.431 133.28C410.434 133.28 405.143 130.976 401.559 126.368C397.975 121.76 396.183 114.976 396.183 106.016ZM545.36 132.64C539.387 132.64 533.797 131.403 528.592 128.928C523.387 126.453 518.821 123.04 514.896 118.688C511.056 114.336 508.027 109.387 505.808 103.84C503.675 98.2933 502.608 92.4053 502.608 86.176C502.608 79.9467 503.675 74.1013 505.808 68.64C508.027 63.1787 511.056 58.3147 514.896 54.048C518.821 49.7813 523.387 46.4533 528.592 44.064C533.883 41.6747 539.643 40.48 545.872 40.48C554.491 40.48 561.744 42.3147 567.632 45.984C573.605 49.568 578.085 54.3467 581.072 60.32L570.064 68.256C567.675 63.3067 564.261 59.5947 559.824 57.12C555.472 54.6453 550.693 53.408 545.488 53.408C541.221 53.408 537.339 54.304 533.84 56.096C530.341 57.888 527.312 60.3627 524.752 63.52C522.277 66.592 520.4 70.1333 519.12 74.144C517.84 78.0693 517.2 82.208 517.2 86.56C517.2 91.168 517.925 95.4773 519.376 99.488C520.827 103.499 522.875 107.04 525.52 110.112C528.165 113.099 531.28 115.445 534.864 117.152C538.448 118.859 542.331 119.712 546.512 119.712C551.461 119.712 556.155 118.475 560.592 116C565.115 113.44 569.339 109.643 573.264 104.608V119.2C565.328 128.16 556.027 132.64 545.36 132.64ZM571.856 96.672H552.784V86.048H583.888V132H571.856V96.672ZM628.528 133.28C623.237 133.28 618.501 132.384 614.32 130.592C610.139 128.715 606.512 126.155 603.44 122.912C600.453 119.669 598.149 116 596.528 111.904C594.907 107.723 594.096 103.285 594.096 98.592C594.096 93.8987 594.907 89.4613 596.528 85.28C598.149 81.0987 600.453 77.4293 603.44 74.272C606.512 71.0293 610.139 68.512 614.32 66.72C618.587 64.8427 623.323 63.904 628.528 63.904C633.733 63.904 638.427 64.8427 642.608 66.72C646.875 68.512 650.501 71.0293 653.488 74.272C656.56 77.4293 658.907 81.0987 660.528 85.28C662.149 89.4613 662.96 93.8987 662.96 98.592C662.96 103.285 662.149 107.723 660.528 111.904C658.907 116 656.56 119.669 653.488 122.912C650.501 126.155 646.875 128.715 642.608 130.592C638.427 132.384 633.733 133.28 628.528 133.28ZM608.56 98.72C608.56 102.987 609.456 106.827 611.248 110.24C613.04 113.653 615.429 116.341 618.416 118.304C621.403 120.267 624.773 121.248 628.528 121.248C632.197 121.248 635.525 120.267 638.512 118.304C641.584 116.256 644.016 113.525 645.808 110.112C647.6 106.613 648.496 102.773 648.496 98.592C648.496 94.3253 647.6 90.4853 645.808 87.072C644.016 83.6587 641.584 80.9707 638.512 79.008C635.525 76.96 632.197 75.936 628.528 75.936C624.773 75.936 621.403 76.96 618.416 79.008C615.429 81.056 613.04 83.7867 611.248 87.2C609.456 90.528 608.56 94.368 608.56 98.72ZM675.377 147.744C676.657 147.915 677.894 148.085 679.089 148.256C680.369 148.512 681.393 148.64 682.161 148.64C683.612 148.64 684.849 148.171 685.873 147.232C686.982 146.379 688.092 144.757 689.201 142.368C690.31 139.979 691.676 136.523 693.297 132L665.777 65.056H680.497L700.977 117.664L719.153 65.056H732.721L702.385 147.488C701.446 149.963 700.081 152.224 698.289 154.272C696.497 156.405 694.278 158.069 691.633 159.264C688.988 160.459 685.873 161.056 682.289 161.056C681.265 161.056 680.198 160.971 679.089 160.8C677.98 160.629 676.742 160.373 675.377 160.032V147.744ZM811.003 132.64C803.75 132.64 797.606 131.403 792.571 128.928C787.622 126.453 783.611 123.083 780.539 118.816C777.552 114.549 775.334 109.685 773.883 104.224C772.518 98.7627 771.835 93.088 771.835 87.2V41.12H786.171V87.2C786.171 91.3813 786.598 95.4347 787.451 99.36C788.304 103.2 789.67 106.656 791.547 109.728C793.424 112.8 795.942 115.232 799.099 117.024C802.342 118.816 806.31 119.712 811.003 119.712C815.782 119.712 819.75 118.816 822.907 117.024C826.15 115.147 828.667 112.672 830.459 109.6C832.336 106.443 833.702 102.944 834.555 99.104C835.408 95.264 835.835 91.296 835.835 87.2V41.12H850.299V87.2C850.299 93.4293 849.531 99.3173 847.995 104.864C846.544 110.325 844.24 115.147 841.083 119.328C838.011 123.424 834 126.667 829.051 129.056C824.102 131.445 818.086 132.64 811.003 132.64ZM869.365 132V41.248H883.701V87.968L926.453 41.12H942.325L906.485 81.312L944.373 132H928.117L897.397 90.4L883.701 104.608V132H869.365Z" fill="#1A1A1A"/>
<path d="M103.878 113.098C134.685 109.17 160.063 97.3725 173.353 67.4216C163.684 74.9861 153.721 82.2464 144.053 89.8079C131.364 99.4871 116.868 105.235 101.162 107.959C105.087 99.7946 108.108 91.6246 110.827 83.4545C119.587 58.3479 135.901 40.5014 159.762 29.0054C169.424 24.4685 179.4 20.5342 189.663 17.8137C191.481 17.5094 192.383 17.2082 192.684 19.6273C194.501 45.6438 189.062 69.8437 173.052 90.7146C158.252 109.772 138.62 116.424 115.357 114.617C111.128 114.008 107.503 113.399 103.878 113.098ZM104.182 104.325C125.323 91.0191 145.864 77.7097 154.924 52.2986C139.522 71.6573 122.003 88.2955 104.182 104.325ZM93.3072 106.447C83.3378 81.9422 64.3079 66.5149 46.4873 49.8765C48.2981 53.8108 50.1121 57.7423 52.2269 61.6768C54.3385 65.9092 56.4533 69.8437 59.1727 73.7752C61.5883 77.4052 64.3079 81.0354 66.7233 84.9669C60.6827 84.6657 43.1629 72.8685 32.2882 61.978C35.6125 77.104 52.5277 96.4627 71.8583 107.35C65.2133 107.049 59.1727 108.26 53.4331 110.073C51.9229 110.682 50.4129 109.17 49.2035 108.567C41.0483 103.121 34.403 96.1615 28.6632 88.2955C16.2784 71.0516 10.8426 51.6929 10.5386 30.8188C10.5386 27.1888 10.8424 23.5585 10.8424 20.2328C10.8424 18.1149 11.7478 17.8137 13.5618 18.1149C18.697 19.0216 23.528 20.8382 28.0584 22.3506C42.8619 27.4932 56.7571 34.449 68.2333 45.3395C84.8478 61.3725 94.2124 81.0355 93.003 104.627C93.6078 104.627 93.3072 104.934 93.3072 106.447ZM8.42702 173C5.10298 166.035 2.98818 159.383 0.268748 152.43C-0.0320247 151.213 -0.332804 150.611 0.873356 149.707C14.4674 140.326 28.0586 130.944 41.9537 122.172C56.4533 112.797 71.8583 111.592 88.4728 115.821C94.817 117.34 101.161 118.846 107.503 120.365C109.013 120.666 110.222 120.967 111.432 121.871C114.452 123.389 114.452 126.715 111.733 128.83C109.618 130.041 107.202 130.643 104.783 130.041C100.858 129.438 96.932 128.529 93.0032 127.92C91.797 127.619 90.2868 127.619 89.0776 127.619C87.8682 127.619 86.662 128.529 86.3582 129.74C86.0574 130.945 87.5676 130.945 88.1722 131.553C90.5876 133.066 93.3072 134.277 95.7226 135.488C101.763 138.813 107.807 138.512 113.543 135.187C120.192 131.252 126.84 127.619 133.482 123.088C134.992 122.172 136.803 120.967 138.313 120.365C139.823 119.756 141.64 119.455 142.844 120.967C144.053 122.479 143.752 124.293 142.844 125.805C141.64 127.318 140.425 128.529 138.921 130.041C128.952 138.813 118.378 146.682 106.898 153.334C103.878 155.148 100.858 155.455 97.5368 154.545C85.7536 151.213 74.2772 146.983 62.4969 143.959C53.4331 141.537 44.9771 143.351 37.7271 148.797C27.4571 156.057 18.3932 164.83 8.42702 173ZM101.462 36.8712C98.743 52.9041 97.2328 67.7259 97.2328 82.8519C94.5132 75.5916 92.0978 68.3313 88.172 61.6766C86.6618 59.2542 85.1516 56.534 83.3376 54.4163C81.223 51.9939 80.9222 49.5751 81.223 46.8517C83.3376 29.9121 89.9828 15.0904 99.9522 1.47649C101.462 -0.337088 102.067 -0.64137 103.273 1.47649C113.543 15.696 120.793 31.4245 122.303 49.2741C122.303 50.4822 122.303 51.6929 121.398 52.5998C114.148 61.3725 110.222 71.3563 106.296 81.9421C106.597 67.1204 105.087 52.2986 101.462 36.8712ZM238 117.34C232.561 130.041 220.48 136.391 207.184 135.187C196.312 133.969 186.944 129.137 178.184 123.389C172.144 119.455 165.502 116.731 158.252 116.43C156.441 116.43 154.624 116.123 152.512 116.43C154.924 113.399 158.553 111.592 161.88 110.682C172.445 107.35 182.113 110.375 191.481 115.219C201.745 120.666 212.322 123.992 224.403 121.871C228.933 121.268 233.163 119.147 238 117.34ZM152.813 148.489C160.664 141.537 169.124 140.326 178.184 142.139C191.481 144.561 203.863 143.35 215.944 137.91C216.545 137.602 217.46 137.301 218.362 137.301C218.663 137.301 218.663 137.301 218.964 137.602C212.623 150.611 196.005 158.479 180.904 155.455C175.465 154.238 170.333 152.43 165.201 150.611C161.573 149.098 157.644 148.188 152.813 148.489ZM143.752 168.457C136.202 161.805 134.084 150.008 139.222 141.838C144.053 133.969 154.924 129.74 161.88 132.764C157.644 133.065 155.232 135.488 152.813 137.91C156.441 137.301 160.063 137 164.593 137.602C149.793 143.658 143.752 154.238 143.752 168.457Z" fill="url(#paint0_linear_251_400)"/>
<defs>
<linearGradient id="paint0_linear_251_400" x1="-288.356" y1="86.5" x2="1299.17" y2="86.5" gradientUnits="userSpaceOnUse">
<stop stop-color="#611A54"/>
<stop stop-color="#AC8856"/>
</linearGradient>
</defs>
</svg>
