<svg xmlns="http://www.w3.org/2000/svg" version="1.1" xmlns:xlink="http://www.w3.org/1999/xlink" width="512" height="512" x="0" y="0" viewBox="0 0 64 64" style="enable-background:new 0 0 512 512" xml:space="preserve" class=""><g><path d="M18.349 39.139v4.865c-1.527-.334-2.903-.864-2.878-2.48.026-1.69 1.44-2.25 2.878-2.385zm4.18 9.13c.063-1.527-1.256-2.09-2.68-2.42v4.798c1.237-.167 2.614-.722 2.68-2.378zM34.75 45c0 8.685-7.065 15.75-15.75 15.75S3.25 53.685 3.25 45 10.315 29.25 19 29.25 34.75 36.315 34.75 45zm-10.279-4.129c-.386-1.058-.877-1.692-1.816-2.337-.75-.515-1.698-.806-2.806-.896V36a.75.75 0 0 0-1.5 0v1.645c-2.716.229-4.343 1.625-4.378 3.856-.048 3.07 2.95 3.754 4.378 4.038v5.149c-.878-.06-1.608-.27-2.156-.646-.673-.463-.979-.855-1.255-1.614a.75.75 0 0 0-1.41.514c.386 1.058.878 1.692 1.817 2.336.793.545 1.81.84 3.004.908V54a.75.75 0 0 0 1.5 0v-1.845c2.547-.28 4.092-1.662 4.18-3.826.12-2.95-2.67-3.707-4.18-4.017v-5.177c.791.078 1.451.288 1.958.636.673.462.979.855 1.255 1.614a.75.75 0 0 0 1.41-.514zM45 31.25h-6c-.965 0-1.75.785-1.75 1.75v26c0 .965.785 1.75 1.75 1.75h6c.965 0 1.75-.785 1.75-1.75V33c0-.965-.785-1.75-1.75-1.75zm14-7h-6c-.965 0-1.75.785-1.75 1.75v33c0 .965.785 1.75 1.75 1.75h6c.965 0 1.75-.785 1.75-1.75V26c0-.965-.785-1.75-1.75-1.75zm-6.179-6.02a2.722 2.722 0 0 0 2.04-.522 2.729 2.729 0 0 0 1.072-1.81l1.19-8.32A2.726 2.726 0 0 0 56.6 5.54a2.729 2.729 0 0 0-1.81-1.072l-8.32-1.189a2.708 2.708 0 0 0-2.038.522 2.731 2.731 0 0 0-1.072 1.81 2.73 2.73 0 0 0 .521 2.04c.44.587 1.084.968 1.81 1.072l1.748.25-13.351 10.012-7.018-7.93a3.772 3.772 0 0 0-5.058-.512L4.35 23.788A2.733 2.733 0 0 0 3.278 25.6a2.746 2.746 0 0 0 2.726 3.137c.573 0 1.152-.18 1.646-.55L24.02 15.91l7.017 7.928a3.77 3.77 0 0 0 5.06.515l14.641-10.98-.25 1.747a2.752 2.752 0 0 0 2.332 3.11z" fill="#ac8856" opacity="1" data-original="#000000"></path></g></svg>