<svg xmlns="http://www.w3.org/2000/svg" width="157" height="86" viewBox="0 0 157 86" fill="none">
<path d="M156.583 84.6216C156.583 84.6216 156.5 84.6216 156.433 84.6715C156.383 84.6882 156.316 84.7215 156.249 84.7215C156.249 84.6882 156.266 84.6549 156.283 84.6216C156.283 84.6549 156.283 84.7048 156.283 84.7048C156.283 84.7548 156.316 84.6882 156.333 84.6715C156.333 84.6715 156.333 84.6382 156.333 84.6216C156.333 84.6216 156.333 84.6715 156.333 84.6382V84.7048C156.333 84.7048 156.333 84.6549 156.35 84.6216C156.35 84.6715 156.35 84.6549 156.333 84.6882C156.35 84.6882 156.333 84.6882 156.366 84.6882C156.383 84.6382 156.366 84.6382 156.383 84.5883C156.383 84.5883 156.416 84.5383 156.416 84.5883V84.5383C156.416 84.5383 156.466 84.505 156.466 84.5716C156.583 84.3718 156.633 84.2219 156.633 84.1386C156.633 84.1053 156.633 84.072 156.633 84.0387C156.717 83.8223 156.7 83.5725 156.55 83.4226C156.466 83.356 156.416 83.3227 156.316 83.3227C156.149 83.3227 156.032 83.4559 155.949 83.6224C155.882 83.6557 155.815 83.7057 155.765 83.7557C155.632 83.8722 155.498 83.9555 155.365 84.0387C155.365 84.0387 155.331 84.0387 155.315 84.072C155.315 84.072 155.298 84.072 155.281 84.072C155.265 83.9721 155.181 84.0721 155.131 84.1054C155.114 84.1054 155.098 84.1054 155.064 84.1054C155.031 84.0554 154.997 83.9221 154.947 84.0221C154.947 84.0221 154.947 84.0221 154.947 84.0387H154.897C154.897 84.0387 154.831 84.0054 154.78 84.072C154.78 84.0887 154.747 84.122 154.73 84.1553C154.68 84.1553 154.647 84.1553 154.597 84.1553C154.597 84.122 154.563 84.1054 154.53 84.1054C154.48 84.0221 154.296 84.172 154.246 84.0554C154.196 84.0554 154.313 84.0054 154.246 83.9888C154.263 83.9388 154.28 83.9888 154.296 83.9221C154.23 83.9055 154.246 83.7889 154.163 83.7723V83.7223C154.063 83.7223 154.046 83.5558 153.963 83.5891C153.862 83.5558 153.963 83.4226 153.846 83.4393V83.356C153.846 83.356 153.779 83.4059 153.762 83.356C153.779 83.3227 153.729 83.2894 153.762 83.2727C153.729 83.1562 153.562 83.1728 153.529 82.9563C153.462 82.9896 153.445 82.8897 153.395 82.9064C153.395 82.8731 153.312 82.7732 153.395 82.7898C153.395 82.7898 153.395 82.7898 153.395 82.8065H153.428C153.428 82.64 153.312 82.6732 153.278 82.59C153.278 82.6233 153.312 82.6566 153.278 82.6566L153.245 82.5733H153.278L153.228 82.4235V82.4734C153.228 82.4734 153.228 82.3235 153.161 82.3069C153.128 82.3069 153.161 82.4068 153.111 82.3568C153.095 82.2569 153.061 82.107 153.028 81.9905C152.994 82.0404 152.994 81.9905 152.961 81.9905L152.994 81.9572C152.911 81.8906 153.045 81.8573 152.961 81.774H152.978L152.911 81.7907C152.811 81.7407 152.944 81.6741 152.828 81.6408C152.844 81.6741 152.777 81.7241 152.761 81.6408H152.794C152.794 81.6408 152.761 81.6075 152.761 81.5742C152.777 81.5742 152.811 81.5409 152.777 81.5076H152.828L152.744 81.4576C152.744 81.3577 152.677 81.2911 152.694 81.2245C152.694 81.2245 152.661 81.058 152.611 81.058C152.644 81.058 152.627 80.9747 152.677 80.958C152.627 80.958 152.56 80.8582 152.577 80.7749C152.544 80.5751 152.427 80.5251 152.41 80.3252C152.377 80.3586 152.36 80.2586 152.327 80.3252C152.277 80.2586 152.26 80.1754 152.26 80.0921C152.26 80.0255 152.227 79.9922 152.16 80.0255C152.126 79.9589 152.16 79.909 152.16 79.8756C152.11 79.7591 152.093 79.7258 152.06 79.6259C152.026 79.5926 151.96 79.6259 151.943 79.526C151.976 79.526 151.96 79.5093 151.943 79.4593C151.943 79.476 151.96 79.476 151.976 79.4094H151.96C151.926 79.3594 151.926 79.3761 151.926 79.4094C151.926 79.4094 151.926 79.4094 151.926 79.4261C151.926 79.3428 151.876 79.2595 151.926 79.2096C151.859 79.043 151.776 78.9431 151.709 78.8099C151.709 78.7766 151.759 78.7933 151.776 78.8099L151.726 78.71C151.726 78.71 151.759 78.7599 151.793 78.7766C151.793 78.6933 151.759 78.6434 151.726 78.5768C151.692 78.5268 151.659 78.4769 151.659 78.3936C151.659 78.3936 151.659 78.2437 151.642 78.1771C151.642 78.1771 151.676 78.1771 151.676 78.2104C151.659 78.1105 151.626 77.9606 151.676 77.944C151.676 77.8108 151.659 77.6609 151.642 77.511C151.626 77.3612 151.592 77.2446 151.542 77.178C151.542 77.178 151.526 77.0614 151.492 76.9615V76.9448C151.442 76.8616 151.459 76.6451 151.425 76.5785H151.459L151.425 76.362V76.4453C151.425 76.4453 151.459 76.2621 151.392 76.1455C151.392 75.9957 151.208 75.9457 151.208 75.7958C151.158 75.7459 151.275 75.8125 151.225 75.7292C151.258 75.6959 151.258 75.7625 151.292 75.7292C151.258 75.646 151.292 75.5461 151.258 75.4295H151.292C151.208 75.2796 151.275 75.0798 151.192 75.0132C151.142 74.88 151.258 74.8467 151.175 74.7301L151.208 74.6469C151.208 74.6469 151.142 74.6301 151.158 74.5469C151.192 74.5469 151.158 74.447 151.192 74.4636C151.208 74.2638 151.092 74.1639 151.158 73.8808C151.108 73.8475 151.125 73.7143 151.092 73.681C151.108 73.681 151.092 73.4312 151.142 73.5478V73.5811H151.175C151.225 73.4312 151.142 73.3313 151.142 73.1981C151.142 73.248 151.142 73.298 151.108 73.2647V73.1315L151.142 73.1481V72.9483L151.125 72.9816C151.125 72.8817 151.192 72.8317 151.142 72.7318C151.108 72.6985 151.092 72.8317 151.092 72.7318C151.108 72.5986 151.142 72.3988 151.142 72.2322C151.108 72.2655 151.108 72.2156 151.092 72.1656H151.125C151.075 71.9824 151.192 72.0657 151.158 71.8992H151.108C151.041 71.7493 151.175 71.7826 151.075 71.6327C151.075 71.6993 151.008 71.6827 151.008 71.5994H151.041C151.041 71.5994 151.025 71.5495 151.041 71.5162C151.058 71.5329 151.092 71.5162 151.075 71.4496L151.108 71.4829L151.041 71.3663C151.075 71.2498 151.041 71.0999 151.075 71.0499C151.075 71.0499 151.075 70.8168 151.041 70.7835C151.075 70.8168 151.075 70.7002 151.108 70.7169C151.075 70.6669 151.041 70.5171 151.075 70.4338C151.092 70.184 150.991 70.0341 151.025 69.801C150.991 69.8343 150.991 69.7011 150.958 69.7511C150.891 69.5512 151.008 69.2848 150.858 69.2848C150.841 69.1849 150.875 69.1516 150.875 69.1016C150.841 68.9351 150.841 68.8851 150.824 68.7519C150.808 68.6853 150.741 68.7019 150.741 68.5687C150.774 68.602 150.758 68.5521 150.741 68.5021C150.741 68.5354 150.758 68.5354 150.774 68.4688C150.774 68.4688 150.774 68.4688 150.758 68.4355C150.741 68.3689 150.724 68.3855 150.724 68.4188C150.724 68.4188 150.724 68.4189 150.724 68.4355C150.758 68.3356 150.691 68.2024 150.724 68.1691C150.674 67.9359 150.607 67.7861 150.557 67.6196C150.574 67.5863 150.607 67.6196 150.624 67.6695L150.591 67.5363C150.591 67.5363 150.624 67.6029 150.641 67.6362C150.658 67.4364 150.524 67.3365 150.524 67.1033H150.491V67.07C150.491 67.07 150.441 67.07 150.441 67.0367C150.457 66.9868 150.507 66.9868 150.474 66.8869C150.474 66.8036 150.407 66.7203 150.357 66.6537C150.224 65.871 150.073 65.105 149.94 64.3057C149.94 62.1076 149.973 59.8929 149.99 57.6781V57.5449V57.5782C149.99 57.5782 149.99 57.5282 149.99 57.5116C150.007 57.4783 150.023 57.445 149.99 57.395C149.99 57.3784 149.99 57.345 149.99 57.3284C149.99 57.2618 149.99 57.1952 149.99 57.1286C149.99 57.062 150.04 57.0287 150.023 56.9454H150.057C150.007 56.8455 150.123 56.7456 150.057 56.679C150.057 56.5791 150.157 56.6123 150.107 56.4958L150.157 56.4458C150.157 56.4458 150.107 56.4125 150.14 56.3626C150.173 56.3626 150.173 56.296 150.19 56.3293C150.24 56.2127 150.157 56.0961 150.24 55.9463C150.19 55.913 150.24 55.8463 150.19 55.813C150.207 55.813 150.19 55.6632 150.257 55.7464V55.7631H150.29C150.357 55.6798 150.274 55.6132 150.29 55.53C150.29 55.5633 150.29 55.5965 150.257 55.5632V55.48H150.29V55.3634V55.3801C150.307 55.3135 150.374 55.2968 150.324 55.2302C150.307 55.1969 150.274 55.2968 150.274 55.2302C150.307 55.147 150.34 55.0304 150.357 54.9305C150.324 54.9305 150.324 54.9305 150.307 54.8972H150.34C150.307 54.7972 150.407 54.8305 150.374 54.7306H150.324C150.257 54.6474 150.39 54.6474 150.307 54.5641C150.307 54.5974 150.24 54.5974 150.257 54.5475H150.29C150.29 54.5475 150.274 54.5142 150.29 54.4975C150.29 54.4975 150.34 54.4975 150.324 54.4642H150.357L150.307 54.4142C150.34 54.3476 150.307 54.2644 150.34 54.2311C150.34 54.2311 150.357 54.0979 150.324 54.0812C150.357 54.0979 150.374 54.0313 150.407 54.0313C150.374 53.998 150.34 53.9147 150.39 53.8647C150.424 53.7149 150.34 53.6316 150.39 53.4984C150.357 53.4984 150.374 53.4318 150.324 53.4651C150.274 53.3485 150.424 53.182 150.274 53.182C150.274 53.1154 150.307 53.0987 150.307 53.0654C150.307 52.9655 150.29 52.9322 150.29 52.8489C150.29 52.8156 150.207 52.8323 150.224 52.749C150.257 52.749 150.24 52.749 150.24 52.699C150.24 52.7157 150.24 52.7157 150.274 52.6658C150.274 52.6658 150.274 52.6658 150.257 52.6658C150.257 52.6158 150.24 52.6325 150.24 52.6658C150.274 52.5991 150.24 52.5325 150.274 52.4992C150.257 52.366 150.19 52.2828 150.157 52.1662C150.173 52.1329 150.207 52.1662 150.224 52.1828V52.0996C150.224 52.0996 150.224 52.1329 150.224 52.1662C150.257 52.033 150.14 51.983 150.174 51.8498H150.14V51.8331C150.14 51.8331 150.107 51.8331 150.09 51.8165C150.123 51.7832 150.157 51.7832 150.14 51.7166C150.157 51.65 150.09 51.6 150.073 51.55C150.073 51.5833 150.073 51.5834 150.04 51.5834C150.04 51.5501 150.057 51.5167 150.04 51.5001L150.073 51.4668C150.073 51.4668 150.007 51.4335 149.99 51.4335C150.007 51.4002 150.023 51.4502 150.057 51.4335C150.023 51.3336 150.04 51.3836 150.007 51.2836C149.956 51.2503 149.973 51.3169 149.94 51.3336C149.94 51.3003 149.906 51.2836 149.89 51.267C149.89 51.267 149.89 51.2503 149.89 51.2336C149.89 51.2336 149.89 51.217 149.89 51.2003C149.89 51.2003 149.84 51.0671 149.806 51.0005C149.74 50.8174 149.673 50.6508 149.589 50.4843C149.356 49.5185 148.988 48.6192 148.321 48.2362C148.154 48.153 148.004 48.103 147.82 48.0697C147.753 48.0197 147.686 47.9698 147.62 47.9365C147.186 47.6867 146.518 47.6867 146.001 48.0697C146.001 48.0697 146.001 48.0531 146.001 48.0364C145.967 48.0697 145.917 48.103 145.9 48.0364C145.817 48.0864 145.683 48.1363 145.65 48.2529C145.65 48.2529 145.617 48.2529 145.583 48.3195C145.567 48.4027 145.5 48.3861 145.466 48.4361V48.4028L145.4 48.4527H145.433C145.45 48.5526 145.366 48.4194 145.35 48.5193C145.299 48.536 145.333 48.7858 145.266 48.7691C145.266 48.8357 145.266 48.6858 145.249 48.7358C145.233 48.6858 145.249 48.6858 145.249 48.6525C145.233 48.7025 145.183 48.6525 145.166 48.7025V48.6692C145.133 48.7858 145.049 48.7025 145.032 48.7858C144.999 48.8524 144.966 48.7025 144.932 48.8191L144.899 48.7858C144.899 48.7858 144.899 48.869 144.882 48.8524C144.882 48.8191 144.849 48.8524 144.849 48.8024C144.782 48.8024 144.765 48.9689 144.665 48.9523C144.665 49.0355 144.632 49.0189 144.632 49.0855C144.632 49.0522 144.565 49.1521 144.582 49.0522V49.0022C144.582 49.0022 144.515 49.1022 144.482 49.1355C144.482 49.1355 144.515 49.1354 144.515 49.1521L144.482 49.1854V49.1521L144.415 49.1854V49.2187C144.415 49.2187 144.365 49.1688 144.365 49.2521C144.365 49.302 144.415 49.2853 144.381 49.3186C144.331 49.3186 144.265 49.3353 144.214 49.3686C144.231 49.4019 144.214 49.4186 144.214 49.4352V49.4019C144.164 49.5018 144.148 49.3353 144.114 49.4185V49.4852C144.114 49.6017 144.064 49.4352 144.064 49.5851C144.064 49.5518 144.114 49.6517 144.064 49.6684V49.635C144.064 49.635 144.064 49.6684 144.031 49.6684C144.031 49.6351 144.014 49.6184 143.997 49.635V49.5851V49.685C143.947 49.685 143.931 49.7682 143.897 49.7349C143.897 49.7349 143.831 49.7682 143.847 49.8348C143.847 49.7849 143.814 49.8182 143.797 49.7683C143.797 49.8182 143.764 49.9015 143.73 49.8848C143.647 49.9181 143.647 50.0514 143.563 50.0847C143.58 50.118 143.547 50.1346 143.563 50.1846C143.53 50.3011 143.397 50.2178 143.463 50.401C143.447 50.4343 143.413 50.401 143.397 50.401C143.397 50.401 143.346 50.4843 143.296 50.5343C143.296 50.5676 143.33 50.6342 143.296 50.6675C143.296 50.6342 143.28 50.6508 143.263 50.6675C143.263 50.6675 143.263 50.6342 143.23 50.6508C143.23 50.6508 143.23 50.6675 143.23 50.6841C143.23 50.7174 143.23 50.7174 143.23 50.7174C143.18 50.7174 143.18 50.8007 143.146 50.7674C143.096 50.8673 143.096 50.9672 143.063 51.0505C143.046 51.0505 143.029 51.0005 143.046 50.9672L143.013 51.0338C143.013 51.0338 143.013 50.9839 143.013 50.9672C142.929 50.9839 142.979 51.1504 142.896 51.1837V51.217C142.896 51.217 142.912 51.267 142.896 51.267C142.862 51.267 142.846 51.217 142.829 51.267C142.796 51.267 142.796 51.3669 142.796 51.4168C142.796 51.4002 142.812 51.4168 142.829 51.4168C142.829 51.4335 142.796 51.4168 142.796 51.4501H142.762C142.762 51.4501 142.762 51.5001 142.779 51.5167C142.762 51.5167 142.779 51.4668 142.762 51.4501C142.729 51.5334 142.762 51.5001 142.712 51.5667C142.612 51.6833 142.529 51.8665 142.378 51.9497C142.378 52.0496 142.278 52.1162 142.278 52.1828C142.261 52.1662 142.128 52.3827 142.178 52.2162C142.178 52.2162 142.195 52.1828 142.195 52.1995V52.1495C142.061 52.2161 142.044 52.3993 141.961 52.4992C141.994 52.4659 142.028 52.4326 142.011 52.4826L141.928 52.5825V52.5326L141.794 52.6824H141.828C141.828 52.6824 141.711 52.7324 141.677 52.8656C141.677 52.9322 141.761 52.8323 141.711 52.9155C141.627 52.9988 141.494 53.1487 141.394 53.2819C141.427 53.2985 141.394 53.3318 141.394 53.3818H141.36C141.293 53.5483 141.277 53.3485 141.21 53.5317V53.5983C141.193 53.7815 141.126 53.5983 141.11 53.8314C141.143 53.7648 141.176 53.8647 141.11 53.9314V53.8814C141.11 53.8814 141.076 53.948 141.06 53.9646C141.06 53.9313 141.043 53.9147 141.01 53.9646V53.898L140.976 54.0645C140.893 54.1145 140.843 54.2977 140.793 54.281C140.793 54.281 140.659 54.4475 140.676 54.5308C140.676 54.4642 140.609 54.5641 140.609 54.4975C140.609 54.5808 140.542 54.7306 140.475 54.7473C140.325 54.8972 140.292 55.1137 140.142 55.2302C140.175 55.2635 140.092 55.3301 140.142 55.3468C140.041 55.5632 139.841 55.5632 139.891 55.7631C139.841 55.8463 139.791 55.8131 139.758 55.8464V55.813C139.658 55.9629 139.624 56.0129 139.541 56.1128C139.507 56.1794 139.541 56.2627 139.441 56.3293C139.441 56.2627 139.424 56.3293 139.39 56.3459C139.39 56.3126 139.407 56.296 139.357 56.3293C139.357 56.3293 139.357 56.3626 139.357 56.3792C139.307 56.4459 139.324 56.4459 139.357 56.4292C139.357 56.4292 139.357 56.4292 139.374 56.4292C139.307 56.4459 139.224 56.5957 139.207 56.5457C139.057 56.7289 138.973 56.8954 138.856 57.0619C138.823 57.0619 138.856 56.9954 138.873 56.9454L138.79 57.0619C138.79 57.0619 138.823 56.9787 138.856 56.9454C138.723 57.012 138.673 57.2451 138.506 57.3451V57.4117H138.489C138.489 57.4117 138.489 57.4783 138.472 57.5116C138.439 57.5116 138.439 57.445 138.372 57.5116C138.305 57.5449 138.239 57.7114 138.189 57.8113C138.222 57.778 138.222 57.8113 138.222 57.828C138.189 57.8613 138.155 57.8613 138.139 57.9112L138.105 57.8779C138.105 57.8779 138.055 58.0278 138.055 58.0611C138.022 58.0611 138.089 57.9779 138.072 57.9446C137.955 58.1111 138.022 58.0278 137.905 58.1943C137.872 58.3109 137.938 58.211 137.938 58.2943C137.888 58.3775 137.855 58.4774 137.788 58.544H137.838C137.838 58.544 137.805 58.6273 137.788 58.6606C137.788 58.6606 137.771 58.6772 137.755 58.6939C137.705 58.7105 137.671 58.7272 137.621 58.8271C137.554 58.8937 137.504 58.9604 137.438 59.027C137.354 59.0936 137.271 59.1602 137.187 59.2434C137.221 59.2768 137.187 59.31 137.137 59.36V59.3267C136.987 59.5432 137.02 59.31 136.887 59.5098V59.4766V59.5931C136.786 59.8096 136.77 59.5931 136.686 59.8762C136.736 59.8096 136.753 59.9262 136.686 59.9928V59.9428C136.686 59.9428 136.653 60.0261 136.62 60.0427C136.62 59.9928 136.62 59.9761 136.553 60.0427V59.9595L136.503 60.1426C136.403 60.2092 136.302 60.4091 136.236 60.3924C136.236 60.3924 136.052 60.5756 136.035 60.6755C136.052 60.6089 135.952 60.7088 135.952 60.6422C135.919 60.7255 135.802 60.9253 135.735 60.942C135.518 61.1251 135.434 61.3916 135.217 61.5748C135.251 61.6081 135.151 61.708 135.201 61.7246C135.051 62.0077 134.817 62.0577 134.85 62.2908C134.783 62.4074 134.733 62.3907 134.683 62.4407V62.4074C134.566 62.6239 134.516 62.6738 134.416 62.8237C134.366 62.9069 134.416 62.9902 134.299 63.1067C134.299 63.0401 134.283 63.1068 134.233 63.1401C134.249 63.1068 134.249 63.0901 134.199 63.1401C134.199 63.1567 134.199 63.1734 134.199 63.19C134.149 63.2733 134.166 63.2733 134.199 63.24C134.199 63.24 134.199 63.24 134.216 63.24C134.132 63.29 134.032 63.4731 133.999 63.4398C133.815 63.6896 133.715 63.9061 133.565 64.1226C133.532 64.1226 133.565 64.0559 133.598 63.9893L133.498 64.1392C133.498 64.1392 133.548 64.0393 133.582 63.9893C133.415 64.1059 133.331 64.389 133.148 64.5389V64.6055H133.114C133.114 64.6055 133.114 64.6887 133.081 64.722C133.048 64.722 133.047 64.6554 132.964 64.7554C132.881 64.8053 132.797 64.9885 132.73 65.105C132.78 65.0551 132.78 65.1051 132.764 65.1217C132.73 65.1717 132.68 65.1717 132.664 65.2216L132.63 65.1883C132.63 65.1883 132.547 65.3548 132.547 65.4048C132.513 65.4048 132.597 65.3049 132.58 65.2716C132.43 65.4714 132.497 65.3715 132.346 65.588C132.28 65.7378 132.38 65.588 132.363 65.6879C132.296 65.7878 132.246 65.921 132.146 66.0043C131.829 66.3373 131.512 66.6704 131.195 67.0201C130.844 67.4031 130.494 67.7694 130.143 68.1524C130.143 68.1524 130.143 68.1524 130.143 68.1358C130.01 68.1857 129.943 68.4188 129.759 68.4688C129.759 68.5687 129.659 68.602 129.659 68.6686C129.659 68.652 129.509 68.8018 129.576 68.6686C129.576 68.6686 129.592 68.652 129.592 68.6686V68.6187C129.475 68.6187 129.442 68.8019 129.359 68.8685C129.392 68.8685 129.425 68.8185 129.409 68.8685L129.325 68.9351V68.8851L129.208 68.985H129.242C129.242 68.985 129.125 68.985 129.092 69.1183C129.075 69.1682 129.158 69.1183 129.108 69.1849C129.025 69.2348 128.891 69.3014 128.791 69.3847C128.824 69.418 128.791 69.4347 128.774 69.4846V69.4513C128.674 69.6012 128.691 69.4013 128.607 69.5512V69.6178C128.557 69.7843 128.524 69.5845 128.474 69.801C128.507 69.7511 128.524 69.8676 128.474 69.9009V69.851C128.474 69.851 128.441 69.9175 128.424 69.9175C128.424 69.8842 128.424 69.8509 128.374 69.9175V69.851L128.34 70.0008C128.274 70.0175 128.19 70.1674 128.157 70.1507C128.157 70.1507 128.023 70.2506 128.023 70.3338C128.023 70.2672 127.956 70.3339 127.956 70.2673C127.956 70.3339 127.856 70.4671 127.806 70.4671C127.639 70.567 127.589 70.7669 127.456 70.8501C127.472 70.8834 127.406 70.9333 127.456 70.9666C127.356 71.1498 127.172 71.0999 127.205 71.3164C127.155 71.383 127.122 71.3497 127.088 71.3663C126.988 71.4662 126.955 71.4995 126.871 71.5828C126.838 71.6494 126.871 71.7327 126.788 71.7826C126.788 71.7327 126.771 71.766 126.738 71.7826C126.738 71.766 126.738 71.7493 126.705 71.766V71.7993C126.671 71.8659 126.671 71.8659 126.705 71.8492C126.638 71.8492 126.571 71.9991 126.538 71.9491C126.471 72.0324 126.404 72.1323 126.354 72.2156C125.67 72.6485 124.985 73.0315 124.301 73.4145C123.583 73.8142 122.882 74.2139 122.164 74.6135C122.064 74.6635 121.947 74.7301 121.847 74.78C121.447 74.9133 121.029 75.0465 120.629 75.1964C119.811 75.4961 118.993 75.7625 118.192 76.0123C117.975 76.0789 117.774 76.1455 117.557 76.2288C117.491 76.2288 117.44 76.2288 117.374 76.2288C117.324 76.2288 117.257 76.2288 117.207 76.2288C117.057 76.1622 116.923 76.1122 116.773 76.0623C116.072 75.8291 115.371 75.5793 114.653 75.3795C113.935 75.163 113.201 75.0132 112.483 74.8133C112.132 74.7134 111.782 74.6135 111.448 74.447C111.298 74.3637 111.148 74.2971 110.981 74.2305C110.864 74.1639 110.73 74.0806 110.613 74.0307C110.23 73.4978 109.846 72.9982 109.495 72.4154C109.061 71.6993 108.661 70.9333 108.277 70.184C108.16 69.9675 108.026 69.7511 107.909 69.5346C107.826 69.2182 107.726 68.9018 107.642 68.5687C107.509 68.0525 107.359 67.5529 107.175 67.0867C107.776 66.0875 108.343 65.0385 108.877 63.9727C110.597 60.559 112.049 56.8788 113.334 53.1653C113.434 52.8822 113.518 52.6158 113.618 52.3327C113.902 51.7166 114.169 51.1004 114.386 50.4676C114.67 49.6017 115.087 48.7191 115.154 47.8033C115.354 47.2371 115.621 46.7042 115.855 46.138C116.088 45.5885 116.305 45.0223 116.489 44.4395C116.906 43.1906 117.224 41.925 117.557 40.6428C117.674 40.1765 117.791 39.7269 117.925 39.2607C117.958 39.1607 117.991 39.0775 118.025 38.9775C118.025 38.9775 118.041 38.9609 118.058 38.9443C118.125 38.8443 118.158 38.761 118.142 38.6445C118.208 38.6611 118.192 38.5446 118.225 38.528C118.208 38.428 118.325 38.3947 118.308 38.2948C118.308 38.2948 118.325 38.3114 118.325 38.3281C118.325 38.2615 118.342 38.1782 118.392 38.1949C118.425 38.0617 118.509 37.8619 118.475 37.7453C118.475 37.7453 118.475 37.6953 118.475 37.6287C118.442 37.5621 118.509 37.4622 118.509 37.4122H118.542L118.559 37.3123V37.3456C118.475 37.3123 118.609 37.279 118.576 37.1791C118.576 37.1458 118.576 37.0958 118.542 37.0625C118.542 37.0292 118.542 36.9959 118.542 36.9626C118.542 36.9626 118.542 36.9293 118.542 36.9127C118.576 36.9127 118.542 36.9459 118.592 36.9293C118.592 36.8793 118.659 36.846 118.642 36.7794H118.676C118.642 36.6795 118.759 36.6295 118.709 36.5629C118.709 36.4797 118.809 36.513 118.776 36.4297C118.776 36.4297 118.776 36.4297 118.776 36.4131H118.809V36.3798C118.843 36.3298 118.893 36.2799 118.943 36.2133C119.076 36.0134 119.176 35.8136 119.193 35.5638C119.277 35.5638 119.277 35.314 119.31 35.2641C119.31 35.0809 119.444 34.9144 119.427 34.7312C119.427 34.7312 119.444 34.7312 119.427 34.7812C119.444 34.648 119.46 34.4814 119.51 34.4814C119.56 34.1817 119.661 33.7987 119.627 33.5988C119.61 33.4989 119.644 33.4656 119.644 33.3491C119.627 33.2158 119.694 32.9994 119.694 32.8995H119.727L119.761 32.6663V32.7496C119.661 32.7163 119.811 32.583 119.794 32.3999C119.827 32.2333 119.677 32.0668 119.744 31.9003C119.727 31.817 119.794 31.9669 119.777 31.8504C119.811 31.8504 119.794 31.9003 119.827 31.8836C119.827 31.7671 119.894 31.7005 119.894 31.5506H119.928C119.894 31.3508 120.028 31.2009 119.978 31.0844C119.978 30.9012 120.095 30.9678 120.061 30.768L120.111 30.7013C120.128 30.6181 120.061 30.6347 120.111 30.5515C120.145 30.5515 120.145 30.4349 120.161 30.4848C120.228 30.285 120.161 30.0519 120.278 29.7688C120.228 29.7022 120.278 29.5523 120.245 29.519C120.278 29.519 120.278 29.2359 120.312 29.3858V29.4191H120.345C120.428 29.2693 120.345 29.136 120.362 28.9695C120.362 29.0194 120.345 29.0861 120.328 29.0361V28.8862L120.362 28.9195L120.395 28.6864L120.362 28.7197C120.395 28.6031 120.445 28.5699 120.412 28.4366C120.395 28.3867 120.362 28.5532 120.362 28.4366C120.395 28.2868 120.445 28.0703 120.462 27.8704C120.462 27.8704 120.462 27.8704 120.445 27.8704C120.445 27.8371 120.445 27.8038 120.445 27.7872C120.445 27.7872 120.445 27.7539 120.445 27.7372C120.445 27.7206 120.445 27.7039 120.445 27.6706C120.445 27.6206 120.512 27.6373 120.495 27.5041H120.445V27.4708C120.445 27.4375 120.445 27.4208 120.445 27.3875C120.445 27.3209 120.512 27.3209 120.445 27.1877C120.445 27.2377 120.412 27.2377 120.395 27.221C120.395 27.2044 120.395 27.1877 120.395 27.1544H120.412C120.412 27.1544 120.395 27.1044 120.412 27.0711C120.428 27.1044 120.462 27.0711 120.445 27.0045L120.478 27.0378L120.412 26.9046C120.445 26.788 120.412 26.6215 120.445 26.5549C120.445 26.5549 120.445 26.3051 120.412 26.2718C120.445 26.3051 120.445 26.1719 120.478 26.2052C120.445 26.1552 120.412 25.9887 120.445 25.9055C120.462 25.639 120.362 25.4725 120.395 25.2227C120.362 25.256 120.362 25.1228 120.328 25.1728C120.261 24.9729 120.362 24.7398 120.278 24.6732C120.261 24.6399 120.245 24.6233 120.228 24.5733C120.228 24.5233 120.261 24.49 120.261 24.44C120.228 24.2569 120.228 24.2069 120.211 24.0571C120.211 24.0238 120.178 24.0071 120.161 23.9905C120.161 23.9905 120.161 23.9572 120.161 23.9405C120.161 23.9405 120.145 23.9405 120.128 23.9405C120.128 23.9405 120.128 23.9239 120.128 23.9072H120.145C120.145 23.9072 120.145 23.8739 120.145 23.8573C120.145 23.8573 120.145 23.8572 120.145 23.8239C120.145 23.7906 120.211 23.774 120.178 23.724H120.195H120.161C120.145 23.6407 120.128 23.6574 120.145 23.7073C120.145 23.7073 120.145 23.7074 120.145 23.724C120.145 23.7074 120.145 23.674 120.145 23.6574C120.145 23.6574 120.145 23.6408 120.145 23.6241C120.145 23.5741 120.145 23.5242 120.145 23.4742C120.145 23.4742 120.145 23.441 120.161 23.441C120.145 23.2911 120.111 23.1578 120.078 23.0413C120.078 23.0246 120.095 22.9913 120.128 22.9913C120.095 22.9747 120.061 22.908 120.078 22.8414C120.078 22.8414 120.078 22.8747 120.078 22.8914V22.8248C120.078 22.8248 120.078 22.7749 120.078 22.7582C120.078 22.7749 120.078 22.8414 120.111 22.8747C120.145 22.6749 120.011 22.5251 120.044 22.2919L120.011 22.2586C120.011 22.2586 119.978 22.2087 119.961 22.192C119.994 22.1421 120.028 22.1587 120.011 22.0588C120.028 21.9589 119.961 21.8256 119.928 21.7424C119.928 21.809 119.928 21.7924 119.894 21.7757C119.894 21.7258 119.894 21.6758 119.894 21.6425L119.928 21.6092C119.928 21.6092 119.861 21.4926 119.844 21.4926C119.861 21.4426 119.878 21.5592 119.911 21.5592C119.861 21.3594 119.894 21.4593 119.844 21.2594C119.794 21.1762 119.811 21.2928 119.777 21.2761C119.761 20.8598 119.727 20.3935 119.61 20.0272C119.627 19.9273 119.661 19.7941 119.677 19.6276C119.677 19.3611 119.644 19.1779 119.527 19.0447C119.594 18.9615 119.46 18.8282 119.444 18.7616C119.444 18.7616 119.343 18.645 119.293 18.5618C119.243 18.4952 119.193 18.4286 119.11 18.4286C119.11 18.4286 119.126 18.3953 119.16 18.4119C119.06 18.362 118.926 18.3619 118.943 18.2953C118.776 18.262 118.559 18.2621 118.409 18.3287C118.075 18.1955 117.674 18.2454 117.19 18.5452C116.873 18.7283 116.573 19.0114 116.289 19.3278C116.389 19.0614 116.339 18.9115 115.771 19.3944C115.621 19.5609 115.521 19.7108 115.471 19.9106C115.404 19.8773 115.354 20.0938 115.304 20.1271C115.271 20.2936 115.104 20.3602 115.07 20.5434C115.07 20.5434 115.07 20.5101 115.07 20.4768C115.02 20.5768 114.953 20.7266 114.92 20.6933C114.803 20.9264 114.603 21.2428 114.569 21.4593C114.569 21.5592 114.519 21.5592 114.486 21.6758C114.486 21.809 114.352 21.9755 114.319 22.0754H114.286L114.202 22.2753L114.236 22.2086C114.202 22.2586 114.169 22.3086 114.169 22.3585C114.169 22.3252 114.102 22.3918 114.102 22.3252C114.102 22.4085 114.019 22.5584 113.969 22.5917C113.818 22.7582 113.785 22.958 113.651 23.0912C113.685 23.1079 113.601 23.1911 113.651 23.2078C113.568 23.4243 113.368 23.4576 113.434 23.6574C113.384 23.7407 113.351 23.724 113.318 23.7573V23.724C113.234 23.8905 113.201 23.9405 113.134 24.0571C113.101 24.1237 113.151 24.1903 113.067 24.2902C113.067 24.2402 113.051 24.2902 113.017 24.3235C113.017 24.2902 113.017 24.2736 112.984 24.3235C112.984 24.3235 112.984 24.3568 112.984 24.3735C112.95 24.4567 112.967 24.4401 112.984 24.4234C112.984 24.4234 112.984 24.4234 113 24.4234C112.934 24.4734 112.884 24.6232 112.85 24.5899C112.783 24.7065 112.75 24.8231 112.7 24.9396C112.65 25.0063 112.6 25.0729 112.55 25.1561C112.55 25.1395 112.583 25.1061 112.583 25.0728C112.533 25.1228 112.5 25.1894 112.483 25.256C112.466 25.2894 112.45 25.3227 112.416 25.356C112.383 25.4226 112.333 25.5058 112.299 25.5724C112.016 26.0054 111.732 26.455 111.465 26.9046C111.381 27.0545 111.365 27.221 111.381 27.3709C111.331 27.4708 111.281 27.5707 111.248 27.6873C110.814 28.753 110.346 29.8188 109.979 30.9178C109.745 31.6006 109.562 32.3166 109.412 33.016C109.228 33.6488 109.044 34.2983 108.861 34.931C108.827 35.0476 108.794 35.1475 108.761 35.2641C108.36 36.6795 107.943 38.0617 107.742 39.5104C107.692 39.6603 107.642 39.7935 107.592 39.9434C107.375 40.6095 107.192 41.2922 107.025 41.9749C106.808 42.7076 106.591 43.457 106.39 44.2064C106.09 45.422 105.84 46.6376 105.673 47.8699C105.556 48.3861 105.406 49.1188 105.439 49.7016C105.422 49.8848 105.389 50.068 105.372 50.2512C105.322 50.5509 105.272 50.8673 105.272 51.1671C105.272 51.2004 105.272 51.2337 105.272 51.267C105.239 51.6 105.222 51.9497 105.205 52.2827C105.239 52.4493 105.172 52.7324 105.205 52.9155L105.172 52.9988C105.172 52.9988 105.172 53.1487 105.172 53.2153C105.172 53.3152 105.172 53.4151 105.172 53.4651V53.5816C105.172 53.7315 105.172 53.9147 105.155 54.0645H105.189C105.122 54.3809 105.189 54.4975 105.122 54.8139C105.189 55.1803 105.022 55.43 105.088 55.813C105.088 55.7631 105.072 55.8297 105.055 55.8297C105.055 56.0129 105.055 56.2127 105.122 56.196C105.122 56.3293 105.088 56.3126 105.072 56.3293C105.105 56.3293 105.105 56.4292 105.105 56.5457V56.4958V56.7956L105.172 56.7289C105.155 56.8955 105.088 56.7789 105.105 56.9287H105.155C105.139 57.1452 105.055 57.2784 105.005 57.4949C104.988 57.9445 105.005 58.3942 105.022 58.8105C105.022 59.027 105.022 59.2268 105.005 59.4266C105.005 59.5265 104.988 59.6264 104.972 59.743C104.972 59.8596 104.938 59.9595 104.922 60.0761L104.888 60.126C104.888 60.126 104.972 60.3425 104.922 60.3924L104.955 60.4924C104.955 60.4924 104.938 60.5923 104.922 60.5423C104.922 60.6422 104.921 60.6422 104.955 60.6922L104.922 60.8087C104.922 61.1751 105.022 61.4416 105.055 61.7913C105.055 62.2409 105.255 62.9236 105.389 63.3232C105.355 63.3565 105.322 63.4065 105.322 63.4565C105.305 63.5564 105.272 63.573 105.272 63.573C105.255 63.6396 105.272 63.7396 105.322 63.8728C105.322 63.8894 105.339 63.9227 105.356 63.9394C105.489 64.9219 105.673 65.8877 105.89 66.8202C105.823 66.9868 105.756 67.1533 105.723 67.2865C105.589 67.7528 105.172 68.0858 105.055 68.5521V68.602C105.005 68.702 104.938 68.8019 104.855 68.9018C104.855 68.9018 104.788 69.0017 104.705 69.1349C104.654 69.2015 104.604 69.3014 104.554 69.3847C104.504 69.468 104.488 69.5346 104.471 69.5679C104.471 69.6012 104.454 69.6345 104.437 69.6678C104.437 69.6678 104.437 69.6845 104.437 69.7011C104.354 69.8177 104.287 69.9342 104.204 70.0508C103.937 70.4005 103.636 70.6836 103.336 70.9666C103.269 71.0333 103.219 71.0999 103.202 71.1831C101.984 72.1656 100.865 72.5153 99.8305 72.3821C99.7971 72.3821 99.7804 72.3488 99.747 72.3322C99.747 72.3322 99.6802 72.2822 99.6135 72.2322C99.5634 72.1989 99.5133 72.1656 99.4632 72.149C99.3631 72.099 99.2629 72.0824 99.1461 72.099C99.1461 71.9825 98.9124 72.0158 98.8623 71.9825C98.8623 71.9825 98.8289 71.9825 98.8122 71.9825C98.7955 71.9159 98.7622 71.8492 98.7121 71.7993C98.0611 71.2164 97.3767 70.6669 96.7758 70.0008C96.1582 69.3347 95.6408 68.5188 95.2068 67.6029C94.7561 66.6537 94.3054 65.6712 93.8881 64.6887C93.6711 64.2058 93.4541 63.7229 93.2371 63.24C93.0702 62.8736 92.9534 62.5073 92.7197 62.2408C92.3858 61.1917 92.1188 60.176 91.8851 59.2434C91.9185 59.1435 91.9351 59.0436 91.9184 58.9437C91.6681 56.9121 91.401 54.8972 91.1339 52.8656C91.1005 52.5825 91.0505 52.3161 91.0171 52.033V51.8331V51.8998C91.0171 51.8998 91.0171 51.8998 91.0004 51.8998C91.0004 51.8831 91.0004 51.8664 91.0004 51.8331C91.0004 51.7832 91.0505 51.6833 91.0171 51.6167C91.0171 51.5667 91.0004 51.5167 90.967 51.4668C90.967 51.3835 90.967 51.2836 90.9503 51.2003C90.967 51.2003 90.9503 51.2337 91.0004 51.2003C91.0004 51.1004 91.0505 51.0338 91.0338 50.9339H91.0672C91.0171 50.784 91.1339 50.6342 91.0672 50.5343C91.0672 50.3677 91.1673 50.4177 91.1173 50.2512L91.1673 50.1846C91.1673 50.1846 91.1172 50.1346 91.1506 50.0513C91.184 50.0513 91.184 49.9514 91.2007 50.0014C91.2675 49.8182 91.1673 49.635 91.2675 49.3853C91.2174 49.3353 91.2675 49.2021 91.2174 49.1688C91.2341 49.1688 91.2174 48.919 91.2842 49.0522V49.0855H91.3176C91.3843 48.9356 91.3009 48.8357 91.3176 48.7025C91.3176 48.7525 91.3176 48.8024 91.2842 48.7691V48.6359L91.3176 48.6525C91.3176 48.5859 91.3176 48.5193 91.3176 48.4527L91.2842 48.486C91.2842 48.3861 91.351 48.3361 91.2842 48.2362C91.2508 48.2029 91.2508 48.3361 91.2341 48.2362C91.2341 48.103 91.2675 47.9032 91.2675 47.7533C91.2341 47.7866 91.2341 47.7533 91.2174 47.7033H91.2508C91.184 47.5368 91.3175 47.5868 91.2508 47.4536H91.2007C91.1172 47.337 91.2508 47.337 91.1506 47.2205C91.1506 47.2871 91.0838 47.2871 91.0838 47.2038H91.1173C91.1173 47.2038 91.0839 47.1538 91.1005 47.1372C91.1172 47.1538 91.1506 47.1372 91.1339 47.0706H91.184L91.1173 47.004C91.1339 46.9041 91.0839 46.7875 91.1173 46.7209C91.1173 46.7209 91.1173 46.521 91.0672 46.5044C91.1006 46.521 91.1005 46.4212 91.1339 46.4378C91.1005 46.4045 91.0505 46.2712 91.0838 46.188C91.0838 45.9548 91.0004 45.8383 91.0171 45.6218C90.9837 45.6385 90.9837 45.5385 90.9503 45.5719C90.8836 45.3887 91.0171 45.1556 90.8502 45.1389C90.8502 45.0557 90.8669 45.0223 90.8835 44.9557C90.8835 44.9557 90.8669 44.8558 90.8669 44.8225C90.9003 44.7559 90.917 44.6726 90.917 44.5894C90.9503 43.2905 90.9169 42.0083 90.8502 40.7427C90.7834 39.627 90.7166 38.478 90.316 37.5788C90.316 37.5455 90.2826 37.5121 90.2659 37.4955C90.316 37.3789 90.3494 37.2457 90.316 37.1125C90.2993 36.9793 90.266 36.846 90.2326 36.7295C90.2326 36.6129 90.1992 36.4964 90.1658 36.3798C90.1157 36.1633 90.0656 35.9468 89.9989 35.747C89.9989 35.6471 89.9655 35.5472 89.9488 35.4639C89.7652 34.3982 89.4647 33.3158 88.6802 33.016C88.7136 32.8995 88.7136 32.7662 88.6802 32.6663C88.4298 32.0335 87.7955 32.0668 87.3281 31.9503C86.9442 31.8503 86.577 31.7338 86.1764 31.7172C85.7925 31.6839 85.3919 31.6172 85.008 31.7005C84.3403 31.8337 83.5891 32.4499 83.0049 33.016C82.4207 33.5656 81.7197 34.1817 81.319 35.031C81.2523 35.1642 81.2523 35.2974 81.269 35.4139C81.1688 35.4805 81.052 35.5638 80.9685 35.6471C80.5512 36.0634 80.184 36.5796 79.8168 37.0459C78.9822 38.095 78.1977 39.2273 77.4465 40.393C77.0793 40.9425 76.7121 41.492 76.3782 42.0915C76.1112 42.5744 75.8941 43.0907 75.6271 43.5902C75.6271 43.5902 75.5937 43.6069 75.577 43.6735V43.6402V43.6901C75.577 43.6901 75.577 43.6901 75.577 43.7068C75.5102 43.8234 75.4435 43.9233 75.3767 44.0399C75.2932 44.1731 75.2265 44.2896 75.143 44.4228C75.1263 44.4561 75.0762 44.5228 75.0429 44.5894V44.6227C75.0429 44.6227 74.9594 44.656 74.9594 44.6227C74.9594 44.706 74.8759 44.8558 74.8259 44.8725C74.6923 44.989 74.6589 45.1556 74.5588 45.2888C74.5421 45.3221 74.5087 45.3554 74.492 45.372C74.492 45.3887 74.4586 45.4053 74.4419 45.422C74.0914 45.805 73.7576 46.1048 73.6908 46.7542C73.6908 46.7542 73.6908 46.7875 73.6908 46.8042C73.6741 46.8375 73.6574 46.8541 73.6407 46.8374C73.574 46.954 73.5239 47.0706 73.4738 47.1705C73.4404 47.2371 73.3903 47.3037 73.357 47.3537C73.357 47.337 73.357 47.3037 73.3737 47.287L73.3069 47.4203C73.3069 47.4203 73.3403 47.337 73.357 47.287C73.2234 47.3703 73.2067 47.6201 73.0732 47.7367V47.7866C73.0732 47.8033 73.0398 47.8366 73.0231 47.8532C73.0231 47.8532 72.9897 47.8532 72.9564 47.8866C72.9063 47.9199 72.8562 48.0531 72.8228 48.153C72.8061 48.1863 72.7727 48.2196 72.756 48.2529C72.756 48.2529 72.7394 48.2862 72.7227 48.3029C72.7227 48.3029 72.7227 48.3028 72.7227 48.2862C72.6225 48.4194 72.6559 48.3861 72.5891 48.486C72.2386 48.9689 71.8714 49.4352 71.4875 49.8682C70.5527 50.9339 69.4844 51.6167 68.9503 50.0014C68.8668 49.7682 68.8167 49.5185 68.75 49.2687C68.75 49.2354 68.7667 49.2021 68.7834 49.1688C68.9169 48.3694 68.8835 47.5368 68.9169 46.7375C68.9336 46.3545 68.9503 45.9715 68.967 45.5719C69.1005 44.5727 69.2007 43.5903 69.3342 42.5911C69.4344 41.8085 69.5512 41.0258 69.5846 40.2598C69.668 39.96 69.7348 39.6769 69.8016 39.3772C69.8016 39.3605 69.8016 39.3439 69.8016 39.3272C70.0019 38.6278 70.1855 37.9118 70.3691 37.1957C70.5861 36.2799 70.8198 35.3807 71.0535 34.4648C71.1202 34.3815 71.187 34.2816 71.2705 34.1484C71.3873 33.8819 71.4374 33.6988 71.3706 33.4823C71.5042 33.4823 71.4374 33.2491 71.4875 33.1825C71.4374 32.9993 71.6377 32.8329 71.5876 32.6497C71.5876 32.6497 71.621 32.6663 71.621 32.6996C71.621 32.5664 71.621 32.3832 71.7045 32.3999C71.7378 32.1001 71.8547 31.6672 71.7712 31.4507H71.7879C71.7879 31.4507 71.7545 31.3841 71.7712 31.3508C71.8881 30.9511 71.9882 30.5348 72.0216 30.1185C72.0216 29.952 72.0049 29.8521 71.9382 29.7855C71.9382 29.6689 71.9715 29.5523 71.9715 29.4357C71.9715 29.4024 71.9715 29.3858 71.9715 29.3525C71.9715 29.3525 71.9715 29.3359 71.9715 29.3192H72.0216C71.9382 29.136 72.1217 28.9695 72.055 28.853C72.055 28.853 72.055 28.8363 72.055 28.8196C72.055 28.803 72.055 28.7863 72.055 28.7697C72.0884 28.6698 72.2052 28.6864 72.1385 28.5366L72.2219 28.4699C72.2219 28.4699 72.1384 28.4033 72.1885 28.3201C72.2386 28.3201 72.2386 28.2035 72.272 28.2701C72.3721 28.0703 72.2386 27.8371 72.4222 27.5874C72.3554 27.5208 72.4222 27.3875 72.3721 27.3209C72.4055 27.3209 72.4389 27.0545 72.489 27.221C72.489 27.221 72.489 27.2543 72.4723 27.2543L72.5224 27.2876C72.5224 27.2876 72.5891 27.1544 72.5891 27.0711C72.5891 26.9712 72.5724 26.888 72.5891 26.8047C72.5558 26.8547 72.5557 26.9213 72.5224 26.8713L72.5557 26.7048L72.5891 26.7381L72.6559 26.4883L72.5891 26.5216C72.6392 26.405 72.7394 26.3717 72.6726 26.2219C72.6726 26.2052 72.6559 26.2219 72.6392 26.2219C72.6726 26.1719 72.7227 26.1053 72.7728 26.022H72.7894C72.8562 25.7889 72.8729 25.6224 72.7894 25.4892C72.8562 25.4558 72.8562 25.4225 72.8562 25.3726C72.8562 25.3559 72.8729 25.3226 72.8562 25.2727H72.8395V25.2394C72.7394 25.1395 72.9063 24.9397 72.8228 24.8397C72.8228 24.8397 72.8729 24.8397 72.8729 24.8564C72.8729 24.8564 72.8729 24.8231 72.8729 24.8064C72.8562 24.7231 72.8395 24.6566 72.9063 24.6233C72.9063 24.5733 72.9063 24.5233 72.8896 24.4734C72.923 24.2902 72.9563 24.0904 72.9897 23.9072C72.9897 23.9072 72.9897 23.9072 72.9897 23.8905C73.0732 23.4076 73.1233 22.9247 73.0732 22.4584C73.0565 22.2419 72.923 22.1587 72.7728 22.1754C72.7728 22.0754 72.8228 22.0421 72.8395 21.9755C72.8061 21.7757 72.8061 21.7258 72.8061 21.5592C72.8061 21.5259 72.7727 21.5259 72.756 21.5093C72.756 21.426 72.756 21.3427 72.756 21.2428C72.756 21.1263 72.756 21.0263 72.756 20.9098C72.7227 20.0771 72.539 19.2945 72.3387 18.5618C71.9882 15.5477 70.8532 13.283 69.1506 12.0174C68.9837 11.7843 68.8167 11.5345 68.6164 11.3347C67.6984 10.3855 66.4966 10.4188 65.3114 10.5021C64.9609 10.5354 64.6104 10.6353 64.2765 10.7518C64.2765 10.7019 64.2765 10.6686 64.2431 10.6186C64.2098 10.5021 64.1764 10.4021 64.143 10.2856C64.143 10.2356 64.143 10.1857 64.1263 10.1357C64.1263 10.0358 64.0929 9.96918 64.0428 9.91922C63.9928 9.68609 63.9427 9.46962 63.8759 9.25314C63.7758 8.9867 63.6756 8.73695 63.5588 8.50381C63.2082 7.57128 62.7909 6.72198 62.2902 5.97263C62.2902 5.93932 62.2902 5.90604 62.3069 5.88939C62.2067 5.70621 62.1066 5.37314 61.9396 5.33983H61.9564C61.8562 5.33983 61.9063 5.23992 61.8228 5.18997C61.8228 5.18997 61.8228 5.17333 61.8228 5.15668C61.7227 5.15668 61.6893 4.92354 61.6225 4.89024L61.6559 4.84028C61.6559 4.84028 61.5891 4.74037 61.5557 4.69042L61.5891 4.75704C61.4723 4.87361 61.5891 4.55719 61.4389 4.52388C61.4055 4.44062 61.272 4.52388 61.1718 4.52388C61.1384 4.49058 61.1217 4.45728 61.0884 4.42397C61.1051 4.40732 61.1217 4.37402 61.0884 4.37402C61.1384 4.29076 61.1384 4.35737 61.1718 4.27411C61.0884 4.25746 61.1217 4.09091 61.0216 4.09091L61.055 4.02433C60.9047 4.05764 60.9715 3.79119 60.8714 3.8578C60.838 3.8578 60.838 3.77454 60.8547 3.70794C60.8547 3.65798 60.8547 3.59136 60.7712 3.59136C60.7712 3.5414 60.7712 3.50812 60.7712 3.45816C60.7378 3.39155 60.6711 3.52474 60.6377 3.42482C60.6711 3.37487 60.5876 3.30828 60.6544 3.29163C60.5709 3.07515 60.3372 3.20833 60.2704 2.94189C60.187 3.04181 60.1369 2.90864 60.0701 2.9919C60.0868 2.94194 59.9199 2.87532 60.0701 2.82536C60.0701 2.82536 60.0868 2.82535 60.0701 2.85865L60.1035 2.79203C60.0702 2.60885 59.9199 2.75876 59.8365 2.6755C59.8365 2.7088 59.8865 2.72544 59.8365 2.75874L59.753 2.69212L59.7864 2.64216L59.6862 2.52558V2.60888C59.6862 2.60888 59.6529 2.3924 59.5527 2.45901C59.5193 2.49232 59.5527 2.54227 59.536 2.55892C59.5026 2.52562 59.4692 2.49232 59.4358 2.45901C59.4358 2.44236 59.4025 2.40904 59.4025 2.39239C59.3524 2.32578 59.3357 2.27581 59.2522 2.22585C59.2522 2.24251 59.2522 2.25916 59.2522 2.27581C59.2355 2.25916 59.2188 2.24251 59.2022 2.22585C59.1688 2.2092 59.1521 2.17593 59.1187 2.15928C59.1187 2.10932 59.1187 2.05934 59.0353 2.07599C59.0353 2.07599 58.9852 2.05936 58.9685 2.0427C58.2674 1.49318 57.4495 1.42653 56.6316 1.27666C56.4981 1.24336 56.3645 1.21005 56.231 1.17675C56.0808 1.11014 55.9305 0.993587 55.7803 0.87702C55.5466 0.710497 55.2962 0.610581 55.0458 0.510667C54.495 0.294187 53.9108 0.210938 53.3266 0.210938C53.1597 0.210938 52.9928 0.227588 52.8258 0.260892C52.6255 0.260892 52.4085 0.277545 52.2082 0.260892C51.841 0.260892 51.4905 0.260907 51.1232 0.327516C51.1232 0.327516 51.0899 0.327516 51.0732 0.327516C48.2021 0.377473 45.2477 1.24339 42.3099 2.60888C42.2431 2.60888 42.1596 2.62551 42.0929 2.64216C41.8592 2.69212 41.6088 2.74207 41.3584 2.84198C41.1247 2.9419 40.9078 3.12509 40.6741 3.225C40.2401 3.39153 39.7894 3.35821 39.3554 3.57469C39.1551 3.6746 38.9548 3.85781 38.7378 3.92442C38.5041 4.00769 38.2537 4.02431 38.02 4.10758C37.5526 4.2741 37.0686 4.49057 36.6346 4.82361C36.2006 5.15666 35.7499 5.48972 35.3159 5.82276C34.8986 6.13916 34.4479 6.33899 34.014 6.60542C33.4798 6.93847 33.0959 7.43804 32.6452 7.95426C32.3948 8.23735 32.1444 8.50377 31.8941 8.77021C31.5769 8.98669 31.2765 9.21982 30.976 9.45296C29.891 10.2689 28.8061 11.1348 27.7545 12.0507C27.1202 12.6169 26.4859 13.2164 25.9016 13.8991C25.6513 14.1822 25.4009 14.4653 25.1672 14.7817C25.1338 14.815 25.1171 14.865 25.1004 14.9149C25.0837 14.9149 24.8668 15.0981 24.8668 15.2313C24.8834 15.1314 24.7666 15.2313 24.7666 15.1314C24.7332 15.248 24.5997 15.4811 24.4995 15.4811C24.2325 15.6477 24.1323 15.9973 23.8819 16.1306C23.9153 16.1805 23.7985 16.2638 23.8485 16.3304C23.7651 16.4136 23.6816 16.4969 23.6149 16.5802C23.5314 16.6301 23.4646 16.6801 23.4312 16.78C23.0974 17.1297 22.7636 17.496 22.4297 17.8291C21.3113 18.9448 20.1429 19.9606 19.108 21.2761C18.6239 21.6258 18.2567 22.1587 17.9229 22.7582C17.7727 22.9247 17.6224 23.0746 17.4889 23.2411C16.6877 24.107 15.9198 25.0395 15.1687 26.0054C13.6664 27.9204 12.0974 29.9353 10.8955 32.25C10.5784 32.8828 10.2446 33.449 9.86065 34.0151C9.62696 34.3648 9.30981 34.8311 9.15959 35.314C9.05943 35.4972 8.97598 35.6804 8.87582 35.8636C8.79237 35.8969 8.72558 35.9801 8.6755 36.0967C8.60874 36.2465 8.52528 36.4131 8.44182 36.5629C8.37505 36.6462 8.30828 36.7295 8.2582 36.7961C8.09128 37.0126 7.95777 37.2457 7.80754 37.4788C7.674 37.6787 7.55716 37.8952 7.44031 38.1116C7.40693 38.1616 7.37354 38.1949 7.35685 38.2448C6.98962 38.7777 6.58901 39.2107 6.30524 39.8268C6.27186 39.9101 6.25517 39.9767 6.25517 40.0599C6.05487 40.393 5.87127 40.7261 5.67097 41.0758C5.47066 41.4255 5.28705 41.7918 5.12013 42.1581C5.10344 42.1581 5.08673 42.2081 5.05335 42.2747C4.95319 42.4912 4.85305 42.7076 4.7529 42.9075V42.8409L4.73619 42.9408C4.66943 43.074 4.60267 43.2072 4.5359 43.3571C4.50251 43.4071 4.46913 43.4404 4.43575 43.4404C4.43575 43.4404 4.23544 43.7068 4.26882 43.84C4.26882 43.7401 4.16867 43.89 4.13528 43.8067C4.13528 43.9233 4.05185 44.1897 3.95169 44.2397C3.7347 44.5061 3.7347 44.8392 3.53439 45.089C3.58447 45.1056 3.53439 45.2055 3.53439 45.2388C3.21725 45.8383 2.93348 46.4544 2.6998 47.0872C2.6998 47.0872 2.6831 47.1539 2.6664 47.1705C2.6664 47.1705 2.66639 47.2038 2.6497 47.2038C2.59962 47.3037 2.54955 47.4036 2.49947 47.5035C2.46609 47.5535 2.44939 47.6035 2.41601 47.6701C2.41601 47.6701 2.41601 47.6701 2.41601 47.6867C2.21571 48.0697 1.91526 48.5526 1.84849 49.0189C1.84849 49.0189 1.8485 49.0355 1.8318 49.0522V49.1355C1.8318 49.1355 1.8318 49.1521 1.8318 49.1688C1.8318 49.2021 1.8318 49.2354 1.8318 49.2687V49.2853C1.76504 49.2853 1.73166 49.2187 1.68158 49.352C1.59812 49.4352 1.56472 49.685 1.53134 49.8348C1.56472 49.7682 1.58141 49.8015 1.58141 49.8348C1.54803 49.9015 1.49797 49.9181 1.49797 49.9847L1.43119 49.9514C1.43119 49.9514 1.4145 50.1679 1.43119 50.2179C1.36442 50.2179 1.43119 50.0846 1.43119 50.0513C1.31434 50.3344 1.38113 50.1846 1.26428 50.4676C1.24759 50.6508 1.33103 50.4677 1.34772 50.5842C1.29765 50.7174 1.28096 50.8839 1.1975 51.0338H1.26428C1.21421 51.3003 1.16411 51.4501 1.06396 51.6167C1.06396 51.6666 1.06396 51.7166 1.06396 51.7499C0.71343 52.5326 0.37959 53.3152 0.0457498 54.1145C-0.137862 54.5308 0.279447 54.8139 0.446367 54.3976C0.696746 53.8148 0.94713 53.2486 1.18082 52.6824C1.23089 52.749 1.28096 52.749 1.33104 52.6824C1.39781 52.6158 1.46458 52.4826 1.51465 52.3826C1.56473 52.2661 1.59812 52.1828 1.59812 52.1828C1.74835 51.8331 1.79841 51.6 1.84849 51.3502C1.84849 51.2836 1.88187 51.2337 1.89856 51.1671C1.91525 51.1004 1.93196 51.0172 1.96534 50.9506C3.1004 48.4527 4.28552 46.0048 5.55411 43.6069C5.93803 42.9575 6.32196 42.2914 6.68918 41.6253C7.64062 40.3264 8.49191 38.9109 9.39327 37.5621C9.69373 37.0958 9.99418 36.6295 10.2779 36.1466C10.5951 35.8136 10.9456 35.5139 11.1626 35.0642C11.1793 35.0642 11.196 34.981 11.196 34.9643L11.5966 34.4314C11.5966 34.4314 12.3978 33.349 12.4646 32.9161C12.9153 32.3332 13.366 31.7338 13.8 31.1343C15.1854 29.2193 16.5875 27.3209 17.9563 25.4059C18.6406 24.4401 19.3751 23.4909 20.0261 22.4584C20.5602 21.8589 21.111 21.2928 21.6452 20.6767C21.7286 20.5767 21.8121 20.4768 21.8956 20.3769C21.9457 20.3103 22.0124 20.2603 22.0625 20.1937C23.1642 18.9781 24.2825 17.7458 25.3842 16.5302C25.3842 16.6468 25.4009 16.7134 25.4677 16.7301C25.6012 16.7634 25.8516 16.5968 25.8516 16.5968C26.3857 16.3137 26.5526 15.8808 27.1035 15.3146C27.6209 14.915 27.8045 14.9316 28.3053 14.432C28.5557 14.2322 28.8227 13.9658 29.0731 13.7493C29.1566 13.5328 29.407 13.4662 29.5071 13.2664H29.5739C29.5739 13.2664 29.6573 13.1498 29.7241 13.1498C29.7241 13.1498 29.8743 13.0332 29.891 12.9833L29.9745 12.9333V12.9666C30.0746 12.8168 30.2082 12.7169 30.325 12.6669L30.2916 12.6003C30.5587 12.517 30.6088 12.2839 30.8592 12.2172C31.0929 11.8176 31.3599 12.0507 31.5936 11.6344C31.5602 11.6844 31.627 11.6677 31.627 11.6844C31.7605 11.5511 31.8941 11.4346 31.8607 11.2681C31.9608 11.1848 31.9608 11.2681 31.9775 11.3014C31.9608 11.2348 32.0276 11.1348 32.1111 11.0682L32.0777 11.1182L32.2947 10.9184L32.2112 10.8351C32.3448 10.7685 32.2947 10.9683 32.3948 10.8351L32.3614 10.7352C32.5284 10.6187 32.6619 10.7019 32.8455 10.6519C33.1627 10.4021 33.4798 10.0858 33.797 9.78602C34.1141 9.48628 34.4313 9.21986 34.7484 9.06999L34.7985 9.11994C34.8486 9.21986 34.9153 8.82019 34.9654 8.90345L35.0155 8.78687C35.0155 8.78687 35.0822 8.78687 35.0656 8.83683C35.1323 8.78687 35.1323 8.77024 35.1657 8.70363H35.2492C35.5162 8.57041 35.6998 8.254 35.9669 8.05417C36.2173 7.97091 36.5344 7.65452 36.8182 7.33813C36.9184 7.37143 37.0686 7.30484 37.0686 7.30484C37.2856 7.23823 37.4024 7.105 37.5026 6.97178C37.5527 6.90517 37.6027 6.8219 37.6528 6.75529C37.7029 6.68868 37.7529 6.62209 37.8364 6.57214C37.9866 6.50553 38.1202 6.5055 38.2537 6.48885C38.3872 6.45554 38.5208 6.40558 38.7044 6.27236C38.888 6.17244 39.0716 6.02262 39.2386 5.90605C39.2886 5.73953 39.4555 5.7728 39.5223 5.60627L39.5724 5.65623C39.5724 5.65623 39.6225 5.55634 39.6725 5.57299C39.6725 5.57299 39.7727 5.52304 39.7894 5.47308L39.8395 5.45641V5.48975C39.9062 5.38983 39.9897 5.33983 40.0564 5.33983V5.25659C40.2234 5.28989 40.2568 5.0734 40.4237 5.14001C40.5906 4.85692 40.7408 5.18998 40.9244 4.89024C40.9077 4.92354 40.9244 4.92356 40.9244 4.95686C41.0079 4.89025 41.1081 4.84027 41.0914 4.67375C41.1581 4.6571 41.1414 4.70705 41.1581 4.77366C41.1581 4.6904 41.2082 4.64045 41.2583 4.62379V4.65713L41.3751 4.57384L41.3417 4.44064C41.3417 4.44064 41.3751 4.60716 41.4419 4.54055V4.42397C41.542 4.40732 41.6255 4.55717 41.7256 4.60712C42.1763 4.49056 42.627 4.02433 43.061 4.07429V4.15753C43.0944 4.29075 43.1945 3.92439 43.2112 4.04095L43.2613 3.95771C43.2613 3.95771 43.3114 3.99103 43.278 4.02433C43.3281 4.02433 43.3281 3.991 43.3448 3.94104L43.3948 4.00767C43.5785 4.00767 43.712 3.7912 43.8956 3.75789C44.0125 3.80785 44.1627 3.75789 44.3296 3.65798C44.4965 3.57472 44.6634 3.45813 44.7803 3.37487C45.1141 3.05847 45.5314 3.44149 45.8652 3.12509C45.8652 3.12509 45.8986 3.09179 45.8986 3.07514L46.2158 3.00852C46.2158 3.00852 46.583 2.92526 46.8167 2.75874C46.9336 2.67548 47.017 2.57555 47.017 2.42567C47.1839 2.35907 47.3508 2.2925 47.5345 2.20924C47.7681 2.22589 48.0185 2.24252 48.2522 2.24252C48.4358 2.24252 48.6194 2.19258 48.8031 2.20924C49.0034 2.22589 49.187 2.24252 49.3873 2.24252C49.8046 2.24252 50.2052 2.19258 50.6058 2.20924C51.0064 2.20924 51.4237 2.17592 51.841 2.14261C52.5921 2.09266 53.36 1.99275 54.1111 1.89284C54.1612 2.04271 54.2947 2.12594 54.2947 2.12594C54.5952 2.39238 54.8288 2.15925 55.2295 2.1759C55.5633 2.30912 55.5967 2.4923 55.9472 2.54225C56.0975 2.60886 56.2644 2.65885 56.3979 2.72545C56.4313 2.7088 56.448 2.70879 56.4814 2.70879C56.4814 2.70879 56.4981 2.70879 56.5147 2.70879L56.5648 2.74207C56.5648 2.74207 56.7151 2.82535 56.7818 2.8087L56.8152 2.89194C56.8152 2.89194 56.9154 2.85863 56.9488 2.89194C56.9488 2.89194 57.0155 2.89194 57.0489 2.89194C57.0823 2.89194 57.0823 2.89194 57.099 2.89194L57.1491 2.90861V2.94189C57.1491 2.94189 57.2826 2.94194 57.3327 2.9919V2.90861C57.4662 3.07513 57.583 2.94192 57.7333 3.12509C57.8835 3.07514 57.9503 3.12511 58.0337 3.19172C58.1172 3.25833 58.1839 3.30825 58.3175 3.20834C58.2841 3.22499 58.3175 3.25831 58.3175 3.27496C58.3676 3.27496 58.4176 3.27496 58.4677 3.225C58.6346 3.34157 58.8016 3.47481 59.0019 3.50812C59.0352 3.50812 59.0686 3.50812 59.102 3.50812C59.2355 3.60803 59.3858 3.65794 59.536 3.72455C59.6695 3.82447 59.7864 3.92439 59.9199 4.04095C59.9867 4.12421 60.0535 4.20752 60.1035 4.29078C60.1035 4.32408 60.1035 4.32405 60.1035 4.30739C60.1703 4.40731 60.2537 4.50721 60.3205 4.60712C60.7211 5.1733 61.1217 5.77283 61.5057 6.37232C61.539 6.5888 61.6058 6.80524 61.7393 6.90515C61.7393 6.93846 61.7727 6.93847 61.7894 6.92182L61.9564 7.30484C61.9564 7.30484 61.9563 7.33811 61.9897 7.37142C61.9897 7.38807 62.0231 7.4214 62.0398 7.45471C62.0398 7.47136 62.0398 7.47133 62.0398 7.47133C62.0398 7.47133 62.0398 7.47134 62.0398 7.488C62.0899 7.57126 62.1733 7.78775 62.2902 7.92097C62.3403 7.98758 62.407 8.03752 62.4738 8.05417C62.5072 8.12078 62.5406 8.17076 62.5739 8.23737C62.8243 8.67033 63.058 9.06995 63.2416 9.55287C63.3418 9.8193 63.3752 10.0858 63.4419 10.3689C63.4419 10.4188 63.4753 10.4688 63.492 10.5187C63.492 10.6186 63.5087 10.7019 63.5254 10.8018C63.4252 10.8184 63.3084 10.8518 63.2083 10.8684C62.8577 10.9184 62.5406 10.9517 62.19 11.0682C61.9564 11.1515 61.7393 11.2681 61.5223 11.3846C60.1536 11.8342 58.7682 12.5004 57.4328 13.283C57.3493 13.1998 57.2158 13.1331 57.0322 13.0998V13.0665C56.8319 13.1165 56.7151 13.1831 56.6316 13.3996C56.5648 13.2497 56.4814 13.4828 56.4313 13.4662C56.3645 13.6493 56.1809 13.5162 56.1142 13.6993C56.1142 13.6993 56.1142 13.6327 56.1142 13.616C56.0474 13.6993 55.9639 13.7992 55.9305 13.7159C55.8471 13.7992 55.7469 13.8825 55.6635 13.9658C55.58 14.049 55.5132 14.1323 55.4799 14.2322V14.1989C55.4465 14.3488 55.4131 14.2655 55.3463 14.3654C55.3463 14.3654 55.3463 14.3654 55.3463 14.3487C55.2962 14.4986 55.1627 14.4986 55.1126 14.5819V14.5153L54.9624 14.6152H55.0125C55.0292 14.7817 54.8789 14.5486 54.8122 14.7318C54.7454 14.7651 54.712 14.9816 54.6786 15.0981C54.6453 15.1148 54.6119 15.1481 54.5785 15.1647C54.5785 15.1314 54.5785 15.0981 54.5451 15.1647C54.5117 15.0815 54.5618 15.0815 54.5284 15.0315C54.4783 15.1314 54.3949 15.0315 54.3114 15.1647V15.0981C54.2113 15.3146 54.0443 15.198 54.0277 15.3646C53.9442 15.5144 53.8774 15.248 53.8273 15.4811L53.7439 15.4311C53.7439 15.4311 53.7439 15.5644 53.6771 15.5811C53.6604 15.5311 53.5937 15.5977 53.6104 15.5311C53.4601 15.5644 53.4267 15.8808 53.2097 15.8974C53.2097 16.0307 53.1263 16.0473 53.1263 16.1472C53.1096 16.1139 52.9761 16.2804 53.0261 16.1139C53.0261 16.1139 53.0428 16.0806 53.0428 16.1139V16.0473C52.8926 16.014 52.9093 16.2471 52.8258 16.2971C52.8592 16.2971 52.8926 16.2638 52.8759 16.3304L52.7924 16.3803V16.3138L52.6589 16.3803L52.6923 16.4303C52.6923 16.4303 52.5754 16.347 52.5254 16.4969C52.5254 16.5802 52.6088 16.5469 52.5588 16.6135C52.4586 16.6301 52.3251 16.6635 52.2082 16.7301C52.2416 16.7967 52.2082 16.8133 52.1915 16.8633V16.7966C52.0747 16.9798 52.0747 16.6801 51.9912 16.8633V16.9798C51.9412 17.1963 51.8911 16.8966 51.841 17.1797C51.8911 17.1297 51.9078 17.2962 51.841 17.3295V17.2629C51.841 17.2629 51.8076 17.3462 51.7909 17.3462C51.7909 17.2962 51.7575 17.2463 51.7242 17.2962V17.1963L51.6908 17.3795C51.6073 17.3795 51.5405 17.546 51.4905 17.4794C51.4905 17.4794 51.3402 17.5626 51.3569 17.6792C51.3569 17.5959 51.2902 17.6459 51.2735 17.546C51.2735 17.6459 51.19 17.7791 51.1232 17.7458C50.9563 17.7791 50.9229 18.0456 50.756 18.0622C50.7894 18.1288 50.7059 18.1455 50.756 18.2288C50.6559 18.4286 50.4389 18.2287 50.4723 18.5618C50.4055 18.6284 50.3721 18.5618 50.3387 18.5618V18.5285C50.3387 18.5285 50.2552 18.6284 50.2219 18.6451C50.1885 18.6784 50.1551 18.6784 50.0883 18.745C50.0383 18.8282 50.0883 18.9781 49.9715 19.0447C49.9715 18.9615 49.9381 19.0114 49.9047 19.0447C49.9214 19.0114 49.9047 18.9781 49.8547 19.0114C49.8547 19.0281 49.8547 19.0613 49.8547 19.078C49.8046 19.1613 49.838 19.1613 49.8547 19.1446C49.8547 19.1446 49.8546 19.1446 49.888 19.1613C49.7879 19.1779 49.7545 19.3611 49.6877 19.2945C49.5709 19.4943 49.5709 19.6609 49.5041 19.7941C49.4874 19.7608 49.4874 19.6941 49.5041 19.6608C49.5041 19.6941 49.4707 19.7108 49.454 19.7441C49.4207 19.6775 49.4707 19.6775 49.4874 19.6442C49.4374 19.6276 49.4206 19.6775 49.3873 19.7441C49.3873 19.7774 49.3539 19.7941 49.3372 19.8107C49.2537 19.7441 49.1369 19.7441 49.0201 19.8773C48.0519 20.8765 47.1005 21.9256 46.2325 23.1079C45.8152 23.6741 45.4313 24.2236 44.9639 24.7065C44.5132 25.1728 44.0959 25.7223 43.6953 26.2885C43.3281 26.838 43.0276 27.4542 42.6437 27.9704C42.4768 28.2035 42.41 28.42 42.3099 28.7197C42.193 29.0694 41.976 29.4358 41.8091 29.7688C41.1581 31.051 40.407 32.2334 39.8228 33.5822C39.5223 34.265 39.2886 34.9644 39.0049 35.6637C38.8713 36.0135 38.7044 36.3298 38.5542 36.6628C38.4206 36.9792 38.3038 37.3123 38.2036 37.6287C38.1702 37.662 38.1536 37.6953 38.1536 37.6953C37.9199 37.9451 37.9366 38.2115 37.8865 38.5446C37.8197 38.7444 37.753 38.9443 37.6695 39.1441C37.6027 39.2606 37.5526 39.3772 37.5193 39.5604C37.4692 39.6936 37.4191 39.8268 37.369 39.96C37.2522 40.2764 37.1353 40.5762 37.0519 40.9092C36.9684 41.2756 36.9184 41.6585 36.885 42.0249C36.885 42.1415 36.8516 42.2581 36.8516 42.3746C36.8015 42.3247 36.7514 42.3247 36.7014 42.358C36.5845 42.4246 36.4844 42.691 36.4844 42.691C36.234 43.2073 36.3341 43.5403 36.2841 44.223C36.1839 44.8225 36.0504 44.989 36.0504 45.5719C36.017 45.8549 36.0337 46.138 36.017 46.4045C36.1004 46.521 36.0003 46.7542 36.0504 46.8874L36.0003 46.954C36.0003 46.954 36.0337 47.0539 36.0003 47.1039C36.0003 47.1039 36.0003 47.2704 36.0003 47.3037V47.387H35.9836C36.017 47.5035 36.0003 47.6368 35.9836 47.77H36.0504C35.9502 48.0198 36.0838 48.1197 35.9669 48.3528C36.1005 48.6359 35.8167 48.8357 35.9335 49.1355C35.9335 49.1022 35.9001 49.1521 35.8834 49.1521C35.8834 49.302 35.8835 49.4519 36.017 49.4352C36.017 49.5351 35.9669 49.5185 35.9168 49.5351C35.9669 49.5351 35.9836 49.6184 35.9836 49.7016V49.6684L35.9669 49.9015L36.0671 49.8515C36.0337 49.9847 35.9335 49.9015 35.9502 50.018H36.0337C36.0003 50.1846 35.8668 50.3011 35.8 50.4676C35.7833 50.6508 35.7833 50.8174 35.7833 51.0005C35.7833 51.1837 35.8 51.3835 35.8167 51.5667C35.8501 51.9331 35.9002 52.2827 35.8668 52.6491L35.8167 52.7157C35.7332 52.7823 35.9836 52.8156 35.9002 52.8989L35.9502 52.9489C35.9502 52.9489 35.9335 53.0321 35.9002 53.0154C35.9002 53.0821 35.9168 53.0821 35.9669 53.1154L35.9335 53.2319C35.9335 53.5317 36.1171 53.6649 36.1839 53.948C36.1839 54.1478 36.2674 54.3809 36.3675 54.5641C36.4176 54.664 36.4844 54.7473 36.5511 54.8305C36.6012 54.8971 36.6513 54.9471 36.6847 54.9971C36.9684 55.2469 36.7514 56.0629 37.0853 56.4292C37.0853 56.4625 37.1187 56.4625 37.1353 56.4625L37.1854 56.5791C37.2522 56.7456 37.319 56.8288 37.369 56.9287C37.369 56.9287 37.6528 57.3284 37.753 57.395C37.7697 57.395 37.7697 57.395 37.803 57.395C37.8197 57.3784 37.8865 57.3783 37.8865 57.3783C37.8865 57.3783 37.8865 57.3783 37.9199 57.3783C37.9366 57.3783 37.9533 57.395 37.9867 57.395C38.02 57.395 38.0868 57.395 38.1369 57.2784C38.1536 57.2951 38.1703 57.3284 38.187 57.3451C38.6043 57.8113 39.0716 58.1277 39.6225 58.2443C39.7059 58.2609 39.7727 58.2443 39.8395 58.1943C40.1232 58.2776 40.4404 58.2776 40.7575 58.2443C40.9077 58.2276 41.058 58.1777 41.2082 58.1444C41.5587 58.1444 41.9259 58.1111 42.2932 58.0445C42.6437 58.0112 42.9776 58.0278 43.3281 58.0111C44.4131 57.9778 45.4647 57.3117 46.4328 56.3959C46.4328 56.3959 46.4495 56.3792 46.4662 56.3626C46.5162 56.3293 46.583 56.296 46.6331 56.2627C46.8 56.1461 46.9502 56.0129 47.1171 55.8796C47.1672 55.9129 47.2173 55.9296 47.2841 55.913C47.5845 55.8297 47.8516 55.5799 48.0853 55.2468C48.2856 55.0803 48.5026 54.8972 48.7029 54.714C49.1536 54.2977 49.5542 53.7814 49.9548 53.2652C50.3387 52.7823 50.7226 52.3327 51.1066 51.8664C51.4571 51.4501 51.6908 50.9672 51.9578 50.4676C52.0079 50.3844 52.058 50.2845 52.1081 50.1846C52.1081 50.1846 52.1414 50.118 52.1581 50.0847C52.2583 49.8848 52.2249 49.7016 52.1581 49.5684C52.1915 49.4851 52.2249 49.4019 52.2583 49.3186C52.4252 48.9856 52.5921 48.6525 52.7424 48.3195C54.8789 45.1722 56.7985 41.6919 58.4677 38.1116C58.8683 37.2291 59.2689 36.3465 59.6528 35.4473C59.6862 35.3973 59.7029 35.3307 59.7363 35.2641C60.0535 34.8144 60.3706 34.3482 60.6544 33.8487C61.105 33.0493 61.3721 32.1501 61.5891 31.2176C61.6225 31.0843 61.6058 30.9844 61.5891 30.9012C61.973 29.8354 62.2735 28.7364 62.5239 27.604C62.5739 27.5041 62.5906 27.4042 62.624 27.2876C62.6574 27.1877 62.7075 27.0711 62.7409 26.9712C62.7409 26.9546 62.7743 26.9213 62.791 26.9046C62.791 26.9046 62.791 26.888 62.791 26.8713C62.8243 26.7548 62.8744 26.6382 62.9078 26.5383L62.9412 26.5715C63.0914 26.4383 62.9912 26.2218 63.058 26.0553C63.058 26.0553 63.058 26.072 63.0413 26.0887C63.0413 26.0554 63.058 26.0221 63.0747 25.9888L63.1749 25.7723H63.1248C63.1916 25.689 63.2583 25.6557 63.2249 25.5225C63.2249 25.4892 63.2082 25.5058 63.1915 25.5225C63.2082 25.4559 63.2249 25.3726 63.2416 25.306C63.3084 25.1894 63.3585 25.0395 63.4085 24.9063C63.3585 24.9063 63.3585 24.873 63.3585 24.8231C63.3585 24.8231 63.3585 24.8064 63.3585 24.7898H63.4085C63.3919 24.5567 63.5421 24.7231 63.5254 24.49L63.4586 24.44C63.4586 24.44 63.4586 24.4234 63.4586 24.4068C63.4586 24.3568 63.492 24.3235 63.492 24.2736C63.492 24.2736 63.5254 24.2402 63.5087 24.1903C63.6088 23.8739 63.6923 23.5409 63.7925 23.2245C63.9761 22.6583 64.1263 22.1087 64.2765 21.5259C64.4101 20.9764 64.5603 20.4269 64.5937 19.844C64.5937 19.7108 64.5603 19.5943 64.5102 19.5276C64.6104 19.1113 64.6938 18.6784 64.6771 18.2787C64.6938 18.1622 64.7272 18.0622 64.7439 17.9457C64.8941 17.2296 65.0277 16.4969 64.8774 15.8474C64.9108 15.4811 64.9442 15.1314 64.9442 14.7651C64.9442 13.9158 64.794 13.2164 64.6104 12.467C64.6104 12.4171 64.5937 12.3671 64.577 12.3172C64.6104 12.1673 64.6104 12.0174 64.4935 11.9175C64.4935 11.8842 64.4935 11.8176 64.4935 11.7843C64.4935 11.7011 64.4935 11.6344 64.4935 11.5512C64.5102 11.5512 64.5436 11.5512 64.5603 11.5345C65.5618 11.4346 66.53 11.4846 67.4814 11.7677C67.7819 11.8509 68.0656 11.9841 68.3327 12.1173C68.5163 12.3172 68.6832 12.5503 68.8334 12.7834V12.8001C68.7667 13.2331 68.9336 13.2997 69.0337 13.5328C69.0838 13.7659 69.0338 13.9158 69.1506 14.1323C69.184 14.2488 69.2507 14.3654 69.3175 14.4653C69.3843 14.4653 69.3843 14.5985 69.451 14.6152V14.6651C69.451 14.6651 69.4844 14.6651 69.4844 14.7151C69.4844 14.7151 69.5178 14.7817 69.5512 14.7817L69.5679 14.815C69.5679 14.815 69.6514 14.8983 69.668 14.9483L69.7014 14.8983C69.7181 15.0315 69.8016 14.9816 69.8183 15.1148C69.9518 15.1148 69.8516 15.3479 70.0019 15.3479C69.9852 15.3479 70.0019 15.3812 69.9852 15.3812C70.0186 15.4145 70.052 15.4644 70.1187 15.3812C70.1354 15.4145 70.1187 15.4312 70.102 15.4645C70.1187 15.4312 70.1521 15.4478 70.1688 15.4645C70.1688 15.7809 70.3357 15.964 70.5026 16.3803C70.5026 16.4469 70.536 16.4969 70.536 16.5469C70.536 16.5968 70.5694 16.6634 70.5694 16.6801C70.5694 16.73 70.5694 16.78 70.5694 16.83C70.5694 16.9299 70.5694 16.9965 70.6028 17.1797C70.6028 17.2796 70.6195 17.3795 70.6529 17.4961C70.6696 17.6126 70.7029 17.7625 70.7363 17.8624C70.8532 17.9124 70.8198 18.1621 70.9199 18.2121L70.8866 18.2953C70.8866 18.2953 70.9533 18.3453 70.9366 18.3953C70.9366 18.3953 70.9867 18.5118 71.0201 18.5118L71.0535 18.5784H71.0368C71.0368 18.5784 71.1369 18.7283 71.1369 18.8116L71.187 18.7616C71.1703 18.9781 71.3038 18.9448 71.2705 19.1613C71.4875 19.2612 71.2371 19.5776 71.4541 19.6942C71.4207 19.6942 71.4207 19.7275 71.404 19.7441C71.4541 19.844 71.4875 19.9439 71.6043 19.8607C71.621 19.9439 71.5876 19.944 71.5375 19.9939C71.5876 19.9606 71.621 19.9939 71.6544 20.0605H71.621L71.6878 20.1937L71.7545 20.1105C71.7545 20.1105 71.7545 20.1271 71.7545 20.1438C71.7212 20.1937 71.6711 20.2104 71.7045 20.2603L71.7545 20.2104C71.7545 20.2104 71.7545 20.277 71.7545 20.3103C71.7212 20.4102 71.6711 20.5268 71.6544 20.6267C71.6878 20.8265 71.7712 21.0097 71.8547 21.1929C71.8881 21.3927 71.9048 21.6092 71.9548 21.809C71.9548 21.8756 71.9882 21.9422 71.9882 22.0088C71.9882 22.0088 71.9882 22.0588 72.0049 22.0754C72.0216 22.1587 72.0383 22.2586 72.055 22.3419C72.055 22.4585 72.0717 22.5251 72.1051 22.6083C72.0216 23.724 71.8714 24.8564 71.7045 25.9554C71.621 26.5216 71.5042 27.0878 71.404 27.654C71.2705 27.9371 71.2204 28.2868 71.1536 28.6198C71.0535 29.186 70.9366 29.7522 70.8365 30.335C70.7029 30.9012 70.5861 31.4673 70.4526 32.0502C70.2189 32.633 70.102 33.3324 69.9685 33.9319C69.8683 34.3982 69.7682 34.8644 69.668 35.3474C69.3175 36.6629 68.967 37.9784 68.7166 39.3106C68.6164 39.7103 68.533 40.0933 68.4328 40.4929C68.3828 40.726 68.3327 40.9758 68.2993 41.209C68.1991 41.2922 68.099 41.4421 68.0823 41.6419C68.0489 41.8584 68.0322 42.0915 68.0322 42.308C68.0322 42.3247 68.0322 42.3413 68.0322 42.358C67.9988 42.4745 67.9822 42.5745 67.9488 42.691C67.8987 42.9075 67.9488 43.0574 68.0155 43.1406C68.0155 43.3904 67.9988 43.6402 67.9821 43.89C67.8987 43.9733 67.8319 44.1231 67.8486 44.2896C67.8486 44.3229 67.8486 44.3729 67.8486 44.4062C67.8486 44.4395 67.8486 44.4895 67.8486 44.5394C67.8486 44.6726 67.8653 44.8058 67.882 44.9391C67.882 45.372 67.882 45.8216 67.882 46.2546C67.882 46.5543 67.882 46.9707 67.9655 47.2704C67.9154 47.8366 67.9321 48.4028 68.1657 48.8024C68.1824 48.8357 68.2158 48.8524 68.2325 48.869C68.2325 49.0189 68.2659 49.1688 68.316 49.3186C68.3327 49.3686 68.3661 49.4019 68.3994 49.4352C68.5497 50.3344 68.8334 51.1337 69.3676 51.5001C70.1354 52.0163 71.0869 51.2004 71.7879 50.4344C72.0049 50.2012 72.2052 49.9681 72.3888 49.7183C72.706 49.4685 72.8395 49.2021 73.0565 48.8357C73.19 48.6359 73.3236 48.4527 73.4571 48.2529C73.6074 48.0697 73.7242 47.9365 73.9078 47.6034C74.0246 47.4203 74.1415 47.2204 74.2583 47.0373C74.6089 46.8707 74.9093 46.2713 75.2098 45.9549C75.5603 45.5552 75.9108 45.1555 76.2614 44.7392C76.4116 44.7892 76.6119 44.6726 76.6954 44.3729C76.712 44.273 76.7621 44.1731 76.8122 44.0898C77.1794 43.6236 77.5466 43.1573 77.8972 42.691C78.1809 42.308 78.5482 41.9084 78.665 41.3755C78.7485 41.2589 78.8319 41.159 78.8987 41.0424C78.9154 40.9092 79.0489 40.8426 79.099 40.7094H79.1491C79.1491 40.7094 79.1825 40.6095 79.2159 40.6095C79.2159 40.6095 79.2826 40.5095 79.2993 40.4762L79.3327 40.4263C79.3327 40.4263 79.4329 40.2598 79.4996 40.2098L79.4662 40.1765C79.5998 40.0766 79.5998 39.9434 79.7333 39.8601C79.8001 39.6103 79.9837 39.677 80.0671 39.4105C80.0671 39.4438 80.0838 39.4105 80.0838 39.4271C80.1339 39.3439 80.2007 39.244 80.1673 39.1774C80.2174 39.1274 80.2174 39.1607 80.2341 39.1774C80.2174 39.1441 80.2341 39.0775 80.2841 39.0275V39.0608L80.3676 38.9109L80.3175 38.8776C80.3175 38.8776 80.3843 38.9276 80.4177 38.8443L80.3843 38.7944C80.4678 38.7111 80.5512 38.7278 80.6514 38.6611C80.9518 38.2781 81.1855 37.7453 81.5193 37.5288L81.5527 37.5621C81.5527 37.5621 81.5861 37.3789 81.6195 37.4289V37.3623C81.6195 37.3623 81.6863 37.3623 81.6696 37.3789C81.703 37.3456 81.703 37.3289 81.7197 37.2956H81.7697C81.9033 37.1957 81.9867 37.0126 82.137 36.8793C82.3373 36.7961 82.621 36.3798 82.7712 36.1466C82.9715 35.7803 83.3555 35.697 83.5558 35.314L83.5725 35.2641L83.6225 35.1975L83.6726 35.1642L83.7895 35.0642C83.7895 35.0642 83.8562 34.9976 83.9731 34.8977C84.0231 34.8477 84.0732 34.7978 84.1233 34.7312C84.1233 34.7312 84.1567 34.7312 84.1734 34.7312V34.6813C84.2902 34.6813 84.3236 34.5813 84.4238 34.6146C84.5573 34.4481 84.6408 34.6646 84.7743 34.4814C84.7576 34.4981 84.7743 34.5147 84.7743 34.5147C84.8411 34.4814 84.9078 34.4648 84.9078 34.3482C84.9579 34.3482 84.9412 34.3649 84.9579 34.4148C84.9579 34.3649 84.9913 34.3315 85.0247 34.3315L85.1248 34.3149V34.2316C85.1248 34.2316 85.1248 34.3316 85.1749 34.2982V34.2316C85.1749 34.2316 85.2917 34.3316 85.3585 34.3649C85.5087 34.3649 85.659 34.2816 85.8259 34.2316C85.9928 34.1817 86.1431 34.1484 86.2766 34.1817V34.2316C86.2766 34.2316 86.3767 34.0984 86.3767 34.165L86.4101 34.115C86.4101 34.115 86.4435 34.1317 86.4101 34.165C86.4435 34.165 86.4435 34.165 86.4602 34.115L86.4935 34.165C86.6104 34.1817 86.7106 34.0651 86.8441 34.0651C86.9943 34.1484 87.2781 34.0152 87.445 33.9486C87.5618 33.882 87.6787 33.9485 87.7955 33.9818C87.8122 33.9818 87.8456 33.9819 87.8623 33.9985C88.1461 34.2983 88.4298 34.6146 88.6802 34.9643C88.7303 35.0642 88.7637 35.1642 88.797 35.2474C88.9974 35.7137 89.1976 36.1633 89.4146 36.6129C89.882 38.9442 90.0323 41.4421 90.1157 43.9566C90.099 44.5228 90.0656 45.0723 90.0489 45.6385C90.0322 45.6884 89.9989 45.7384 89.9822 45.7883C89.6149 47.2204 89.615 48.6858 89.6484 50.1013C89.6817 51.5001 89.7318 52.9155 89.8987 54.2644C89.9321 54.4642 89.9488 54.6807 89.9822 54.8805C89.9822 55.0137 89.9822 55.1802 89.9822 55.4134C89.9822 55.7298 89.9822 55.8797 89.9655 56.0628C89.9655 56.246 89.9655 56.4125 90.0323 56.6623C90.0657 56.9121 90.1324 57.1619 90.1825 57.3783C90.1825 57.3783 90.1992 57.4116 90.2159 57.4283C90.2159 57.6448 90.2159 57.8446 90.2659 58.0111C90.2659 58.0778 90.2659 58.1444 90.2659 58.211C90.3494 58.6273 90.4663 59.0103 90.5998 59.3933C90.7333 60.126 90.6999 60.4257 90.9503 61.1751C91.0505 61.5581 91.184 61.9411 91.3008 62.2908C91.401 62.424 91.4511 62.7571 91.5679 62.9236V63.0235C91.5679 63.0235 91.6347 63.1567 91.6514 63.2233C91.7181 63.3066 91.7348 63.4398 91.7682 63.4731L91.8183 63.5897H91.8016C91.8851 63.7396 91.9685 63.9061 92.0186 64.0726L92.052 64.0227C92.1522 64.389 92.2857 64.4389 92.3692 64.772C92.5027 64.9052 92.5695 65.0717 92.6195 65.205C92.6696 65.3548 92.7197 65.5047 92.8365 65.6379C92.8031 65.6046 92.8365 65.6712 92.8198 65.6879C92.9033 65.8378 92.9868 66.0209 93.0535 65.9709C93.1036 66.1042 93.0702 66.0875 93.0535 66.1375C93.0869 66.1042 93.137 66.2041 93.187 66.304L93.1537 66.2707L93.2872 66.5371L93.3206 66.4206C93.3706 66.5871 93.2705 66.5371 93.354 66.6537L93.4041 66.6037C93.4875 66.8202 93.4875 67.0034 93.5376 67.2365C93.621 67.4364 93.7212 67.6362 93.788 67.836C93.8214 67.9359 93.8547 68.0359 93.8881 68.1691C93.9215 68.3023 94.005 68.4688 94.0884 68.5687C94.2553 68.7685 94.4056 68.8518 94.489 69.0017C94.5892 69.1516 94.6392 69.368 94.7394 69.6178V69.7011C94.7394 69.7011 94.7728 69.7843 94.8229 69.8176C94.8896 69.8509 94.9397 69.8676 94.9397 69.9175C94.9731 69.9175 95.0065 69.9509 95.0399 69.9509C95.0399 69.9842 95.09 70.0175 95.0399 70.0175C95.1067 70.0675 95.1066 70.0508 95.1734 70.0675L95.2235 70.1674C95.4738 70.3839 95.7242 70.4005 95.9579 70.5837C96.2083 70.8501 96.7591 71.3164 97.1097 71.5495C97.3601 71.6994 97.5937 71.9492 97.8775 72.1323C98.0778 72.2655 98.2781 72.3821 98.4951 72.4487C98.5285 72.482 98.5619 72.5153 98.6119 72.5486C98.6954 72.6152 98.7622 72.6152 98.8457 72.5819C100.264 73.248 101.867 73.0982 103.62 71.6827C103.703 71.716 103.786 71.6827 103.887 71.5994C104.287 71.2164 104.671 70.8168 105.005 70.3338C105.572 69.7011 106.09 69.0183 106.591 68.2856C106.674 68.5854 106.774 68.8685 106.874 69.1682C106.874 69.1682 106.874 69.1849 106.874 69.2015C106.874 69.2182 106.874 69.2348 106.874 69.2515C106.874 69.4346 106.874 69.6178 106.975 69.7511C106.975 69.7511 106.975 69.7677 106.991 69.7677C107.025 69.9009 107.058 70.0341 107.108 70.1507C107.108 70.234 107.142 70.3672 107.175 70.4671C107.192 70.5171 107.225 70.5504 107.242 70.5837C107.325 70.8335 107.409 71.0833 107.509 71.3164C107.509 71.3663 107.492 71.4163 107.492 71.4496C107.475 71.9158 107.692 72.2489 107.876 72.5653C108.093 72.965 108.327 73.3313 108.56 73.681C109.028 74.3471 109.562 74.8966 110.129 75.3795C110.363 75.5793 110.63 75.7459 110.881 75.8958C111.031 76.0623 111.198 76.2121 111.381 76.1788C111.582 76.2787 111.799 76.3786 111.999 76.4786C113.635 77.561 115.488 78.1105 117.374 78.0772C118.459 78.0606 119.56 77.7775 120.645 77.2946C120.695 77.2946 120.729 77.2946 120.779 77.2946C120.929 77.2946 121.163 77.3279 121.396 77.2779C121.513 77.1946 121.68 77.2113 121.797 77.0947C121.797 77.0947 121.831 77.1114 121.847 77.128C121.881 77.0947 121.914 77.0614 121.947 77.0781C121.947 77.0781 122.047 77.0448 122.081 77.0281H122.148C122.148 77.0281 122.231 77.0114 122.281 76.9948C122.331 76.9948 122.381 76.9948 122.448 76.9782C122.498 76.9615 122.532 76.9282 122.582 76.9115C122.682 76.8782 122.749 76.8283 122.882 76.8116C123.116 76.5785 123.266 76.7117 123.45 76.4453C123.433 76.4786 123.45 76.4619 123.466 76.4786C123.516 76.4286 123.583 76.3787 123.617 76.3287C123.75 76.2787 123.867 76.2454 124 76.1788C124.051 76.1622 124.084 76.1289 124.134 76.1122C124.134 76.1122 124.151 76.1289 124.167 76.1455C124.201 76.1788 124.268 76.1955 124.318 76.1955C124.368 76.1955 124.401 76.1955 124.434 76.1955C124.468 76.1955 124.468 76.1955 124.468 76.1955C124.735 76.1455 124.852 75.9957 124.985 75.8624C125.052 75.7958 125.102 75.7126 125.169 75.6293C125.353 75.5461 125.486 75.4295 125.636 75.1631C125.67 75.1464 125.703 75.1297 125.736 75.0964C125.837 75.0465 125.953 74.9799 126.12 74.83C126.287 74.7134 126.471 74.5636 126.621 74.4137C126.688 74.2805 126.838 74.2139 126.905 74.0973H126.955C126.955 74.0973 127.005 74.014 127.038 73.9974C127.038 73.9974 127.122 73.9141 127.155 73.8808L127.205 73.8308C127.205 73.8308 127.356 73.6643 127.422 73.6144V73.5811C127.422 73.5811 127.422 73.5644 127.439 73.5478C127.439 73.5478 127.439 73.5478 127.456 73.5311C128.123 72.9982 128.758 72.3321 129.375 71.6494C130.343 70.5503 131.328 69.4513 132.263 68.2856C133.148 67.2032 134.016 66.0542 134.85 64.9052C135.017 64.7221 135.167 64.5388 135.334 64.3557C135.685 63.9394 136.119 63.5397 136.302 62.9569C136.319 62.9069 136.319 62.8403 136.319 62.7903C137.504 61.225 138.656 59.6098 139.791 57.9612C139.941 57.828 140.092 57.7114 140.258 57.6115C140.392 57.5948 140.542 57.4949 140.609 57.2618C140.659 57.0953 140.659 56.9288 140.609 56.7956C140.659 56.7456 140.709 56.7456 140.726 56.679C140.776 56.5791 140.826 56.7289 140.859 56.5791H140.909C140.909 56.5791 140.909 56.5124 140.943 56.4958C140.943 56.5291 140.993 56.4625 140.993 56.5124C141.093 56.4625 141.11 56.2793 141.243 56.2293C141.243 56.1461 141.293 56.1295 141.293 56.0628C141.293 56.0795 141.394 55.9463 141.36 56.0628V56.0961C141.46 56.0961 141.444 55.9463 141.51 55.8796C141.494 55.8796 141.477 55.9129 141.477 55.8796L141.527 55.8297V55.863L141.611 55.7797H141.577C141.577 55.7797 141.677 55.7797 141.677 55.6798C141.677 55.6299 141.61 55.6798 141.644 55.6132C141.694 55.5799 141.794 55.5299 141.861 55.4633C141.827 55.43 141.861 55.4134 141.861 55.3801V55.4134C141.911 55.2968 141.944 55.4633 141.994 55.3468V55.2802C141.994 55.147 142.044 55.3135 142.061 55.1469C142.044 55.1802 142.011 55.097 142.061 55.0637V55.097C142.061 55.097 142.078 55.047 142.095 55.047C142.095 55.0803 142.111 55.097 142.145 55.047V55.1137L142.161 54.9971C142.211 54.9971 142.245 54.8639 142.295 54.8972C142.295 54.8972 142.378 54.8139 142.378 54.7473C142.378 54.7973 142.428 54.7473 142.445 54.7973C142.445 54.7306 142.495 54.6307 142.529 54.6307C142.645 54.5475 142.645 54.3809 142.762 54.3143C142.729 54.281 142.762 54.2477 142.762 54.2144C142.812 54.1811 142.879 54.1478 142.946 54.0645C143.013 53.9979 143.079 53.9147 143.146 53.8481C143.146 53.7481 143.246 53.7648 143.263 53.6649H143.296C143.296 53.6649 143.313 53.6316 143.346 53.6316C143.346 53.6316 143.397 53.5983 143.397 53.565H143.43C143.43 53.565 143.497 53.4817 143.547 53.4651V53.4151C143.547 53.4151 143.614 53.2819 143.714 53.2652C143.764 53.082 143.881 53.2153 143.931 53.0154C143.931 53.0487 143.931 53.0155 143.947 53.0488C143.981 52.9988 144.031 52.9322 143.981 52.8489C144.014 52.8156 144.014 52.8489 144.031 52.8656C144.014 52.8323 144.031 52.7823 144.048 52.7657V52.799L144.098 52.7157L144.048 52.6658C144.048 52.6658 144.098 52.7324 144.114 52.6658L144.081 52.6158C144.081 52.6158 144.198 52.6158 144.265 52.6158C144.448 52.416 144.565 52.0663 144.782 51.9663L144.815 51.9997C144.815 51.9997 144.815 51.8665 144.849 51.8998V51.8498C144.849 51.8498 144.882 51.8498 144.882 51.8831C144.899 51.8664 144.882 51.8498 144.899 51.8165H144.932C145.016 51.7832 145.032 51.6333 145.116 51.5667C145.249 51.55 145.383 51.2836 145.45 51.1337C145.55 50.8839 145.817 50.9672 145.917 50.7174V50.6841L146.051 50.5676C146.051 50.5676 146.217 50.4177 146.284 50.2512C146.334 50.1679 146.334 50.0846 146.284 50.0014L146.535 49.8682C146.535 49.8682 146.668 49.8016 146.818 49.7016C146.818 49.7016 146.852 49.7016 146.868 49.7016C146.952 49.735 147.002 49.7849 147.052 49.8182C147.102 49.8515 147.152 49.8848 147.219 49.9015C147.269 49.9348 147.353 49.9681 147.419 50.018C147.486 49.9847 147.503 50.1013 147.57 50.0847V50.1346C147.57 50.1346 147.603 50.1346 147.603 50.1679C147.603 50.1679 147.653 50.2179 147.67 50.2179L147.703 50.2512C147.703 50.2512 147.803 50.3344 147.837 50.3844V50.3344C147.903 50.4677 147.987 50.401 148.02 50.5176C148.17 50.4843 148.104 50.7341 148.254 50.7008C148.237 50.7008 148.254 50.7341 148.254 50.7341C148.304 50.7507 148.337 50.8007 148.387 50.7008C148.421 50.7341 148.387 50.7507 148.387 50.784C148.404 50.7507 148.438 50.7507 148.471 50.784H148.454L148.521 50.834L148.554 50.7508C148.554 50.7508 148.504 50.8507 148.554 50.8673L148.588 50.8007C148.588 50.8007 148.588 50.9839 148.604 51.0838C148.671 51.167 148.738 51.2337 148.821 51.3169C148.838 51.3669 148.872 51.4335 148.888 51.4835C148.872 51.6 148.838 51.6999 148.888 51.8831C148.888 52.033 148.922 52.1662 148.955 52.2827C149.022 52.316 148.972 52.4493 149.038 52.4826L149.005 52.5326C149.005 52.5326 149.038 52.5658 149.022 52.5991C149.022 52.5991 149.038 52.6658 149.055 52.6824V52.7324C149.055 52.7324 149.105 52.8323 149.088 52.8989C149.088 52.9322 149.072 52.9655 149.055 52.9988C148.922 53.7648 149.089 54.4476 149.122 55.1636C149.155 55.9796 149.139 56.8288 149.155 57.6448C149.155 58.1111 149.189 58.5773 149.205 59.027C149.155 59.3267 149.172 59.4932 149.189 59.6598C149.189 59.743 149.205 59.8096 149.205 59.8929C149.205 59.9262 149.205 59.9928 149.205 60.0594C149.205 60.126 149.205 60.1926 149.205 60.2759C149.122 60.8088 149.055 60.9753 149.072 61.5248C149.072 61.6081 149.072 61.6913 149.072 61.7579C149.072 61.9411 149.072 62.1076 149.105 62.2408C149.105 62.2408 149.105 62.2409 149.105 62.2575C149.172 62.3574 149.105 62.5739 149.172 62.6904L149.139 62.7571C149.139 62.7571 149.172 62.8403 149.139 62.9069C149.139 62.9069 149.139 63.0568 149.172 63.0735V63.1567C149.205 63.2566 149.205 63.3899 149.205 63.4898H149.239C149.205 63.7229 149.289 63.7729 149.255 64.006C149.372 64.2391 149.222 64.4556 149.356 64.6887C149.356 64.6554 149.339 64.7054 149.322 64.722C149.339 64.8386 149.372 64.9718 149.439 64.9385C149.439 65.0218 149.439 65.0218 149.406 65.0551C149.439 65.0384 149.456 65.1051 149.472 65.1717V65.1383V65.2549C149.472 65.3215 149.472 65.3881 149.472 65.4547C149.472 65.5713 149.489 65.6712 149.506 65.7878C149.506 65.7878 149.506 65.8211 149.506 65.8378C149.506 65.8711 149.506 65.8877 149.506 65.921C149.589 66.8202 149.689 67.7195 149.84 68.5854C149.84 69.418 149.873 70.2673 149.906 71.0999C150.04 74.7967 150.29 78.8099 151.559 81.824C151.726 82.2236 151.909 82.5733 152.11 82.8897C152.11 82.973 152.11 83.0562 152.126 83.1395C152.193 83.3393 152.277 83.5225 152.377 83.689C152.444 83.9222 152.527 84.1553 152.661 84.3052C152.727 84.3884 152.828 84.4217 152.928 84.3884C153.278 84.7215 153.696 84.938 154.079 85.0212C154.079 85.0212 154.096 85.0212 154.113 85.0212C154.113 85.0212 154.113 85.0212 154.13 85.0212C154.13 85.0212 154.13 85.0212 154.13 85.0546C154.163 85.0546 154.213 85.0545 154.263 85.0379C154.397 85.0379 154.547 85.0379 154.68 85.0379C154.68 85.0379 154.697 85.0379 154.714 85.0379C154.714 85.0712 154.714 85.1045 154.747 85.0379V85.1045C154.747 85.1045 154.78 85.0212 154.78 85.0546C154.78 85.0879 154.78 85.0878 154.78 85.1211C154.814 85.1877 154.864 85.0379 154.897 85.1378C154.897 85.1045 154.914 85.0878 154.931 85.0878C154.931 85.0878 154.964 85.0879 154.981 85.1045C154.981 85.1045 154.981 85.1045 154.981 85.1211V85.1711C154.981 85.2543 155.031 85.1211 155.048 85.1378C155.048 85.1378 155.048 85.1378 155.064 85.1378L155.098 85.1711V85.1545C155.098 85.1878 155.098 85.2211 155.131 85.1545C155.164 85.1545 155.198 85.1544 155.231 85.1711H155.265C155.265 85.2044 155.265 85.2211 155.281 85.2044V85.1711C155.281 85.1711 155.431 85.1711 155.515 85.1711C155.582 85.1711 155.648 85.1544 155.715 85.1378C155.765 85.1378 155.815 85.1378 155.865 85.1378C155.865 85.1378 155.899 85.1378 155.916 85.1378C156.016 85.1544 156.116 85.1711 156.233 85.1711C156.233 85.1711 156.333 85.1711 156.483 85.1045C156.633 85.0546 156.817 84.888 156.917 84.7048C157.017 84.5216 157.017 84.3718 156.967 84.3718L156.583 84.6216ZM35.0656 7.80439C35.0656 7.80439 35.0489 7.83771 35.0322 7.87102C34.9654 7.95428 34.932 7.93759 34.8986 7.93759C34.9487 7.88763 35.0155 7.85437 35.0656 7.82106V7.80439ZM35.1824 7.72115C35.1824 7.72115 35.3159 7.62124 35.3827 7.57129C35.3159 7.65455 35.2492 7.68785 35.1824 7.72115ZM46.5329 1.82622C46.3827 1.89282 46.2325 1.97609 46.0656 2.0427C45.882 2.12596 45.715 2.12593 45.5481 2.10928C45.8653 2.00936 46.1991 1.90946 46.5163 1.80955L46.5329 1.82622ZM35.8167 7.52128C35.7666 7.6545 35.8334 7.35478 35.7499 7.488C35.7165 7.40473 35.7833 7.3881 35.7332 7.3548C35.6498 7.47136 35.5496 7.40476 35.4328 7.57129V7.53795C35.6164 7.38808 35.8167 7.25484 36.0337 7.10497C35.9669 7.2715 35.9168 7.50463 35.8167 7.52128ZM60.9047 12.5503C60.9715 12.6835 61.0884 12.7668 61.2386 12.6669C61.8061 12.3172 62.3236 12.1007 62.9078 12.0341C63.1248 12.0008 63.3585 11.9508 63.5755 11.8842C63.6088 12.0674 63.6422 12.2672 63.6756 12.4504C63.6756 12.4671 63.6756 12.5003 63.6756 12.517C63.6756 12.5336 63.6756 12.5669 63.6756 12.5836C63.7257 12.85 63.7925 13.0998 63.8592 13.3663C63.926 14.1489 63.9427 14.9483 63.926 15.7809C63.8092 15.8974 63.709 16.2138 63.709 16.2138C63.492 16.8632 63.6422 17.1963 63.5922 17.9124C63.4753 18.5452 63.3418 18.695 63.275 19.3278C63.2082 19.6109 63.1582 19.9606 63.0914 20.277C63.0413 20.4934 62.9912 20.71 62.9412 20.9431C62.8076 21.6092 62.6741 22.2586 62.5739 22.9247C62.4571 23.3243 62.3236 23.7406 62.2401 24.1736C62.1066 24.8563 61.9396 25.5391 61.7894 26.2385C61.706 26.6049 61.6225 26.9546 61.5223 27.3209C61.489 27.3209 61.489 27.3542 61.5057 27.3875C61.4723 27.5374 61.4222 27.6873 61.3721 27.8538H61.3554C61.2052 28.1369 61.2052 28.4366 61.0717 28.7364C60.9548 28.8862 60.838 29.1693 60.7545 29.4191C60.6711 29.6689 60.5876 29.952 60.5208 30.1685C60.4374 30.4848 60.2537 30.718 60.0534 31.0177C59.8531 31.3008 59.6862 31.6172 59.6361 31.9336C59.6194 31.9336 59.6361 32.0169 59.6361 32.0169C59.5861 32.1501 59.536 32.2667 59.4692 32.3832C59.4359 32.4165 59.3858 32.4665 59.3524 32.5164C59.2856 32.6164 59.2355 32.6996 59.2355 32.6996C58.8182 33.3491 58.8516 33.7987 58.6012 34.5147C58.5679 34.598 58.5178 34.6812 58.4844 34.7645C58.2173 35.2641 58.0504 35.3973 57.7666 36.0301C57.5997 36.3465 57.4328 36.6962 57.2659 37.0292C57.2659 37.2457 57.0489 37.4455 56.9988 37.6787L56.9154 37.712C56.9154 37.712 56.882 37.8785 56.8152 37.9118C56.7985 38.0117 56.715 38.095 56.715 38.1616L56.665 38.2615V38.2282C56.5982 38.428 56.5148 38.5946 56.4146 38.7278L56.4647 38.7611C56.2477 39.0275 56.2811 39.2273 56.0641 39.4605C55.9973 39.9267 55.6801 39.9434 55.5967 40.4263C55.5967 40.3597 55.5633 40.4263 55.5466 40.4096C55.4798 40.5928 55.3797 40.7927 55.4799 40.8759C55.4131 41.0092 55.3964 40.9592 55.3463 40.9425C55.3964 40.9758 55.3463 41.109 55.3129 41.209V41.1423L55.1961 41.4421H55.3129C55.2128 41.592 55.1961 41.4088 55.146 41.5753L55.2128 41.6253C55.0959 41.8251 54.9457 41.875 54.7955 42.0249C54.3949 42.8242 54.1111 43.8234 53.5603 44.3896H53.4935C53.4267 44.3063 53.4601 44.6726 53.3934 44.6393V44.7559C53.3934 44.7559 53.3099 44.8059 53.3099 44.7559C53.2598 44.8225 53.2765 44.8392 53.2598 44.9224L53.1763 44.9557C52.9594 45.2222 52.8759 45.5719 52.6589 45.8883C52.3418 46.188 51.9745 47.0706 51.8076 47.5868C51.7575 47.77 51.6741 47.9698 51.5906 48.1363C51.5072 48.2862 51.4237 48.4194 51.3069 48.5526C51.1066 48.8024 50.8729 49.0855 50.7393 49.4852C50.7226 49.4852 50.7059 49.5684 50.7226 49.5851C50.6058 49.7849 50.5056 49.9681 50.3888 50.1679C50.3888 50.1679 50.2886 50.3511 50.1718 50.5842C50.0549 50.8174 49.9214 51.1004 49.838 51.3502C49.1035 52.2827 48.3357 53.1653 47.5345 53.9813C46.5663 54.9804 45.498 55.9296 44.3964 56.629C44.2628 56.6124 44.1293 56.629 44.0125 56.629C43.8289 56.6457 43.6452 56.7123 43.4616 56.679C43.1779 56.6457 42.9775 56.7456 42.6938 56.8621C42.5769 56.9121 42.4434 56.8955 42.3266 56.9454C42.193 56.9954 42.0762 57.1119 41.926 57.1785C41.6923 57.2784 41.4252 57.2951 41.1748 57.3617C40.624 57.3118 40.1065 57.1119 39.5557 57.2618C38.7878 56.8622 38.1035 56.1794 37.586 55.2968C37.4024 54.7806 37.3524 54.1811 37.3023 53.5983C37.2522 52.9488 37.0853 52.3494 37.0352 51.6833C37.0018 50.9506 36.9684 50.2512 37.0352 49.5018C37.102 48.7525 37.152 47.9864 37.1854 47.2371C37.2188 46.5044 37.2021 45.7884 37.2021 45.0723H37.2522C37.2522 45.0723 37.1687 44.989 37.2188 44.9391C37.2689 44.9391 37.2689 44.8725 37.3023 44.9224C37.4024 44.8059 37.2689 44.6227 37.4191 44.4728C37.3356 44.4228 37.4191 44.3396 37.3524 44.2896C37.3857 44.2896 37.4024 44.1065 37.4525 44.223V44.2397H37.5026C37.6194 44.1897 37.5026 44.0732 37.5193 43.9732C37.5026 44.0065 37.4859 44.0398 37.4692 44.0065L37.5026 43.9233L37.536 43.9566L37.586 43.8234H37.536C37.536 43.8234 37.6695 43.7734 37.6194 43.6735C37.586 43.6236 37.536 43.7234 37.536 43.6402C37.586 43.5569 37.6695 43.4403 37.7196 43.3238C37.6528 43.3238 37.6695 43.2905 37.6695 43.2572H37.7196C37.6695 43.124 37.8364 43.2572 37.8197 43.1073L37.753 43.074C37.6695 42.9408 37.8698 43.0407 37.753 42.8909C37.753 42.9075 37.7196 42.9075 37.7029 42.8909C37.7029 42.8909 37.7029 42.8576 37.7029 42.8409C37.7029 42.8242 37.7029 42.8076 37.7029 42.7909C37.7196 42.7909 37.753 42.7909 37.753 42.7576L37.803 42.8076L37.7363 42.691C37.7363 42.691 37.7696 42.5078 37.8364 42.4912C37.8364 42.4912 37.9032 42.3413 37.8364 42.2913C37.8698 42.3246 37.9199 42.2414 37.9699 42.2913C37.9199 42.2414 37.9032 42.1082 37.9699 42.0749C38.0701 41.925 37.9533 41.7751 38.0534 41.6253H38.0367C40.1232 34.3648 43.712 27.6373 48.0185 22.4085C48.0686 22.4085 48.1354 22.3918 48.1855 22.3585C48.2689 22.3252 48.319 22.2753 48.319 22.2753C48.7697 21.9755 48.753 21.5925 48.97 21.3594C49.1035 21.2928 49.2204 21.2761 49.3706 21.2262C49.5041 21.1596 49.6877 21.0929 49.9381 20.7432C50.1551 20.4601 50.2552 20.227 50.3053 20.1438C50.3053 20.0772 50.3053 20.0438 50.3387 20.0272C50.3387 20.0272 50.3721 19.9939 50.4055 19.9772C50.4389 19.9606 50.4556 19.9273 50.4723 19.8773L50.5223 19.9106C50.5223 19.9106 50.5724 19.8107 50.6225 19.8274C50.6225 19.8274 50.7226 19.7608 50.7393 19.7108L50.7894 19.6775V19.7108C50.8562 19.6109 50.9563 19.5276 51.0398 19.4777L51.0064 19.4111C51.2067 19.3611 51.2234 19.1446 51.407 19.1113C51.5238 18.7616 51.7575 18.9948 51.8577 18.6284C51.8577 18.6784 51.8744 18.6617 51.8911 18.6784C51.9745 18.5784 52.058 18.4785 51.9912 18.3287C52.058 18.2787 52.058 18.3287 52.0914 18.3786C52.058 18.312 52.0914 18.2454 52.1415 18.1954V18.2454L52.2583 18.1122L52.2082 18.0289C52.2082 18.0289 52.2082 18.0289 52.2249 18.0123C52.275 18.0289 52.275 18.1288 52.3251 18.0622L52.2917 17.9623C52.3918 17.9124 52.492 18.0123 52.6255 18.0123C52.8425 17.8624 53.0595 17.6293 53.2598 17.3795C53.4601 17.1463 53.6437 16.9132 53.8607 16.8133L53.9108 16.8633C53.9609 16.9632 53.9442 16.6135 53.9943 16.6967V16.6135C53.9943 16.6135 54.061 16.6135 54.061 16.6634C54.0944 16.6301 54.0944 16.6135 54.1111 16.5469L54.1779 16.5802C54.3448 16.4969 54.4283 16.2471 54.5952 16.1472C54.8122 16.1472 55.146 15.7975 55.363 15.5477C55.5466 15.4311 55.7135 15.2979 55.8972 15.1814C55.9138 15.1814 55.9305 15.1814 55.9472 15.1647C56.1308 15.0981 56.2978 15.0315 56.4146 14.8483C57.4495 14.1989 58.4844 13.6327 59.536 13.1498C59.9867 12.9499 60.4374 12.7501 60.888 12.5836L60.9047 12.5503ZM43.061 28.6531C43.2446 28.4033 43.3948 28.1036 43.5451 27.8205C43.7621 27.4541 43.9958 27.0878 44.2294 26.7547C43.7287 27.5541 43.2279 28.37 42.7606 29.2026C42.7939 29.1027 42.8106 29.0028 42.8607 28.9029C42.9108 28.803 42.9942 28.7363 43.061 28.6531ZM40.891 32.8328C40.891 32.8328 40.9411 32.7496 40.9578 32.7163C40.5238 33.6321 40.1065 34.5647 39.7226 35.4972C39.8061 35.2474 39.9062 34.9976 40.0064 34.7645C40.2734 34.0984 40.5739 33.449 40.891 32.8328ZM39.2052 36.8128C38.9381 37.5288 38.671 38.2448 38.4206 38.9775C38.4206 38.9442 38.4206 38.9276 38.4206 38.8943C38.4206 38.861 38.4373 38.8277 38.454 38.7944C38.6877 38.1283 38.9047 37.4788 39.2052 36.8461V36.8128ZM69.5345 14.1656C69.5345 14.1656 69.5512 14.1822 69.5679 14.1989C69.5512 14.1989 69.5345 14.1989 69.5178 14.1822L69.5345 14.1656ZM69.6847 14.3321C69.6847 14.3321 69.7014 14.3654 69.7181 14.3821C69.7181 14.3821 69.7014 14.3821 69.6847 14.4154C69.668 14.3987 69.6847 14.3654 69.6847 14.3487V14.3321ZM69.7849 14.4653C69.7849 14.4653 69.8016 14.4986 69.8183 14.5153C69.8016 14.5153 69.7849 14.482 69.7849 14.4653ZM143.397 52.4826C143.397 52.4826 143.397 52.4493 143.413 52.4493C143.413 52.4493 143.413 52.4493 143.43 52.4493C143.43 52.5159 143.397 52.4493 143.38 52.4826H143.397ZM119.694 30.718C119.694 30.718 119.661 30.7846 119.661 30.7513C119.661 30.6847 119.677 30.6348 119.694 30.5681C119.694 30.6014 119.694 30.6347 119.694 30.6347V30.718ZM106.223 50.3677C106.223 50.3677 106.224 50.3344 106.24 50.3344C106.541 49.685 106.591 48.869 106.724 48.1696C106.908 47.1205 107.108 46.0715 107.342 45.039C107.475 44.4395 107.609 43.8234 107.742 43.2239C107.876 42.8742 108.01 42.5078 108.143 42.1415C108.544 40.9425 108.994 39.7602 109.345 38.528C109.695 37.3123 110.046 36.08 110.313 34.8478C110.43 34.3482 110.513 33.8486 110.597 33.3324C110.63 33.1326 110.664 32.9328 110.664 32.7496C110.697 32.6996 110.714 32.6497 110.747 32.5997C110.714 32.5997 110.73 32.5664 110.73 32.5164H110.764C110.764 32.3832 110.847 32.5164 110.864 32.3666L110.83 32.3166C110.83 32.1667 110.914 32.2833 110.881 32.1168C110.881 32.1668 110.814 32.1168 110.847 32.0502V32.0835C110.847 32.0835 110.864 32.0335 110.881 32.0002C110.881 32.0335 110.914 32.0335 110.931 31.9835V32.0335V31.917C110.981 31.8504 110.981 31.7171 111.031 31.7005C111.031 31.7005 111.098 31.5506 111.081 31.484C111.081 31.534 111.131 31.4507 111.164 31.484C111.164 31.434 111.164 31.2841 111.214 31.2508C111.315 31.0843 111.264 30.9178 111.365 30.7846C111.365 30.7846 111.365 30.7679 111.365 30.7513C111.431 30.5848 111.498 30.4349 111.565 30.2684C111.565 30.1185 111.698 29.9187 111.715 29.7521L111.765 29.7189C111.765 29.7189 111.782 29.6023 111.815 29.569C111.815 29.569 111.865 29.4191 111.865 29.3692L111.899 29.2859C111.932 29.1693 111.982 29.0361 112.032 28.9362H111.999C112.132 28.7031 112.099 28.5699 112.233 28.3867C112.266 28.0703 112.466 27.987 112.5 27.654C112.5 27.7039 112.516 27.654 112.533 27.654C112.583 27.5208 112.633 27.3875 112.566 27.3376C112.566 27.3209 112.566 27.3043 112.583 27.2876C112.6 27.2543 112.617 27.2876 112.633 27.2876C112.617 27.2876 112.633 27.221 112.633 27.1711C112.633 27.1711 112.633 27.1378 112.65 27.1211L112.683 27.0545C112.75 26.9046 112.817 26.7548 112.884 26.6049C112.917 26.5716 112.95 26.5383 113 26.4883C113.201 26.072 113.384 25.5724 113.568 25.1228C113.651 24.9396 113.735 24.7731 113.818 24.5899H113.852C113.852 24.5899 113.868 24.5233 113.868 24.4567C113.952 24.2735 114.052 24.0904 114.135 23.9072C114.269 23.6408 114.403 23.3577 114.553 23.0413C114.67 22.8248 114.803 22.6083 114.92 22.4085C115.087 22.1254 115.271 21.859 115.454 21.5925C115.805 21.1429 116.105 20.5601 116.472 20.2936L116.506 20.3269C116.506 20.3269 116.556 20.2437 116.573 20.1937C116.739 20.0938 116.89 20.0938 117.057 20.0439C117.207 20.0106 117.357 19.9273 117.507 19.894C117.875 19.8107 118.208 19.8607 118.542 19.9273V19.9606C118.542 20.0272 118.542 20.0771 118.542 20.0771C118.542 20.2603 118.576 20.3935 118.626 20.4935C118.659 20.7266 118.709 20.9597 118.759 21.1929C118.893 21.7591 118.976 22.3252 119.026 22.9413C119.06 23.2577 119.076 23.5908 119.11 23.9072C119.11 24.6233 119.11 25.356 119.06 26.0887C119.026 26.7714 118.976 27.4708 118.909 28.1535C118.809 28.5698 118.726 29.0028 118.626 29.4191C118.626 29.4191 118.626 29.4358 118.626 29.4524C118.626 29.4691 118.626 29.4857 118.626 29.5024C118.509 30.0352 118.392 30.5681 118.275 31.101C118.025 31.9836 117.791 32.8828 117.591 33.7654C117.307 35.0143 117.023 36.2632 116.739 37.5288C116.606 38.1283 116.472 38.7278 116.372 39.3439C116.372 39.3772 116.372 39.4105 116.372 39.4438C116.139 40.1932 115.888 40.9425 115.621 41.6919C115.521 42.0083 115.404 42.3247 115.304 42.6411C115.237 42.7909 115.17 42.9408 115.087 43.1906C115.003 43.4237 114.92 43.6735 114.853 43.89C114.853 43.9067 114.853 43.9399 114.853 43.9566C114.853 43.9566 114.853 43.9899 114.853 44.0065C114.82 44.1064 114.786 44.2064 114.736 44.3063H114.703C114.703 44.3063 114.686 44.4229 114.653 44.4562C114.653 44.4562 114.603 44.5894 114.603 44.6227L114.569 44.6893C114.536 44.7892 114.486 44.9058 114.436 44.989H114.469C114.336 45.1888 114.369 45.3221 114.236 45.4886C114.219 45.7884 114.002 45.8716 114.002 46.1714C114.002 46.1381 113.985 46.1714 113.969 46.1714C113.935 46.3046 113.902 46.4211 113.969 46.4711C113.935 46.5544 113.918 46.5377 113.885 46.5377C113.918 46.5377 113.885 46.6376 113.885 46.7043V46.6709L113.818 46.8707H113.885C113.835 46.954 113.802 46.8541 113.785 46.954H113.835C113.768 47.1205 113.685 47.1705 113.601 47.287C113.485 47.5701 113.401 47.8865 113.318 48.1863C113.234 48.5027 113.151 48.8191 113.034 49.0855H112.984C112.984 49.0855 113.017 49.2853 112.967 49.2853V49.352C112.967 49.352 112.934 49.4019 112.934 49.352C112.917 49.4186 112.934 49.4185 112.934 49.4685L112.884 49.5184C112.8 49.7516 112.817 49.9681 112.733 50.2012C112.6 50.4676 112.483 51.0338 112.433 51.3835C112.4 51.6333 112.316 51.8831 112.216 52.1329C112.166 52.2827 112.116 52.4326 112.082 52.5658C112.032 52.7157 111.966 52.849 111.915 52.9988C111.598 53.7648 111.298 54.5142 111.064 55.3301C110.814 56.1794 110.48 56.9287 110.163 57.7447C109.946 58.2776 109.745 58.8271 109.562 59.3766C109.495 59.4932 109.428 59.6264 109.345 59.8429C109.245 60.0594 109.145 60.2925 109.061 60.509C109.061 60.6422 108.928 60.7921 108.911 60.942H108.861C108.861 60.942 108.844 61.0752 108.811 61.1085C108.811 61.1085 108.761 61.2417 108.744 61.275L108.711 61.3416C108.677 61.4415 108.627 61.5581 108.577 61.6413H108.61C108.477 61.8245 108.494 61.9578 108.36 62.1077C108.327 62.4074 108.126 62.4074 108.076 62.7071C108.076 62.6738 108.06 62.7071 108.043 62.7071C107.993 62.8237 107.943 62.9402 107.993 63.0068C107.943 63.0901 107.943 63.0568 107.909 63.0402C107.926 63.0568 107.909 63.14 107.876 63.2067V63.1734L107.793 63.3566H107.859C107.793 63.4565 107.793 63.3399 107.759 63.4398L107.793 63.4731C107.709 63.5897 107.609 63.6063 107.525 63.7063C107.225 64.2058 107.025 64.8553 106.691 65.2716H106.657C106.657 65.2716 106.657 65.4548 106.591 65.4381V65.5214H106.557C106.524 65.4547 106.457 65.4214 106.407 65.4214C106.407 65.4214 106.407 65.4214 106.407 65.4048H106.457L106.39 65.3715C106.407 65.2882 106.357 65.2216 106.39 65.1717C106.39 65.1717 106.39 65.0384 106.34 65.0384C106.374 65.0384 106.374 64.9718 106.407 64.9718C106.374 64.9718 106.324 64.8719 106.357 64.8219C106.357 64.6554 106.274 64.6055 106.29 64.4556C106.257 64.4889 106.257 64.4056 106.223 64.4556C106.157 64.3557 106.274 64.1392 106.123 64.1892C106.107 64.1392 106.14 64.0892 106.14 64.0559C106.107 63.956 106.09 63.9227 106.073 63.8395C106.057 63.8061 105.99 63.8395 105.973 63.7562C106.007 63.7562 105.99 63.7396 105.973 63.7063C105.973 63.7063 105.99 63.7062 106.006 63.6729C106.006 63.6729 106.007 63.6729 105.99 63.6729C105.973 63.6396 105.956 63.6563 105.973 63.6729C105.973 63.6729 105.973 63.6729 105.973 63.6896C105.99 63.623 105.94 63.5564 105.973 63.5231C105.94 63.4398 105.89 63.3732 105.856 63.3232C105.856 63.2899 105.856 63.2566 105.856 63.2233C105.856 63.2233 105.873 63.2233 105.89 63.24L105.856 63.1734C105.856 63.1734 105.89 63.2067 105.906 63.2233C105.923 63.1401 105.873 63.1068 105.84 63.0402C105.439 59.0103 105.673 54.6141 106.207 50.4177L106.223 50.3677ZM113.718 48.7525C113.718 48.7525 113.752 48.5859 113.718 48.536C113.735 48.536 113.785 48.3195 113.802 48.4694V48.5027V48.536C113.768 48.7358 113.701 48.919 113.635 49.1021C113.635 49.0022 113.668 48.8857 113.735 48.7691L113.718 48.7525ZM113.868 48.153V48.1863C113.868 48.2029 113.852 48.2196 113.835 48.1863V48.1363L113.868 48.153ZM113.902 48.2362C113.902 48.2362 113.885 48.2695 113.885 48.2862C113.885 48.2529 113.885 48.2196 113.885 48.2029V48.2362H113.902ZM113.501 49.3353C113.501 49.3353 113.501 49.3353 113.501 49.352C113.501 49.352 113.501 49.3519 113.501 49.3353ZM119.327 33.2325C119.327 33.2325 119.327 33.2658 119.327 33.2824C119.327 33.2824 119.327 33.2491 119.327 33.2325ZM119.51 31.8337C119.51 31.8337 119.51 31.7838 119.51 31.7671H119.477C119.477 31.7671 119.477 31.7504 119.477 31.7338C119.477 31.7005 119.477 31.6505 119.494 31.6172C119.494 31.6172 119.494 31.6006 119.494 31.5839C119.494 31.534 119.51 31.484 119.527 31.434C119.527 31.3508 119.56 31.2675 119.577 31.1843C119.56 31.3841 119.56 31.5839 119.51 31.8004C119.51 31.8171 119.51 31.8504 119.494 31.867L119.51 31.8337ZM119.644 30.9178C119.644 30.9178 119.661 30.8179 119.677 30.768C119.677 30.8013 119.677 30.8179 119.677 30.8512L119.644 30.9178ZM119.744 30.3683C119.794 30.1018 119.844 29.8188 119.894 29.5523C119.878 29.8354 119.827 30.1185 119.744 30.3683ZM110.413 59.0602C110.413 59.0602 110.497 59.0935 110.53 59.0935C110.246 59.7763 109.946 60.459 109.645 61.1418C109.929 60.459 110.163 59.7596 110.413 59.0602ZM147.286 48.919C147.286 48.919 147.152 48.919 147.085 48.919C147.052 48.919 147.035 48.919 147.002 48.919C147.069 48.9023 147.136 48.8857 147.202 48.869C147.236 48.869 147.252 48.9023 147.286 48.919ZM135.067 62.9236C135.067 62.9236 135.051 62.9736 135.034 62.9902C135.017 62.9902 135 63.0235 134.984 63.0402C135 62.9902 135.034 62.9569 135.067 62.9236ZM114.786 76.4786C114.686 76.4786 114.586 76.4786 114.486 76.4786C114.386 76.4119 114.286 76.362 114.202 76.2954C114.252 76.2954 114.319 76.3287 114.369 76.3454C114.503 76.3787 114.653 76.4286 114.786 76.4786ZM90.7166 47.9532C90.7166 47.9532 90.7166 47.8866 90.7166 47.8366C90.7166 47.8366 90.7166 47.9032 90.7166 47.9532ZM81.3691 36.896C81.3691 36.896 81.3858 36.8627 81.4025 36.8461C81.4025 36.8461 81.3858 36.8793 81.3691 36.8793V36.896ZM82.4708 35.6471C82.4541 35.747 82.4207 35.7304 82.3706 35.8136C82.3373 35.9135 82.2371 35.9968 82.2037 36.0634V36.0301L82.0869 36.1466L82.1202 36.1133C82.1536 36.2133 82.0201 36.1467 81.97 36.2799C81.9033 36.3465 81.92 36.6129 81.8198 36.6462C81.8198 36.7295 81.8198 36.5463 81.7864 36.6462C81.7697 36.5963 81.7864 36.5962 81.7697 36.5629C81.7364 36.6295 81.6696 36.5963 81.6195 36.6962V36.6628C81.5694 36.7628 81.5027 36.7795 81.4526 36.8128C81.5193 36.7128 81.5861 36.6296 81.6529 36.5463C81.9366 36.2299 82.2204 35.8969 82.5209 35.5805C82.5042 35.6138 82.4875 35.6471 82.4708 35.6804V35.6471ZM94.923 69.4347C94.923 69.4347 94.8729 69.3348 94.923 69.3348C94.923 69.3348 94.9564 69.3348 94.9731 69.3348C94.9731 69.3514 94.9564 69.3681 94.9397 69.3847C94.9397 69.418 94.9731 69.4346 94.9898 69.4679C94.9731 69.4679 94.9397 69.5013 94.923 69.4347ZM116.272 77.5277C116.406 77.511 116.556 77.4777 116.673 77.4444C116.689 77.4444 116.706 77.4444 116.723 77.4444C116.956 77.4611 117.173 77.4944 117.407 77.5443C117.023 77.5776 116.639 77.5776 116.255 77.5443L116.272 77.5277ZM143.447 52.5991V52.5658C143.447 52.5658 143.447 52.5991 143.413 52.5991C143.413 52.5658 143.397 52.5492 143.38 52.5658V52.5159V52.6158C143.38 52.6158 143.38 52.6158 143.363 52.6158C143.363 52.5992 143.363 52.5658 143.363 52.5492C143.346 52.5825 143.33 52.5492 143.33 52.5326C143.33 52.4993 143.38 52.5159 143.38 52.4826L143.413 52.5159C143.413 52.5159 143.413 52.4326 143.413 52.3993C143.413 52.416 143.413 52.4493 143.413 52.4659C143.413 52.4659 143.413 52.4826 143.413 52.5159C143.413 52.4826 143.463 52.5825 143.43 52.5991H143.447ZM144.465 51.4002C144.465 51.4002 144.482 51.3669 144.498 51.3502C144.498 51.3669 144.482 51.3835 144.465 51.4002ZM144.966 50.8507C144.966 50.9339 144.882 50.9506 144.865 51.0005V50.9672L144.799 51.0338H144.832C144.832 51.0338 144.765 51.0172 144.749 51.1171C144.699 51.1504 144.749 51.3835 144.699 51.3835C144.699 51.4502 144.699 51.3003 144.665 51.3669C144.648 51.3169 144.665 51.3169 144.648 51.3003C144.632 51.3502 144.582 51.3003 144.565 51.3835V51.3502C144.665 51.1837 144.799 51.0172 144.915 50.8507C144.966 50.7841 145.016 50.7341 145.049 50.6675C145.049 50.6675 145.066 50.6675 145.082 50.6675C145.066 50.7008 145.049 50.7341 145.049 50.7674C145.049 50.7674 145.016 50.8007 144.999 50.8507H144.966Z" fill="#ac8856"/>
</svg>