<svg xmlns="http://www.w3.org/2000/svg" version="1.1" xmlns:xlink="http://www.w3.org/1999/xlink" width="512" height="512" x="0" y="0" viewBox="0 0 512 512" style="enable-background:new 0 0 512 512" xml:space="preserve"><g><path d="m480.724 321.456-32.357-32.357v-73.474l-68.121-65.665 44.459-44.46-46-46 23.287-23.287V0H300.779l-47.787 47.787v170.427l55 55v18.674l-43 44V359h-43v51.213L252.779 441l-48.787 48.787V512h92.213l21-21h96.074l67.73-68.879-.285-100.665zM400.704 461h-95.926l-21 21h-29.574l41-41-43.212-43.213V389h43v-40.888l43-44v-43.326l-55-55V60.213L313.205 30h52.574l-29.5 29.5 46 46-44.854 44.853 80.941 78.022v73.151l32.393 32.393.215 75.959L400.704 461zM182.204 170h-52.426l-34 34H52.992v73.786l-22 22v53.427l41.5 41.5L93.204 374h50l60.787-60.786v-56l19-19v-27.427L182.204 170zm10.788 55.787-19 19v56L130.779 344h-50l-8.287 8.287-11.5-11.5v-28.574l22-22V234h25.213l34-34h27.574l23.213 23.214v2.573z" fill="#ac8856" opacity="1" data-original="#000000"></path></g></svg>